<?xml version="1.0" encoding="UTF-8" standalone="no"?>
<!-- Created with Inkscape (http://www.inkscape.org/) -->

<svg
   width="349.99826"
   height="348.28845"
   viewBox="0 0 92.603702 92.151322"
   version="1.1"
   id="svg1"
   xml:space="preserve"
   xmlns="http://www.w3.org/2000/svg"
   xmlns:svg="http://www.w3.org/2000/svg"><defs
     id="defs1" /><g
     id="layer1"
     transform="translate(-21.493756,-20.68568)"><path
       id="path164-3"
       d="m 67.154777,20.700388 c -0.98858,0.32755 -1.78562,1.1363 -2.67354,1.69477 -0.793,0.57886 -1.47837,1.1276 -2.17374,1.65613 -4.83776,3.47663 -9.5519,7.08456 -14.42286,10.5601 -5.81831,4.37046 -11.74682,8.6311 -17.59886,12.97863 -2.05164,1.56723 -4.35868,3.13212 -6.42337,4.80098 -0.81229,0.7047 -2.06978,1.20192 -2.34564,2.29232 -0.1714,1.67739 0.65796,3.21207 1.05474,4.80946 1.20397,3.85634 2.34013,7.68127 3.5128,11.51231 0.76892,2.78351 1.74377,5.49545 2.51167,8.2704 1.92105,6.10723 3.69802,12.2453 5.60041,18.35063 1.26517,4.139112 2.4955,8.326712 3.70249,12.418772 0.29868,1.06564 1.47668,1.4393 2.50036,1.27147 7.23048,-0.0195 14.46095,-0.0406 21.69142,-0.0593 1.87352,-1.1664 3.11148,-3.05036 4.47632,-4.71588 0.49891,-0.50818 0.78708,-1.34881 1.4557,-1.61086 7.92115,-0.0525 15.84151,-0.18207 23.76257,-0.24371 1.30944,-0.80734 1.38286,-2.50184 1.87087,-3.80278 2.27447,-7.675912 4.64863,-15.338202 6.988063,-22.983822 0.82537,-2.42395 1.52808,-5.13422 2.31692,-7.63011 1.1856,-3.98971 2.57573,-7.85966 3.57756,-11.91896 0.24856,-0.87296 -0.26115,-1.62419 -0.98374,-2.08626 -3.74361,-2.77322 -7.513123,-5.48336 -11.233843,-8.33299 -2.96832,-2.32062 -6.21718,-4.44179 -9.19194,-6.82463 -3.09058,-2.35338 -6.26455,-4.51478 -9.3203,-6.90021 -2.23434,-1.63949 -4.51312,-3.45579 -6.85319,-5.07135 -0.72021,-0.57361 -1.73011,-0.59193 -2.44026,0.0127 -1.82246,1.35103 -3.58402,2.77807 -5.43227,4.0981 -3.11382,2.2495 -6.03694,4.58241 -9.15247,6.75589 -2.24547,1.61684 -4.42219,3.33043 -6.71295,4.90687 -0.56619,0.17005 -0.44447,1.89618 0.44559,1.48843 10.36947,-0.005 20.74158,-0.087 31.10939,-0.0489 2.35074,0.17287 4.85061,0.58962 6.6402,2.20732 2.52691,1.90495 3.95579,4.91636 4.1976,7.99064 0.33586,3.75996 -0.05,7.82236 -2.15341,11.14118 -0.50149,0.94165 -1.48656,1.61754 -1.90931,2.56585 -0.21577,1.36589 1.31907,2.04168 1.95955,3.07737 2.74634,3.42745 3.09022,8.08884 2.56052,12.25903 -0.44718,3.26098 -2.10314,6.24284 -4.70518,8.34606 -2.21459,1.92658 -5.31932,2.77106 -8.30807,2.80353 -0.91082,0.20231 -1.42699,-0.008 -1.17129,-1.00212 0.012,-2.3333 -0.0628,-4.72469 0.001,-7.02223 1.97377,-0.39783 3.78989,-1.77342 4.25321,-3.74348 0.69085,-2.39115 0.54868,-5.04256 -0.60653,-7.27767 -1.15281,-2.04854 -3.69351,-3.04786 -6.00396,-2.8229 -3.99808,0 -7.99613,0 -11.99419,0 -0.42196,0.49114 -1.15294,0.81736 -0.91499,1.57011 -0.009,6.78451 0.0176,13.58325 -0.0136,20.35886 -2.34564,0 -4.69126,0 -7.03691,0 0,-10.90954 0,-21.81906 0,-32.7286 2.35005,0 4.70009,0 7.05013,0 0.0718,0.84485 -0.13997,1.80898 0.0985,2.58359 0.45868,0.40062 0.77291,0.98665 1.48966,0.76989 4.20292,-0.0173 8.41575,0.0346 12.61248,-0.0257 1.90108,-0.34389 3.76394,-1.45026 4.46289,-3.28278 0.49523,-1.25033 0.71477,-2.62994 0.6765,-3.95962 -0.126,-1.71201 -0.80976,-3.68532 -2.6298,-4.30418 -1.83678,-0.71009 -3.85732,-0.26346 -5.78182,-0.3977 -12.8085,-0.0404 -25.61704,-0.0788 -38.42556,-0.11743 -0.83419,0.65356 -1.94822,1.28885 -2.22662,2.31138 0.34646,2.26628 1.25571,4.51253 1.90199,6.77516 1.56903,5.10006 3.14873,10.19892 4.71443,15.30474 1.9294,6.10882 3.75072,12.20079 5.64134,18.33967 0.63305,1.954562 1.06256,3.951412 1.88214,5.858402 0.54644,1.05231 1.97413,0.54484 2.94814,0.71048 4.0937,0.11565 8.20403,0.034 12.28921,0.11883 0.67734,0.42315 1.36049,0.82916 2.19779,0.6305 2.21039,-0.10203 3.42851,-2.88467 2.21053,-4.61245 -0.34209,-0.5258 -0.84785,-0.963782 -1.44124,-1.166742 0.64005,-0.38313 0.79095,-0.99884 0.67169,-1.72104 0,-6.64582 10e-6,-13.29165 0,-19.93747 3.70045,0.035 7.40821,0.0231 11.10409,0.0876 1.82289,0.35045 2.36013,2.35013 2.33617,3.90878 -0.0308,1.27658 -0.0378,3.15682 -1.62198,3.51278 -0.91145,0.38459 -2.10376,-0.0544 -2.88001,0.57321 -0.55162,0.42609 -0.59972,1.01355 -0.5236,1.66179 0,3.76712 0,7.53424 0,11.30137 0.51522,0.41891 0.87719,1.146202 1.65965,0.91951 2.55155,-0.0932 5.16315,0.100092 7.61285,-0.6915 3.60545,-0.9102 6.74395,-3.13991 8.84203,-6.12106 0.38865,-0.25934 0.46332,-0.85096 0.80126,-1.25435 2.09675,-3.6419 2.44816,-7.9847 2.12349,-12.06683 -0.46367,-3.28544 -1.63594,-6.63409 -4.03014,-9.12548 -0.10392,-0.37004 0.53807,-0.75746 0.66641,-1.09464 2.27283,-3.23557 2.93051,-7.25249 3.04947,-11.08965 -0.20019,-4.03972 -1.21349,-8.31657 -4.22628,-11.27453 -2.13958,-2.10502 -5.04739,-3.46669 -8.05547,-3.88135 -4.61614,-0.33869 -9.25495,-0.11404 -13.88136,-0.20117 -3.7638,-0.0227 -7.58041,0.004 -11.31193,-0.0745 2.09191,-1.70856 4.32752,-3.25821 6.49742,-4.86538 1.96381,-1.33466 3.7813,-2.82076 5.6274,-4.23434 0.84252,-0.53354 1.87207,-1.58967 2.91947,-0.87572 2.44197,1.62678 4.69293,3.51762 7.10302,5.19248 5.15541,3.84137 10.36215,7.59421 15.49388,11.45128 3.3195,2.50563 6.79888,4.77881 9.985453,7.40237 0.66227,0.6309 1.82705,1.10407 1.61312,2.18157 -0.42226,2.1431 -1.24028,4.2257 -1.84822,6.33601 -1.901163,6.24088 -3.774693,12.59207 -5.720203,18.95158 -1.46662,4.80661 -2.9435,9.74112 -4.44269,14.61931 -0.18816,0.75163 -0.3967,2.004872 -1.49411,1.736742 -7.20353,0.0355 -14.40709,0.0725 -21.6105,0.12804 -1.72805,0.85862 -2.51521,2.7273 -3.83181,4.0283 -0.73444,0.83377 -1.37938,1.79048 -2.28748,2.47003 -6.93287,9.6e-4 -13.86575,9.6e-4 -20.79862,0.003 -0.83962,-1.09405 -0.9377,-2.50493 -1.40279,-3.74838 -2.31398,-7.548572 -4.57693,-15.110952 -6.87514,-22.667002 -1.66495,-5.46287 -3.3168,-10.95195 -5.02835,-16.39446 -0.78989,-2.68117 -1.76268,-5.29391 -2.38971,-8.01769 -0.16985,-1.04698 1.08694,-1.44938 1.71745,-2.05559 6.36868,-4.50619 12.54673,-9.34718 18.91592,-13.93419 3.66392,-2.73481 7.33998,-5.42309 10.98496,-8.1795 3.5768,-2.56816 7.09928,-5.24337 10.62024,-7.88989 1.17556,-0.33708 1.8997,0.84654 2.80048,1.36509 2.73995,2.05609 5.44704,4.0834 8.14494,6.1094 4.99143,3.69543 10.04253,7.43381 15.07338,11.17826 4.09933,3.08194 8.340243,6.08697 12.497603,9.23293 1.55314,1.20429 3.19155,2.21007 4.6173,3.56026 0.28031,1.47844 -0.7299,2.79483 -1.02339,4.20343 -1.82679,5.74896 -3.4906,11.56868 -5.31536,17.32631 -1.93741,6.32782 -3.84543,12.66157 -5.828373,18.97727 -1.05085,3.36057 -1.98251,6.752312 -3.10092,10.088372 -0.18941,0.54385 -0.59532,1.05235 -1.25979,0.84521 -7.46421,-9.4e-4 -14.93008,0.004 -22.39325,-0.003 -1.46474,-1.00297 -3.64854,-0.24058 -4.24699,1.36767 -0.68105,1.41528 0.10451,3.37963 1.60834,3.89692 0.76627,-0.0262 1.59874,0.16094 2.22876,-0.37347 0.68357,-0.28235 1.06865,-1.33929 1.9754,-1.08498 7.94912,-0.0636 15.90069,-0.0176 23.84771,-0.21571 1.02038,-1.19382 1.05744,-2.87152 1.61647,-4.25815 2.070573,-6.87217 4.158353,-13.707532 6.250793,-20.576142 1.06739,-3.44675 2.09804,-7.06648 3.22014,-10.53422 1.95548,-6.31284 3.87736,-12.7036 5.86799,-19.08008 0.20195,-0.71604 0.30492,-1.61431 0.007,-2.27978 -1.46366,-1.49431 -3.28086,-2.67702 -4.94246,-3.99479 -5.96525,-4.38534 -11.920723,-8.79602 -17.881793,-13.1845 -5.50099,-4.15922 -11.25383,-8.23485 -16.81611,-12.39653 -1.78922,-1.28184 -3.51814,-2.64778 -5.32112,-3.90689 -0.5172,-0.39963 -1.18888,-0.19881 -1.79773,-0.23988 z m 6.82005,38.0241 c 1.0628,0.45725 0.6873,1.83251 0.73501,2.72944 -0.0539,1.24883 -0.74047,2.70925 -2.19793,2.77985 -3.57248,0 -7.14494,0 -10.71743,0 0,-0.88345 0,-1.76689 0,-2.65034 -0.72667,0.095 -1.08064,-0.96748 -1.87335,-0.73405 -3.19738,0.0359 -6.4036,-0.0708 -9.59566,0.0515 -0.7463,0.0176 -1.43191,0.3184 -1.76914,0.98904 -0.42019,0.6363 -0.061,1.56012 -0.18063,2.30726 -0.006,11.39907 -0.0105,22.79816 -0.015,34.19724 0.34881,1.08216 1.50833,1.759752 2.65079,1.51705 2.68039,0.0175 5.6642,-0.0347 8.1571,0.0257 -0.7631,0.304942 -1.19765,1.247762 -2.13036,1.024912 -3.88811,-0.0218 -7.80692,0.0378 -11.67635,-0.0693 -0.9757,-1.523252 -1.059,-3.370062 -1.64033,-5.041592 -1.26155,-4.28345 -2.56198,-8.60058 -3.87048,-12.8093 -1.41558,-4.59307 -2.71284,-9.23563 -4.15995,-13.75991 -0.91529,-2.95337 -1.73378,-5.87661 -2.69999,-8.86018 -0.18454,-0.58584 -0.48349,-1.09747 -0.5765,-1.70765 13.78906,-0.0293 27.57818,-0.0465 41.36722,-0.0876 l 0.12014,0.0609 z"
       style="stroke-width:1.33623" /></g></svg>
