<?xml version="1.0" encoding="UTF-8" standalone="no"?>
<!-- Created with Inkscape (http://www.inkscape.org/) -->

<svg
   width="8.5448837mm"
   height="8.4666672mm"
   viewBox="0 0 8.5448837 8.4666672"
   version="1.1"
   id="svg1"
   xml:space="preserve"
   xmlns="http://www.w3.org/2000/svg"
   xmlns:svg="http://www.w3.org/2000/svg"><defs
     id="defs1" /><g
     id="layer1"
     transform="translate(-97.524629,-35.934546)"><g
       id="g1"
       transform="matrix(0.06035642,0,0,0.06064757,94.874525,32.613592)"
       style="fill:#1a1a1a;stroke:#ffffff;stroke-width:4.78367;stroke-dasharray:none;stroke-opacity:1"><path
         style="fill:#1a1a1a;fill-opacity:1;stroke:#ffffff;stroke-width:4.78367;stroke-dasharray:none;stroke-opacity:1"
         d="m 55.998137,189.68651 c -3.61346,-1.24653 -6.920688,-4.28002 -8.199554,-7.52089 -1.622413,-4.11148 -1.499799,-0.34473 -1.494852,-45.92251 l 0.0045,-41.610072 1.053431,-1.002105 c 0.585773,-0.557232 1.43598,-1.071973 1.915148,-1.159489 0.473945,-0.08656 17.887655,-0.121862 38.697133,-0.07845 l 37.835407,0.07894 2.08894,0.755613 c 2.56574,0.928083 4.36807,2.189281 5.43888,3.805911 1.22465,1.848885 1.4625,2.985782 1.45357,6.947792 -0.008,3.56311 -0.0102,3.57567 -0.89603,5.11816 -1.69062,2.944 -4.88117,4.7589 -9.40827,5.35178 -0.29104,0.0381 -12.108,0.0792 -26.259893,0.0913 l -25.730728,0.0221 v 28.31042 28.31041 h 9.131333 9.131333 l -0.0098,-19.62393 -0.0098,-19.62394 0.719172,-0.75065 c 0.395544,-0.41286 1.142659,-0.8683 1.660254,-1.01209 1.205169,-0.3348 30.829199,-0.35132 32.823379,-0.0183 2.89475,0.4834 3.28358,0.57952 4.60787,1.139 2.96676,1.25341 4.82452,2.96479 6.11974,5.63756 0.69208,1.42816 0.77311,1.88719 0.86204,4.88361 0.0849,2.86004 0.0237,3.50409 -0.45219,4.7625 -2.0613,5.45029 -8.27525,8.46667 -17.44194,8.46667 h -3.22052 v 8.09414 8.09414 l 5.09323,-0.13601 c 6.43322,-0.1718 9.72424,-0.62677 14.75052,-2.03921 6.59076,-1.85208 11.84221,-5.02881 14.86929,-8.99482 3.60202,-4.71928 5.01,-8.79261 5.12277,-14.82032 0.053,-2.83264 -0.0433,-4.0503 -0.4591,-5.80604 -1.3053,-5.51142 -2.97943,-8.36589 -7.54685,-12.86769 l -3.25486,-3.20811 v -1.76199 -1.76198 l 1.79467,-1.77678 c 4.786,-4.73829 6.42748,-8.46807 6.42945,-14.60908 0.002,-5.702705 -1.27665,-10.027675 -4.37988,-14.816664 -0.98863,-1.525675 -3.04251,-3.835 -4.14392,-4.659297 -0.21582,-0.16152 -0.96401,-0.729995 -1.66265,-1.263278 -2.73976,-2.091306 -9.2814,-4.704268 -13.64809,-5.451532 C 128.43536,77.099442 127.3638,76.913991 127,76.849197 123.9471,76.305466 117.97009,76.21353 85.195834,76.20618 49.179507,76.19808 48.806867,76.19268 47.93981,75.664051 c -1.628989,-0.993167 -1.999211,-3.084428 -1.244426,-7.029335 0.498249,-2.604113 1.063624,-4.127756 2.150773,-5.796173 1.66013,-2.547756 4.218836,-4.345881 7.351497,-5.166249 1.802101,-0.471926 4.172601,-0.492311 58.366926,-0.501929 53.79666,-0.0095 56.5768,0.01293 58.34063,0.47167 4.19002,1.089753 7.05089,3.48821 8.75387,7.338942 1.44283,3.262506 1.42248,2.418401 1.42774,59.220273 0.005,58.33664 0.10614,55.00877 -1.77863,58.75313 -1.27399,2.53096 -3.63613,4.81936 -6.33698,6.13916 l -2.066,1.00958 -57.67917,0.0588 c -57.252391,0.0584 -57.690622,0.0549 -59.227903,-0.47544 z"
         id="path7" /><path
         style="fill:#1a1a1a;fill-opacity:1;stroke:#ffffff;stroke-width:4.78367;stroke-dasharray:none;stroke-opacity:1"
         d="m 55.959377,189.65421 c -4.400302,-1.54995 -7.483999,-4.83697 -8.851617,-9.43524 -0.510434,-1.71621 -0.523413,-2.74518 -0.552263,-43.78293 -0.02837,-40.350032 -0.01027,-42.046732 0.453834,-42.559927 0.265859,-0.293978 0.932617,-0.763785 1.481686,-1.044016 0.973858,-0.497034 1.932825,-0.507683 39.158332,-0.434867 l 38.160021,0.07465 1.92253,0.702777 c 2.56564,0.937869 4.41122,2.160979 5.37545,3.562431 1.41848,2.061688 1.66063,3.067662 1.68009,6.979592 l 0.0178,3.57187 -0.90858,1.67583 c -1.03376,1.90671 -2.42207,3.16012 -4.60937,4.1615 -3.056,1.39909 -3.50136,1.4195 -31.192989,1.42948 l -25.598436,0.009 v 28.31042 28.31041 h 9.128125 9.128124 v -19.68405 -19.68405 l 0.914877,-0.80328 c 0.577068,-0.50667 1.334203,-0.86526 2.050521,-0.97116 0.624604,-0.0924 8.279398,-0.11914 17.010648,-0.0595 13.81873,0.0943 16.09019,0.16607 17.53635,0.55396 4.00758,1.07489 6.75783,3.12562 8.28008,6.17405 0.85231,1.70681 0.90263,1.9658 0.99195,5.10531 0.0819,2.87923 0.022,3.48966 -0.46269,4.71626 -1.35311,3.42408 -4.02034,5.71333 -8.48632,7.28369 -2.0281,0.71314 -4.17922,0.96464 -8.25068,0.96464 h -3.92015 v 8.20208 8.20208 l 4.03489,0.005 c 7.41037,0.008 15.2733,-1.45402 20.83594,-3.87549 4.80995,-2.09383 8.54456,-5.10298 11.03714,-8.89314 4.45063,-6.76752 5.29433,-14.95733 2.34742,-22.78654 -1.34863,-3.58298 -2.73125,-5.50048 -6.80104,-9.43208 l -2.87935,-2.78158 v -1.79163 -1.79164 l 1.68402,-1.64449 c 4.88366,-4.76903 6.72371,-8.93424 6.62912,-15.00595 -0.1081,-6.938135 -2.6241,-13.299887 -7.02469,-17.76202 -4.70627,-4.772094 -12.8001,-8.054236 -22.08957,-8.957578 -1.52475,-0.148272 -17.75611,-0.257089 -38.941709,-0.26107 -39.35229,-0.0074 -37.249464,0.06882 -38.269236,-1.387103 -0.55794,-0.796572 -0.561495,-5.341386 -0.0059,-7.493822 1.429569,-5.537918 5.253301,-9.075193 10.705425,-9.903419 1.450427,-0.220333 17.11289,-0.27975 58.20833,-0.220817 l 56.22396,0.08063 1.71979,0.634674 c 3.98594,1.470977 6.50946,3.839894 7.95872,7.471146 1.30074,3.259122 1.29105,2.819703 1.29655,58.813139 0.006,58.10318 0.0954,55.03559 -1.71402,58.62084 -1.65961,3.28843 -4.62483,5.84154 -7.99247,6.8817 -1.70177,0.52563 -2.36494,0.5315 -58.77717,0.52061 l -57.055982,-0.011 z"
         id="path6" /><path
         style="fill:#1a1a1a;fill-opacity:1;stroke:#ffffff;stroke-width:4.78367;stroke-dasharray:none;stroke-opacity:1"
         d="m 56.14358,189.69819 c -3.598756,-1.27856 -6.180578,-3.43853 -7.77619,-6.50561 -1.914428,-3.67991 -1.777502,-0.15814 -1.811261,-46.58601 -0.03416,-46.979778 -0.22505,-42.69898 1.950925,-43.750297 1.045014,-0.504896 1.903239,-0.516654 37.598373,-0.51513 38.524663,0.0016 39.805343,0.03768 42.614363,1.199064 1.92426,0.795579 3.75051,2.190332 4.56771,3.488476 1.29484,2.056858 1.51782,3.059637 1.51656,6.820277 -0.001,3.41443 -0.008,3.45184 -0.90858,5.11541 -1.33098,2.45801 -3.35001,3.93974 -6.77461,4.97175 -1.46215,0.44062 -3.49337,0.48112 -28.100557,0.56019 l -26.524478,0.0852 v 28.30194 28.30193 h 9.128125 9.128124 v -19.55886 -19.55887 l 0.657766,-0.78171 c 0.411386,-0.4889 1.099457,-0.89293 1.836955,-1.07863 0.802439,-0.20206 5.945868,-0.29692 16.098455,-0.29692 13.46815,0 15.1874,0.0485 17.67606,0.49903 5.41344,0.97993 8.59495,3.39145 10.04864,7.61665 0.76029,2.20984 0.72391,6.6329 -0.0717,8.71186 -0.87553,2.28791 -3.16026,4.60138 -5.8653,5.93909 -3.31123,1.63748 -4.46295,1.87393 -9.88768,2.02996 l -4.82864,0.13889 v 8.20263 8.20263 l 5.4901,-0.13938 c 5.46767,-0.13881 6.66558,-0.27525 11.44323,-1.30337 5.37417,-1.15649 9.54788,-2.88305 13.39004,-5.53914 7.44149,-5.14429 11.21181,-15.42915 9.08261,-24.77599 -1.25482,-5.50851 -3.07041,-8.60252 -7.58908,-12.93283 l -3.08155,-2.9531 -0.11104,-1.74396 -0.11105,-1.74397 2.10001,-2.1821 c 2.4483,-2.54403 3.68929,-4.23026 4.68371,-6.36413 0.91728,-1.96836 1.73211,-5.65344 1.7372,-7.85652 0.005,-2.01701 -0.80989,-6.970328 -1.45757,-8.863545 -1.67799,-4.904877 -4.68905,-9.087564 -8.61565,-11.96806 -3.35726,-2.462836 -9.34452,-4.8401 -14.52555,-5.767427 -0.50932,-0.09116 -1.52135,-0.293581 -2.24896,-0.449822 -0.88788,-0.190658 -13.94282,-0.336038 -39.699305,-0.442091 -35.947593,-0.148015 -38.421106,-0.18732 -39.082877,-0.621037 -1.200576,-0.786842 -1.33462,-1.332958 -1.18026,-4.808537 0.203843,-4.58973 1.231454,-7.267193 3.759361,-9.7951 1.820285,-1.820285 4.555065,-3.164758 7.27913,-3.578568 1.450427,-0.220333 17.11289,-0.27975 58.208331,-0.220817 l 56.22396,0.08063 1.71979,0.638641 c 0.94588,0.351252 2.2844,0.985969 2.97449,1.410481 1.62689,1.000797 3.7513,3.396825 4.59747,5.185278 1.50168,3.173911 1.43722,0.324924 1.36139,60.168864 l -0.0698,55.09881 -0.8076,1.86069 c -1.51297,3.48586 -3.44822,5.60468 -6.55877,7.18092 -2.94853,1.49413 0.95274,1.40506 -60.76384,1.38724 -55.155307,-0.0159 -57.06354,-0.0328 -58.421,-0.51503 z"
         id="path5" /><path
         style="fill:#1a1a1a;fill-opacity:1;stroke:#ffffff;stroke-width:4.78367;stroke-dasharray:none;stroke-opacity:1"
         d="m 55.908316,189.5788 c -4.603582,-1.7721 -7.533035,-4.98093 -8.834344,-9.67686 -0.463341,-1.67202 -0.488896,-3.81597 -0.51789,-43.44791 -0.03426,-46.828605 -0.23336,-42.510063 2.008463,-43.563844 1.168789,-0.549395 1.251086,-0.550603 37.535302,-0.550603 23.337323,0 37.105363,0.09725 38.433613,0.27148 1.13831,0.149314 2.95087,0.584678 4.0279,0.967476 1.59921,0.568391 2.25878,0.991583 3.59751,2.308208 2.25298,2.215793 2.64671,3.400962 2.64519,7.962213 -0.001,3.41443 -0.008,3.45184 -0.90858,5.11541 -1.33052,2.45716 -3.11378,3.77778 -6.61615,4.89965 -1.70705,0.54679 -2.15488,0.55688 -28.259017,0.63656 l -26.524478,0.081 v 28.30194 28.30193 h 9.128125 9.128124 V 151.5859 131.98638 l 0.748454,-0.74846 c 0.41165,-0.41165 1.215322,-0.87807 1.785938,-1.0365 0.691239,-0.19192 6.015535,-0.28855 15.953664,-0.28953 16.77007,-0.002 18.42567,0.12834 21.90145,1.71973 2.56171,1.17288 4.1059,2.65678 5.32131,5.11352 0.95341,1.92719 0.9912,2.11085 1.07527,5.22617 0.0864,3.202 0.0796,3.24495 -0.81883,5.1751 -1.44607,3.10664 -4.26554,5.37977 -8.26413,6.66274 -2.20522,0.70755 -2.74032,0.77202 -7.47448,0.90055 l -4.56406,0.12391 v 8.1759 8.1759 l 4.29948,-0.0116 c 9.9313,-0.0268 18.73244,-2.18818 24.93697,-6.12391 2.91662,-1.8501 5.9055,-4.95501 7.59263,-7.88739 2.00013,-3.4764 3.14827,-7.94709 3.15349,-12.27926 0.002,-1.63406 -0.0576,-3.26041 -0.13245,-3.61411 -1.46429,-6.92261 -3.37315,-10.39923 -8.20925,-14.9516 l -2.9072,-2.73663 -0.10874,-1.70774 -0.10874,-1.70774 2.53649,-2.67974 c 4.31447,-4.55814 5.85669,-8.21871 5.85669,-13.90131 0,-6.6044 -2.04349,-12.394744 -6.05516,-17.157615 -3.67016,-4.357423 -10.7761,-7.907612 -18.96843,-9.476794 -2.99754,-0.574156 -3.3363,-0.580128 -41.438383,-0.73057 l -38.416141,-0.151682 -0.96288,-0.926042 -0.96288,-0.926041 0.120953,-3.042709 c 0.126868,-3.191525 0.167784,-3.461893 0.805975,-5.325825 1.344449,-3.926661 4.19728,-6.698128 8.197383,-7.963593 l 1.9004,-0.601206 h 57.150003 57.14999 l 1.85209,0.636618 c 4.10117,1.4097 6.79791,4.01951 8.27814,8.011295 l 0.71769,1.93542 v 55.827084 55.82708 l -0.75258,1.92304 c -1.32606,3.38849 -3.54363,5.83674 -6.75669,7.45957 -2.78149,1.40486 0.7531,1.32805 -60.62094,1.31722 l -57.017703,-0.0101 z"
         id="path4" /><path
         style="fill:#1a1a1a;fill-opacity:1;stroke:#ffffff;stroke-width:4.78367;stroke-dasharray:none;stroke-opacity:1"
         d="m 56.488544,189.74064 c -2.343362,-0.8019 -3.908391,-1.72004 -5.569269,-3.26727 -1.819175,-1.69469 -2.969731,-3.64582 -3.788391,-6.42441 -0.540473,-1.83441 -0.545966,-2.25048 -0.575506,-43.58839 -0.02944,-41.199066 -0.02309,-41.744854 0.493334,-42.401381 1.214991,-1.544611 -1.341625,-1.451965 39.999206,-1.449481 40.500992,0.0024 39.321572,-0.03276 42.335632,1.263241 2.53144,1.088487 4.71343,3.712945 5.21444,6.271841 0.24906,1.27206 0.27443,5.75995 0.039,6.90001 -0.63006,3.0511 -2.90021,5.20185 -7.02424,6.65481 l -2.06796,0.72857 -26.524477,0.0778 -26.524478,0.0778 v 28.3008 28.30079 h 9.128125 9.128124 v -19.52029 c 0,-21.4386 -0.0915,-20.225 1.590422,-21.09476 0.654176,-0.33829 3.132119,-0.39536 17.164554,-0.39536 17.95086,0 18.65952,0.0505 21.85856,1.55886 4.22512,1.99211 6.20919,5.44515 6.21485,10.81622 0.003,2.46565 -0.0719,2.88294 -0.8026,4.49792 -1.37638,3.04191 -4.16571,5.33627 -8.07288,6.64033 -2.52021,0.84114 -2.89081,0.89015 -7.72426,1.02137 l -4.56406,0.12391 v 8.1759 8.1759 l 4.29948,-7.4e-4 c 5.91901,-0.001 9.44408,-0.44715 15.0151,-1.90027 6.90761,-1.80175 11.83909,-4.74379 15.45167,-9.2182 3.35467,-4.15498 5.1851,-9.36155 5.2127,-14.82723 0.0167,-3.3004 -0.0783,-4.08601 -0.86108,-7.12647 -1.16495,-4.52469 -3.30473,-7.88873 -7.54653,-11.86428 l -2.83714,-2.65906 -0.10879,-1.70845 -0.10879,-1.70845 2.64099,-2.80144 c 4.32674,-4.58962 5.72016,-7.93633 5.74006,-13.78645 0.0216,-6.343123 -1.89499,-11.985845 -5.67684,-16.713641 -3.92332,-4.904658 -11.2011,-8.497806 -20.27658,-10.010854 l -3.91519,-0.652734 -36.918175,-0.0081 c -20.304998,-0.0044 -37.215834,-0.08151 -37.579636,-0.171249 -0.363802,-0.08974 -1.048411,-0.527789 -1.521354,-0.973435 -0.855276,-0.805911 -0.859845,-0.823845 -0.850471,-3.33805 0.02693,-7.222102 3.246012,-12.002496 9.383283,-13.934334 1.535782,-0.483421 3.445026,-0.4997 58.605203,-0.4997 h 57.01771 l 1.97867,0.621285 c 2.34683,0.736889 4.36191,2.01184 5.85448,3.704177 1.43155,1.623143 2.1975,3.150594 3.08546,6.152967 0.10314,0.348739 0.22204,25.220476 0.26422,55.270528 0.0836,59.53224 0.15517,56.41099 -1.36925,59.69458 -0.34572,0.74468 -1.43081,2.20436 -2.41131,3.24374 -2.11914,2.2464 -4.61804,3.62274 -7.27905,4.00914 -1.02677,0.1491 -24.13624,0.24166 -57.80238,0.23152 -52.215349,-0.0157 -56.183092,-0.0482 -57.414586,-0.46959 z"
         id="path3" /><path
         style="fill:#1a1a1a;fill-opacity:1;stroke:#ffffff;stroke-width:4.78367;stroke-dasharray:none;stroke-opacity:1"
         d="m 57.553749,189.95316 c -2.495826,-0.41723 -5.351176,-2.03301 -7.32451,-4.14476 -1.441594,-1.54272 -2.092516,-2.73705 -2.989789,-5.48577 l -0.654424,-2.00478 -0.02814,-41.79881 C 46.52913,95.301963 46.535997,94.711 47.050304,94.057164 c 1.213025,-1.542111 -1.337781,-1.449593 40.015507,-1.451367 35.941969,-0.0015 38.084279,0.02437 39.819789,0.481698 2.4171,0.636929 3.55246,1.200094 5.0152,2.487654 2.18176,1.920464 3.20853,5.023091 2.97518,8.990181 -0.21502,3.65522 -1.3852,5.96662 -3.80495,7.51567 -1.29362,0.82815 -3.77182,1.80026 -5.50649,2.16001 -0.44742,0.0928 -12.57092,0.20636 -26.941102,0.25238 l -26.127603,0.0837 v 28.43995 28.43994 l 9.061979,-0.0696 9.061979,-0.0696 0.06785,-19.52494 c 0.06204,-17.85151 0.106358,-19.5837 0.517102,-20.21058 0.925012,-1.41174 0.865247,-1.40719 18.470455,-1.40719 17.93482,0 18.35122,0.0315 21.73308,1.64697 2.97417,1.42068 4.54068,3.21051 5.6617,6.4688 0.40705,1.18313 0.49225,2.05895 0.42987,4.41897 -0.0721,2.72634 -0.14327,3.07597 -0.96548,4.7414 -2.38198,4.82483 -7.88859,7.31216 -16.21511,7.32438 l -3.9026,0.006 v 8.33437 8.33438 h 3.05536 c 7.73104,0 17.17028,-1.83198 22.56993,-4.38039 7.5989,-3.58637 12.31583,-9.37778 13.94471,-17.12121 0.46036,-2.18848 0.54436,-7.44744 0.1489,-9.32236 -0.15347,-0.7276 -0.33144,-1.5695 -0.3955,-1.87089 -0.96589,-4.54481 -3.33511,-8.36722 -7.75206,-12.50693 l -2.83714,-2.65906 -0.10879,-1.70845 -0.10879,-1.70845 2.63154,-2.79141 c 3.61445,-3.83406 4.83905,-6.18641 5.66709,-10.88606 0.6146,-3.48819 -0.33437,-9.992234 -2.00739,-13.758332 -2.78466,-6.268498 -7.22729,-10.495327 -13.77349,-13.104449 -2.7779,-1.107189 -6.6862,-2.24749 -8.99583,-2.624659 -1.01865,-0.166348 -2.14974,-0.378322 -2.51354,-0.471055 -0.36381,-0.09273 -17.95303,-0.236101 -39.08717,-0.318595 L 48.428782,76.067709 47.563871,75.202725 c -0.858753,-0.858826 -0.865129,-0.884253 -0.895647,-3.571875 -0.0884,-7.785345 3.853872,-12.861599 11.010945,-14.178204 1.277749,-0.235053 112.885801,-0.216145 114.035411,0.01932 3.00137,0.614743 5.83041,2.059965 7.45672,3.809293 1.38639,1.49126 2.55462,3.811603 3.10995,6.177 0.54209,2.30903 0.5458,2.695317 0.54192,56.399491 -0.004,58.78148 0.0794,55.42982 -1.4674,58.8012 -0.41741,0.9098 -1.42383,2.30635 -2.43292,3.37604 -2.02436,2.14593 -4.52792,3.51028 -7.20827,3.92825 -2.10672,0.32851 -112.19356,0.3188 -114.160831,-0.0101 z"
         id="path2" /><path
         style="fill:#1a1a1a;fill-opacity:1;stroke:#ffffff;stroke-width:4.78367;stroke-dasharray:none;stroke-opacity:1"
         d="M 57.679169,189.9678 C 52.72411,189.11307 48.537448,185.14944 47.054681,179.90931 46.79389,178.98766 46.6883,169.48307 46.577119,136.92187 46.435777,95.527464 46.439536,95.109394 46.960679,94.26946 48.077568,92.469353 45.239236,92.580306 87.841668,92.671392 l 38.496872,0.08231 1.54923,0.582337 c 2.97257,1.117361 4.77233,2.522544 5.82045,4.544392 0.84012,1.6206 1.02442,2.791619 0.97976,6.225299 -0.0468,3.59567 -0.70799,5.34548 -2.69508,7.13204 -1.67345,1.50459 -3.1646,2.17648 -6.2302,2.80725 -2.40668,0.49519 -3.71508,0.51956 -27.895991,0.51956 H 72.495835 V 143.00729 171.45 h 9.128125 9.128124 v -19.58848 c 0,-18.01046 0.03633,-19.64392 0.450957,-20.27672 0.927274,-1.4152 0.856264,-1.4098 18.548219,-1.4098 15.20443,0 16.51002,0.0357 18.3316,0.5016 5.26645,1.34693 7.98931,3.80749 9.13134,8.25166 0.64076,2.49351 0.39614,6.27356 -0.53311,8.23782 -2.41951,5.11443 -7.95849,7.61129 -16.89099,7.6141 l -3.37343,0.001 v 8.33437 8.33438 h 3.18751 c 6.11713,0 13.65185,-1.19979 19.247,-3.06478 6.76876,-2.25619 12.27308,-6.79103 15.06713,-12.41335 1.54679,-3.11252 2.71546,-7.93986 2.71466,-11.2133 -6.5e-4,-2.68663 -0.97596,-7.13127 -2.24217,-10.21795 -0.90706,-2.21114 -3.63757,-5.79219 -6.15314,-8.06979 -1.36616,-1.23692 -2.63957,-2.54661 -2.82979,-2.91041 -0.19022,-0.36381 -0.34864,-1.31442 -0.35204,-2.11247 -0.006,-1.43234 0.0148,-1.47149 1.62659,-3.04271 3.81682,-3.72081 5.82799,-7.28374 6.49907,-11.51357 0.90532,-5.70636 -0.59779,-12.660548 -3.84195,-17.77489 -3.8247,-6.029558 -10.18123,-9.822596 -20.22287,-12.067292 L 126.07396,76.369324 87.444793,76.218516 C 58.915889,76.10714 48.676494,75.987642 48.2835,75.761487 46.857649,74.940954 46.697245,74.481058 46.725708,71.29511 c 0.0511,-5.720248 2.074056,-9.738837 6.058669,-12.035529 0.727604,-0.419384 1.382448,-0.74783 1.455208,-0.72988 0.07276,0.01795 0.382497,-0.101271 0.688304,-0.264933 0.305806,-0.163663 1.4369,-0.481341 2.513541,-0.705951 1.728404,-0.360582 8.440074,-0.408408 57.34086,-0.408599 l 55.38332,-2.17e-4 2.29584,0.561261 c 2.64114,0.645676 3.3516,0.972095 5.27264,2.422497 2.39659,1.809438 3.8708,4.256848 4.65733,7.731867 0.37506,1.657075 0.41964,7.549093 0.42343,55.959374 0.004,46.78442 -0.0486,54.33146 -0.38621,55.76365 -1.26762,5.37768 -5.71414,9.62698 -10.85049,10.36923 -2.20126,0.31811 -112.056884,0.32767 -113.898981,0.01 z"
         id="path1" /></g></g></svg>
