<?xml version="1.0" encoding="UTF-8" standalone="no"?>
<!-- Created with Inkscape (http://www.inkscape.org/) -->

<svg
   version="1.0"
   width="376.90173"
   height="376.84058"
   id="svg2383"
   xml:space="preserve"
   viewBox="0 0 376.90173 376.84058"
   xmlns="http://www.w3.org/2000/svg"
   xmlns:svg="http://www.w3.org/2000/svg"
   xmlns:rdf="http://www.w3.org/1999/02/22-rdf-syntax-ns#"
   xmlns:cc="http://creativecommons.org/ns#"
   xmlns:dc="http://purl.org/dc/elements/1.1/"><defs
     id="defs2385" /><metadata
     id="metadata2388"><rdf:RDF><cc:Work
         rdf:about=""><dc:format>image/svg+xml</dc:format><dc:type
           rdf:resource="http://purl.org/dc/dcmitype/StillImage" /></cc:Work></rdf:RDF></metadata><path
     style="fill:#000000"
     d="M 162.94815,375.49191 C 131.09324,371.13653 99.260327,357.851 73.448206,338.13892 57.549216,325.99725 38.199646,304.3648 27.554166,286.83029 c -46.0769,-75.89497 -33.3589997,-173.27472 30.6139,-234.407389 75.446594,-72.09697 194.393984,-69.50957 266.354084,5.79385 54.3771,56.903459 67.7224,140.219279 33.887,211.559109 -27.0939,57.12561 -82.5391,97.5173 -145.1226,105.72127 -13.6804,1.79335 -37.2016,1.79091 -50.3384,-0.005 z m 53.5177,-18.85241 c 37.8839,-6.93383 68.6826,-23.38251 94.7839,-50.6213 49.4201,-51.57385 61.3489,-127.34644 30.1511,-191.52131 -16.7047,-34.362069 -42.9489,-60.953059 -76.9527,-77.969339 -21.3527,-10.68542 -38.8048,-15.60423 -62.8264,-17.70737 -29.2647,-2.5622 -57.82367,2.71908 -85.64259,15.83751 -53.943594,25.43792 -90.301794,76.723519 -97.010194,136.839199 -6.8384,61.28053 23.0279,123.8749 75.97924,159.23859 20.848814,13.92395 48.252784,23.93338 74.674944,27.27542 9.5073,1.20253 37.2112,0.39145 46.8427,-1.3714 z M 109.87127,255.07381 c -3.09639,-3.0964 -3.54391,-5.3138 -1.92944,-9.56019 2.15012,-5.65523 1.13049,-5.59072 83.61962,-5.29114 l 75.5606,0.27441 2.4131,2.80576 c 3.2533,3.78279 3.2358,8.96242 -0.042,12.23969 l -2.4541,2.45455 h -77.1224 -77.12233 z m 0.95806,-59.08363 c -2.3106,-1.35007 -4.21663,-6.52043 -3.48231,-9.4462 0.34396,-1.37046 1.60479,-3.40419 2.80184,-4.51942 2.14747,-2.00067 3.20674,-2.02767 79.53339,-2.02767 h 77.3568 l 2.4546,2.45454 c 1.6947,1.69467 2.4546,3.56622 2.4546,6.04546 0,2.47923 -0.7599,4.35078 -2.4546,6.04545 l -2.4546,2.45455 -77.2954,-0.0304 c -46.71571,-0.0184 -77.93591,-0.40463 -78.91432,-0.9763 z m 1.47586,-59.97525 c -5.76062,-2.35058 -7.00015,-9.52874 -2.43392,-14.09497 l 2.92308,-2.92307 h 77.1224 77.1224 l 2.4545,2.45454 c 3.2773,3.27732 3.2948,8.45693 0.041,12.23969 l -2.4131,2.80577 -76.3369,0.19624 c -41.98527,0.10793 -77.3012,-0.19726 -78.47986,-0.6782 z"
     id="path8" /></svg>
