<?xml version="1.0" encoding="UTF-8" standalone="no"?>
<!-- Created with Inkscape (http://www.inkscape.org/) -->

<svg
   version="1.0"
   width="482.80585"
   height="483.26163"
   id="svg2383"
   xml:space="preserve"
   viewBox="0 0 482.80585 483.26163"
   xmlns="http://www.w3.org/2000/svg"
   xmlns:svg="http://www.w3.org/2000/svg"
   xmlns:rdf="http://www.w3.org/1999/02/22-rdf-syntax-ns#"
   xmlns:cc="http://creativecommons.org/ns#"
   xmlns:dc="http://purl.org/dc/elements/1.1/"><defs
     id="defs2385" /><metadata
     id="metadata2388"><rdf:RDF><cc:Work
         rdf:about=""><dc:format>image/svg+xml</dc:format><dc:type
           rdf:resource="http://purl.org/dc/dcmitype/StillImage" /></cc:Work></rdf:RDF></metadata><g
     transform="translate(-841.00594,-284.63876)"
     id="layer1"><g
       id="g16"
       style="fill:#000000"
       transform="translate(106.64791,30.470837)"><path
         style="fill:#000000;fill-opacity:1"
         d="m 955.91016,736.35099 c -42.10788,-3.24966 -86.68644,-19.72292 -121.66303,-44.9585 -107.34726,-77.451 -132.10304,-228.68678 -55.04969,-336.30456 54.1244,-75.59369 147.48105,-113.53853 239.03376,-97.15536 97.9292,17.52423 175.2266,93.55764 194.4211,191.24195 19.6463,99.98368 -26.0521,201.84363 -114.0805,254.28076 -30.8645,18.38552 -68.024,30.05249 -105.13975,33.01075 -15.2241,1.21341 -20.51866,1.19718 -37.52189,-0.11504 z m 53.55724,-30.19198 c 46.9995,-8.14863 86.6455,-28.96277 119.1826,-62.57074 21.2678,-21.96775 36.4359,-45.84131 46.7342,-73.55634 9.4783,-25.50794 12.9126,-45.31806 12.9126,-74.48215 0,-23.41563 -1.2705,-34.09294 -6.4113,-53.87867 -17.4572,-67.18921 -67.6496,-122.3092 -133.2248,-146.30415 -55.45252,-20.29089 -117.60389,-16.46653 -170.02898,10.4624 -95.75439,49.18567 -140.05159,161.98691 -103.18156,262.74814 18.61356,50.86856 55.43545,92.34923 103.86694,117.00839 23.95538,12.19702 41.37504,17.31962 76.59306,22.52374 7.04091,1.04043 44.08803,-0.30888 53.55724,-1.95062 z M 830.7725,619.90547 c -0.88266,-1.06353 -1.13211,-31.91065 -0.93328,-115.40892 l 0.27137,-113.95743 9.86141,-0.30653 9.8614,-0.30653 0.0163,8.83531 c 0.009,4.85943 0.41329,9.46119 0.89846,10.22615 0.60464,0.9533 2.86325,1.28867 7.17984,1.06609 l 6.2977,-0.32472 0.30653,-9.86141 0.30653,-9.86141 h 9.51487 9.51487 l 0.30653,9.86141 0.30653,9.86141 h 6.92964 6.92964 l 0.30653,-9.86141 0.30653,-9.86141 h 9.02183 9.02182 v 8.84862 c 0,5.46079 0.48981,9.33842 1.27932,10.12793 1.65994,1.65994 11.7729,1.65994 13.43284,0 0.78951,-0.78951 1.27932,-4.66714 1.27932,-10.12793 v -8.84862 h 9.02182 9.02183 l 0.30653,9.86141 0.30653,9.86141 h 6.92964 6.92964 l 0.30653,-9.86141 0.30653,-9.86141 h 9.51487 9.51487 l 0.30653,9.86141 0.30653,9.86141 h 6.92964 6.92964 l 0.30653,-9.86141 0.30651,-9.86141 h 9.0219 9.0218 v 8.84862 c 0,5.46079 0.4898,9.33842 1.2793,10.12793 0.7036,0.70362 4.0105,1.27932 7.3486,1.27932 7.2557,0 7.3636,-0.17313 7.3636,-11.81428 v -8.44159 h 9.0218 9.0218 l 0.3066,9.86141 0.3065,9.86141 h 6.9296 6.9297 l 0.3065,-9.86141 0.3065,-9.86141 h 9.5149 9.5149 l 0.3065,9.86141 0.3065,9.86141 h 6.9297 6.9296 l 0.3071,-9.90088 0.307,-9.90088 9.8209,0.306 9.8209,0.30599 v 115.13859 115.1386 l -144.58918,0.27033 c -120.93033,0.2261 -144.78622,0.0328 -145.79375,-1.18117 z M 873.82061,595.763 v -15.45842 h -15.45842 -15.45842 l -0.29895,14.33854 c -0.16442,7.88619 -0.0545,14.97565 0.24435,15.75435 0.42409,1.10517 3.88147,1.35088 15.75737,1.11988 l 15.21407,-0.29593 z m 38.69936,14.71215 c 1.93881,-1.93881 1.76225,-27.90955 -0.20082,-29.53876 -0.99689,-0.82734 -6.13099,-1.13101 -15.72495,-0.93011 l -14.2448,0.2983 -0.29895,14.33854 c -0.16443,7.88619 -0.0595,14.96242 0.23306,15.72494 0.72578,1.89136 28.35435,1.98921 30.23646,0.10709 z m 39.1258,-14.71215 v -15.45842 l -14.2448,-0.2983 c -9.59396,-0.2009 -14.72807,0.10277 -15.72495,0.93011 -1.11593,0.92615 -1.48014,4.45392 -1.48014,14.33691 0,7.20967 0.29612,13.88017 0.65805,14.82334 0.56937,1.48375 2.68853,1.67509 15.72494,1.41982 l 15.0669,-0.29504 z m 39.44563,0 v -15.45842 h -15.45842 -15.45842 l -0.29895,14.33854 c -0.16443,7.88619 -0.0545,14.97565 0.24435,15.75435 0.42409,1.10517 3.88146,1.35088 15.75737,1.11988 l 15.21407,-0.29593 z M 873.82061,555.78432 v -14.92537 h -15.45842 -15.45842 l -0.29597,15.22057 -0.29597,15.22056 15.75439,-0.29519 15.75439,-0.29519 z m 39.44563,0 v -14.92537 l -15.72495,-0.29502 -15.72494,-0.29503 v 15.51542 15.51543 l 15.72494,-0.29503 15.72495,-0.29502 z m 38.91258,-0.0285 V 540.2689 l -15.72495,0.29503 -15.72494,0.29502 -0.29995,13.80289 c -0.16497,7.5916 -0.0601,14.42795 0.23307,15.1919 0.40411,1.0531 4.27947,1.38901 16.02489,1.38901 h 15.49188 z m 38.91258,0.0285 v -14.92537 h -15.45842 -15.45842 l -0.29995,13.80289 c -0.16497,7.5916 -0.055,14.44118 0.24435,15.22131 0.42536,1.10846 3.86887,1.35374 15.75837,1.12248 l 15.21407,-0.29593 z m 39.4456,0 v -14.92537 h -15.4584 -15.45841 l -0.29598,15.22057 -0.29597,15.22056 15.75436,-0.29519 15.7544,-0.29519 z m 38.9126,0 V 540.3259 h -15.3444 c -13.0085,0 -15.4428,0.2567 -15.9914,1.68634 -0.8813,2.29661 -0.8248,27.63138 0.064,28.51977 0.3909,0.39091 7.5871,0.71074 15.9915,0.71074 h 15.2807 z m 39.2084,0.26653 -0.2958,-15.1919 h -15.4584 -15.4585 l -0.2999,13.80289 c -0.165,7.5916 -0.06,14.42795 0.2331,15.1919 0.4041,1.05326 4.2847,1.38901 16.0541,1.38901 h 15.5212 z M 874.11891,517.01926 c 0.2009,-9.59395 -0.10277,-14.72806 -0.93011,-15.72494 -0.92615,-1.11594 -4.45392,-1.48015 -14.33691,-1.48015 -7.20967,0 -13.86734,0.2912 -14.79483,0.64711 -1.42439,0.54659 -1.68634,2.92025 -1.68634,15.28074 0,8.0485 0.33244,14.96607 0.73875,15.37238 0.40631,0.40631 7.48253,0.60621 15.72494,0.44421 l 14.9862,-0.29454 z m 39.44563,0 c 0.2009,-9.59395 -0.10277,-14.72806 -0.93011,-15.72494 -0.92615,-1.11594 -4.45392,-1.48015 -14.33691,-1.48015 -7.20967,0 -13.86734,0.2912 -14.79483,0.64711 -1.42984,0.54868 -1.68634,2.9854 -1.68634,16.01997 v 15.37287 l 15.72494,-0.29503 15.72495,-0.29502 z m 38.37904,-0.59831 c 0.2239,-11.15942 -0.0407,-15.05792 -1.0661,-15.70862 -2.24353,-1.42369 -27.93043,-1.09069 -29.40228,0.38116 -1.39171,1.3917 -1.88304,28.67844 -0.54057,30.02091 0.40631,0.40631 7.48253,0.60621 15.72494,0.44421 l 14.9862,-0.29454 z m 39.44563,0 c 0.2239,-11.15942 -0.0407,-15.05792 -1.0661,-15.70862 -2.24353,-1.42369 -27.93043,-1.09069 -29.40228,0.38116 -1.39171,1.3917 -1.88304,28.67844 -0.54057,30.02091 0.40631,0.40631 7.48253,0.60621 15.72494,0.44421 l 14.9862,-0.29454 z m 39.44609,0.59831 c 0.2009,-9.59395 -0.1027,-14.72806 -0.9301,-15.72494 -0.9261,-1.11594 -4.4539,-1.48015 -14.3369,-1.48015 -7.2097,0 -13.8673,0.2912 -14.7948,0.64711 -1.42441,0.54659 -1.68636,2.92025 -1.68636,15.28074 0,8.0485 0.33243,14.96607 0.73875,15.37238 0.40631,0.40631 7.48251,0.60621 15.72491,0.44421 l 14.9862,-0.29454 z m 38.3763,-0.94709 -0.295,-15.72495 -14.2448,-0.29829 c -9.594,-0.20091 -14.7281,0.10277 -15.725,0.93011 -1.1159,0.92614 -1.4801,4.45391 -1.4801,14.3369 0,7.20967 0.2912,13.86735 0.6471,14.79484 0.5487,1.42984 2.9854,1.68634 16.0199,1.68634 h 15.3729 z m 39.4484,0.34878 c 0.2239,-11.15942 -0.041,-15.05792 -1.0661,-15.70862 -2.2435,-1.42369 -27.9304,-1.09069 -29.4023,0.38116 -1.3917,1.3917 -1.883,28.67844 -0.5406,30.02091 0.4064,0.40631 7.4826,0.60621 15.725,0.44421 l 14.9862,-0.29454 z M 873.84191,489.95277 c 0.32723,-1.3193 0.45631,-8.39553 0.28683,-15.72495 l -0.30813,-13.32623 h -15.45842 -15.45842 l -0.29895,14.33854 c -0.16442,7.8862 -0.0596,14.96242 0.23306,15.72495 0.4016,1.04654 4.1941,1.38641 15.47054,1.38641 14.60478,0 14.95181,-0.0536 15.53349,-2.39872 z m 38.67806,1.1194 c 1.47186,-1.47186 1.80486,-27.15875 0.38117,-29.40229 -0.65071,-1.02542 -4.54921,-1.28999 -15.70862,-1.0661 l -14.84312,0.29781 -0.29895,14.33854 c -0.16443,7.8862 -0.0595,14.96242 0.23306,15.72495 0.72578,1.89135 28.35435,1.9892 30.23646,0.10709 z m 39.1258,-14.71215 v -15.45843 l -14.84312,-0.29781 c -11.15941,-0.22389 -15.05792,0.0407 -15.70862,1.0661 -1.44583,2.27843 -1.08873,27.93239 0.40968,29.4308 0.93518,0.93519 5.41574,1.22376 15.72494,1.01279 l 14.41712,-0.29503 z m 39.44563,0 v -15.45843 h -15.45842 -15.45842 l -0.29895,14.33854 c -0.16443,7.8862 -0.0545,14.97566 0.24435,15.75436 0.42409,1.10516 3.88146,1.35088 15.75737,1.11988 l 15.21407,-0.29593 z m 38.8138,14.51133 c 0.8274,-0.99689 1.131,-6.13099 0.9301,-15.72495 l -0.2983,-14.24481 h -15.4584 -15.45841 l -0.29895,14.33854 c -0.16443,7.8862 -0.0595,14.96242 0.23306,15.72495 0.7915,2.06254 28.6327,1.97655 30.3509,-0.0937 z m 39.0114,-14.51133 v -15.45843 l -14.8432,-0.29781 c -11.1594,-0.22389 -15.0579,0.0407 -15.7086,1.0661 -1.4458,2.27843 -1.0887,27.93239 0.4097,29.4308 0.9352,0.93519 5.4157,1.22376 15.7249,1.01279 l 14.4172,-0.29503 z m 39.4456,0 v -15.45843 l -14.8431,-0.29781 c -11.1594,-0.22389 -15.0579,0.0407 -15.7087,1.0661 -1.4458,2.27843 -1.0887,27.93239 0.4097,29.4308 0.9352,0.93519 5.4158,1.22376 15.725,1.01279 l 14.4171,-0.29503 z M 911.73718,451.80225 c 1.86831,-0.99989 2.06211,-2.34427 2.06211,-14.30513 0,-7.26084 -0.2912,-13.96038 -0.64711,-14.88786 -0.5486,-1.42964 -2.98289,-1.68634 -15.99147,-1.68634 h -15.34436 v 15.36958 c 0,11.29814 0.35301,15.51202 1.33262,15.9073 2.55544,1.03115 26.54193,0.69759 28.58821,-0.39755 z m 38.7553,0.4565 c 1.42984,-0.54868 1.68634,-2.9854 1.68634,-16.01997 v -15.37286 l -15.72495,0.29502 -15.72494,0.29503 -0.2983,14.2448 c -0.2009,9.59396 0.10277,14.72806 0.93011,15.72495 0.92615,1.11593 4.45392,1.48014 14.33691,1.48014 7.20967,0 13.86734,-0.2912 14.79483,-0.64711 z m 39.96711,-0.83303 c 0.82734,-0.99689 1.13101,-6.13099 0.93011,-15.72495 l -0.2983,-14.2448 h -15.45842 -15.45842 l -0.2983,14.2448 c -0.20091,9.59396 0.10277,14.72806 0.93011,15.72495 0.93053,1.12122 4.52582,1.48014 14.82661,1.48014 10.30078,0 13.89607,-0.35892 14.82661,-1.48014 z m 39.44561,0 c 0.8274,-0.99689 1.131,-6.13099 0.9301,-15.72495 l -0.2983,-14.2448 h -15.4584 -15.45841 l -0.29781,14.84312 c -0.2239,11.15941 0.0407,15.05791 1.06612,15.70862 0.7501,0.47602 7.4219,0.87284 14.8261,0.88182 10.2004,0.0124 13.7598,-0.3423 14.6906,-1.46381 z m 37.8581,0.83303 c 1.4296,-0.54861 1.6863,-2.98289 1.6863,-15.99147 v -15.34436 h -15.3444 c -13.0085,0 -15.4428,0.2567 -15.9914,1.68634 -0.3559,0.92748 -0.6471,7.62006 -0.6471,14.8724 0,11.43345 0.2479,13.33048 1.8656,14.27271 1.9985,1.16401 25.62,1.58307 28.431,0.50438 z m 39.8306,-0.25104 c 1.0254,-0.65071 1.29,-4.54921 1.0661,-15.70862 l -0.2978,-14.84312 h -15.4584 -15.4585 l -0.2983,14.2448 c -0.2009,9.59396 0.1028,14.72806 0.9302,15.72495 0.9307,1.12151 4.4902,1.47618 14.6906,1.46381 7.4042,-0.009 14.076,-0.4058 14.8261,-0.88182 z M 852.17882,407.91652 c -1.49054,-1.49054 -1.8128,-33.54226 -0.36028,-35.83268 0.58672,-0.92516 2.65368,-1.28559 6.11374,-1.06609 l 5.22735,0.33161 0.29315,18.04429 c 0.22293,13.72202 -0.0324,18.25092 -1.0661,18.90692 -2.06757,1.31214 -8.76359,1.06022 -10.20786,-0.38405 z m 33.30792,-0.0942 c -0.28989,-0.75545 -0.39477,-9.27091 -0.23306,-18.92324 l 0.29401,-17.54969 5.22735,-0.33161 c 3.46006,-0.2195 5.52702,0.14093 6.11374,1.06609 1.45252,2.29042 1.13026,34.34214 -0.36028,35.83268 -1.73675,1.73675 -10.36741,1.6631 -11.04176,-0.0942 z m 34.13773,0.0589 c -0.30232,-0.78783 -0.41736,-9.32977 -0.25566,-18.9821 l 0.29402,-17.54969 h 5.33049 5.33049 v 18.65671 18.65672 l -5.07484,0.32538 c -3.5066,0.22483 -5.2447,-0.11726 -5.6245,-1.10702 z m 34.38033,0.6531 c -0.41793,-0.41793 -0.75988,-9.10051 -0.75988,-19.29462 v -18.53475 l 5.59701,0.32224 5.59702,0.32224 v 18.65671 18.65672 l -4.83714,0.31567 c -2.66042,0.17362 -5.17908,-0.0263 -5.59701,-0.44421 z m 33.59516,-0.20573 c -1.03283,-0.67671 -1.28885,-5.22389 -1.0661,-18.93487 l 0.29315,-18.04429 5.62184,-0.3231 5.62185,-0.3231 -0.29136,18.97981 -0.29135,18.97982 -4.26439,0.27816 c -2.34542,0.15298 -4.87606,-0.12261 -5.62364,-0.61243 z m 33.30384,-0.44737 c -0.3023,-0.78783 -0.4174,-9.32977 -0.2557,-18.9821 l 0.294,-17.54969 h 5.3305 5.3305 v 18.65671 18.65672 l -5.0748,0.32538 c -3.5066,0.22483 -5.2447,-0.11726 -5.6245,-1.10702 z m 34.3803,0.6531 c -0.4179,-0.41793 -0.7599,-9.10051 -0.7599,-19.29462 v -18.53475 l 5.5971,0.32224 5.597,0.32224 v 18.65671 18.65672 l -4.8372,0.31567 c -2.6604,0.17362 -5.179,-0.0263 -5.597,-0.44421 z m 33.5952,-0.23368 c -1.0337,-0.656 -1.2891,-5.1849 -1.0661,-18.90692 l 0.2931,-18.04429 5.2274,-0.33161 c 3.46,-0.2195 5.527,0.14093 6.1137,1.06609 1.4525,2.29042 1.1303,34.34214 -0.3603,35.83268 -1.4442,1.44427 -8.1403,1.69619 -10.2078,0.38405 z"
         id="path23" /><path
         style="fill:#000000;fill-opacity:1"
         d="m 958.0434,736.33604 c -109.93927,-7.8616 -200.56,-89.81508 -220.27634,-199.20843 -2.83054,-15.70484 -3.8946,-50.02464 -2.08669,-67.30343 5.05975,-48.35786 25.60637,-95.20038 58.39165,-133.12221 38.69629,-44.75895 96.62859,-74.90992 155.83535,-81.1048 17.2788,-1.8079 51.59863,-0.74384 67.30343,2.08669 67.7944,12.21882 126.9531,52.04741 163.0121,109.74787 52.1384,83.43027 48.4974,190.39867 -9.1896,269.98401 -36.3438,50.14008 -91.6,84.7684 -152.8021,95.75895 -10.7689,1.93387 -39.42355,4.60361 -45.26347,4.21718 -1.1727,-0.0776 -7.88865,-0.55272 -14.92433,-1.05583 z m 47.3713,-29.68369 c 60.6948,-8.92937 110.7809,-39.95333 146.3216,-90.63349 48.251,-68.80486 49.3651,-166.48479 2.6995,-236.67377 -27.7321,-41.71125 -67.9989,-72.44691 -113.7708,-86.84118 -67.53537,-21.23838 -139.25117,-8.60919 -195.62904,34.45037 -9.0464,6.90935 -27.3218,24.82986 -34.94575,34.26714 -36.32338,44.96282 -53.3969,104.44341 -46.0554,160.4475 8.3125,63.41138 41.84411,117.08096 95.39348,152.68366 41.56706,27.63616 95.92985,39.66404 145.98641,32.29977 z M 830.76934,619.90166 c -0.87849,-1.05851 -1.12853,-32.08286 -0.93012,-115.40511 l 0.27137,-113.95743 9.82088,-0.30599 9.82088,-0.306 0.30705,9.90088 0.30705,9.90088 h 6.92964 6.92964 l 0.30653,-9.86141 0.30653,-9.86141 h 9.51487 9.51487 l 0.30653,9.86141 0.30653,9.86141 h 6.92964 6.92964 l 0.30653,-9.86141 0.30653,-9.86141 h 9.02183 9.02182 v 8.44159 c 0,11.77651 0.0256,11.81428 7.99574,11.81428 7.97018,0 7.99574,-0.0378 7.99574,-11.81428 v -8.44159 h 9.02182 9.02183 l 0.30653,9.86141 0.30653,9.86141 h 6.92964 6.92964 l 0.30653,-9.86141 0.30653,-9.86141 h 9.51487 9.51487 l 0.30653,9.86141 0.30653,9.86141 h 6.92964 6.92964 l 0.30653,-9.86141 0.30648,-9.86141 h 9.0219 9.0218 v 8.84862 c 0,5.46079 0.4898,9.33842 1.2793,10.12793 0.7036,0.70362 4.0105,1.27932 7.3486,1.27932 7.2557,0 7.3636,-0.17313 7.3636,-11.81428 v -8.44159 h 9.0218 9.0218 l 0.3066,9.86141 0.3065,9.86141 6.3668,0.32679 c 8.2262,0.42222 9.0916,-0.69384 9.0916,-11.72459 v -8.32502 h 9.0218 9.0219 l 0.3065,9.86141 0.3065,9.86141 h 6.9297 6.9296 l 0.3071,-9.90088 0.307,-9.90088 9.8209,0.306 9.8209,0.30599 0.2713,113.95743 c 0.1984,83.32225 -0.052,114.3466 -0.9301,115.40511 -1.0012,1.20642 -25.1443,1.4477 -144.86362,1.4477 -119.71929,0 -143.86241,-0.24128 -144.86364,-1.4477 z M 873.82061,595.763 v -15.45842 h -15.45842 -15.45842 l -0.29895,14.33854 c -0.16442,7.88619 -0.0545,14.97565 0.24435,15.75435 0.42409,1.10517 3.88147,1.35088 15.75737,1.11988 l 15.21407,-0.29593 z m 39.33157,14.30513 c 0.9656,-2.51631 0.75,-27.41776 -0.25104,-28.99526 -0.65071,-1.02542 -4.54921,-1.29 -15.70862,-1.0661 l -14.84312,0.29781 -0.29895,14.33854 c -0.16443,7.88619 -0.0595,14.96242 0.23306,15.72494 0.40138,1.04597 4.17729,1.38641 15.37679,1.38641 12.55302,0 14.94467,-0.26034 15.49188,-1.68634 z M 951.64577,595.763 v -15.45842 h -15.45842 -15.45842 l -0.29895,14.33854 c -0.16442,7.88619 -0.0545,14.97565 0.24435,15.75435 0.42409,1.10517 3.88147,1.35088 15.75737,1.11988 l 15.21407,-0.29593 z m 39.44563,0 v -15.45842 h -15.45842 -15.45842 l -0.29895,14.33854 c -0.16443,7.88619 -0.0545,14.97565 0.24435,15.75435 0.42409,1.10517 3.88146,1.35088 15.75737,1.11988 l 15.21407,-0.29593 z M 873.1888,570.8287 c 0.82734,-0.99688 1.13101,-6.13099 0.93011,-15.72494 l -0.2983,-14.24481 -15.72494,-0.29502 -15.72495,-0.29503 v 15.39808 c 0,11.32095 0.35285,15.54046 1.33262,15.93581 0.73294,0.29575 7.39062,0.5756 14.79484,0.62189 10.26505,0.0642 13.75394,-0.26736 14.69062,-1.39598 z m 39.44563,0 c 0.82734,-0.99688 1.13101,-6.13099 0.93011,-15.72494 l -0.2983,-14.24481 -15.72495,-0.29502 -15.72494,-0.29503 v 15.30924 c 0,8.42008 0.31983,15.62907 0.71073,16.01997 0.3909,0.3909 7.04858,0.71073 14.79483,0.71073 10.71534,0 14.37793,-0.35403 15.31252,-1.48014 z m 39.30653,-14.80652 0.29519,-15.75361 -15.75361,0.29519 -15.75361,0.29519 -0.2983,14.24481 c -0.20408,9.74559 0.0973,14.72149 0.95424,15.75402 0.99139,1.19455 4.27668,1.44759 15.75672,1.21362 l 14.50418,-0.29561 z m 38.38215,15.38851 c 1.02542,-0.6507 1.29,-4.5492 1.0661,-15.70862 l -0.29781,-14.84312 h -15.45842 -15.45842 l -0.29781,14.84312 c -0.2239,11.15942 0.0407,15.05792 1.0661,15.70862 0.75014,0.47603 7.3607,0.8655 14.69013,0.8655 7.32942,0 13.93998,-0.38947 14.69013,-0.8655 z m 39.58209,-0.58199 c 0.8274,-0.99688 1.131,-6.13099 0.9301,-15.72494 l -0.2983,-14.24481 -15.7249,-0.29502 -15.72496,-0.29503 v 15.30924 c 0,8.42008 0.31983,15.62907 0.71073,16.01997 0.39093,0.3909 7.04853,0.71073 14.79483,0.71073 10.7153,0 14.3779,-0.35403 15.3125,-1.48014 z m 39.3065,-14.80652 0.2952,-15.75361 -15.7536,0.29519 -15.7536,0.29519 -0.2983,14.24481 c -0.2041,9.74559 0.097,14.72149 0.9543,15.75402 0.9913,1.19455 4.2766,1.44759 15.7567,1.21362 l 14.5042,-0.29561 z m 37.9972,15.63955 c 1.4298,-0.54868 1.6863,-2.98539 1.6863,-16.01997 V 540.2689 l -15.7249,0.29503 -15.725,0.29502 -0.2983,14.24481 c -0.2009,9.59395 0.1028,14.72806 0.9302,15.72494 0.9261,1.11594 4.4539,1.48014 14.3369,1.48014 7.2096,0 13.8673,-0.2912 14.7948,-0.64711 z M 874.11624,516.09979 c 0.35098,-18.00385 2.00286,-16.52058 -17.88625,-16.0607 l -13.32622,0.30813 -0.29895,14.33854 c -0.16442,7.8862 -0.0545,14.97566 0.24435,15.75435 0.42409,1.10517 3.88147,1.35089 15.75737,1.11989 l 15.21407,-0.29593 z m 39.4483,0.91947 c 0.20408,-9.74559 -0.0973,-14.72149 -0.95425,-15.75402 -0.99138,-1.19455 -4.27667,-1.44759 -15.75672,-1.21362 l -14.50417,0.2956 -0.29519,15.75361 -0.29519,15.75361 15.75361,-0.29518 15.75361,-0.29519 z m 38.37626,-0.94709 -0.29503,-15.72495 -14.2448,-0.29829 c -9.59396,-0.20091 -14.72807,0.10277 -15.72495,0.93011 -1.12611,0.93458 -1.48014,4.59717 -1.48014,15.31251 0,7.74626 0.31983,14.40393 0.71073,14.79483 0.3909,0.39091 7.59989,0.71074 16.01997,0.71074 h 15.30924 z m 39.1506,-0.26652 v -15.45843 h -15.45842 -15.45842 l -0.29895,14.33854 c -0.16443,7.8862 -0.0545,14.97566 0.24435,15.75435 0.42409,1.10517 3.88146,1.35089 15.75737,1.11989 l 15.21407,-0.29593 z m 39.7439,1.21361 c 0.2041,-9.74559 -0.097,-14.72149 -0.9542,-15.75402 -0.9914,-1.19455 -4.2767,-1.44759 -15.7567,-1.21362 l -14.50421,0.2956 -0.29519,15.75361 -0.29519,15.75361 15.75359,-0.29518 15.7536,-0.29519 z m 38.3763,-0.94709 -0.295,-15.72495 -14.2448,-0.29829 c -9.594,-0.20091 -14.7281,0.10277 -15.725,0.93011 -1.1261,0.93458 -1.4801,4.59717 -1.4801,15.31251 0,7.74626 0.3198,14.40393 0.7107,14.79483 0.3909,0.39091 7.5999,0.71074 16.02,0.71074 h 15.3092 z m 39.1506,-0.26652 v -15.45843 l -14.2448,-0.29829 c -9.594,-0.20091 -14.7281,0.10277 -15.725,0.93011 -1.1261,0.93458 -1.4801,4.59717 -1.4801,15.31251 0,7.74626 0.3324,14.41654 0.7387,14.82285 0.4064,0.40631 7.4826,0.60621 15.725,0.44421 l 14.9862,-0.29454 z M 873.82061,476.36002 v -15.45843 h -15.45842 -15.45842 l -0.29895,14.33854 c -0.16442,7.8862 -0.0545,14.97566 0.24435,15.75436 0.42409,1.10516 3.88147,1.35088 15.75737,1.11988 l 15.21407,-0.29593 z m 38.69936,14.71215 c 1.47186,-1.47186 1.80486,-27.15875 0.38117,-29.40229 -0.65071,-1.02542 -4.54921,-1.28999 -15.70862,-1.0661 l -14.84312,0.29781 -0.29895,14.33854 c -0.16443,7.8862 -0.0595,14.96242 0.23306,15.72495 0.72578,1.89135 28.35435,1.9892 30.23646,0.10709 z m 39.1258,-14.71215 v -15.45843 h -15.45842 -15.45842 l -0.2983,14.24481 c -0.20408,9.7456 0.0973,14.72149 0.95424,15.75402 0.99139,1.19455 4.27668,1.44759 15.75672,1.21362 l 14.50418,-0.2956 z m 39.44563,0 v -15.45843 h -15.45842 -15.45842 l -0.29895,14.33854 c -0.16443,7.8862 -0.0545,14.97566 0.24435,15.75436 0.42409,1.10516 3.88146,1.35088 15.75737,1.11988 l 15.21407,-0.29593 z m 39.4456,0 v -15.45843 h -15.4584 -15.45841 l -0.29895,14.33854 c -0.16443,7.8862 -0.0545,14.97566 0.24435,15.75436 0.42409,1.10516 3.88151,1.35088 15.75741,1.11988 l 15.214,-0.29593 z m 38.3796,0 v -15.45843 l -14.8432,-0.29781 c -11.1594,-0.22389 -15.0579,0.0407 -15.7086,1.0661 -1.4458,2.27843 -1.0887,27.93239 0.4097,29.4308 0.9352,0.93519 5.4157,1.22376 15.7249,1.01279 l 14.4172,-0.29503 z m 39.4456,0 v -15.45843 h -15.4584 -15.4585 l -0.2989,14.33854 c -0.1644,7.8862 -0.055,14.97566 0.2443,15.75436 0.4241,1.10516 3.8815,1.35088 15.7574,1.11988 l 15.2141,-0.29593 z M 912.51997,451.62654 c 0.86643,-0.86643 1.27932,-5.84336 1.27932,-15.42091 0,-12.89028 -0.18247,-14.23925 -2.06211,-15.2452 -2.19223,-1.17325 -25.3893,-1.5483 -28.23449,-0.4565 -1.42838,0.54812 -1.68634,2.96722 -1.68634,15.81379 0,8.34167 0.31983,15.4865 0.71073,15.87741 1.3229,1.3229 28.61886,0.80544 29.99289,-0.56859 z m 37.97251,0.63221 c 1.42883,-0.54829 1.68634,-2.97283 1.68634,-15.87741 0,-12.90458 -0.25751,-15.32912 -1.68634,-15.87741 -2.84519,-1.0918 -26.04226,-0.71675 -28.23449,0.4565 -1.87965,1.00595 -2.06211,2.35492 -2.06211,15.2452 0,9.57755 0.41288,14.55448 1.27932,15.42091 1.34534,1.34534 25.77202,1.87753 29.01728,0.63221 z m 39.44563,0 c 1.42411,-0.54649 1.68634,-2.91712 1.68634,-15.2452 0,-9.93261 -0.40886,-15.00696 -1.27932,-15.87741 -1.77253,-1.77253 -27.65178,-1.77253 -29.4243,0 -0.86482,0.86481 -1.27932,5.80431 -1.27932,15.2452 0,9.44089 0.4145,14.38039 1.27932,15.2452 1.34533,1.34534 25.77202,1.87753 29.01728,0.63221 z m 39.85269,-0.63221 c 0.8664,-0.86643 1.2793,-5.84336 1.2793,-15.42091 0,-12.89028 -0.1825,-14.23925 -2.0621,-15.2452 -2.1923,-1.17325 -25.3893,-1.5483 -28.2345,-0.4565 -1.42903,0.54836 -1.68636,2.97505 -1.68636,15.90263 0,11.20689 0.35366,15.39822 1.33266,15.79324 2.9487,1.18984 28.0987,0.69897 29.371,-0.57326 z m 39.4227,-14.63045 c 0.2237,-11.5866 -0.039,-15.58991 -1.0661,-16.24167 -1.9924,-1.26433 -26.1968,-1.0901 -28.6186,0.20601 -1.8797,1.00595 -2.0621,2.35492 -2.0621,15.2452 0,9.74882 0.4062,14.54784 1.3078,15.44942 0.9352,0.93519 5.4157,1.22377 15.7249,1.01279 l 14.4172,-0.29503 z m 37.9954,15.26266 c 1.4288,-0.54829 1.6863,-2.97283 1.6863,-15.87741 0,-12.90458 -0.2575,-15.32912 -1.6863,-15.87741 -2.8452,-1.0918 -26.0423,-0.71675 -28.2345,0.4565 -1.8796,1.00595 -2.0621,2.35492 -2.0621,15.2452 0,9.57755 0.4129,14.55448 1.2793,15.42091 1.3454,1.34534 25.772,1.87753 29.0173,0.63221 z M 851.9656,389.41731 v -18.71243 l 5.59702,0.32224 5.59701,0.32224 0.2917,18.39019 0.2917,18.39019 h -5.88871 -5.88872 z m 33.29039,0.32224 0.2917,-18.39019 5.59702,-0.32224 5.59701,-0.32224 v 18.71243 18.71243 h -5.88871 -5.88872 z m 34.11514,0 0.2917,-18.39019 h 5.33049 5.33049 l 0.2917,18.39019 0.2917,18.39019 h -5.91389 -5.91389 z m 34.11514,0 0.2917,-18.39019 h 5.33049 5.33049 l 0.2917,18.39019 0.2917,18.39019 h -5.91389 -5.91389 z m 33.27907,17.01477 c -0.29029,-0.75648 -0.39517,-9.03206 -0.23306,-18.39019 l 0.29473,-17.01477 h 5.33049 5.33049 l 0.2917,18.39019 0.2917,18.39019 h -5.38913 c -3.41726,0 -5.58224,-0.50326 -5.91692,-1.37542 z m 33.88506,-17.01477 0.2917,-18.39019 h 5.3305 5.3305 l 0.2917,18.39019 0.2917,18.39019 h -5.9139 -5.9139 z m 34.1152,0 0.2917,-18.39019 h 5.3305 5.3305 l 0.2917,18.39019 0.2917,18.39019 h -5.9139 -5.9139 z m 33.5184,17.67946 c -0.8883,-0.88832 -0.9461,-32.61658 -0.064,-34.91636 0.4681,-1.2198 2.0903,-1.68634 5.8635,-1.68634 h 5.2165 v 18.65671 18.65672 h -5.1529 c -2.834,0 -5.4726,-0.31983 -5.8635,-0.71073 z"
         id="path22" /><path
         style="fill:#000000;fill-opacity:1"
         d="m 944.71613,734.92162 c -26.78601,-3.49142 -48.83761,-10.14831 -74.09381,-22.36731 -49.38324,-23.89169 -86.9138,-61.23257 -111.49128,-110.92777 -10.7744,-21.78564 -16.9587,-41.04733 -21.90654,-68.23028 -2.77824,-15.26345 -2.78825,-60.33388 -0.0168,-75.69296 9.55015,-52.92585 31.94596,-96.6531 67.93583,-132.64296 35.98986,-35.98986 79.71711,-58.38568 132.64296,-67.93583 15.35907,-2.77145 60.42951,-2.76145 75.69301,0.0168 36.2243,6.59355 66.5298,18.36359 94.3496,36.6435 60.1066,39.49494 99.3367,103.13159 107.6232,174.57947 1.4118,12.17272 1.4277,41.85513 0.029,54.371 -11.566,103.50676 -89.951,188.97728 -192.0255,209.38332 -6.0735,1.21416 -15.3603,2.69003 -20.6375,3.27971 -12.81661,1.43214 -45.51607,1.16386 -58.10238,-0.47669 z m 58.86527,-27.80899 c 47.4591,-6.53592 89.4538,-27.28663 122.8908,-60.72364 40.4679,-40.46792 62.3929,-93.59448 62.3755,-151.14239 -0.021,-69.55349 -33.3895,-133.72122 -90.6134,-174.25043 -77.4214,-54.83412 -183.8297,-51.01812 -257.34292,9.22878 -9.37724,7.685 -25.3698,23.89312 -32.6881,33.12867 -58.30321,73.57755 -61.23391,178.39849 -7.12391,254.79744 34.09732,48.14267 84.81847,79.49664 143.10372,88.46152 16.41547,2.52487 43.06636,2.74923 59.39831,0.50005 z M 830.85686,620.07004 c -0.97889,-0.97889 -1.27932,-27.74656 -1.27932,-113.9853 0,-61.98829 0.2912,-113.46484 0.64711,-114.39233 0.52267,-1.36205 2.4626,-1.68634 10.08793,-1.68634 h 9.44081 l 0.30653,9.86141 0.30653,9.86141 6.36683,0.32679 c 8.22617,0.42222 9.0916,-0.69384 9.0916,-11.72459 v -8.32502 h 8.52878 8.52879 v 8.32502 c 0,11.03075 0.86543,12.14681 9.09159,11.72459 l 6.36683,-0.32679 0.30653,-9.86141 0.30653,-9.86141 h 9.02183 9.02182 v 8.44159 c 0,11.77651 0.0256,11.81428 7.99574,11.81428 7.97018,0 7.99574,-0.0378 7.99574,-11.81428 v -8.44159 h 9.02182 9.02183 l 0.30653,9.86141 0.30653,9.86141 6.36682,0.32679 c 8.22617,0.42222 9.0916,-0.69384 9.0916,-11.72459 v -8.32502 h 9.02183 9.02183 l 0.30653,9.86141 0.30653,9.86141 h 6.92964 6.92964 l 0.30653,-9.86141 0.30648,-9.86141 h 9.0219 9.0218 l 0.016,8.79531 c 0.01,4.83742 0.4125,9.41986 0.8967,10.1832 0.6113,0.96381 2.968,1.28957 7.7129,1.0661 l 6.8325,-0.32179 0.3066,-9.86141 0.3065,-9.86141 h 8.9818 8.9818 l 0.3066,9.86141 0.3065,9.86141 6.22,0.32241 c 8.6033,0.44595 9.2384,-0.31805 9.2384,-11.11393 v -8.9313 h 8.5288 8.5288 v 8.32502 c 0,11.03075 0.8654,12.14681 9.0916,11.72459 l 6.3668,-0.32679 0.3071,-9.90088 0.307,-9.90088 9.8209,0.306 9.8209,0.30599 0.2713,113.95743 c 0.1984,83.32225 -0.052,114.3466 -0.9301,115.40511 -1.6686,2.01056 -287.63132,2.1768 -289.63974,0.16838 z M 873.82061,595.763 v -15.45842 h -15.45842 -15.45842 l -0.29895,14.33854 c -0.16442,7.88619 -0.0545,14.97565 0.24435,15.75435 0.42409,1.10517 3.88147,1.35088 15.75737,1.11988 l 15.21407,-0.29593 z m 39.44563,0 v -15.45842 l -14.91645,-0.29829 c -13.09459,-0.26185 -15.0803,-0.0742 -16.258,1.53639 -1.40658,1.92362 -1.91218,23.17577 -0.66234,27.84082 0.64352,2.40195 0.8076,2.42349 16.24344,2.13219 l 15.59335,-0.29427 z m 38.37953,0 v -15.45842 h -15.45842 -15.45842 l -0.29895,14.33854 c -0.16442,7.88619 -0.0545,14.97565 0.24435,15.75435 0.42409,1.10517 3.88147,1.35088 15.75737,1.11988 l 15.21407,-0.29593 z m 39.44563,0 v -15.45842 h -15.45842 -15.45842 l -0.29895,14.33854 c -0.16443,7.88619 -0.0545,14.97565 0.24435,15.75435 0.42409,1.10517 3.88146,1.35088 15.75737,1.11988 l 15.21407,-0.29593 z M 873.05232,571.41069 c 1.02542,-0.6507 1.29,-4.5492 1.0661,-15.70862 l -0.29781,-14.84312 -15.72494,-0.29502 -15.72495,-0.29503 v 15.30924 c 0,8.42008 0.31983,15.62907 0.71073,16.01997 1.01919,1.01919 28.33865,0.84835 29.97087,-0.18742 z m 39.58211,-0.58199 c 0.82734,-0.99688 1.13101,-6.13099 0.93011,-15.72494 l -0.2983,-14.24481 -15.37672,-0.29692 c -11.5866,-0.22374 -15.58991,0.039 -16.24167,1.06609 -1.26432,1.99237 -1.09009,26.19683 0.20601,28.61861 1.00645,1.88057 2.35586,2.06211 15.32788,2.06211 10.83493,0 14.51698,-0.35268 15.45269,-1.48014 z m 39.30653,-14.80652 0.29519,-15.75361 -15.75361,0.29519 -15.75361,0.29519 -0.2983,14.24481 c -0.20408,9.74559 0.0973,14.72149 0.95424,15.75402 0.99139,1.19455 4.27668,1.44759 15.75672,1.21362 l 14.50418,-0.29561 z m 39.44563,0 0.29519,-15.75361 -15.75361,0.29519 -15.75361,0.29519 -0.29895,14.33854 c -0.16443,7.88619 -0.0545,14.97565 0.24435,15.75435 0.42409,1.10517 3.88146,1.35089 15.75737,1.11989 l 15.21407,-0.29594 z m 38.38211,15.38851 c 1.0255,-0.6507 1.29,-4.5492 1.0661,-15.70862 l -0.2978,-14.84312 -15.7249,-0.29502 -15.72496,-0.29503 v 15.30924 c 0,8.42008 0.31983,15.62907 0.71073,16.01997 1.01923,1.01919 28.33863,0.84835 29.97083,-0.18742 z m 39.4677,-0.38116 c 1.4715,-1.47153 1.805,-27.15853 0.3817,-29.40141 -0.6518,-1.02705 -4.6551,-1.28983 -16.2417,-1.06609 l -15.3767,0.29692 -0.2983,14.24481 c -0.2009,9.59395 0.1028,14.72806 0.9301,15.72494 1.632,1.96635 28.662,2.14372 30.6049,0.20083 z m 39.421,-15.00735 0.2952,-15.75361 -15.7536,0.29519 -15.7537,0.29519 -0.2978,14.84312 c -0.2237,11.15302 0.041,15.06238 1.0661,15.72507 0.7502,0.48507 7.8405,0.76196 15.7563,0.6153 l 14.3923,-0.26665 z M 873.82061,515.80565 v -15.45843 h -15.45842 -15.45842 l -0.29519,15.75361 -0.29519,15.75361 15.75361,-0.29518 15.75361,-0.29519 z m 39.74393,1.21361 c 0.2009,-9.59395 -0.10277,-14.72806 -0.93011,-15.72494 -0.93571,-1.12746 -4.61776,-1.48015 -15.45269,-1.48015 -12.97202,0 -14.32143,0.18154 -15.32788,2.06211 -1.1797,2.20429 -1.54556,25.39646 -0.44584,28.26228 0.5702,1.48591 2.73481,1.67494 16.258,1.41982 l 15.60022,-0.29431 z m 38.37626,-0.94709 -0.29503,-15.72495 -14.2448,-0.29829 c -9.59396,-0.20091 -14.72807,0.10277 -15.72495,0.93011 -1.12611,0.93458 -1.48014,4.59717 -1.48014,15.31251 0,7.74626 0.31983,14.40393 0.71073,14.79483 0.3909,0.39091 7.59989,0.71074 16.01997,0.71074 h 15.30924 z m 39.1506,-0.26652 v -15.45843 h -15.45842 -15.45842 l -0.29895,14.33854 c -0.16443,7.8862 -0.0545,14.97566 0.24435,15.75435 0.42409,1.10517 3.88146,1.35089 15.75737,1.11989 l 15.21407,-0.29593 z m 39.4456,0 v -15.45843 h -15.4584 -15.45841 l -0.29519,15.75361 -0.29519,15.75361 15.75359,-0.29518 15.7536,-0.29519 z m 39.3316,14.30513 c 1.2453,-3.24526 0.7131,-27.67195 -0.6322,-29.01729 -1.7762,-1.77619 -28.7142,-1.77619 -30.4904,0 -1.374,1.37403 -1.8915,28.66999 -0.5686,29.99289 0.3909,0.39091 7.5357,0.71074 15.8774,0.71074 12.8466,0 15.2657,-0.25797 15.8138,-1.68634 z m 38.7886,-14.03861 -0.295,-15.72495 h -15.4584 -15.4585 l -0.2989,14.33854 c -0.1644,7.8862 -0.06,14.96242 0.2331,15.72495 0.4029,1.04996 4.2984,1.38641 16.0524,1.38641 h 15.5203 z M 873.82061,476.36002 v -15.45843 h -15.45842 -15.45842 l -0.29895,14.33854 c -0.16442,7.8862 -0.0545,14.97566 0.24435,15.75436 0.42409,1.10516 3.88147,1.35088 15.75737,1.11988 l 15.21407,-0.29593 z m 39.44563,0 v -15.45843 l -15.59335,-0.29427 c -15.43584,-0.2913 -15.59992,-0.26976 -16.24344,2.1322 -1.09126,4.07315 -0.75185,25.352 0.4399,27.57881 1.04322,1.94927 2.14562,2.07102 16.258,1.79558 l 15.13889,-0.29547 z m 38.37953,0 v -15.45843 h -15.45842 -15.45842 l -0.29895,14.33854 c -0.16442,7.8862 -0.0545,14.97566 0.24435,15.75436 0.42409,1.10516 3.88147,1.35088 15.75737,1.11988 l 15.21407,-0.29593 z m 39.44563,0 v -15.45843 h -15.45842 -15.45842 l -0.29895,14.33854 c -0.16443,7.8862 -0.0545,14.97566 0.24435,15.75436 0.42409,1.10516 3.88146,1.35088 15.75737,1.11988 l 15.21407,-0.29593 z m 39.4456,0 v -15.45843 h -15.4584 -15.45841 l -0.29895,14.33854 c -0.16443,7.8862 -0.0545,14.97566 0.24435,15.75436 0.42409,1.10516 3.88151,1.35088 15.75741,1.11988 l 15.214,-0.29593 z m 38.6994,14.71215 c 1.3453,-1.34534 1.8775,-25.77203 0.6322,-29.01728 -0.5483,-1.42883 -2.9728,-1.68635 -15.8774,-1.68635 -12.9046,0 -15.3291,0.25752 -15.8774,1.68635 -0.3559,0.92748 -0.6471,7.36479 -0.6471,14.30513 0,6.94033 0.2912,13.37764 0.6471,14.30513 0.5465,1.42411 2.9171,1.68634 15.2452,1.68634 9.9326,0 15.0069,-0.40887 15.8774,-1.27932 z m 39.1258,-14.71215 v -15.45843 h -15.4584 -15.4585 l -0.2989,14.33854 c -0.1644,7.8862 -0.055,14.97566 0.2443,15.75436 0.4241,1.10516 3.8815,1.35088 15.7574,1.11988 l 15.2141,-0.29593 z M 912.51997,451.62654 c 1.77619,-1.77619 1.77619,-28.71422 0,-30.4904 -0.86101,-0.86102 -5.71631,-1.27932 -14.84922,-1.27932 -10.91481,0 -13.8977,0.32779 -15.2452,1.67529 -1.33677,1.33677 -1.6753,4.25923 -1.6753,14.46242 0,7.03291 0.49662,13.71506 1.10361,14.84922 1.00595,1.87964 2.35492,2.06211 15.2452,2.06211 9.57755,0 14.55448,-0.41289 15.42091,-1.27932 z m 39.42273,-14.63045 c 0.22373,-11.5866 -0.039,-15.58991 -1.0661,-16.24167 -2.24288,-1.4233 -27.92988,-1.08981 -29.4014,0.38172 -1.79927,1.79926 -1.77413,28.71628 0.0285,30.51891 0.93518,0.93519 5.41574,1.22377 15.72494,1.01279 l 14.41712,-0.29503 z m 39.44562,0 c 0.22374,-11.5866 -0.039,-15.58991 -1.06609,-16.24167 -2.24288,-1.4233 -27.92988,-1.08981 -29.4014,0.38172 -1.83892,1.83891 -1.79008,30.31413 0.0533,31.07858 0.73294,0.30395 7.80917,0.46387 15.72495,0.35537 l 14.39232,-0.19728 z m 38.40248,14.63045 c 1.7761,-1.77619 1.7761,-28.71422 0,-30.4904 -1.3454,-1.34534 -25.7721,-1.87753 -29.0173,-0.63221 -1.4284,0.54812 -1.68636,2.96722 -1.68636,15.81379 0,8.34167 0.31983,15.4865 0.71073,15.87741 1.32293,1.3229 28.61883,0.80544 29.99293,-0.56859 z m 39.6213,-0.78279 c 0.607,-1.13416 1.1036,-7.64225 1.1036,-14.46241 0,-6.82017 -0.4966,-13.32825 -1.1036,-14.46241 -1.006,-1.87965 -2.3549,-2.06211 -15.2452,-2.06211 -9.5776,0 -14.5545,0.41288 -15.4209,1.27932 -1.7762,1.77618 -1.7762,28.71421 0,30.4904 0.8664,0.86643 5.8433,1.27932 15.4209,1.27932 12.8903,0 14.2392,-0.18247 15.2452,-2.06211 z m 39.247,-13.84766 c 0.2237,-11.5866 -0.039,-15.58991 -1.0661,-16.24167 -2.2429,-1.4233 -27.9299,-1.08981 -29.4014,0.38172 -1.7993,1.79926 -1.7741,28.71628 0.028,30.51891 0.9352,0.93519 5.4158,1.22377 15.725,1.01279 l 14.4171,-0.29503 z m -256.45239,-47.19995 0.29194,-18.44678 h 5.33049 5.33049 v 18.12366 18.12367 l -5.62243,0.32312 -5.62243,0.32312 z m 33.27931,16.95818 c -0.29028,-0.75648 -0.39516,-9.03206 -0.23306,-18.39019 l 0.29473,-17.01477 h 5.33049 5.33049 l 0.2917,18.39019 0.2917,18.39019 h -5.38912 c -3.41727,0 -5.58225,-0.50326 -5.91693,-1.37542 z m 33.88511,-17.01477 0.2917,-18.39019 h 5.33049 5.33049 l 0.2917,18.39019 0.2917,18.39019 h -5.91389 -5.91389 z m 34.1149,0.0566 0.29194,-18.44678 h 5.33049 5.33049 v 18.12366 18.12367 l -5.62243,0.32312 -5.62244,0.32312 z m 33.51866,17.62287 c -1.03504,-1.03504 -0.84028,-33.68168 0.21083,-35.33924 0.57443,-0.90586 2.54878,-1.28302 5.58069,-1.0661 l 4.69178,0.33569 0.2917,18.39019 0.2917,18.39019 h -5.17798 c -2.84789,0 -5.49782,-0.31983 -5.88872,-0.71073 z m 33.64571,-17.67946 0.2917,-18.39019 h 5.3305 5.3305 l 0.2917,18.39019 0.2917,18.39019 h -5.9139 -5.9139 z m 34.1149,0.0566 0.292,-18.44678 h 5.3305 5.3305 v 18.12366 18.12367 l -5.6225,0.32312 -5.6224,0.32312 z m 33.5187,17.62287 c -1.035,-1.03504 -0.8403,-33.68168 0.2108,-35.33924 0.5745,-0.90586 2.5488,-1.28302 5.5807,-1.0661 l 4.6918,0.33569 0.2917,18.39019 0.2917,18.39019 h -5.178 c -2.8479,0 -5.4978,-0.31983 -5.8887,-0.71073 z"
         id="path21" /><path
         style="fill:#000000;fill-opacity:1"
         d="M 945.24918,734.91992 C 863.42392,723.71525 795.16105,674.83749 759.23414,601.72895 732.36349,547.0492 727.25203,483.97238 744.94691,425.42055 c 7.71752,-25.53706 21.15175,-52.21022 37.02465,-73.51106 10.96742,-14.71787 35.30325,-39.05371 50.02113,-50.02113 48.76681,-36.33991 111.79059,-53.05452 172.42491,-45.72904 70.3447,8.49862 134.287,48.13364 172.9343,107.1943 21.2435,32.46415 33.9278,68.15247 38.2004,107.48019 1.8331,16.87209 0.801,49.32634 -2.0742,65.2277 -12.2242,67.60592 -49.5291,124.53121 -105.649,161.21503 -27.8409,18.19874 -57.539,29.90518 -91.6844,36.14029 -15.8529,2.89481 -54.71503,3.71875 -70.89552,1.50309 z m 59.24572,-27.80717 c 95.2676,-13.28753 169.4135,-87.43345 182.701,-182.70101 2.0973,-15.03666 2.1278,-41.17577 0.066,-56.79243 -8.3739,-63.43514 -44.9855,-119.94362 -99.5979,-153.72552 -70.67,-43.71463 -161.56192,-42.02812 -230.54415,4.27778 -22.74627,15.26895 -43.59633,36.11901 -58.86528,58.86528 -46.3059,68.98223 -47.99241,159.87417 -4.27778,230.54411 33.50476,54.16446 90.03503,91.00926 152.77265,99.57282 14.52416,1.98252 43.38408,1.96201 57.74526,-0.041 z M 831.44321,620.19786 c -1.75824,-1.02408 -1.86567,-7.58593 -1.86567,-113.95288 0,-62.07642 0.2912,-113.62508 0.64711,-114.55257 0.52267,-1.36205 2.4626,-1.68634 10.08793,-1.68634 h 9.44081 l 0.30653,9.86141 0.30653,9.86141 6.83257,0.32179 c 4.74481,0.22347 7.10155,-0.10229 7.71288,-1.0661 0.48418,-0.76334 0.88767,-5.34578 0.89665,-10.1832 l 0.0163,-8.79531 h 8.52878 8.52879 v 8.9313 c 0,10.79588 0.63506,11.55988 9.2384,11.11393 l 6.22002,-0.32241 0.30653,-9.86141 0.30653,-9.86141 h 8.98182 8.98182 l 0.30653,9.86141 0.30653,9.86141 h 7.46269 7.46269 l 0.30653,-9.86141 0.30653,-9.86141 h 8.98182 8.98182 l 0.30653,9.86141 0.30653,9.86141 6.83256,0.32179 c 4.74482,0.22347 7.10155,-0.10229 7.71289,-1.0661 0.48418,-0.76334 0.88767,-5.34578 0.89665,-10.1832 l 0.0163,-8.79531 h 8.52879 8.52878 v 8.32502 c 0,11.03075 0.86543,12.14681 9.0916,11.72459 l 6.36683,-0.32679 0.30653,-9.86141 0.30643,-9.86141 h 9.0219 9.0218 l 0.016,8.79531 c 0.01,4.83742 0.4125,9.41986 0.8967,10.1832 0.6113,0.96381 2.968,1.28957 7.7129,1.0661 l 6.8325,-0.32179 0.3066,-9.86141 0.3065,-9.86141 h 8.9818 8.9818 l 0.3066,9.86141 0.3065,9.86141 6.22,0.32241 c 8.6033,0.44595 9.2384,-0.31805 9.2384,-11.11393 v -8.9313 h 8.5288 8.5288 v 8.9313 c 0,10.79588 0.635,11.55988 9.2384,11.11393 l 6.22,-0.32241 0.3065,-9.86141 0.3066,-9.86141 h 9.4408 c 7.6253,0 9.5652,0.32429 10.0879,1.68634 0.3559,0.92749 0.6471,52.40404 0.6471,114.39233 0,86.23874 -0.3004,113.00641 -1.2793,113.9853 -1.6841,1.68405 -286.07797,1.80985 -288.96584,0.12782 z m 42.3774,-24.43486 v -15.45842 h -15.45842 -15.45842 l -0.29895,14.33854 c -0.16442,7.88619 -0.0545,14.97565 0.24435,15.75435 0.42409,1.10517 3.88147,1.35088 15.75737,1.11988 l 15.21407,-0.29593 z m 39.44563,0 v -15.45842 l -15.37672,-0.29692 c -11.5866,-0.22374 -15.58991,0.039 -16.24167,1.06609 -1.00706,1.58696 -1.21282,26.48659 -0.23983,29.02217 0.5702,1.4859 2.73481,1.67494 16.258,1.41981 l 15.60022,-0.29431 z m 39.33157,14.30513 c 0.9653,-2.51552 0.75016,-27.41752 -0.2505,-28.99438 -0.65175,-1.02705 -4.65507,-1.28983 -16.24167,-1.06609 l -15.37671,0.29692 -0.29895,14.33854 c -0.16442,7.88619 -0.0595,14.96242 0.23306,15.72494 0.4026,1.04915 4.27287,1.38641 15.90984,1.38641 13.03909,0 15.47623,-0.25646 16.02493,-1.68634 z M 991.0914,595.763 v -15.45842 h -15.45842 -15.45842 l -0.29895,14.33854 c -0.16443,7.88619 -0.0545,14.97565 0.24435,15.75435 0.42409,1.10517 3.88146,1.35088 15.75737,1.11988 l 15.21407,-0.29593 z M 874.11754,556.39908 c 0.22373,-11.5866 -0.039,-15.58992 -1.0661,-16.24167 -1.57686,-1.00066 -26.47886,-1.21579 -28.99438,-0.2505 -1.42837,0.54812 -1.68634,2.96723 -1.68634,15.81379 0,8.34167 0.33244,15.49912 0.73875,15.90543 0.40631,0.40631 7.48253,0.6062 15.72494,0.44421 l 14.9862,-0.29455 z m 38.40243,14.63045 c 1.77619,-1.77619 1.77619,-28.71422 0,-30.49041 -0.86101,-0.86101 -5.71631,-1.27932 -14.84922,-1.27932 -10.91481,0 -13.8977,0.32779 -15.2452,1.6753 -1.34751,1.34751 -1.6753,4.33039 -1.6753,15.2452 0,9.13291 0.4183,13.98821 1.27932,14.84923 1.77618,1.77618 28.71421,1.77618 30.4904,0 z m 39.44563,0 c 0.86102,-0.86102 1.27932,-5.71632 1.27932,-14.84923 0,-10.91481 -0.32779,-13.89769 -1.6753,-15.2452 -1.34751,-1.34751 -4.33039,-1.6753 -15.2452,-1.6753 -9.13291,0 -13.98821,0.41831 -14.84922,1.27932 -1.83921,1.83921 -1.79034,30.31974 0.0533,31.06367 2.95714,1.19323 29.1642,0.69964 30.4371,-0.57326 z m 39.42272,-14.63045 c 0.22374,-11.5866 -0.039,-15.58992 -1.06609,-16.24167 -1.57686,-1.00066 -26.47886,-1.21579 -28.99438,-0.2505 -1.42838,0.54812 -1.68634,2.96723 -1.68634,15.81379 0,8.34167 0.33243,15.49912 0.73875,15.90543 0.40631,0.40631 7.48253,0.6062 15.72494,0.44421 l 14.9862,-0.29455 z m 39.44608,0.59777 c 0.201,-9.98882 -0.1004,-15.25833 -0.9301,-16.258 -1.8903,-2.27764 -27.9031,-2.10864 -30.20796,0.19625 -1.33677,1.33676 -1.6753,4.25923 -1.6753,14.46241 0,7.03291 0.50359,13.72809 1.1191,14.87817 1.04326,1.94927 2.14566,2.07102 16.25796,1.79559 l 15.1389,-0.29548 z m 38.402,14.03268 c 1.7762,-1.77619 1.7762,-28.71422 0,-30.49041 -1.6153,-1.61525 -26.7401,-1.76385 -29.7076,-0.17571 -1.8797,1.00596 -2.0621,2.35493 -2.0621,15.2452 0,9.57756 0.4129,14.55448 1.2793,15.42092 1.7762,1.77618 28.7142,1.77618 30.4904,0 z m 39.4227,-14.63045 c 0.2237,-11.5866 -0.039,-15.58992 -1.0661,-16.24167 -2.2429,-1.4233 -27.9299,-1.08981 -29.4014,0.38171 -1.3927,1.39272 -1.8857,29.7419 -0.5406,31.08701 0.4064,0.40631 7.4826,0.6062 15.725,0.44421 l 14.9862,-0.29455 z M 872.58251,531.52167 c 1.61059,-1.17769 1.79824,-3.1634 1.53639,-16.258 l -0.29829,-14.91645 h -15.45842 -15.45842 l -0.29693,15.37672 c -0.22373,11.5866 0.039,15.58991 1.0661,16.24167 2.29239,1.45471 26.82828,1.07794 28.90957,-0.44394 z m 39.44563,0 c 1.61059,-1.17769 1.79824,-3.1634 1.53639,-16.258 l -0.29829,-14.91645 -14.77894,-0.29739 c -9.98883,-0.201 -15.25834,0.10047 -16.258,0.93011 -2.27764,1.89028 -2.10865,27.90308 0.19625,30.20798 2.17892,2.17893 26.70106,2.4554 29.60259,0.33375 z m 39.54148,-0.33375 c 2.3049,-2.3049 2.47389,-28.3177 0.19625,-30.20798 -0.99967,-0.82964 -6.26917,-1.13111 -16.258,-0.93011 l -14.77894,0.29739 -0.29829,14.91645 c -0.26185,13.0946 -0.0742,15.08031 1.53639,16.258 2.90152,2.12165 27.42366,1.84518 29.60259,-0.33375 z m 38.75261,0.77769 c 1.02705,-0.65176 1.28983,-4.65507 1.06609,-16.24167 l -0.29692,-15.37672 h -15.45842 -15.45842 l -0.29455,15.64138 c -0.26801,14.232 -0.12391,15.6858 1.59915,16.13433 3.34275,0.87015 27.43098,0.73877 28.84307,-0.15732 z m 38.97667,-0.44394 c 1.6106,-1.17769 1.7983,-3.1634 1.5364,-16.258 l -0.2983,-14.91645 -14.9164,-0.29828 c -13.0946,-0.26186 -15.0803,-0.0742 -16.25802,1.53638 -2.12165,2.90153 -1.84517,27.42367 0.33376,29.6026 2.17896,2.17893 26.70106,2.4554 29.60256,0.33375 z m 39.1547,0.23794 c 1.8796,-1.00596 2.0621,-2.35493 2.0621,-15.24521 0,-9.57755 -0.4129,-14.55448 -1.2793,-15.42091 -1.7762,-1.77619 -28.7142,-1.77619 -30.4904,0 -0.8663,0.86629 -1.2793,5.83992 -1.2793,15.40545 0,12.32876 0.2373,14.26439 1.8656,15.21278 2.4531,1.42878 26.4673,1.46827 29.1213,0.0479 z m 39.1394,0.206 c 1.0271,-0.65176 1.2898,-4.65507 1.0661,-16.24167 l -0.2969,-15.37672 h -15.4584 -15.4585 l -0.2982,14.91645 c -0.2619,13.0946 -0.074,15.08031 1.5363,16.258 2.0813,1.52188 26.6172,1.89865 28.9096,0.44394 z M 873.82061,476.36002 v -15.45843 l -15.72494,-0.29502 -15.72495,-0.29503 v 15.30924 c 0,8.42009 0.33244,15.64168 0.73875,16.04799 0.40631,0.40631 7.48253,0.60621 15.72494,0.44421 l 14.9862,-0.29454 z m 39.44563,0 v -15.45843 l -15.37672,-0.29692 c -11.5866,-0.22374 -15.58991,0.039 -16.24167,1.0661 -1.00706,1.58696 -1.21282,26.48658 -0.23983,29.02216 0.5702,1.48591 2.73481,1.67494 16.258,1.41982 l 15.60022,-0.29431 z m 38.69936,14.71215 c 1.47152,-1.47152 1.80501,-27.15852 0.38171,-29.4014 -0.65175,-1.02706 -4.65507,-1.28984 -16.24167,-1.0661 l -15.37671,0.29692 -0.29895,14.33854 c -0.16442,7.8862 -0.0595,14.96242 0.23306,15.72495 0.7268,1.89401 29.41748,1.99217 31.30256,0.10709 z m 39.1258,-14.71215 v -15.45843 h -15.45842 -15.45842 l -0.29895,14.33854 c -0.16443,7.8862 -0.0545,14.97566 0.24435,15.75436 0.42409,1.10516 3.88146,1.35088 15.75737,1.11988 l 15.21407,-0.29593 z m 39.4456,0 v -15.45843 l -15.5933,-0.29427 c -15.43586,-0.2913 -15.59994,-0.26976 -16.24346,2.1322 -1.24692,4.65417 -0.75262,26.97991 0.62792,28.36045 0.93764,0.93766 5.53304,1.22393 16.25804,1.01279 l 14.9508,-0.29432 z m 39.3316,14.30513 c 0.9653,-2.51552 0.7502,-27.41752 -0.2505,-28.99438 -0.6518,-1.02706 -4.6551,-1.28984 -16.2417,-1.0661 l -15.3767,0.29692 -0.2989,14.33854 c -0.1645,7.8862 -0.06,14.96242 0.233,15.72495 0.4026,1.04915 4.2729,1.38641 15.9099,1.38641 13.0391,0 15.4762,-0.25647 16.0249,-1.68634 z m 38.7888,-14.60032 0.2952,-15.75361 -15.7536,0.29519 -15.7537,0.29518 -0.2989,14.33854 c -0.1644,7.8862 -0.055,14.97566 0.2443,15.75436 0.4241,1.10516 3.8815,1.35088 15.7574,1.11988 l 15.2141,-0.29593 z M 912.51997,451.62654 c 1.77619,-1.77619 1.77619,-28.71422 0,-30.4904 -0.86643,-0.86644 -5.84336,-1.27932 -15.42091,-1.27932 -12.89028,0 -14.23925,0.18246 -15.2452,2.06211 -1.58815,2.96747 -1.43954,28.09236 0.17571,29.70761 0.86481,0.86482 5.80431,1.27932 15.2452,1.27932 9.44089,0 14.38039,-0.4145 15.2452,-1.27932 z m 39.44563,0 c 1.61525,-1.61525 1.76386,-26.74014 0.17571,-29.70761 -1.00595,-1.87965 -2.35492,-2.06211 -15.2452,-2.06211 -9.57756,0 -14.55448,0.41288 -15.42091,1.27932 -0.86482,0.86481 -1.27932,5.80431 -1.27932,15.2452 0,9.44089 0.4145,14.38039 1.27932,15.2452 0.86481,0.86482 5.80431,1.27932 15.2452,1.27932 9.44089,0 14.38039,-0.4145 15.2452,-1.27932 z m 39.42272,-14.63045 c 0.22374,-11.5866 -0.039,-15.58991 -1.06609,-16.24167 -1.57686,-1.00065 -26.47886,-1.21579 -28.99438,-0.25049 -1.42838,0.54812 -1.68634,2.96722 -1.68634,15.81379 0,8.34167 0.33243,15.49911 0.73875,15.90542 0.40631,0.40631 7.48253,0.60621 15.72494,0.44421 l 14.9862,-0.29454 z m 37.99538,15.26266 c 1.4242,-0.54649 1.6864,-2.91712 1.6864,-15.2452 0,-9.93261 -0.4089,-15.00696 -1.2793,-15.87741 -0.8611,-0.86102 -5.7164,-1.27932 -14.8493,-1.27932 -10.9148,0 -13.8977,0.32779 -15.24516,1.67529 -1.33677,1.33677 -1.6753,4.25923 -1.6753,14.46242 0,7.03291 0.49662,13.71506 1.10361,14.84922 1.00345,1.87493 2.35035,2.06211 14.83815,2.06211 7.554,0 14.4935,-0.2912 15.4209,-0.64711 z m 39.8527,-0.63221 c 1.7762,-1.77619 1.7762,-28.71422 0,-30.4904 -1.7762,-1.77619 -28.7142,-1.77619 -30.4904,0 -1.7762,1.77618 -1.7762,28.71421 0,30.4904 0.8648,0.86482 5.8043,1.27932 15.2452,1.27932 9.4409,0 14.3804,-0.4145 15.2452,-1.27932 z m 39.1258,-15.2452 v -15.99147 l -14.2448,-0.2983 c -9.594,-0.2009 -14.7281,0.10277 -15.725,0.93011 -2.0265,1.68187 -2.1621,30.35757 -0.1475,31.19304 0.733,0.30395 7.8092,0.46387 15.725,0.35537 l 14.3923,-0.19728 z m -256.15549,-46.5852 0.29194,-18.44678 4.35658,-0.31931 c 6.66098,-0.4882 6.93476,0.32716 6.59863,19.65168 l -0.29423,16.91496 -5.62243,0.32312 -5.62243,0.32312 z m 34.11538,-0.0566 0.2917,-18.39019 h 4.79744 4.79744 l 0.2917,18.39019 0.2917,18.39019 h -5.38084 -5.38084 z m 33.04904,0 0.2917,-18.39019 h 5.33049 5.33049 l 0.2917,18.39019 0.2917,18.39019 h -5.91389 -5.91389 z m 34.1149,0.0566 0.29194,-18.44678 4.35657,-0.31931 c 6.66099,-0.4882 6.93477,0.32716 6.59863,19.65168 l -0.29422,16.91496 -5.62243,0.32312 -5.62244,0.32312 z m 34.11538,-0.0566 0.2917,-18.39019 h 4.79744 4.79744 l 0.2917,18.39019 0.2917,18.39019 h -5.38084 -5.38084 z m 33.04899,0 0.2917,-18.39019 h 5.3305 5.3305 l 0.2917,18.39019 0.2917,18.39019 h -5.9139 -5.9139 z m 34.1149,0.0566 0.292,-18.44678 4.3566,-0.31931 c 6.6609,-0.4882 6.9347,0.32716 6.5986,19.65168 l -0.2942,16.91496 -5.6225,0.32312 -5.6224,0.32312 z m 34.1154,-0.0566 0.2917,-18.39019 h 4.7975 4.7974 l 0.2917,18.39019 0.2917,18.39019 h -5.3808 -5.3809 z"
         id="path20" /><path
         style="fill:#000000;fill-opacity:1"
         d="M 945.78223,734.84367 C 868.93044,725.33734 800.45255,678.3638 763.23488,609.62228 c -11.3399,-20.94493 -20.5097,-47.08834 -24.67965,-70.36248 -5.16712,-28.8397 -5.16712,-58.58034 0,-87.42004 4.3191,-24.10659 14.91788,-53.51877 26.61415,-73.85568 34.35139,-59.72853 87.53438,-100.09928 153.9604,-116.86999 33.63462,-8.4918 81.30542,-8.44408 113.53942,0.11367 45.5852,12.10231 79.3564,30.94231 111.2324,62.05342 20.6568,20.16105 35.6711,40.80262 48.147,66.19184 40.7002,82.82778 30.3323,181.96485 -26.6391,254.71943 -39.5156,50.46287 -97.7635,83.19157 -161.5249,90.75869 -15.45823,1.83456 -42.81145,1.78396 -58.10237,-0.10747 z m 59.16847,-27.76141 c 22.0967,-2.95852 41.7347,-8.90233 63.0453,-19.0818 57.7459,-27.58375 99.0467,-78.31062 115.0255,-141.27797 7.5168,-29.62095 7.9543,-66.43479 1.1595,-97.54797 -17.2792,-79.12104 -80.244,-142.82158 -159.6322,-161.49753 -23.2434,-5.46798 -54.42463,-6.94737 -77.77778,-3.69017 -69.74222,9.72736 -129.58104,52.3831 -161.71675,115.27881 -15.13359,29.61932 -22.66073,61.75822 -22.62138,96.58733 0.0382,33.79483 6.50043,62.40907 20.75793,91.91431 40.7937,84.4206 128.78527,131.76332 221.75988,119.31499 z M 830.22611,618.60071 c -0.35671,-0.92957 -0.64857,-52.16795 -0.64857,-113.86307 0,-85.82415 0.30051,-112.47344 1.27932,-113.45225 0.78951,-0.78951 4.66714,-1.27932 10.12793,-1.27932 h 8.84861 v 9.38166 c 0,5.87539 0.47813,9.8598 1.27932,10.66099 1.89169,1.89169 11.02665,1.61422 13.03686,-0.39598 1.25798,-1.25798 1.6753,-3.91365 1.6753,-10.66098 v -8.98569 h 8.52878 8.52879 v 8.98569 c 0,10.89129 1.00084,12.33627 8.54448,12.33627 7.12444,0 8.51308,-2.12549 8.51308,-13.03039 v -8.29157 h 8.52879 8.52878 v 9.55738 c 0,10.74857 0.69053,11.76458 7.99574,11.76458 7.30521,0 7.99574,-1.01601 7.99574,-11.76458 v -9.55738 h 9.06183 9.06183 v 9.38166 c 0,5.87539 0.47813,9.8598 1.27932,10.66099 1.89169,1.89169 11.02665,1.61422 13.03686,-0.39598 1.25798,-1.25798 1.67529,-3.91365 1.67529,-10.66098 v -8.98569 h 8.52879 8.52878 v 8.98569 c 0,6.74733 0.41732,9.403 1.6753,10.66098 2.01021,2.0102 11.14516,2.28767 13.03686,0.39598 0.80119,-0.80119 1.27928,-4.7856 1.27928,-10.66099 v -9.38166 h 9.0619 9.0618 v 9.55738 c 0,10.74857 0.6905,11.76458 7.9957,11.76458 7.311,0 7.9958,-1.01129 7.9958,-11.8077 v -9.60049 l 8.7953,0.30964 8.7953,0.30964 0.2966,9.06183 c 0.342,10.44736 1.2543,11.72708 8.3598,11.72708 6.7899,0 7.8681,-1.69052 7.8681,-12.33627 v -8.98569 h 8.5288 8.5288 v 8.98569 c 0,6.74733 0.4173,9.403 1.6753,10.66098 2.0102,2.0102 11.1451,2.28767 13.0368,0.39598 0.8012,-0.80119 1.2794,-4.7856 1.2794,-10.66099 v -9.38166 h 8.9312 c 6.2232,0 9.2957,0.43898 10.1328,1.44772 0.8785,1.05847 1.1286,31.94397 0.9302,114.87207 l -0.2714,113.42435 -145.14038,0.27032 c -131.66089,0.24522 -145.20058,0.11336 -145.78891,-1.41982 z m 43.5945,-22.83771 v -15.45842 l -15.72494,-0.29503 -15.72495,-0.29502 v 16.04847 16.04847 l 15.72495,-0.29502 15.72494,-0.29503 z m 39.44563,0 v -15.45842 l -15.37672,-0.29692 c -11.5866,-0.22374 -15.58991,0.039 -16.24167,1.06609 -1.00706,1.58696 -1.21282,26.48659 -0.23983,29.02217 0.5702,1.4859 2.73481,1.67494 16.258,1.41981 l 15.60022,-0.29431 z m 39.33157,14.30513 c 0.9653,-2.51552 0.75016,-27.41752 -0.2505,-28.99438 -0.65175,-1.02705 -4.65507,-1.28983 -16.24167,-1.06609 l -15.37671,0.29692 -0.29895,14.33854 c -0.16442,7.88619 -0.0595,14.96242 0.23306,15.72494 0.4026,1.04915 4.27287,1.38641 15.90984,1.38641 13.03909,0 15.47623,-0.25646 16.02493,-1.68634 z m 38.78862,-14.0386 -0.29503,-15.72495 h -15.45842 -15.45842 l -0.29895,14.33854 c -0.16443,7.88619 -0.0596,14.96242 0.23306,15.72494 0.40291,1.04997 4.29843,1.38641 16.0524,1.38641 h 15.52038 z M 874.11548,556.07827 c 0.34981,-18.62254 2.04018,-17.05427 -17.88549,-16.59355 l -13.32622,0.30813 -0.29801,14.87404 c -0.16391,8.18072 -0.0539,15.51005 0.24435,16.2874 0.4229,1.10206 3.8934,1.34819 15.75643,1.11744 l 15.21407,-0.29594 z m 39.44815,0.91858 c 0.201,-9.98882 -0.10046,-15.25833 -0.93011,-16.258 -1.63109,-1.96534 -28.66193,-2.14176 -30.60395,-0.19973 -1.7987,1.7987 -1.77418,28.71623 0.0278,30.51821 0.93766,0.93766 5.533,1.22392 16.25799,1.01279 l 14.95088,-0.29433 z m 38.40197,14.03268 c 1.77619,-1.77619 1.77619,-28.71422 0,-30.49041 -1.77619,-1.77619 -28.71422,-1.77619 -30.4904,0 -1.37503,1.37502 -1.89417,29.73341 -0.56859,31.05899 1.32558,1.32559 29.68397,0.80644 31.05899,-0.56858 z m 39.1258,-15.24521 v -15.99147 l -13.32623,-0.30813 c -19.80278,-0.45788 -18.12366,-1.95342 -18.12366,16.14223 0,8.39324 0.33243,15.59287 0.73875,15.99918 0.40631,0.40631 7.48253,0.6062 15.72494,0.44421 l 14.9862,-0.29455 z m 39.743,1.21253 c 0.201,-9.98882 -0.1004,-15.25833 -0.9301,-16.258 -0.9346,-1.1261 -4.6219,-1.47905 -15.4518,-1.47905 -12.972,0 -14.3214,0.18154 -15.32785,2.06211 -1.60961,3.00758 -1.43792,28.09399 0.20351,29.73542 0.93764,0.93766 5.53304,1.22392 16.25804,1.01279 l 14.9508,-0.29433 z m 38.402,14.03268 c 1.7762,-1.77619 1.7762,-28.71422 0,-30.49041 -1.7762,-1.77619 -28.7142,-1.77619 -30.4904,0 -1.375,1.37502 -1.8942,29.73341 -0.5686,31.05899 1.3256,1.32559 29.684,0.80644 31.059,-0.56858 z m 39.1258,-15.24521 v -15.99147 l -13.3262,-0.30813 c -19.8028,-0.45788 -18.1237,-1.95342 -18.1237,16.14223 0,8.39324 0.3324,15.59287 0.7387,15.99918 0.4064,0.40631 7.4826,0.6062 15.725,0.44421 l 14.9862,-0.29455 z M 873.05144,531.96561 c 1.02706,-0.65176 1.28983,-4.65507 1.0661,-16.24167 l -0.29693,-15.37672 h -15.45842 -15.45842 l -0.29693,15.37672 c -0.22373,11.5866 0.039,15.58991 1.0661,16.24167 0.74966,0.47573 7.35983,0.86495 14.68925,0.86495 7.32942,0 13.93959,-0.38922 14.68925,-0.86495 z m 39.58208,-0.58145 c 0.82965,-0.99966 1.13111,-6.26917 0.93011,-16.25799 l -0.29739,-14.77895 -14.77894,-0.29739 c -9.98883,-0.201 -15.25834,0.10047 -16.258,0.93011 -1.12595,0.93446 -1.47905,4.61962 -1.47905,15.43632 0,12.4075 0.23652,14.34657 1.86567,15.29546 2.99492,1.74438 28.52929,1.46574 30.0176,-0.32756 z m 38.54929,0.37545 c 1.88057,-1.00645 2.06211,-2.35587 2.06211,-15.32789 0,-10.82988 -0.35295,-14.5172 -1.47905,-15.45178 -0.99967,-0.82964 -6.26917,-1.13111 -16.258,-0.93011 l -14.77894,0.29739 -0.29739,14.77895 c -0.20101,9.98882 0.10046,15.25833 0.93011,16.25799 1.49927,1.80652 26.5577,2.122 29.82116,0.37545 z m 39.13942,0.206 c 1.02705,-0.65176 1.28983,-4.65507 1.06609,-16.24167 l -0.29692,-15.37672 h -15.45842 -15.45842 l -0.29693,15.37672 c -0.22373,11.5866 0.039,15.58991 1.0661,16.24167 0.74966,0.47573 7.35982,0.86495 14.68925,0.86495 7.32942,0 13.93958,-0.38922 14.68925,-0.86495 z m 39.58207,-0.58145 c 0.8297,-0.99966 1.1311,-6.26917 0.9301,-16.25799 l -0.2974,-14.77895 -14.9164,-0.29828 c -13.0946,-0.26186 -15.0803,-0.0742 -16.25802,1.53638 -2.12165,2.90153 -1.84517,27.42367 0.33376,29.6026 2.30486,2.30489 28.31766,2.47388 30.20796,0.19624 z m 38.5493,0.37545 c 1.8749,-1.00343 2.0621,-2.35032 2.0621,-14.83818 0,-7.55402 -0.2912,-14.49343 -0.6471,-15.42092 -0.5483,-1.42883 -2.9728,-1.68634 -15.8774,-1.68634 -12.9046,0 -15.3291,0.25751 -15.8774,1.68634 -0.3559,0.92749 -0.6471,7.85994 -0.6471,15.40545 0,11.94112 0.2418,13.85994 1.8656,14.80576 2.4531,1.42878 26.4673,1.46827 29.1213,0.0479 z m 39.1394,0.206 c 1.0271,-0.65176 1.2898,-4.65507 1.0661,-16.24167 l -0.2969,-15.37672 h -15.4584 -15.4585 l -0.2969,15.37672 c -0.2237,11.5866 0.039,15.58991 1.0661,16.24167 0.7497,0.47573 7.3598,0.86495 14.6893,0.86495 7.3294,0 13.9396,-0.38922 14.6892,-0.86495 z M 873.82061,476.36002 v -15.45843 l -15.72494,-0.29502 -15.72495,-0.29503 v 15.30924 c 0,8.42009 0.33244,15.64168 0.73875,16.04799 0.40631,0.40631 7.48253,0.60621 15.72494,0.44421 l 14.9862,-0.29454 z m 39.44563,0 v -15.45843 l -15.37672,-0.29692 c -11.5866,-0.22374 -15.58991,0.039 -16.24167,1.0661 -1.00706,1.58696 -1.21282,26.48658 -0.23983,29.02216 0.5702,1.48591 2.73481,1.67494 16.258,1.41982 l 15.60022,-0.29431 z m 39.33157,14.30513 c 0.9653,-2.51552 0.75016,-27.41752 -0.2505,-28.99438 -0.65175,-1.02706 -4.65507,-1.28984 -16.24167,-1.0661 l -15.37671,0.29692 -0.29895,14.33854 c -0.16442,7.8862 -0.0595,14.96242 0.23306,15.72495 0.4026,1.04915 4.27287,1.38641 15.90984,1.38641 13.03909,0 15.47623,-0.25647 16.02493,-1.68634 z m 38.78878,-14.60032 0.29519,-15.75361 -15.75361,0.29519 -15.75361,0.29518 -0.29895,14.33854 c -0.16443,7.8862 -0.0545,14.97566 0.24435,15.75436 0.42409,1.10516 3.88146,1.35088 15.75737,1.11988 l 15.21407,-0.29593 z m 39.15041,0.29519 v -15.45843 l -15.3767,-0.29692 c -11.5866,-0.22374 -15.5899,0.039 -16.24166,1.0661 -1.00706,1.58696 -1.21282,26.48658 -0.23983,29.02216 0.5702,1.48591 2.73479,1.67494 16.25799,1.41982 l 15.6002,-0.29431 z m 39.4457,0 v -15.45843 h -15.9915 -15.9915 l -0.2989,14.33854 c -0.1645,7.8862 -0.055,14.97531 0.244,15.75358 0.4246,1.10654 3.9761,1.35069 16.2904,1.11988 l 15.7475,-0.29515 z m 38.9125,-0.0285 v -16.01998 l -15.7249,0.29503 -15.725,0.29502 -0.2989,14.33854 c -0.1644,7.8862 -0.06,14.96242 0.2331,15.72495 0.4028,1.0498 4.2933,1.38641 16.0239,1.38641 h 15.4918 z M 912.11295,452.25875 c 1.42411,-0.54649 1.68634,-2.91712 1.68634,-15.2452 0,-9.93261 -0.40886,-15.00696 -1.27932,-15.87741 -1.77619,-1.77619 -28.71422,-1.77619 -30.4904,0 -0.86482,0.86481 -1.27932,5.80431 -1.27932,15.2452 0,9.44089 0.4145,14.38039 1.27932,15.2452 1.34601,1.34602 26.82773,1.88152 30.08338,0.63221 z m 39.85265,-0.63221 c 1.77619,-1.77619 1.77619,-28.71422 0,-30.4904 -1.77619,-1.77619 -28.71422,-1.77619 -30.4904,0 -1.83921,1.8392 -1.79034,30.31974 0.0533,31.06366 2.95714,1.19323 29.1642,0.69964 30.4371,-0.57326 z m 39.1258,-15.2452 v -15.99147 h -15.45842 -15.45842 l -0.29801,14.87403 c -0.16391,8.18072 -0.0539,15.51005 0.24435,16.2874 0.4229,1.10206 3.8934,1.34819 15.75643,1.11744 l 15.21407,-0.29593 z m 39.743,1.21252 c 0.201,-9.98882 -0.1004,-15.25833 -0.9301,-16.25799 -0.9346,-1.1261 -4.6219,-1.47905 -15.4518,-1.47905 -12.972,0 -14.3214,0.18154 -15.32785,2.06211 -1.44364,2.69746 -1.43104,26.25091 0.0155,28.95377 1.04325,1.94927 2.14565,2.07102 16.25795,1.79558 l 15.1389,-0.29547 z m 38.402,14.03268 c 1.7762,-1.77619 1.7762,-28.71422 0,-30.4904 -1.7762,-1.77619 -28.7142,-1.77619 -30.4904,0 -1.7762,1.77618 -1.7762,28.71421 0,30.4904 0.8648,0.86482 5.8043,1.27932 15.2452,1.27932 9.4409,0 14.3804,-0.4145 15.2452,-1.27932 z m 39.1258,-15.2452 v -15.99147 l -13.3262,-0.30813 c -19.8028,-0.45789 -18.1237,-1.95343 -18.1237,16.14223 0,8.39323 0.3324,15.59286 0.7387,15.99917 0.4064,0.40631 7.4826,0.60621 15.725,0.44421 l 14.9862,-0.29454 z M 851.9656,390.00607 V 371.8824 h 5.33049 5.33049 v 18.12367 18.12367 h -5.33049 -5.33049 z m 34.11514,0 V 371.8824 h 5.33049 5.33049 v 18.12367 18.12367 h -5.33049 -5.33049 z m 33.75977,17.41294 c -0.3909,-0.39091 -0.71073,-8.54656 -0.71073,-18.12367 V 371.8824 h 5.86354 5.86354 v 18.12367 18.12367 h -5.15281 c -2.83404,0 -5.47264,-0.31983 -5.86354,-0.71073 z m 33.40441,-17.41294 v -18.23509 l 5.59701,0.32223 5.59702,0.32224 v 17.59062 17.59062 l -5.59702,0.32224 -5.59701,0.32224 z m 34.11514,0 V 371.8824 h 5.33049 5.33049 v 18.12367 18.12367 h -5.33049 -5.33049 z m 33.04904,0.0557 V 371.8824 h 5.8893 5.8893 l -0.2923,17.85715 -0.2923,17.85714 -5.597,0.32224 -5.597,0.32224 z m 34.1151,-0.0557 V 371.8824 h 5.3305 5.3305 v 18.12367 18.12367 h -5.3305 -5.3305 z m 34.1152,0 V 371.8824 h 5.3305 5.3305 v 18.12367 18.12367 h -5.3305 -5.3305 z"
         id="path19" /><path
         style="fill:#000000;fill-opacity:1"
         d="M 947.38138,734.8981 C 853.13442,723.19491 775.83884,659.68065 746.36408,569.72092 729.82779,519.25063 731.05379,462.43084 749.7702,411.86108 c 18.30299,-49.45276 54.08295,-93.20946 98.99491,-121.06474 78.52413,-48.70221 179.44879,-48.00961 256.59939,1.76093 45.8984,29.60943 81.133,74.29291 98.2788,124.6343 26.745,78.52501 11.4856,165.25248 -40.4012,229.6234 -35.03,43.45815 -85.3632,74.08113 -139.6347,84.95441 -23.0221,4.61246 -54.0284,5.88513 -76.22602,3.12872 z m 58.63542,-27.78965 c 77.0703,-10.84563 142.3373,-63.57535 170.0664,-137.398 14.5331,-38.69115 17.1815,-83.50039 7.3449,-124.26728 -12.5415,-51.97652 -43.8606,-96.83161 -89.0311,-127.50998 -11.4732,-7.7922 -35.6643,-19.91565 -48.4015,-24.25657 -55.09466,-18.77656 -114.04649,-14.93517 -165.7783,10.80236 -53.28667,26.5111 -92.54945,73.528 -109.70362,131.36931 -10.39902,35.06399 -11.17952,76.70005 -2.09788,111.91294 4.0474,15.69323 7.45503,24.87051 15.25059,41.07213 33.34027,69.2916 101.02064,114.73997 179.17351,120.31766 9.2082,0.65718 31.47893,-0.39638 43.177,-2.04257 z m -175.11142,-201.69726 0.27131,-114.87207 9.32836,-0.30803 9.32835,-0.30803 v 9.42317 c 0,5.90767 0.47728,9.90044 1.27932,10.70249 1.56931,1.56931 9.83164,1.68407 12.65005,0.17571 1.80333,-0.96512 2.06211,-2.30299 2.06211,-10.66098 v -9.55738 h 8.52878 8.52879 v 8.98569 c 0,10.85564 1.01295,12.33627 8.4397,12.33627 7.39066,0 8.61786,-1.79578 8.61786,-12.61059 v -8.71137 h 8.52879 8.52878 v 9.38166 c 0,5.87539 0.47813,9.8598 1.27932,10.66099 0.70363,0.70362 3.72601,1.27931 6.71642,1.27931 2.9904,0 6.01279,-0.57569 6.71642,-1.27931 0.80207,-0.80208 1.27932,-4.79518 1.27932,-10.7041 v -9.42478 l 8.7953,0.30964 8.79531,0.30964 0.31309,9.0087 c 0.1722,4.95479 0.83062,9.6323 1.46316,10.39446 1.65322,1.99201 10.99841,1.78503 13.07298,-0.28954 1.25798,-1.25798 1.67529,-3.91365 1.67529,-10.66098 v -8.98569 h 8.52879 8.52878 v 8.98569 c 0,10.85564 1.01296,12.33627 8.43971,12.33627 7.39066,0 8.61783,-1.79578 8.61783,-12.61059 v -8.71137 h 8.5288 8.5288 v 9.38166 c 0,5.87539 0.4781,9.8598 1.2793,10.66099 1.66,1.65994 11.7729,1.65994 13.4329,0 0.8011,-0.80119 1.2793,-4.7856 1.2793,-10.66099 v -9.38166 h 8.5288 8.5287 v 8.29157 c 0,10.9049 1.3887,13.03039 8.5131,13.03039 7.5437,0 8.5445,-1.44498 8.5445,-12.33627 v -8.98569 h 8.5288 8.5288 v 8.98569 c 0,10.89129 1.0008,12.33627 8.5445,12.33627 7.1244,0 8.5131,-2.12549 8.5131,-13.03039 v -8.29157 h 8.3155 c 5.0462,0 8.8186,0.50298 9.5949,1.27932 0.9788,0.97881 1.2793,27.6281 1.2793,113.45225 0,61.69512 -0.2912,112.93179 -0.6471,113.85928 -0.5857,1.52627 -14.399,1.68634 -145.52716,1.68634 H 830.63408 Z m 41.04956,106.73743 c 2.35132,-0.63013 2.39872,-0.95636 2.39872,-16.50996 v -15.86713 h -15.87741 c -13.49466,0 -15.97452,0.25307 -16.52452,1.68634 -0.35591,0.92749 -0.64711,7.60964 -0.64711,14.84922 0,10.5448 0.33322,13.4961 1.6753,14.83818 1.33361,1.33362 4.21463,1.67233 14.1258,1.66074 6.84777,-0.008 13.52992,-0.30383 14.84922,-0.65739 z m 40.0732,-0.66959 c 1.61059,-1.1777 1.79824,-3.16341 1.53639,-16.258 l -0.29829,-14.91645 H 897.27477 881.2833 l -0.29829,14.91645 c -0.26185,13.09459 -0.0742,15.0803 1.53639,16.258 2.5376,1.85553 26.96914,1.85553 29.50674,0 z m 39.54148,-0.33376 c 1.34874,-1.34874 1.67212,-4.30999 1.65897,-15.19189 -0.009,-7.43413 -0.40555,-14.12996 -0.88128,-14.87963 -0.65175,-1.02705 -4.65507,-1.28983 -16.24167,-1.06609 l -15.37671,0.29692 -0.29829,14.91645 c -0.26185,13.09459 -0.0742,15.0803 1.53639,16.258 2.90152,2.12164 27.42366,1.84517 29.60259,-0.33376 z m 39.44563,0 c 1.34208,-1.34208 1.6753,-4.29338 1.6753,-14.83818 0,-7.23958 -0.2912,-13.92173 -0.64711,-14.84922 -0.55,-1.43327 -3.02987,-1.68634 -16.52452,-1.68634 h -15.87741 v 15.9133 c 0,14.25906 0.19394,15.96398 1.86567,16.40085 1.02612,0.26815 7.70827,0.5432 14.84922,0.61122 10.49912,0.10001 13.30413,-0.1969 14.65885,-1.55163 z M 873.82061,555.78432 v -15.99147 l -14.77894,-0.29739 c -9.98883,-0.201 -15.25834,0.10047 -16.258,0.93011 -1.98812,1.65 -2.13974,28.66394 -0.17193,30.63176 0.93766,0.93766 5.533,1.22392 16.25799,1.01279 l 14.95088,-0.29433 z m 39.74302,1.21253 c 0.201,-9.98882 -0.10046,-15.25833 -0.93011,-16.258 -1.63109,-1.96534 -28.66193,-2.14176 -30.60395,-0.19973 -1.35264,1.35264 -1.87864,26.83523 -0.62155,30.11117 0.5702,1.4859 2.73481,1.67494 16.258,1.41981 l 15.60022,-0.29431 z m 39.03418,13.62565 c 1.24931,-3.25565 0.71381,-28.73736 -0.63221,-30.08338 -1.77619,-1.77619 -28.71422,-1.77619 -30.4904,0 -1.37503,1.37502 -1.89417,29.73341 -0.56859,31.05899 0.3909,0.3909 7.53574,0.71073 15.87741,0.71073 12.84656,0 15.26567,-0.25796 15.81379,-1.68634 z m 38.98913,-0.37577 c 1.62094,-3.02876 1.42621,-26.93993 -0.23794,-29.21578 -1.17769,-1.61059 -3.1634,-1.79824 -16.25799,-1.53638 l -14.91645,0.29828 -0.29801,14.87404 c -0.16391,8.18072 -0.059,15.49681 0.23306,16.25799 0.40037,1.04333 4.2036,1.38396 15.4524,1.38396 13.66117,0 15.01453,-0.17415 16.02493,-2.06211 z m 38.95006,-14.46241 v -15.99147 l -14.9164,-0.29828 c -13.0946,-0.26186 -15.0803,-0.0742 -16.25802,1.53638 -1.84311,2.52061 -1.87254,28.18826 -0.0344,30.02638 0.93762,0.93766 5.53302,1.22392 16.25802,1.01279 l 14.9508,-0.29433 z m 39.3316,14.83818 c 1.2493,-3.25565 0.7138,-28.73736 -0.6322,-30.08338 -1.7762,-1.77619 -28.7142,-1.77619 -30.4904,0 -1.375,1.37502 -1.8942,29.73341 -0.5686,31.05899 0.3909,0.3909 7.5357,0.71073 15.8774,0.71073 12.8466,0 15.2657,-0.25796 15.8138,-1.68634 z m 38.8134,0.40703 c 1.942,-1.94203 1.7656,-28.97287 -0.1997,-30.60396 -0.9997,-0.82964 -6.2692,-1.13111 -16.258,-0.93011 l -14.779,0.29739 -0.298,14.87404 c -0.1639,8.18072 -0.059,15.49681 0.2331,16.25799 0.7259,1.89178 29.4186,1.9877 31.3016,0.10465 z M 873.05144,531.96561 c 1.02706,-0.65176 1.28983,-4.65507 1.0661,-16.24167 l -0.29693,-15.37672 -14.77894,-0.29739 c -9.98883,-0.201 -15.25834,0.10047 -16.258,0.93011 -1.12595,0.93446 -1.47905,4.61962 -1.47905,15.43632 0,12.4075 0.23652,14.34657 1.86567,15.29546 2.21019,1.28732 27.90856,1.50567 29.88115,0.25389 z m 39.58208,-0.58145 c 0.82965,-0.99966 1.13111,-6.26917 0.93011,-16.25799 l -0.29739,-14.77895 -15.37672,-0.29692 c -11.5866,-0.22374 -15.58991,0.039 -16.24167,1.0661 -1.42608,2.24727 -1.09098,28.9948 0.38172,30.4675 1.94202,1.94202 28.97286,1.76561 30.60395,-0.19974 z m 39.33208,0.19974 c 1.47269,-1.4727 1.8078,-28.22023 0.38171,-30.4675 -0.65175,-1.02706 -4.65507,-1.28984 -16.24167,-1.0661 l -15.37671,0.29692 -0.29693,15.37672 c -0.22373,11.5866 0.039,15.58991 1.0661,16.24167 2.24727,1.42609 28.99481,1.09098 30.4675,-0.38171 z m 39.04965,-0.39598 c 2.17893,-2.17893 2.4554,-26.70107 0.33375,-29.6026 -1.17769,-1.61059 -3.1634,-1.79824 -16.25799,-1.53638 l -14.91645,0.29828 -0.29693,15.37672 c -0.22373,11.5866 0.039,15.58991 1.0661,16.24167 0.74966,0.47573 7.44549,0.8723 14.87962,0.88128 10.88191,0.0131 13.84316,-0.31023 15.1919,-1.65897 z m 38.75265,0.77769 c 1.027,-0.65176 1.2898,-4.65507 1.0661,-16.24167 l -0.297,-15.37672 -14.7789,-0.29739 c -9.9888,-0.201 -15.2583,0.10047 -16.25801,0.93011 -1.80652,1.49928 -2.122,26.5577 -0.37544,29.82117 1.00635,1.8804 2.34505,2.06067 15.19185,2.04578 7.7486,-0.009 14.7017,-0.40555 15.4514,-0.88128 z m 39.4685,-0.38171 c 1.4727,-1.4727 1.8078,-28.22023 0.3817,-30.4675 -0.6518,-1.02706 -4.6551,-1.28984 -16.2417,-1.0661 l -15.3767,0.29692 -0.2974,14.77895 c -0.201,9.98882 0.1005,15.25833 0.9301,16.25799 1.6311,1.96535 28.662,2.14176 30.604,0.19974 z m 38.6628,0.17571 c 1.8804,-1.00636 2.0607,-2.34502 2.0458,-15.1919 -0.01,-7.74856 -0.4055,-14.70165 -0.8813,-15.45131 -0.6517,-1.02706 -4.655,-1.28984 -16.2416,-1.0661 l -15.3768,0.29692 -0.2969,15.37672 c -0.2237,11.5866 0.039,15.58991 1.0661,16.24167 1.9937,1.26516 27.2635,1.08979 29.6847,-0.206 z M 874.11754,476.44172 c 0.22373,-11.5866 -0.039,-15.58991 -1.0661,-16.24167 -0.74966,-0.47572 -7.44549,-0.8723 -14.87963,-0.88128 -10.8819,-0.0131 -13.84315,0.31023 -15.19189,1.65897 -1.34208,1.34209 -1.6753,4.29339 -1.6753,14.83818 0,7.23959 0.296,13.93424 0.65777,14.87701 0.5702,1.48591 2.73481,1.67494 16.258,1.41982 l 15.60022,-0.29431 z m 39.44609,0.59777 c 0.201,-9.98882 -0.10046,-15.25833 -0.93011,-16.25799 -1.63109,-1.96535 -28.66193,-2.14176 -30.60395,-0.19974 -1.39229,1.39229 -1.88589,29.74169 -0.54126,31.08632 0.40593,0.40593 7.72203,0.60583 16.25799,0.44421 l 15.51994,-0.29385 z m 39.03418,13.62566 c 0.35591,-0.92749 0.64711,-7.60964 0.64711,-14.84923 0,-10.54479 -0.33322,-13.49609 -1.6753,-14.83818 -1.34751,-1.3475 -4.33039,-1.67529 -15.2452,-1.67529 -9.13291,0 -13.98821,0.4183 -14.84922,1.27931 -1.37503,1.37503 -1.89417,29.73341 -0.56859,31.059 0.3909,0.3909 7.53574,0.71073 15.87741,0.71073 12.84656,0 15.26567,-0.25797 15.81379,-1.68634 z m 39.44563,0 c 0.35591,-0.92749 0.64711,-7.60964 0.64711,-14.84923 0,-10.54479 -0.33322,-13.49609 -1.6753,-14.83818 -1.34208,-1.34208 -4.29339,-1.67529 -14.83818,-1.67529 -7.23958,0 -13.92173,0.2912 -14.84922,0.64711 -1.43327,0.54999 -1.68634,3.02986 -1.68634,16.52452 v 15.87741 h 15.87741 c 13.49465,0 15.97452,-0.25308 16.52452,-1.68634 z m 38.79096,-13.62566 c 0.201,-9.98882 -0.1004,-15.25833 -0.9301,-16.25799 -1.8903,-2.27764 -27.9031,-2.10865 -30.20796,0.19624 -1.34209,1.34209 -1.6753,4.29339 -1.6753,14.83818 0,7.23959 0.296,13.93424 0.65777,14.87701 0.5702,1.48591 2.73479,1.67494 16.25799,1.41982 l 15.6002,-0.29431 z m 39.4456,0 c 0.2011,-9.98882 -0.1004,-15.25833 -0.9301,-16.25799 -1.6311,-1.96535 -28.6619,-2.14176 -30.6039,-0.19974 -1.3923,1.39229 -1.8859,29.74169 -0.5413,31.08632 0.406,0.40593 7.7221,0.60583 16.258,0.44421 l 15.52,-0.29385 z m 39.0342,13.62566 c 0.3559,-0.92749 0.6471,-7.60964 0.6471,-14.84923 0,-10.54479 -0.3332,-13.49609 -1.6753,-14.83818 -1.3475,-1.3475 -4.3303,-1.67529 -15.2452,-1.67529 -9.1329,0 -13.9882,0.4183 -14.8492,1.27931 -1.375,1.37503 -1.8942,29.73341 -0.5686,31.059 0.3909,0.3909 7.5358,0.71073 15.8774,0.71073 12.8466,0 15.2657,-0.25797 15.8138,-1.68634 z M 913.56316,436.99609 c 0.22374,-11.5866 -0.039,-15.58991 -1.06609,-16.24167 -2.24728,-1.42609 -28.99481,-1.09098 -30.4675,0.38172 -1.7987,1.79869 -1.77418,28.71623 0.0278,30.5182 0.93766,0.93766 5.533,1.22393 16.25799,1.0128 l 14.95088,-0.29433 z m 38.40244,14.63045 c 1.77619,-1.77619 1.77619,-28.71422 0,-30.4904 -1.34601,-1.34602 -26.82773,-1.88152 -30.08338,-0.63221 -1.42837,0.54812 -1.68634,2.96722 -1.68634,15.81379 0,8.34167 0.31983,15.4865 0.71073,15.87741 1.32558,1.32558 29.68397,0.80643 31.05899,-0.56859 z m 39.62134,-0.78279 c 1.62094,-3.02876 1.42621,-26.93993 -0.23794,-29.21578 -1.17769,-1.61059 -3.1634,-1.79824 -16.25799,-1.53639 l -14.91645,0.29829 -0.29801,14.87403 c -0.16391,8.18072 -0.059,15.49682 0.23306,16.258 0.40037,1.04333 4.2036,1.38396 15.4524,1.38396 13.66117,0 15.01453,-0.17415 16.02493,-2.06211 z m 39.24706,-13.84766 c 0.2237,-11.5866 -0.039,-15.58991 -1.0661,-16.24167 -0.7497,-0.47572 -7.7028,-0.8723 -15.4514,-0.88128 -12.8468,-0.0149 -14.1855,0.16538 -15.19185,2.04579 -1.60961,3.00758 -1.43792,28.09398 0.20351,29.73541 0.93764,0.93766 5.53304,1.22393 16.25804,1.0128 l 14.9508,-0.29433 z m 39.0346,14.22343 c 1.2493,-3.25565 0.7138,-28.73737 -0.6322,-30.08338 -1.7762,-1.77619 -28.7142,-1.77619 -30.4904,0 -1.8392,1.8392 -1.7903,30.31974 0.053,31.06366 0.7329,0.29575 7.8778,0.5756 15.8774,0.62189 12.3306,0.0714 14.6433,-0.17254 15.1919,-1.60217 z m 38.8134,0.40702 c 1.942,-1.94203 1.7656,-28.97286 -0.1997,-30.60395 -0.9997,-0.82965 -6.2692,-1.13112 -16.258,-0.93011 l -14.779,0.29739 -0.298,14.87403 c -0.1639,8.18072 -0.059,15.49682 0.2331,16.258 0.7259,1.89177 29.4186,1.98769 31.3016,0.10464 z M 851.9656,390.00607 V 371.8824 h 5.33049 5.33049 v 18.12367 18.12367 h -5.33049 -5.33049 z m 34.11514,0 V 371.8824 h 5.33049 5.33049 v 18.12367 18.12367 h -5.33049 -5.33049 z m 34.11514,0.0584 V 371.8824 h 5.35627 5.35626 l -0.2923,17.85715 -0.2923,17.85714 -5.06397,0.32494 -5.06396,0.32493 z m 33.04904,-0.0584 V 371.8824 h 5.33049 5.33049 v 18.12367 18.12367 h -5.33049 -5.33049 z m 34.11514,0 V 371.8824 h 5.33049 5.33049 v 18.12367 18.12367 h -5.33049 -5.33049 z m 33.80894,17.46209 c -0.418,-0.41794 -0.7599,-8.62078 -0.7599,-18.22853 v -17.46865 l 5.597,0.32223 5.597,0.32224 v 17.59062 17.59062 l -4.8371,0.31567 c -2.6604,0.17362 -5.1791,-0.0263 -5.597,-0.4442 z m 33.3552,-17.46209 V 371.8824 h 5.3305 5.3305 v 18.12367 18.12367 h -5.3305 -5.3305 z m 34.1152,0 V 371.8824 h 5.3305 5.3305 v 18.12367 18.12367 h -5.3305 -5.3305 z"
         id="path18" /><path
         style="fill:#000000;fill-opacity:1"
         d="m 947.91443,734.86155 c -55.30617,-6.75281 -103.27688,-30.05948 -142.40531,-69.18791 -20.03051,-20.03051 -33.52281,-38.89977 -45.79633,-64.0471 -13.21231,-27.07084 -20.24903,-51.36271 -23.47038,-81.02345 -5.643,-51.95819 6.34472,-105.18531 33.97483,-150.85288 17.73832,-29.31825 50.29792,-61.87784 79.61616,-79.61617 55.41251,-33.52606 120.40095,-43.59842 183.3689,-28.4198 14.3212,3.45219 33.0347,10.36369 48.5074,17.91536 37.3258,18.21738 67.6033,44.26185 92.3742,79.45963 49.26,69.99501 56.0843,166.26244 17.2687,243.60341 -31.0355,61.83914 -86.5006,107.44999 -152.3167,125.25541 -28.9895,7.84261 -62.61645,10.39393 -91.12147,6.9135 z m 49.76445,-26.57571 c 40.64672,-4.7932 74.24572,-17.96373 106.92452,-41.91351 10.3328,-7.57277 34.2794,-31.51932 41.8521,-41.85215 23.9498,-32.67879 37.1203,-66.2778 41.9135,-106.92449 1.9343,-16.40288 1.9343,-27.68893 0,-44.09181 -4.8647,-41.25317 -18.0781,-74.63842 -42.5412,-107.48502 -8.0374,-10.79195 -29.5278,-32.27026 -40.6639,-40.64106 -38.3942,-28.86025 -82.0308,-43.51444 -129.53092,-43.49943 -50.98414,0.0161 -98.57276,17.2946 -136.9936,49.7397 -60.94587,51.46671 -88.22736,129.40633 -72.495,207.10868 6.16162,30.43233 19.80322,60.39436 39.31662,86.35395 13.26803,17.65107 37.22131,39.56974 56.09948,51.33434 41.59534,25.92159 90.15388,37.2911 136.1184,31.8708 z m -166.7735,-202.87465 0.27131,-114.87207 h 9.06183 9.06184 l 0.3114,9.5597 c 0.19532,5.99601 0.79145,9.8648 1.59915,10.37813 2.04331,1.29864 11.92512,0.98129 13.33465,-0.42823 0.80119,-0.80119 1.27932,-4.7856 1.27932,-10.66099 v -9.38166 h 8.52878 8.52879 v 9.38166 c 0,5.87539 0.47812,9.8598 1.27931,10.66099 0.70363,0.70362 3.74761,1.27931 6.76441,1.27931 7.83995,0 9.01384,-1.64815 9.01384,-12.65544 v -8.75621 l 8.26226,0.31137 8.26227,0.31137 0.31308,9.0087 c 0.1722,4.95479 0.83062,9.6323 1.46316,10.39446 1.45915,1.75816 11.73602,1.83937 13.46896,0.10644 0.80119,-0.80119 1.27932,-4.7856 1.27932,-10.66099 v -9.38166 h 8.52878 8.52878 v 8.98569 c 0,11.0141 0.95654,12.33627 8.92477,12.33627 3.06579,0 6.14986,-0.57569 6.85349,-1.27931 0.80119,-0.80119 1.27931,-4.7856 1.27931,-10.66099 v -9.38166 h 8.52879 8.52878 v 9.38166 c 0,5.87539 0.47813,9.8598 1.27932,10.66099 0.70363,0.70362 3.7877,1.27931 6.85349,1.27931 7.96823,0 8.92473,-1.32217 8.92473,-12.33627 v -8.98569 h 8.5288 8.5288 v 9.38166 c 0,5.87539 0.4781,9.8598 1.2793,10.66099 0.7036,0.70362 3.7948,1.27931 6.8692,1.27931 7.5665,0 8.9091,-1.96363 8.9091,-13.03039 v -8.29157 h 7.9957 7.9957 v 8.8966 c 0,7.26495 0.3576,9.2202 1.9497,10.66098 2.3144,2.09452 11.8835,2.43017 13.8286,0.48507 0.8012,-0.80119 1.2793,-4.7856 1.2793,-10.66099 v -9.38166 h 8.5288 8.5288 v 9.38166 c 0,5.87539 0.4781,9.8598 1.2793,10.66099 0.7036,0.70362 4.045,1.27931 7.4252,1.27931 7.6731,0 8.3531,-1.03572 8.3531,-12.72309 v -8.59887 h 8.4912 c 7.304,0 8.6456,0.28834 9.5949,2.06211 1.1946,2.2322 1.6404,223.44349 0.4565,226.52874 -0.5857,1.52627 -14.399,1.68634 -145.52716,1.68634 H 830.63408 Z m 41.76194,106.76227 c 1.43251,-0.54971 1.68634,-3.01981 1.68634,-16.41046 0,-13.39065 -0.25383,-15.86075 -1.68634,-16.41046 -2.85012,-1.09369 -27.11028,-0.71572 -29.30059,0.4565 -1.88542,1.00905 -2.06211,2.36096 -2.06211,15.77825 0,9.99215 0.40821,15.08286 1.27932,15.95396 1.34601,1.34602 26.82773,1.88152 30.08338,0.63221 z m 39.85265,-0.63221 c 1.77958,-1.77957 1.77958,-29.77692 0,-31.5565 -1.77619,-1.77619 -28.71422,-1.77619 -30.4904,0 -0.8696,0.8696 -1.27932,5.92277 -1.27932,15.77825 0,9.85549 0.40972,14.90865 1.27932,15.77825 1.77618,1.77619 28.71421,1.77619 30.4904,0 z m 39.44563,0 c 1.77958,-1.77957 1.77958,-29.77692 0,-31.5565 -1.77619,-1.77619 -28.71422,-1.77619 -30.4904,0 -0.86961,0.8696 -1.27932,5.92277 -1.27932,15.77825 0,9.85549 0.40971,14.90865 1.27932,15.77825 1.77618,1.77619 28.71421,1.77619 30.4904,0 z m 39.44563,0 c 0.8711,-0.8711 1.27932,-5.96181 1.27932,-15.95396 0,-13.41729 -0.17669,-14.7692 -2.06211,-15.77825 -1.13416,-0.60698 -8.05618,-1.10361 -15.38227,-1.10361 -10.68778,0 -13.65125,0.33108 -14.99546,1.6753 -1.34422,1.34422 -1.6753,4.30768 -1.6753,14.99546 0,7.32609 0.49662,14.24811 1.10361,15.38227 1.00904,1.88542 2.36096,2.06211 15.77825,2.06211 9.99215,0 15.08286,-0.40821 15.95396,-1.27932 z M 873.82061,555.78432 v -15.99147 l -14.77894,-0.29739 c -9.98883,-0.201 -15.25834,0.10047 -16.258,0.93011 -1.12032,0.92979 -1.47905,4.53612 -1.47905,14.86905 0,7.50285 0.296,14.4129 0.65777,15.35567 0.5702,1.4859 2.73481,1.67494 16.258,1.41981 l 15.60022,-0.29431 z m 39.44563,0 v -15.99147 l -15.37672,-0.29692 c -11.5866,-0.22374 -15.58991,0.039 -16.24167,1.0661 -1.05208,1.65791 -1.19778,30.02517 -0.15954,31.06341 0.40593,0.40593 7.72203,0.60582 16.25799,0.4442 l 15.51994,-0.29385 z m 39.33157,14.83818 c 0.35591,-0.92748 0.64711,-7.82503 0.64711,-15.32788 0,-10.33293 -0.35873,-13.93926 -1.47905,-14.86905 -0.99967,-0.82964 -6.26917,-1.13111 -16.258,-0.93011 l -14.77894,0.29739 -0.29801,14.87404 c -0.16391,8.18072 -0.059,15.49681 0.23306,16.25799 0.40141,1.04604 4.28587,1.38396 15.9089,1.38396 13.03909,0 15.47623,-0.25646 16.02493,-1.68634 z m 39.44563,0 c 1.24931,-3.25565 0.71381,-28.73736 -0.63221,-30.08338 -1.77958,-1.77958 -29.77693,-1.77958 -31.5565,0 -1.34602,1.34602 -1.88152,26.82773 -0.63221,30.08338 0.54971,1.43252 3.01981,1.68634 16.41046,1.68634 13.39065,0 15.86075,-0.25382 16.41046,-1.68634 z m 38.98916,-0.37577 c 1.3987,-2.61358 1.4485,-24.6105 0.064,-28.25228 l -1.0397,-2.73465 h -14.7386 c -10.0418,0 -15.1462,0.40768 -16.01784,1.27932 -1.34602,1.34602 -1.88152,26.82773 -0.63221,30.08338 0.5485,1.42938 2.97955,1.68634 15.95395,1.68634 14.0423,0 15.398,-0.17035 16.4105,-2.06211 z m 39.2576,-12.33021 c 0.4559,-20.54211 2.0534,-18.7688 -16.593,-18.41854 l -15.6975,0.29487 -0.298,14.87404 c -0.1639,8.18072 -0.054,15.5097 0.2441,16.28662 0.4234,1.10343 3.9885,1.34799 16.2894,1.11744 l 15.7475,-0.29516 z m 39.4355,-0.91967 c 0.2041,-10.14269 -0.095,-15.25182 -0.9536,-16.28633 -0.9926,-1.19592 -4.3582,-1.44646 -16.2889,-1.21252 l -15.0379,0.29485 -0.298,14.87404 c -0.1639,8.18072 -0.054,15.5097 0.2441,16.28662 0.4234,1.10343 3.9885,1.34799 16.2895,1.11744 l 15.7474,-0.29516 z M 874.11534,516.65782 c 0.28218,-15.0055 0.19902,-15.72356 -1.95452,-16.8761 -3.5142,-1.88075 -28.51631,-0.95952 -29.81469,1.09855 -1.55057,2.45782 -1.31991,29.14591 0.26561,30.73143 0.93766,0.93766 5.533,1.22393 16.25799,1.01279 l 14.95088,-0.29432 z m 39.44827,0.22218 c 0.26168,-13.59542 0.0772,-15.61114 -1.53638,-16.79105 -2.90067,-2.12102 -27.42328,-1.84398 -29.60168,0.33442 -1.35414,1.35414 -1.6753,4.37885 -1.6753,15.77825 0,9.71415 0.40677,14.50973 1.30712,15.41008 0.93766,0.93766 5.533,1.22393 16.25799,1.01279 l 14.95088,-0.29432 z m 38.40199,14.7039 c 0.86608,-0.86608 1.27932,-5.83477 1.27932,-15.38228 0,-11.3994 -0.32116,-14.42411 -1.6753,-15.77825 -1.33676,-1.33676 -4.25922,-1.67529 -14.46241,-1.67529 -7.03291,0 -13.71506,0.49662 -14.84922,1.1036 -1.89114,1.01211 -2.06211,2.36741 -2.06211,16.34684 0,8.38378 0.31983,15.56306 0.71073,15.95396 1.32558,1.32559 29.68397,0.80644 31.05899,-0.56858 z m 39.44563,0 c 1.55958,-1.55958 1.76654,-28.28043 0.23781,-30.70363 -0.7885,-1.24985 -3.94009,-1.6766 -14.42872,-1.95374 -19.11813,-0.50516 -18.64491,-0.9423 -18.64491,17.22352 0,9.58761 0.41277,14.5673 1.27932,15.43385 1.77957,1.77957 29.77692,1.77957 31.5565,0 z m 39.68527,-1.45533 c 0.5718,-1.50406 1.0397,-8.22048 1.0397,-14.92538 0,-16.58602 0.1393,-16.45511 -17.5145,-16.45511 -10.6241,0 -13.5821,0.33202 -14.92536,1.67529 -1.35415,1.35414 -1.6753,4.37885 -1.6753,15.77825 0,9.54751 0.41324,14.5162 1.27932,15.38228 0.87164,0.87164 5.97604,1.27931 16.01784,1.27931 h 14.7386 z m 38.1399,1.45533 c 0.8711,-0.87111 1.2793,-5.96182 1.2793,-15.95397 0,-13.41728 -0.1767,-14.7692 -2.0621,-15.77825 -2.6815,-1.43507 -26.2434,-1.43507 -28.9248,0 -1.892,1.01257 -2.0621,2.36842 -2.0621,16.43568 0,11.26814 0.3532,15.4746 1.3326,15.8698 2.9571,1.19323 29.1642,0.69964 30.4371,-0.57326 z m 39.4456,0 c 0.8717,-0.87164 1.2793,-5.97602 1.2793,-16.01786 V 500.8275 l -2.7346,-1.03971 c -3.6418,-1.3846 -25.6387,-1.33485 -28.2523,0.0639 -1.8911,1.01211 -2.0621,2.36741 -2.0621,16.34684 0,8.38378 0.3198,15.56306 0.7107,15.95396 1.3256,1.32559 29.684,0.80644 31.059,-0.56858 z M 874.35366,476.47408 c 0,-13.49466 -0.25307,-15.97453 -1.68634,-16.52452 -3.25565,-1.24931 -28.73737,-0.71381 -30.08338,0.6322 -1.37503,1.37503 -1.89417,29.73341 -0.56859,31.059 0.39091,0.3909 7.82694,0.71073 16.52452,0.71073 h 15.81379 z m 39.20997,0.56541 c 0.201,-9.98882 -0.10046,-15.25833 -0.93011,-16.25799 -1.63109,-1.96535 -28.66193,-2.14176 -30.60395,-0.19974 -1.39229,1.39229 -1.88589,29.74169 -0.54126,31.08632 0.40593,0.40593 7.72203,0.60583 16.25799,0.44421 l 15.51994,-0.29385 z m 39.44563,0 c 0.201,-9.98882 -0.10046,-15.25833 -0.93011,-16.25799 -1.63109,-1.96535 -28.66193,-2.14176 -30.60395,-0.19974 -1.39229,1.39229 -1.88589,29.74169 -0.54126,31.08632 0.40593,0.40593 7.72203,0.60583 16.25799,0.44421 l 15.51994,-0.29385 z m 39.03418,13.62566 c 1.24931,-3.25565 0.71381,-28.73737 -0.63221,-30.08339 -0.86608,-0.86608 -5.83477,-1.27931 -15.38227,-1.27931 -11.39941,0 -14.42411,0.32115 -15.77825,1.67529 -1.34209,1.34209 -1.6753,4.29339 -1.6753,14.83818 0,7.23959 0.2912,13.92174 0.64711,14.84923 0.54971,1.43251 3.01981,1.68634 16.41046,1.68634 13.39065,0 15.86075,-0.25383 16.41046,-1.68634 z m 39.07416,-0.5347 c 1.8666,-3.48781 0.9316,-28.4962 -1.1136,-29.7865 -0.8796,-0.55487 -7.9389,-1.0162 -15.6875,-1.02518 -12.8468,-0.0149 -14.1855,0.16538 -15.19185,2.04579 -1.17223,2.19031 -1.55019,26.45047 -0.4565,29.30059 0.5485,1.42937 2.97955,1.68634 15.95395,1.68634 14.4199,0 15.3757,-0.12871 16.4955,-2.22104 z m 39.1624,-13.09096 c 0.2011,-9.98882 -0.1004,-15.25833 -0.9301,-16.25799 -1.6311,-1.96535 -28.6619,-2.14176 -30.6039,-0.19974 -1.3923,1.39229 -1.8859,29.74169 -0.5413,31.08632 0.406,0.40593 7.7221,0.60583 16.258,0.44421 l 15.52,-0.29385 z m 39.4457,0 c 0.201,-9.98882 -0.1005,-15.25833 -0.9301,-16.25799 -0.9298,-1.12032 -4.5361,-1.47905 -14.8691,-1.47905 -7.5028,0 -14.4004,0.2912 -15.3279,0.64711 -1.4334,0.55006 -1.6863,3.03231 -1.6863,16.55228 v 15.90518 l 16.258,-0.29429 16.258,-0.29429 z M 913.26624,436.38134 v -15.99147 l -15.37672,-0.29693 c -11.5866,-0.22373 -15.58991,0.039 -16.24167,1.0661 -1.05208,1.65791 -1.19778,30.02517 -0.15954,31.06341 0.40593,0.40593 7.72203,0.60583 16.25799,0.44421 l 15.51994,-0.29385 z m 39.33157,14.83818 c 0.35591,-0.92749 0.64711,-7.82504 0.64711,-15.32789 0,-10.33293 -0.35873,-13.93926 -1.47905,-14.86904 -0.99967,-0.82965 -6.26917,-1.13112 -16.258,-0.93011 l -14.77894,0.29739 -0.29801,14.87403 c -0.16391,8.18072 -0.059,15.49682 0.23306,16.258 0.40141,1.04604 4.28587,1.38396 15.9089,1.38396 13.03909,0 15.47623,-0.25647 16.02493,-1.68634 z m 38.81342,0.40702 c 1.77619,-1.77619 1.77619,-28.71422 0,-30.4904 -1.77958,-1.77958 -29.77693,-1.77958 -31.5565,0 -0.86482,0.86481 -1.27932,5.80431 -1.27932,15.2452 0,9.44089 0.4145,14.38039 1.27932,15.2452 0.8696,0.8696 5.92276,1.27932 15.77825,1.27932 9.85548,0 14.90865,-0.40972 15.77825,-1.27932 z m 39.62137,-0.78279 c 1.3987,-2.61358 1.4485,-24.61051 0.064,-28.25228 l -1.0397,-2.73465 h -14.7386 c -10.0418,0 -15.1462,0.40768 -16.01784,1.27932 -1.34602,1.34601 -1.88152,26.82773 -0.63221,30.08338 0.5485,1.42937 2.97955,1.68634 15.95395,1.68634 14.0423,0 15.398,-0.17036 16.4105,-2.06211 z m 39.2576,-12.33022 c 0.4514,-20.3416 1.8211,-18.65671 -15.166,-18.65671 -7.8567,0 -15.0437,0.2912 -15.9712,0.64711 -1.4284,0.54812 -1.6863,2.96722 -1.6863,15.81379 0,8.34167 0.3321,15.4988 0.738,15.90473 0.406,0.40593 7.7221,0.60583 16.258,0.44421 l 15.52,-0.29385 z m 37.9848,13.74522 c 1.4248,-0.54673 1.6863,-2.9244 1.6863,-15.32789 0,-11.21918 -0.3487,-14.9702 -1.479,-15.90827 -0.9997,-0.82965 -6.2692,-1.13112 -16.258,-0.93011 l -14.779,0.29739 -0.298,14.87403 c -0.1639,8.18072 -0.059,15.49682 0.2331,16.258 0.3989,1.03962 4.0986,1.38396 14.8697,1.38396 7.8862,0 15.0974,-0.2912 16.0249,-0.64711 z M 851.9656,390.00607 V 371.8824 h 5.33049 5.33049 v 18.12367 18.12367 h -5.33049 -5.33049 z m 34.11514,0.0584 V 371.8824 h 5.35627 5.35626 l -0.2923,17.85715 -0.2923,17.85714 -5.06396,0.32494 -5.06397,0.32493 z m 34.11514,-0.0584 V 371.8824 h 4.79744 4.79744 v 18.12367 18.12367 h -4.79744 -4.79744 z m 33.75977,17.41294 c -0.3909,-0.39091 -0.71073,-8.54656 -0.71073,-18.12367 V 371.8824 h 5.33049 5.33049 v 18.12367 18.12367 h -4.61976 c -2.54087,0 -4.93959,-0.31983 -5.33049,-0.71073 z m 33.40441,-17.41294 V 371.8824 h 5.33049 5.33049 v 18.12367 18.12367 h -5.33049 -5.33049 z m 34.11514,0 V 371.8824 h 4.7974 4.7975 v 18.12367 18.12367 h -4.7975 -4.7974 z m 33.7598,17.41294 c -0.3909,-0.39091 -0.7108,-8.54656 -0.7108,-18.12367 V 371.8824 h 5.3305 5.3305 v 18.12367 18.12367 h -4.6197 c -2.5409,0 -4.9396,-0.31983 -5.3305,-0.71073 z m 33.4044,-17.41294 V 371.8824 h 5.3305 5.3305 v 18.12367 18.12367 h -5.3305 -5.3305 z"
         id="path17" /></g></g></svg>
