<?xml version="1.0" encoding="UTF-8" standalone="no"?>
<!-- Created with Inkscape (http://www.inkscape.org/) -->

<svg
   version="1.0"
   width="489.51611"
   height="491.81509"
   id="svg2383"
   xml:space="preserve"
   viewBox="0 0 489.51611 491.81509"
   xmlns="http://www.w3.org/2000/svg"
   xmlns:svg="http://www.w3.org/2000/svg"
   xmlns:rdf="http://www.w3.org/1999/02/22-rdf-syntax-ns#"
   xmlns:cc="http://creativecommons.org/ns#"
   xmlns:dc="http://purl.org/dc/elements/1.1/"><defs
     id="defs2385" /><metadata
     id="metadata2388"><rdf:RDF><cc:Work
         rdf:about=""><dc:format>image/svg+xml</dc:format><dc:type
           rdf:resource="http://purl.org/dc/dcmitype/StillImage" /></cc:Work></rdf:RDF></metadata><g
     transform="translate(-711.01577,-219.29092)"
     id="layer1"><g
       id="g9"
       transform="translate(-22.853058,-7.6176229)"
       style="fill:#000000"><path
         style="fill:#000000;fill-opacity:1"
         d="m 950.93018,716.997 c -15.6367,-1.99732 -21.06019,-2.9682 -31.73709,-5.68139 -66.93198,-17.00864 -124.117,-61.94318 -156.56656,-123.02606 -22.57563,-42.49624 -31.91339,-88.66639 -27.82229,-137.56613 0.46664,-5.5776 1.24885,-12.32364 1.73826,-14.99118 0.4894,-2.66755 1.51225,-8.22311 2.273,-12.34568 4.08238,-22.12271 15.25911,-51.87367 27.4557,-73.08335 4.58729,-7.97722 14.54884,-22.53629 21.12871,-30.88013 7.97794,-10.11674 29.19911,-31.51601 37.20985,-37.52215 3.14701,-2.3595 6.11796,-4.74207 6.60211,-5.29459 2.17287,-2.47969 24.80486,-16.77835 34.77113,-21.96804 36.67846,-19.09939 78.10893,-28.80826 117.92452,-27.63458 31.68158,0.93391 60.25938,6.7888 86.68558,17.75977 37.3619,15.511 67.8748,37.70793 94.5914,68.8116 19.9056,23.17421 38.3039,56.34199 46.7275,84.23827 1.5378,5.0926 3.1308,10.25133 3.54,11.46385 0.8446,2.50239 3.8124,16.98794 5.2395,25.57319 3.4223,20.58885 3.4627,56.54056 0.084,74.95591 -0.4894,2.66755 -1.5122,8.2231 -2.273,12.34568 -4.0683,22.04665 -15.3093,51.95395 -27.493,73.14712 -18.8894,32.85752 -47.7961,63.06804 -81.1886,84.85066 -45.8655,29.91907 -105.2733,43.69591 -158.89082,36.84723 z m 57.65842,-22.34766 c 15.584,-2.24549 32.0888,-6.40365 47.3198,-11.92164 20.8883,-7.56753 44.5193,-21.0997 63.1096,-36.13932 16.3035,-13.1896 39.609,-39.44432 47.5034,-53.51475 0.796,-1.41872 3.1387,-5.35727 5.206,-8.75233 8.66,-14.22191 17.7412,-36.53489 22.4311,-55.11464 4.2195,-16.7158 4.5439,-18.44379 5.961,-31.74603 5.6085,-52.64821 -6.481,-103.17056 -35.2391,-147.26456 -15.8413,-24.28905 -39.4787,-47.9126 -65.0937,-65.05565 -9.5593,-6.39765 -30.9501,-17.40113 -41.4621,-21.3283 -2.905,-1.08524 -6.074,-2.31446 -7.0423,-2.7316 -3.6656,-1.57912 -17.1055,-5.25854 -26.8669,-7.35531 -28.62841,-6.14943 -65.05445,-6.13691 -91.97113,0.0316 -25.46528,5.83591 -44.11214,13.13714 -65.58099,25.67842 -18.50071,10.80742 -29.15059,18.98805 -44.47467,34.16294 -19.69485,19.50309 -34.07856,39.84481 -45.51905,64.37389 -9.30565,19.95185 -16.80599,45.34943 -19.14091,64.81482 -3.3307,27.76668 -2.45903,50.29004 2.99225,77.31774 6.12709,30.37844 22.68225,65.61288 42.60275,90.67168 11.1792,14.06277 26.80486,29.60007 39.63111,39.407 8.9417,6.83681 10.70918,8.0517 19.50711,13.40831 28.43224,17.31093 59.60845,28.17228 90.22888,31.43444 5.3257,0.56738 9.88116,1.22214 10.12324,1.45502 0.98003,0.94281 36.33859,-0.47213 45.77461,-1.83176 z M 839.06142,586.62803 c -6.53048,-1.87314 -9.98992,-4.25297 -14.51067,-9.98224 -6.49266,-8.22831 -6.19409,-2.86701 -5.91374,-106.19264 l 0.25092,-92.48106 2.34472,-4.40917 c 2.40735,-4.52694 7.08992,-9.45749 11.71863,-12.33925 6.29973,-3.92208 5.88123,-3.91106 149.6881,-3.9437 130.56852,-0.0296 136.71872,0.0401 142.38922,1.61529 9.6942,2.69286 15.5881,7.88716 19.1122,16.84365 1.7357,4.41145 1.7718,6.38647 1.7718,97.08237 v 92.57931 l -2.5436,5.4921 c -4.1133,8.8818 -9.7815,13.62202 -19.1504,16.01523 -4.8017,1.22657 -20.8063,1.37458 -142.60562,1.31881 -127.66561,-0.0585 -137.56888,-0.16952 -142.55156,-1.5987 z m 263.13018,-26.82702 c -3.7924,-3.54347 -9.6681,-8.97077 -13.0572,-12.06065 -3.3891,-3.08989 -10.3213,-9.45814 -15.4049,-14.15168 -15.6144,-14.41621 -34.4458,-31.65466 -41.1922,-37.70767 l -6.421,-5.76111 -2.0965,1.68624 c -1.153,0.92743 -5.3518,4.61131 -9.3306,8.18641 -11.2149,10.07698 -21.68072,13.96656 -35.14986,13.06328 -13.21162,-0.88602 -20.39142,-4.38328 -33.24992,-16.19597 l -7.83805,-7.20057 -20.69826,19.11231 c -23.22082,21.44158 -56.93378,52.39007 -57.80278,53.06293 -0.31319,0.2425 -1.32406,1.33377 -2.24637,2.42504 l -1.67692,1.98413 h 126.5299 126.52986 z M 859.82968,532.734 c 10.35609,-9.59937 33.01603,-30.7964 47.5432,-44.47386 3.64032,-3.42738 8.68401,-8.0717 11.2082,-10.32071 l 4.58945,-4.0891 -9.50339,-8.6975 c -5.22687,-4.78362 -12.82293,-11.67368 -16.88013,-15.31125 -4.0572,-3.63756 -12.37983,-11.17725 -18.49473,-16.75485 -6.1149,-5.5776 -14.64681,-13.31569 -18.95979,-17.19576 -4.31299,-3.88007 -10.31488,-9.33642 -13.33753,-12.12522 -3.02264,-2.78881 -5.70377,-5.07055 -5.95806,-5.07055 -0.25429,0 -0.46235,34.38296 -0.46235,76.40657 v 76.40658 l 4.65731,-4.31663 c 2.56152,-2.37414 9.58054,-8.88012 15.59782,-14.45772 z m 264.95612,-57.86726 v -76.38578 l -5.0616,4.25668 c -2.7839,2.34118 -6.2884,5.46478 -7.7877,6.94134 -1.4994,1.47656 -6.043,5.66084 -10.0969,9.29841 -4.0538,3.63756 -12.1551,10.97883 -18.0026,16.31393 -5.8476,5.3351 -14.1566,12.87478 -18.4643,16.75485 -17.9153,16.13655 -23.3334,21.18592 -23.3334,21.74572 0,0.32505 4.4293,4.69222 9.8428,9.70482 5.4135,5.01261 19.5917,18.24082 31.5073,29.39602 38.1349,35.70159 40.9523,38.32508 41.1763,38.34259 0.1211,0.009 0.2201,-34.3564 0.2201,-76.36858 z m -135.85169,13.21863 c 4.40177,-2.23102 10.53612,-7.22914 21.89579,-17.84017 2.9273,-2.73433 9.2436,-8.54295 14.0363,-12.90803 4.7926,-4.36508 16.6743,-15.27777 26.4037,-24.25044 9.7294,-8.97266 21.6138,-19.88536 26.4098,-24.25044 4.796,-4.36508 13.9806,-12.79762 20.4102,-18.73897 l 11.6902,-10.80247 H 982.59987 c -113.57201,0 -131.03854,0.26414 -126.34174,1.91064 0.80067,0.28068 15.26947,13.43098 54.17228,49.23574 9.74904,8.97266 21.64048,19.88536 26.42543,24.25044 4.78494,4.36508 13.13009,12.01795 18.54478,17.00637 14.99578,13.81527 21.99268,18.70792 26.75389,18.70792 1.21061,0 4.26143,-1.04427 6.7796,-2.32059 z"
         id="path16" /><path
         style="fill:#000000;fill-opacity:1"
         d="m 951.37033,716.9008 c -23.463,-2.8812 -37.66469,-6.25409 -57.65846,-13.69384 -33.31626,-12.39709 -62.17622,-31.11755 -88.03674,-57.10641 -41.46301,-41.66878 -65.83734,-94.17438 -70.96885,-152.87653 -1.03642,-11.85619 -0.50547,-41.28997 0.92573,-51.31894 4.13554,-28.97921 10.54799,-50.36639 22.73818,-75.83775 44.92111,-93.86246 144.32625,-148.9943 248.01771,-137.55499 28.5392,3.14846 57.8765,12.09761 83.8929,25.59099 10.8774,5.64156 32.7607,19.56765 39.7191,25.27655 38.6999,31.75028 65.7299,70.29759 80.8831,115.34706 14.2644,42.40688 16.3756,91.79042 5.7869,135.36156 -7.7232,31.77994 -20.4193,59.53155 -39.0321,85.31773 -11.0752,15.34372 -13.4253,18.11954 -25.9654,30.66925 -19.0105,19.02512 -39.2863,33.97959 -61.6083,45.43929 -42.8297,21.98797 -92.43154,31.06692 -138.69377,25.38603 z m 54.57747,-21.9428 c 42.7635,-5.59836 79.1746,-21.15362 112.676,-48.13651 77.4984,-62.41914 104.0388,-168.79901 65.1942,-261.31204 -16.1584,-38.483 -43.1857,-71.82447 -78.3984,-96.71406 -27.1926,-19.22071 -62.9309,-33.46062 -93.7681,-37.36182 -4.3474,-0.55 -10.3136,-1.37129 -13.25821,-1.82509 -2.94459,-0.4538 -11.65938,-0.82264 -19.3662,-0.81964 -52.5385,0.0205 -103.16122,18.58113 -144.29305,52.90459 -6.99852,5.84009 -20.75275,19.89784 -27.59162,28.20049 -30.23215,36.70302 -48.52191,82.89169 -50.81409,128.32509 -0.2447,4.85009 -0.63902,9.72312 -0.87627,10.82896 -0.82115,3.82739 2.35806,36.83601 4.60508,47.81301 7.30635,35.69242 22.57757,68.33918 45.16838,96.56085 5.91814,7.39325 24.35586,26.22361 30.38776,31.03488 1.93662,1.54472 5.70728,4.56548 8.37924,6.71279 14.23621,11.44091 44.0734,27.41205 62.91691,33.67796 12.20286,4.05773 28.52215,7.95983 38.75715,9.26721 4.34745,0.55533 9.88508,1.32947 12.30586,1.72033 8.91095,1.43875 33.75546,0.98459 47.97536,-0.877 z M 840.18729,586.90298 c -7.8273,-1.89917 -14.47232,-7.21587 -18.83997,-15.07391 -2.75759,-4.9613 -2.97852,-13.33208 -2.71932,-103.02805 0.24032,-83.1609 0.37521,-90.20245 1.78795,-93.33175 2.18927,-4.84939 6.42152,-9.9143 10.81434,-12.94197 7.93632,-5.46996 1.64511,-5.25097 151.26297,-5.26528 148.23174,-0.0142 142.24214,-0.20492 150.12674,4.78116 4.3015,2.72021 8.7175,7.85846 10.9989,12.79769 1.8424,3.98903 1.8549,4.56839 2.0893,96.75098 0.2321,91.27122 0.2076,92.81343 -1.5475,97.51265 -2.0553,5.50296 -6.7348,11.35165 -11.4866,14.35662 -7.9551,5.0307 -1.754,4.83494 -150.62098,4.75497 -114.29135,-0.0614 -137.59602,-0.27711 -141.86583,-1.31311 z M 1104.4438,561.7952 c -2.6103,-2.44668 -15.4193,-14.25223 -28.4645,-26.23457 -13.0452,-11.98234 -29.3807,-27.044 -36.3011,-33.47037 -6.9205,-6.42637 -13.0248,-11.6843 -13.5651,-11.6843 -0.5404,0 -4.5076,3.16978 -8.8161,7.04396 -9.733,8.75203 -12.9274,10.85439 -20.14995,13.2615 -4.91357,1.63758 -7.27098,1.8635 -16.72535,1.60287 -10.53865,-0.29052 -11.28572,-0.43829 -17.60771,-3.48268 -5.90139,-2.84185 -10.85072,-6.67203 -21.07246,-16.30754 l -3.02669,-2.85309 -3.21146,2.79253 c -3.26232,2.83677 -17.40349,15.81964 -50.1066,46.00241 -9.98466,9.21517 -20.89294,19.23501 -24.24062,22.26632 l -6.0867,5.51146 h 127.0602 127.06024 z M 849.25088,542.80277 c 3.15073,-2.94984 12.66082,-11.837 21.13353,-19.74925 8.47271,-7.91226 17.97975,-16.8326 21.12676,-19.82298 3.14701,-2.99039 8.09859,-7.55931 11.00352,-10.15318 2.90493,-2.59386 8.73233,-8.02423 12.94979,-12.06749 l 7.66809,-7.35139 -3.26668,-2.9535 c -1.79668,-1.62443 -8.43877,-7.67768 -14.7602,-13.45166 -6.32143,-5.77399 -14.83337,-13.47435 -18.91542,-17.11191 -4.08205,-3.63757 -12.18021,-10.98443 -17.99592,-16.32637 -21.01004,-19.29846 -27.51315,-25.11984 -28.06156,-25.11984 -0.30703,0 -0.55824,34.3869 -0.55824,76.41533 v 76.41533 l 1.97387,-1.67988 c 1.08562,-0.92393 4.55173,-4.09338 7.70246,-7.04321 z M 1124.575,437.1542 l -0.2293,-38.39314 -5.3773,4.5967 c -2.9575,2.52818 -11.8874,10.54908 -19.8442,17.82421 -7.9568,7.27513 -24.0559,21.95565 -35.7759,32.62336 -11.7199,10.66772 -21.309,19.65036 -21.309,19.96142 0,0.53957 15.4214,15.20172 36.9783,35.15773 5.5011,5.09259 17.9504,16.72715 27.665,25.85458 l 17.6631,16.59533 0.2293,-37.91353 c 0.1262,-20.85244 0.1262,-55.19043 0,-76.30666 z M 989.66258,487.844 c 6.40062,-3.70159 12.80132,-9.4278 85.35622,-76.36221 13.1433,-12.12522 26.4378,-24.3276 29.5433,-27.1164 l 5.6462,-5.07054 H 982.1981 854.1879 l 5.19754,4.62963 c 2.85864,2.54629 6.07061,5.42328 7.13769,6.39329 6.17553,5.61377 40.16423,36.77015 55.31492,50.70547 9.75522,8.97266 21.66746,19.88536 26.47164,24.25044 4.80419,4.36508 9.95242,9.12699 11.44051,10.58201 4.525,4.42444 11.20807,9.7191 15.38773,12.19092 5.15132,3.04645 8.99933,2.99277 14.52465,-0.20261 z"
         id="path15" /><path
         style="fill:#000000;fill-opacity:1"
         d="m 968.97596,718.19978 c -27.32367,-0.99964 -54.898,-6.84323 -80.75546,-17.11381 -11.01115,-4.37363 -33.70041,-16.31682 -43.5209,-22.90856 -14.15504,-9.5012 -26.62443,-19.70993 -38.16114,-31.24265 -12.03088,-12.02672 -17.9128,-18.87892 -26.53017,-30.9066 -6.66375,-9.30092 -13.15193,-19.98749 -18.7149,-30.82502 -6.90457,-13.45115 -10.25422,-21.33641 -14.64283,-34.46998 -29.70922,-88.90942 -6.67701,-185.79346 59.93788,-252.12614 38.33614,-38.17374 84.66151,-61.22253 139.94034,-69.6261 8.58676,-1.30538 33.31292,-1.96795 46.87685,-1.25613 52.32527,2.74597 102.10667,22.72791 143.63637,57.65471 26.4439,22.23956 53.1961,58.46436 66.1006,89.50617 1.5122,3.63757 3.2803,7.80424 3.9291,9.25926 1.7449,3.91287 8.0879,24.63806 9.7161,31.74604 12.1244,52.93179 7.3627,106.20269 -13.873,155.20282 -19.6773,45.40392 -54.7007,85.2748 -99.1117,112.82928 -7.843,4.86613 -30.0331,15.38418 -41.5173,19.67911 -28.3158,10.58972 -61.3977,15.76512 -93.30984,14.5976 z m 46.21474,-24.40183 c 22.5361,-3.98182 40.6716,-9.78215 59.8592,-19.14497 25.1852,-12.28944 40.74,-23.43592 60.7607,-43.54087 26.8296,-26.94258 44.8804,-56.48091 55.2686,-90.4416 5.086,-16.62718 5.833,-19.68258 7.697,-31.48332 3.1084,-19.67995 3.7235,-48.63553 1.3637,-64.1957 -1.9549,-12.88935 -3.4478,-20.86074 -4.9941,-26.66515 -10.9345,-41.04462 -30.1249,-74.64673 -59.3218,-103.87185 -29.1827,-29.21086 -63.9009,-49.08715 -103.0276,-58.98362 -20.5745,-5.204 -29.079,-6.18626 -53.6972,-6.20203 -19.9594,-0.0128 -24.40759,0.24649 -34.77113,2.0267 -31.87021,5.47453 -63.39315,17.65611 -87.4355,33.78817 -20.11792,13.49882 -35.52184,27.59844 -53.37862,48.85885 -4.79118,5.70442 -18.37124,26.96706 -23.05195,36.09303 -11.77397,22.95565 -19.29789,46.68854 -22.78441,71.86949 -2.34076,16.90578 -2.52875,44.1999 -0.40999,59.5238 7.00598,50.67065 28.06411,93.32855 63.80353,129.24814 18.84908,18.9441 35.55327,31.12216 58.01878,42.29812 25.14763,12.51025 45.64448,18.7343 74.04098,22.48323 14.7504,1.94736 46.43932,1.09952 62.05981,-1.66042 z M 839.99324,586.78157 c -8.53058,-1.94081 -14.8895,-7.47396 -19.09826,-16.61817 l -2.00705,-4.36062 v -93.03351 -93.03351 l 2.00705,-4.36062 c 3.96565,-8.61601 10.05596,-14.22364 17.83734,-16.42369 3.06089,-0.86541 33.04291,-1.14444 136.40561,-1.26946 72.86527,-0.0881 136.65137,0.12316 141.74687,0.46954 7.3555,0.50003 10.1784,1.09375 13.7002,2.88154 5.2625,2.67144 10.4017,8.10253 13.006,13.74466 l 1.8814,4.0762 v 93.91534 93.91535 l -2.4388,4.97487 c -3.1225,6.36972 -8.6432,11.44456 -15.2383,14.00774 l -5.2102,2.02495 -138.83839,0.10381 c -109.25949,0.0817 -139.88554,-0.13442 -143.75347,-1.01442 z M 1104.5112,561.5963 c -2.6784,-2.53652 -8.8115,-8.18329 -13.6291,-12.54837 -4.8177,-4.36508 -14.3244,-13.09524 -21.1261,-19.40035 -6.8016,-6.30512 -16.2942,-15.03527 -21.0946,-19.40035 -4.8004,-4.36508 -11.6005,-10.61508 -15.1115,-13.88889 -3.5109,-3.27381 -6.8993,-5.9394 -7.5298,-5.92352 -0.6304,0.0159 -4.9095,3.45072 -9.5089,7.63301 -5.8168,5.28919 -10.3726,8.56873 -14.9648,10.77257 l -6.60213,3.16842 -12.76409,10e-4 -12.76408,10e-4 -6.60211,-3.19432 c -4.67552,-2.26216 -9.15176,-5.53017 -15.33929,-11.1989 l -8.73718,-8.0046 -3.14662,2.75652 c -3.65286,3.2 -12.55536,11.34331 -37.86123,34.63248 -10.01314,9.21516 -22.1312,20.32628 -26.92902,24.69135 -4.79781,4.36508 -10.32032,9.41469 -12.27224,11.22134 l -3.54893,3.28483 127.2007,0.004 127.20072,0.004 z M 856.78366,535.82846 c 7.77046,-7.27955 18.85239,-17.60063 24.6265,-22.93573 5.77411,-5.3351 17.24216,-16.01487 25.48456,-23.73284 8.24239,-7.71796 15.35151,-14.35379 15.79804,-14.74628 0.46261,-0.40662 -1.01866,-2.3364 -3.44329,-4.48585 -2.34033,-2.07474 -4.92756,-4.36748 -5.74938,-5.095 -6.67785,-5.9115 -65.98741,-59.87369 -70.62448,-64.25696 l -3.30106,-3.12037 v 77.00652 c 0,73.20964 0.076,76.94724 1.54049,75.80429 0.84727,-0.66122 7.89815,-7.15822 15.66862,-14.43778 z M 1124.7858,474.4575 v -76.79502 l -10.3433,9.49989 c -5.6888,5.22494 -13.7104,12.54941 -17.8257,16.2766 -4.1153,3.72719 -14.4146,13.07798 -22.8873,20.77954 -8.4727,7.70156 -19.0691,17.31905 -23.5476,21.37222 -4.4784,4.05316 -8.1426,7.68238 -8.1426,8.06494 0,0.62623 25.4975,24.87741 51.9952,49.45375 5.5356,5.13417 14.5908,13.56671 20.1226,18.73897 5.5318,5.17227 10.1863,9.40413 10.3433,9.40413 0.157,0 0.2854,-34.55776 0.2854,-76.79502 z m -130.87422,10.57117 c 3.60138,-2.62009 14.06022,-11.70825 23.24192,-20.19591 9.1817,-8.48765 20.6093,-19.00352 25.3946,-23.3686 4.7854,-4.36508 14.254,-13.05487 21.0414,-19.31065 19.5666,-18.03412 22.4013,-20.6311 34.7499,-31.83574 l 11.6623,-10.58201 -63.9108,-0.22622 c -35.1509,-0.12442 -92.59299,-0.12442 -127.64909,0 l -63.73838,0.22622 10.21299,9.25926 c 10.717,9.7162 12.19782,11.07333 32.81314,30.072 7.05127,6.49832 16.73401,15.38656 21.5172,19.75164 16.28535,14.86181 33.43276,30.63118 38.28554,35.20874 2.66285,2.51183 6.86951,6.2261 9.34814,8.25393 12.11883,9.91475 16.55906,10.36604 27.03114,2.74734 z"
         id="path14" /><path
         style="fill:#000000;fill-opacity:1"
         d="m 964.57455,717.86647 c -33.31781,-1.91193 -65.65619,-10.54204 -94.19014,-25.13642 -28.29667,-14.47301 -44.62677,-26.57267 -67.34337,-49.89756 -33.80679,-34.71204 -54.80212,-74.94399 -64.81874,-124.20784 -1.91879,-9.43701 -4.28155,-34.55569 -4.28155,-45.51748 0,-27.10742 5.76661,-59.86174 14.80849,-84.11215 9.26882,-24.85903 19.71198,-43.95661 35.68392,-65.25573 7.18242,-9.57801 27.56572,-30.84843 37.9759,-39.6287 19.88483,-16.77149 45.28466,-31.77863 68.66197,-40.56801 2.90493,-1.0922 6.07394,-2.3275 7.04225,-2.74512 3.16808,-1.36635 19.19403,-5.92027 27.28874,-7.75435 29.80962,-6.75416 68.00082,-7.45991 98.15138,-1.81376 13.7767,2.57989 37.0003,9.29802 45.3345,13.1144 0.9683,0.4434 5.1277,2.24719 9.243,4.00842 21.5456,9.22085 45.2238,24.8497 65.1408,42.99641 30.8492,28.10709 55.151,65.5114 67.4522,103.81928 4.2454,13.22095 4.758,14.99979 6.1478,21.33492 2.6656,12.15032 3.0345,14.40937 4.7683,29.20159 2.6709,22.78641 2.3473,37.21939 -1.4668,65.42469 -2.1773,16.10183 -10.38,44.94042 -16.5543,58.20106 -9.7512,20.94262 -11.9228,24.89627 -22.0383,40.12346 -17.6796,26.61376 -43.88,52.31353 -72.0477,70.67114 -8.9131,5.80888 -31.9091,17.59263 -41.5253,21.27858 -34.0187,13.03975 -68.22179,18.48376 -103.43305,16.46317 z m 36.21835,-22.02882 c 50.1053,-5.04296 98.2807,-27.65417 133.5987,-62.70473 47.0677,-46.71136 70.8235,-108.57414 66.9145,-174.25254 -0.4547,-7.63889 -1.0578,-15.27777 -1.3402,-16.9753 -4.3566,-26.18447 -11.7024,-49.58387 -21.7126,-69.16373 -49.0591,-95.95902 -154.7591,-143.80373 -257.30871,-116.46977 -24.55397,6.5447 -51.02896,19.08773 -71.68977,33.96438 -42.61132,30.68194 -73.04677,75.00344 -86.58971,126.09592 -5.70496,21.52269 -8.06989,46.52127 -6.65305,70.32628 0.85788,14.41368 0.97948,15.44731 3.1902,27.1164 9.80136,51.73564 36.23683,96.73778 77.2913,131.57601 24.33094,20.64688 58.79092,38.05633 89.3486,45.1396 4.59947,1.06616 9.74912,2.28874 11.44366,2.71684 1.69454,0.4281 6.84419,1.20332 11.44366,1.72272 4.59947,0.5194 9.55106,1.08315 11.00352,1.25277 6.18512,0.72232 32.66664,0.49991 41.0599,-0.34485 z M 836.66597,585.6699 c -6.64505,-2.60101 -11.58145,-7.22076 -14.8733,-13.91926 l -2.90474,-5.91077 v -93.0706 -93.07059 l 2.95368,-6.01037 c 3.36837,-6.85418 9.62555,-12.44254 16.10528,-14.38378 3.07191,-0.92031 31.60831,-1.14958 144.42034,-1.16032 l 140.59197,-0.0134 4.9897,1.8702 c 5.4504,2.04282 10.715,6.30129 13.6286,11.0239 4.3541,7.05758 4.3135,6.09887 4.3246,101.94629 l 0.011,89.70812 -1.9448,5.9709 c -2.5221,7.74373 -8.5054,14.07122 -15.9412,16.8582 l -5.0674,1.89929 -141.03211,-0.0412 c -135.8127,-0.0397 -141.18863,-0.10251 -145.26112,-1.69657 z m 272.27473,-19.30094 c 0,-0.71564 -11.5473,-11.64056 -29.9588,-28.34396 -4.5441,-4.12257 -13.8418,-12.65432 -20.6616,-18.95943 -6.8198,-6.30512 -16.2656,-15.03527 -20.9906,-19.40035 -4.725,-4.36508 -9.3526,-8.29078 -10.2835,-8.72377 -1.3831,-0.64335 -2.9105,0.32385 -8.3555,5.291 -8.9936,8.20437 -14.9435,12.0455 -22.358,14.43379 -5.40858,1.74216 -7.56854,1.95441 -16.568,1.62806 -9.7334,-0.35297 -10.74108,-0.56601 -16.95071,-3.58371 -4.21643,-2.04905 -9.16992,-5.53763 -13.70823,-9.65424 -3.90836,-3.54519 -7.89549,-7.13542 -8.86028,-7.97827 -2.0301,-1.77353 0.0786,-3.48934 -31.1452,25.34199 -9.97987,9.21516 -26.14069,24.06544 -35.91294,33.00062 -9.77224,8.93517 -17.76772,16.57406 -17.76772,16.97531 0,0.40124 57.04225,0.72953 126.76056,0.72953 69.92852,0 126.76052,-0.3392 126.76052,-0.75657 z M 848.26087,543.97739 c 4.21376,-4.00133 12.57609,-11.83863 18.58296,-17.41623 6.00686,-5.5776 17.50194,-16.29189 25.54462,-23.80952 8.04267,-7.51764 18.26202,-17.04145 22.70966,-21.16403 4.44765,-4.12257 7.99132,-7.74055 7.87484,-8.03996 -0.11648,-0.2994 -3.18273,-3.22634 -6.81389,-6.5043 -3.63116,-3.27796 -9.95417,-8.98538 -14.05113,-12.68314 -4.09695,-3.69777 -12.41734,-11.2867 -18.48974,-16.86431 -6.0724,-5.5776 -16.34553,-14.90299 -22.82918,-20.7231 -6.48365,-5.82011 -13.9093,-12.49867 -16.50145,-14.84126 l -4.71301,-4.25925 v 76.79012 c 0,42.23456 0.23061,76.79011 0.51247,76.79011 0.28186,0 3.96009,-3.27381 8.17385,-7.27513 z m 276.31413,-107.70934 -0.2293,-38.26489 -9.7598,8.9439 c -5.3679,4.91915 -19.3983,17.67406 -31.1786,28.34426 -36.4423,33.00808 -41.368,37.5989 -41.368,38.55582 0,0.50984 2.8526,3.55128 6.339,6.75877 3.4864,3.20749 16.0822,14.95878 27.9907,26.11398 24.2559,22.72154 40.2959,37.60872 44.8957,41.66893 l 3.081,2.71956 0.2293,-38.28772 c 0.1261,-21.05825 0.1261,-55.50692 0,-76.55261 z m -133.10497,50.7343 c 2.93071,-1.86277 11.24937,-8.84989 18.48587,-15.52694 7.2366,-6.67705 16.7018,-15.36745 21.0338,-19.312 4.332,-3.94455 13.641,-12.48872 20.6866,-18.98704 15.8175,-14.58875 18.2849,-16.85395 40.3782,-37.068 9.7716,-8.94039 17.7665,-16.57928 17.7665,-16.97531 0,-0.39603 -57.4714,-0.72005 -127.71417,-0.72005 -70.24281,0 -127.58216,0.33583 -127.42078,0.74629 0.27958,0.71105 15.79497,15.20768 34.59401,32.32249 4.79463,4.36508 14.09878,12.89683 20.67589,18.95944 6.57711,6.06261 15.88495,14.59436 20.68408,18.95944 4.79914,4.36508 14.33424,13.11579 21.18912,19.44603 25.28457,23.34942 28.87921,24.99578 39.64088,18.15565 z"
         id="path13" /><path
         style="fill:#000000;fill-opacity:1"
         d="m 965.01469,717.83655 c -48.96746,-2.80212 -93.92258,-19.51263 -134.6831,-50.06377 -17.24102,-12.92264 -42.1451,-39.63103 -55.61277,-59.64196 -20.4202,-30.34133 -35.22525,-71.50016 -39.17424,-108.90652 -1.47555,-13.97701 -1.49502,-38.76357 -0.0412,-52.46914 5.80212,-54.69848 29.73234,-105.42585 68.36845,-144.92769 13.14247,-13.43696 22.74526,-21.62944 37.02315,-31.58578 61.23594,-42.70139 140.57308,-54.29595 213.02812,-31.13256 46.7187,14.93563 90.4975,46.36075 120.3567,86.39383 26.0971,34.98907 42.9626,77.89034 47.4937,120.81129 1.4756,13.977 1.4951,38.76357 0.041,52.46913 -4.1161,38.80379 -19.4451,80.81029 -40.5467,111.11111 -13.7886,19.7998 -32.2356,40.07035 -48.1195,52.87652 -48.987,39.49495 -107.1795,58.55359 -168.1338,55.06554 z m 30.36972,-21.53648 c 16.31429,-1.49361 17.38149,-1.64312 29.04929,-4.06946 34.8435,-7.2458 68.5188,-23.56549 96.3909,-46.71279 44.2292,-36.73176 73.2864,-90.39726 79.6944,-147.18692 1.3005,-11.52542 1.3132,-39.98642 0.023,-51.13482 -4.8539,-41.93574 -22.9384,-84.52798 -49.4304,-116.4175 -12.3279,-14.83962 -31.9124,-32.95792 -46.2132,-42.75358 -22.5734,-15.46213 -50.0326,-27.78745 -73.7579,-33.10698 -4.4149,-0.98987 -9.6115,-2.17472 -11.5481,-2.63299 -4.5281,-1.07152 -14.6028,-2.28732 -29.26941,-3.53216 -25.62753,-2.17516 -61.00009,3.24734 -88.77525,13.60898 -82.87618,30.91729 -140.4246,108.39009 -145.4868,195.85716 -0.80296,13.87381 -0.23578,34.32113 1.25953,45.40736 1.09134,8.09124 4.9438,25.40251 7.55696,33.95772 18.3784,60.16886 60.84512,110.0288 116.44174,136.7136 27.64349,13.26809 48.46602,19.02529 79.45719,21.96904 16.41972,1.55965 17.92103,1.5611 34.60825,0.0333 z M 837.60501,586.07284 c -7.85656,-2.89097 -13.80377,-8.9224 -17.24596,-17.49021 -1.33357,-3.31931 -1.49754,-11.90698 -1.75374,-91.8451 -0.20771,-64.80842 -0.007,-89.81968 0.75536,-94.35626 1.37236,-8.16142 4.48562,-13.74574 10.06895,-18.06084 8.66205,-6.69451 -3.80653,-6.18961 152.8518,-6.18961 136.76638,0 140.85038,0.0478 145.18468,1.69755 6.8214,2.5965 11.7616,7.16314 15.1016,13.95953 l 2.9047,5.91078 v 93.05205 93.05205 l -2.3461,5.0137 c -3.021,6.45614 -9.3616,12.54126 -15.4426,14.82046 -4.6612,1.74707 -6.6131,1.76995 -145.75661,1.70864 -117.25603,-0.0517 -141.58676,-0.26622 -144.32208,-1.27274 z m 271.22349,-20.44347 c -0.6645,-0.82289 -2.7788,-2.90622 -4.6985,-4.62963 -1.9196,-1.7234 -9.0753,-8.2922 -15.9014,-14.59731 -6.8261,-6.30511 -16.3422,-15.03527 -21.1468,-19.40035 -4.8047,-4.36508 -14.0903,-12.89683 -20.6348,-18.95944 -6.5446,-6.06261 -13.8009,-12.73814 -16.1254,-14.83451 l -4.2262,-3.81158 -6.7727,6.01585 c -3.725,3.30872 -7.3312,6.54706 -8.0137,7.1963 -2.6466,2.51756 -8.6893,5.83534 -14.16403,7.77681 -4.58179,1.62482 -7.56343,2.0291 -14.96479,2.0291 -13.7867,0 -21.91347,-3.29215 -32.57042,-13.19429 -2.1787,-2.02439 -5.63174,-5.07126 -7.67342,-6.77084 l -3.71216,-3.09014 -17.49089,16.17587 c -9.61999,8.89672 -28.44908,26.25785 -41.84242,38.58027 -13.39334,12.32243 -24.35153,22.54068 -24.35153,22.70723 0,0.16655 57.48688,0.30282 127.74863,0.30282 120.02283,0 127.67553,-0.0905 126.54053,-1.49616 z M 852.53736,540.19951 c 5.68685,-5.31855 17.10287,-16.0193 25.36893,-23.77944 8.26606,-7.76014 19.74625,-18.47443 25.51153,-23.80953 5.76528,-5.33509 12.58562,-11.65264 15.15632,-14.03898 2.5707,-2.38635 4.56443,-4.61147 4.43051,-4.94471 -0.24614,-0.6125 -17.87934,-16.90999 -31.45932,-29.07627 -4.06025,-3.63757 -14.55624,-13.16138 -23.32443,-21.16402 -8.76819,-8.00265 -18.5704,-16.86596 -21.78269,-19.69624 -3.2123,-2.83029 -6.07074,-5.37658 -6.3521,-5.65844 -0.28136,-0.28185 -0.51156,34.09721 -0.51156,76.39791 0,67.87438 0.15409,76.82398 1.31154,76.1751 0.72135,-0.4044 5.96442,-5.08682 11.65127,-10.40538 z m 272.24844,-65.74196 v -76.79496 l -8.1421,7.35052 c -4.4782,4.04279 -12.7078,11.51719 -18.288,16.60978 -5.5802,5.09259 -13.4645,12.23545 -17.5207,15.87301 -10.7407,9.63218 -39.6759,36.22836 -39.6759,36.46863 0,0.11291 6.2122,5.94176 13.805,12.95299 17.539,16.19572 56.2966,52.43862 63.2196,59.11772 2.9049,2.80259 5.5788,5.12299 5.9419,5.15645 0.3631,0.0335 0.6602,-34.49691 0.6602,-76.73414 z M 991.50674,487.0378 c 2.85895,-1.85249 8.20006,-6.11836 11.86916,-9.47972 3.669,-3.36136 10.5851,-9.68299 15.369,-14.04807 4.7838,-4.36508 16.6707,-15.27777 26.4152,-24.25044 9.7445,-8.97266 28.5162,-26.23457 41.7148,-38.35979 l 23.9975,-22.04585 -127.87014,-0.22343 c -70.32858,-0.12288 -128.08993,-0.003 -128.35856,0.26586 -0.26864,0.26911 2.85848,3.54425 6.94915,7.2781 4.09066,3.73385 12.80841,11.74913 19.37277,17.81174 6.56436,6.06261 15.64969,14.39595 20.18961,18.51852 4.53993,4.12258 13.85121,12.65432 20.69175,18.95944 6.84054,6.30511 16.33658,15.03527 21.10232,19.40035 4.76575,4.36508 9.69945,8.93881 10.96378,10.16386 6.39669,6.19788 17.71605,15.38136 21.22485,17.21987 5.97541,3.13095 10.14451,2.82265 16.36881,-1.21044 z"
         id="path12" /><path
         style="fill:#000000;fill-opacity:1"
         d="m 966.33511,717.87722 c -21.02013,-1.51774 -35.6394,-3.8875 -52.37676,-8.49017 -54.1626,-14.8944 -102.23796,-49.03927 -135.73811,-96.40614 -32.4898,-45.93831 -49.0718,-108.96992 -42.95369,-163.27591 4.26314,-37.84074 14.2286,-68.87422 32.12059,-100.02685 10.75884,-18.73276 21.06255,-32.05409 38.47908,-49.74838 34.89103,-35.44747 75.36995,-57.3578 125.25763,-67.79912 11.70352,-2.44951 13.41653,-2.66825 31.35346,-4.0036 16.09709,-1.19839 28.90967,-0.85085 47.43179,1.28657 46.0501,5.31412 94.4649,27.32122 130.7218,59.42002 12.774,11.30901 29.9994,31.01208 40.153,45.92858 9.6861,14.22973 21.2219,36.64329 27.1682,52.78664 12.4917,33.91342 17.8409,74.97792 14.1054,108.28468 -5.6697,50.55319 -23.1558,93.40329 -53.5625,131.25672 -7.6193,9.48524 -28.6443,30.32006 -38.4275,38.07986 -39.5104,31.3387 -85.717,49.15704 -135.56337,52.27641 -4.59947,0.28784 -10.54138,0.66695 -13.20423,0.84248 -2.66285,0.17553 -9.397,-0.01 -14.96479,-0.41179 z m 36.97179,-22.10335 c 28.0148,-3.54299 50.491,-10.1888 73.9537,-21.86679 45.6763,-22.7343 82.3576,-60.22759 103.7795,-106.07677 26.301,-56.29176 27.8546,-122.62867 4.2194,-180.15804 -8.4236,-20.50358 -19.3557,-38.73872 -34.0821,-56.8504 -6.6719,-8.20572 -24.198,-25.88121 -31.2331,-31.4995 -1.9367,-1.54658 -5.1057,-4.08255 -7.0423,-5.63548 -17.411,-13.96145 -47.8305,-29.30101 -72.1831,-36.39949 -20.0811,-5.85342 -52.45842,-10.01302 -69.83334,-8.97168 -34.54931,2.07066 -63.04315,9.4564 -91.56366,23.73374 -45.31504,22.68466 -81.71476,60.00806 -103.04391,105.65877 -28.40744,60.80033 -27.93681,131.74998 1.27694,192.50372 30.76475,63.97924 89.58887,109.26966 159.73089,122.98152 20.67695,4.04207 46.48705,5.05085 66.02108,2.5804 z M 837.1922,585.75073 c -8.86909,-3.53089 -15.14615,-10.94152 -17.40769,-20.55135 -1.98217,-8.42267 -1.95871,-176.51165 0.0258,-185.0227 2.26536,-9.71544 8.54882,-16.94014 17.79152,-20.45661 3.95566,-1.50497 11.46876,-1.58785 144.00271,-1.58853 154.42596,-7.9e-4 145.37656,-0.32978 152.73286,5.55263 4.3908,3.51109 6.7127,6.46481 8.9305,11.36032 1.6798,3.70796 1.7252,6.29957 1.7064,97.28387 -0.016,76.40813 -0.2372,94.08656 -1.2131,96.82717 -2.7984,7.85924 -9.795,14.50615 -17.8448,16.95297 -3.6107,1.09748 -24.2451,1.26845 -144.61652,1.19824 -129.03062,-0.0753 -140.70489,-0.20131 -144.1077,-1.55601 z M 1109.821,566.3077 c 0,-0.4498 -1.0892,-1.67615 -2.4206,-2.72522 -2.5164,-1.98293 -10.4336,-9.17881 -31.5153,-28.6439 -6.8287,-6.30511 -16.1482,-14.86903 -20.71,-19.03092 -4.5618,-4.16189 -12.7799,-11.70158 -18.2625,-16.75485 -5.4826,-5.05327 -10.3047,-9.3099 -10.7159,-9.45916 -0.4112,-0.14927 -4.6403,3.31391 -9.3979,7.69595 -9.511,8.76009 -16.162,12.6003 -24.43698,14.10955 -11.2079,2.04418 -21.91172,0.82198 -30.42811,-3.47441 -4.37778,-2.20853 -19.66391,-14.62791 -21.39058,-17.37901 -1.20493,-1.91982 -2.49605,-1.2841 -8.0241,3.95089 -2.94605,2.78988 -9.11966,8.5005 -13.71913,12.69028 -7.7321,7.04337 -33.60008,30.82502 -54.05744,49.69754 -4.73164,4.36508 -8.96301,8.06878 -9.40305,8.23045 -4.49064,1.64986 12.82207,1.91064 126.84077,1.91064 77.84762,0 127.64082,-0.31904 127.64082,-0.81783 z m 14.754,-130.22658 -0.2293,-38.31911 -13.2042,12.04496 c -7.2624,6.62472 -16.5516,15.06882 -20.6427,18.76465 -4.0912,3.69583 -14.7866,13.41073 -23.7676,21.58867 -8.9811,8.17793 -18.4826,16.82662 -21.1145,19.21931 l -4.7852,4.35034 2.5845,2.47539 c 4.1173,3.94335 30.3043,28.35734 35.0953,32.71915 4.4224,4.02627 6.6788,6.14113 31.7499,29.75832 l 14.0845,13.26775 0.2293,-38.77516 c 0.1261,-21.32634 0.1261,-56.01876 0,-77.09427 z m -261.57373,94.44829 c 45.0552,-42.03702 60.19975,-56.33326 60.1903,-56.81876 -0.005,-0.27525 -2.85226,-3.07983 -6.32644,-6.23238 -9.0647,-8.22552 -35.38403,-32.18924 -56.17403,-51.14639 -9.84018,-8.97266 -18.61693,-16.83246 -19.50389,-17.46623 -1.55982,-1.11454 -1.61266,1.36553 -1.61266,75.69077 0,48.65306 0.30968,76.73524 0.84416,76.54913 0.46429,-0.16167 10.62644,-9.42093 22.58256,-20.57614 z M 987.99079,489.1761 c 4.44847,-2.07501 12.13431,-8.11794 21.47811,-16.887 5.8765,-5.51503 26.3444,-24.37464 38.2387,-35.23411 4.781,-4.36508 14.0863,-12.89683 20.6783,-18.95944 6.592,-6.06261 15.904,-14.59435 20.6933,-18.95943 4.7892,-4.36508 11.2524,-10.31746 14.3625,-13.22752 3.1101,-2.91005 6.0158,-5.42328 6.4572,-5.58495 4.5041,-1.6499 -12.8653,-1.91064 -127.27857,-1.91064 -71.08587,0 -128.08099,0.33811 -128.08099,0.7598 0,0.65185 8.72239,8.93601 21.5669,20.48333 1.93662,1.74103 9.07443,8.28865 15.86179,14.55026 6.78737,6.26161 16.26981,14.95617 21.07209,19.32125 4.80228,4.36508 16.4805,15.08591 25.95159,23.82408 24.73959,22.82509 32.0102,28.99554 37.23843,31.60364 5.66625,2.82662 6.15442,2.83578 11.76065,0.22073 z"
         id="path11" /><path
         style="fill:#000000;fill-opacity:1"
         d="m 962.81399,717.42866 c -21.48417,-1.89973 -27.23223,-2.77964 -43.13381,-6.60286 -7.66605,-1.84315 -30.54926,-9.35378 -32.13028,-10.54566 -0.48415,-0.36499 -1.8706,-0.95872 -3.08098,-1.31941 -4.3043,-1.28263 -26.82058,-13.00987 -35.13009,-18.29693 -36.71653,-23.36153 -65.75746,-54.64213 -86.57898,-93.25608 -13.18277,-24.44772 -23.26748,-56.21863 -26.17174,-82.4515 -0.48326,-4.36508 -1.26865,-10.51587 -1.74531,-13.66843 -2.36978,-15.67336 0.40547,-53.36151 5.25979,-71.42857 0.4561,-1.69753 1.65829,-6.45944 2.67154,-10.58201 1.82246,-7.41497 6.1617,-20.89689 8.37281,-26.01411 0.62871,-1.45503 2.58907,-6.01852 4.35635,-10.14109 14.86109,-34.66666 42.46189,-69.75998 74.90454,-95.2381 9.60935,-7.54649 25.63203,-17.5124 38.76085,-24.10877 24.21208,-12.16498 45.45309,-18.98111 74.54366,-23.92068 9.75667,-1.65667 35.46582,-2.86817 46.06417,-2.17068 13.04349,0.8584 26.67379,2.36879 31.13609,3.45023 1.6945,0.41068 4.8635,1.01025 7.0422,1.3324 2.1787,0.32214 5.1497,0.93687 6.6021,1.36606 1.4525,0.42919 7.5925,2.20945 13.6444,3.95612 32.8659,9.48556 64.1595,26.73178 91.1833,50.25198 26.6888,23.22855 50.3659,55.90482 64.2059,88.60877 8.1579,19.27741 15.0361,44.93409 17.1395,63.93298 0.4833,4.36508 1.2687,10.51588 1.7453,13.66843 2.3698,15.67337 -0.4055,53.36151 -5.2598,71.42858 -0.4561,1.69753 -1.6583,6.45943 -2.6715,10.58201 -1.8225,7.41497 -6.1617,20.89688 -8.3728,26.01411 -0.6287,1.45502 -2.5891,6.01851 -4.3564,10.14109 -15.8818,37.04767 -46.6443,74.93369 -80.9902,99.74459 -36.2563,26.1909 -81.8791,42.54906 -126.32047,45.2925 -4.59947,0.28393 -10.54138,0.66593 -13.20423,0.84888 -2.66285,0.18296 -10.98151,-0.21027 -18.48591,-0.87385 z m 47.09511,-22.52795 c 45.1951,-6.51944 84.7101,-25.1759 118.838,-56.10766 36.5327,-33.11134 61.6958,-78.78306 70.0175,-127.08361 2.4101,-13.98855 2.637,-16.31834 3.2175,-33.03092 1.0098,-29.07689 -4.5346,-60.95841 -15.2671,-87.78788 -8.3542,-20.88438 -22.2959,-44.56623 -35.7482,-60.72309 -8.28,-9.9447 -28.8342,-29.65173 -38.6029,-37.01188 -34.7269,-26.16459 -75.638,-41.37863 -119.4237,-44.41139 -37.50539,-2.59776 -80.95858,6.12737 -113.31283,22.75251 -39.37718,20.23384 -71.71128,50.40875 -93.30566,87.07495 -16.38838,27.82667 -25.75664,55.97432 -30.08346,90.38801 -0.21343,1.69753 -0.61191,9.83245 -0.88552,18.0776 -0.97011,29.23403 4.12117,58.94127 14.85731,86.69129 24.12775,62.36373 76.24162,111.95331 139.3469,132.59722 31.98372,10.46298 66.69912,13.42933 100.35216,8.57485 z M 837.47676,585.80939 c -8.56456,-2.84863 -15.86409,-11.7647 -18.0392,-22.03414 -1.39314,-6.5775 -1.39314,-175.43446 0,-182.01196 1.47682,-6.97256 4.61652,-12.47311 9.54915,-16.72947 8.50969,-7.34299 -4.574,-6.75783 152.81659,-6.83465 128.0055,-0.0625 140.4005,0.0568 144.3662,1.38931 5.5295,1.85798 11.145,5.84718 13.9527,9.91187 5.136,7.43547 4.9101,2.68434 4.9101,103.26892 0,100.58459 0.2259,95.83345 -4.9101,103.26893 -2.8077,4.06468 -8.4232,8.05389 -13.9527,9.91186 -3.9665,1.33278 -16.3344,1.45044 -144.3662,1.37335 -126.62732,-0.0762 -140.43941,-0.22114 -144.32654,-1.51402 z m 272.19754,-19.46173 c -0.2988,-0.79225 -9.2343,-9.21352 -24.9058,-23.47257 -10.7284,-9.76154 -31.7941,-29.11048 -38.3278,-35.20435 -9.5035,-8.86382 -20.0171,-18.14662 -20.5525,-18.14662 -0.2995,0 -4.2153,3.39953 -8.7019,7.55451 -11.8544,10.97809 -21.67309,15.32868 -34.6659,15.36015 -13.49739,0.0327 -21.9679,-3.65121 -34.70336,-15.09282 -4.86367,-4.36955 -9.20529,-7.8178 -9.64804,-7.66278 -0.79038,0.27674 -4.75516,3.86179 -29.47443,26.65149 -21.90814,20.19801 -23.7957,21.93002 -39.01473,35.79968 -8.24903,7.51764 -15.03024,13.96605 -15.06936,14.32981 -0.0391,0.36375 57.40025,0.66137 127.64306,0.66137 73.39906,0 127.58946,-0.33082 127.42076,-0.77787 z M 856.34568,536.75539 c 3.65634,-3.42429 11.38081,-10.61889 17.16549,-15.98801 16.06928,-14.91488 34.06363,-31.77005 42.5146,-39.8231 l 7.61568,-7.2571 -4.40141,-4.20675 c -2.42077,-2.31371 -7.72656,-7.18294 -11.79064,-10.8205 -4.06407,-3.63757 -8.68182,-7.80424 -10.26165,-9.25926 -1.57983,-1.45503 -9.91186,-8.99471 -18.51561,-16.75485 -8.60375,-7.76015 -20.71894,-18.77205 -26.92265,-24.4709 -6.2037,-5.69886 -11.679,-10.36156 -12.16734,-10.36156 -0.99664,0 -1.30137,152.73099 -0.30671,153.72741 0.55791,0.5589 2.26397,-0.9188 17.07024,-14.78538 z M 1124.575,436.0658 l -0.2293,-38.33442 -7.5186,6.87521 c -4.1353,3.78136 -10.8443,9.8514 -14.909,13.48896 -4.0648,3.63757 -12.3923,11.17725 -18.5056,16.75485 -10.674,9.73856 -16.303,14.83767 -34.1108,30.90017 -4.4785,4.0395 -8.1426,7.58622 -8.1426,7.8816 0,0.29539 4.4472,4.68636 9.8827,9.75772 5.4355,5.07136 16.6375,15.56986 24.8933,23.33 8.2558,7.76014 19.7527,18.47443 25.5486,23.80952 5.7959,5.3351 13.3109,12.35923 16.7,15.60918 l 6.162,5.909 0.2293,-38.82369 c 0.1261,-21.35302 0.1261,-56.07417 0,-77.1581 z m -131.83144,50.32926 c 5.09688,-3.42979 9.65074,-7.41902 29.53744,-25.87525 2.9313,-2.72047 9.2618,-8.51773 14.0678,-12.88281 4.8059,-4.36508 14.1172,-12.89683 20.6917,-18.95944 6.5745,-6.06261 14.5696,-13.40388 17.7668,-16.31393 27.115,-24.67927 35.7688,-32.72012 35.8267,-33.28924 0.037,-0.36376 -57.7869,-0.66138 -128.49756,-0.66138 -107.40521,0 -128.44901,0.19505 -127.86091,1.1851 0.38717,0.6518 2.88265,3.10034 5.5455,5.4412 4.66086,4.09727 12.04626,10.85218 50.60374,46.28375 9.76427,8.97267 21.4712,19.68695 26.0154,23.80953 4.5442,4.12257 12.95775,11.8498 18.69678,17.17161 16.21071,15.03221 23.10901,19.4564 28.8038,18.47315 1.69454,-0.29258 5.65581,-2.26461 8.80281,-4.38229 z"
         id="path10" /></g></g></svg>
