<?xml version="1.0" encoding="UTF-8" standalone="no"?>
<!-- Created with Inkscape (http://www.inkscape.org/) -->

<svg
   version="1.0"
   width="427.40277"
   height="427.39035"
   id="svg2383"
   xml:space="preserve"
   viewBox="0 0 427.40277 427.39035"
   xmlns="http://www.w3.org/2000/svg"
   xmlns:svg="http://www.w3.org/2000/svg"
   xmlns:rdf="http://www.w3.org/1999/02/22-rdf-syntax-ns#"
   xmlns:cc="http://creativecommons.org/ns#"
   xmlns:dc="http://purl.org/dc/elements/1.1/"><defs
     id="defs2385" /><metadata
     id="metadata2388"><rdf:RDF><cc:Work
         rdf:about=""><dc:format>image/svg+xml</dc:format><dc:type
           rdf:resource="http://purl.org/dc/dcmitype/StillImage" /></cc:Work></rdf:RDF></metadata><g
     transform="translate(-672.79525,-320.32089)"
     id="layer1"><g
       id="g24"
       transform="translate(-60.941666,15.235417)"
       style="fill:#000000"><path
         style="fill:#000000;fill-opacity:1"
         d="M 928.43866,731.63465 C 852.01923,724.05808 786.90056,678.62822 754.38,610.20309 743.47134,587.25064 737.40848,564.7605 734.71943,537.27235 c -5.47017,-55.91766 12.01901,-111.15764 49.52285,-156.41906 12.53427,-15.12695 27.32184,-28.32065 44.80876,-39.97908 51.77586,-34.51868 116.31882,-44.68921 176.38766,-27.79475 59.2062,16.65186 108.5492,58.34637 135.0586,114.12363 10.9087,22.95246 16.9715,45.4426 19.6606,72.93075 5.9288,60.60627 -15.1488,120.32007 -59.0337,167.24476 -21.4663,22.95319 -56.7905,44.81715 -88.6513,54.87086 -25.98279,8.1989 -58.90912,11.8762 -84.03424,9.38519 z m 45.5,-26.92233 c 51.11514,-7.45032 98.34384,-36.69919 127.66914,-79.06595 35.973,-51.97069 43.5235,-116.33972 20.5828,-175.47022 -31.2329,-80.50406 -115.2592,-129.54001 -201.25194,-117.44644 -3.85,0.54144 -12.52815,2.35606 -19.28477,4.03248 -90.50221,22.45493 -151.74426,110.5305 -140.76428,202.4409 0.78846,6.6 2.11916,15.15 2.9571,19 14.15474,65.0348 61.05888,117.34273 124.12312,138.42321 22.39958,7.48752 40.38898,10.19224 63.46883,9.5426 8.525,-0.23996 18.65,-0.89542 22.5,-1.45658 z m -3.0153,-42.86203 c -16.8188,-5.74305 -41.48297,-26.22723 -61.62533,-51.18132 -38.51516,-47.71588 -65.77752,-107.03669 -70.77649,-154.00418 -2.03901,-19.15742 1.33792,-32.18542 10.82876,-41.77666 4.36124,-4.40737 16.78328,-13.41405 20.17679,-14.62931 0.98223,-0.35174 4.30107,4.54998 10.91157,16.1157 5.225,9.14166 14.31864,24.89856 20.2081,35.01534 l 10.7081,18.39415 -3.83855,3.4679 c -18.73084,16.92218 -6.37733,65.72533 24.28889,95.95447 9.98889,9.84652 16.88518,13.93233 26.4818,15.68952 4.84758,0.88761 6.50397,0.74463 11.64229,-1.00501 3.29485,-1.12192 6.04095,-1.96065 6.10243,-1.86383 0.0615,0.0968 4.39999,7.60103 9.64111,16.67603 5.24112,9.075 14.30753,24.77014 20.14757,34.87808 5.84,10.10794 10.6183,18.53978 10.6183,18.73743 0,0.7718 -14.0476,7.37925 -19.82934,9.32699 -7.54532,2.54184 -18.58395,2.6298 -25.686,0.2047 z m 51.96524,-13.27847 c -3.2882,-1.59742 -42.44994,-69.66567 -42.44994,-73.78363 0,-4.33491 3.10299,-7.36368 13.73065,-13.40221 14.60099,-8.29611 14.45889,-8.25042 18.83149,-6.05525 3.9656,1.99084 3.0262,0.49648 32.5514,51.78226 14.7313,25.58848 14.7091,25.85153 -3.0323,35.92024 -11.7739,6.68201 -15.2556,7.6643 -19.6313,5.53859 z M 919.90394,468.75157 c -2.80514,-1.13704 -3.77156,-2.4493 -10.87452,-14.76613 -3.41993,-5.93029 -9.61385,-16.63235 -13.76427,-23.78235 -18.66265,-32.15046 -18.82649,-32.46691 -18.82649,-36.36107 0,-4.82509 1.55076,-6.26402 15.13766,-14.04608 16.29904,-9.33547 17.81798,-8.79786 28.64484,10.13842 3.85807,6.7478 11.83477,20.59373 17.72599,30.76873 14.09635,24.34646 14.49151,25.10147 14.49151,27.68814 0,4.50454 -2.27557,7.03646 -10.83319,12.05361 -16.44374,9.6406 -17.45543,10.02784 -21.70153,8.30673 z"
         id="path30" /><path
         style="fill:#000000;fill-opacity:1"
         d="M 932.43866,731.65586 C 848.52078,725.5996 776.1332,671.23866 746.98433,592.38513 c -18.43518,-49.87086 -17.32994,-105.10837 3.10501,-155.18204 20.98414,-51.41936 63.58818,-94.26372 114.80942,-115.457 72.84814,-30.14164 155.82304,-18.27474 217.00714,31.03592 39.3042,31.67681 67.3938,79.36742 75.934,128.92108 9.1842,53.29024 -2.5032,110.04148 -31.715,154 -37.5924,56.56995 -96.5227,90.92532 -164.68624,96.00935 -13.77293,1.02726 -13.98775,1.02684 -29,-0.0566 z m 33.14405,-26.00036 c 45.17969,-4.57034 86.28979,-24.5853 117.42999,-57.17227 69.5724,-72.80482 69.8066,-186.22742 0.5348,-259.02023 -56.3385,-59.2022 -143.73785,-75.4132 -216.94834,-40.24002 -52.11673,25.03892 -90.1759,72.77021 -102.50798,128.55874 -14.33107,64.83161 5.95621,131.20817 54.10738,177.03026 39.62365,37.70704 93.5033,56.29405 147.38415,50.84352 z m 4.24379,-44.32871 c -43.08344,-16.01556 -102.73105,-97.12724 -123.73561,-168.2616 -5.96304,-20.19453 -7.07517,-27.20625 -7.1156,-44.8621 -0.0356,-15.57248 0.0407,-16.16735 2.85593,-22.26335 3.34131,-7.23505 12.52641,-16.43868 22.43357,-22.47883 l 6.138,-3.74219 1.41466,2.24219 c 0.77806,1.2332 8.28011,14.16718 16.67123,28.74218 8.39112,14.575 16.94056,29.35616 18.99877,32.84703 l 3.74219,6.34702 -4.03489,3.64528 c -6.64689,6.00507 -8.184,10.6403 -8.17782,24.66067 0.005,10.32049 0.3969,13.25964 2.80331,21 6.69062,21.52077 18.95461,41.18242 33.97668,54.47148 10.18273,9.00801 21.93712,13.1148 31.55616,11.0252 3.07207,-0.66736 6.39786,-1.27712 7.39065,-1.35503 1.83396,-0.14391 3.10224,1.91631 31.28557,50.82082 l 10.3517,17.96247 -5.1113,2.95099 c -14.49173,8.36672 -29.61132,10.64608 -41.4432,6.24777 z m 52.1999,-13.8737 c -2.0978,-1.87026 -23.84954,-38.4878 -37.92618,-63.8461 -4.41657,-7.9562 -4.61208,-11.12262 -0.91156,-14.76319 4.38636,-4.31529 22.60194,-14.14071 26.21584,-14.14071 6.0751,0 4.5094,-2.21912 31.7487,45 14.6696,25.42968 15.2855,26.62428 15.2855,29.64922 0,4.59659 -2.2489,6.75797 -14.3315,13.7743 -12.4818,7.24806 -15.9625,7.99801 -20.0808,4.32648 z M 919.52811,467.95154 c -2.68356,-1.37575 -5.0037,-4.51954 -10.88445,-14.74845 -4.11065,-7.15 -13.0384,-22.66007 -19.83945,-34.46683 -12.73393,-22.10634 -13.93074,-25.35354 -10.92571,-29.64381 2.24235,-3.20141 23.99041,-15.38936 27.46062,-15.38936 5.62036,0 4.76951,-1.28316 40.77964,61.5 3.47006,6.05 6.31161,12.21241 6.31455,13.69424 0.003,1.48183 -1.00715,3.85664 -2.24465,5.27735 -2.16621,2.48693 -24.20258,15.51815 -26.25,15.52296 -0.55,0.001 -2.53475,-0.78445 -4.41055,-1.7461 z"
         id="path29" /><path
         style="fill:#000000;fill-opacity:1"
         d="m 935.93866,731.5863 c -16.17506,-0.8314 -26.50305,-2.40107 -42.13904,-6.40437 -58.7631,-15.04521 -108.57598,-55.06041 -136.34481,-109.5272 -11.22409,-22.01534 -18.36229,-44.76216 -21.55129,-68.67603 -2.03742,-15.27837 -2.0503,-42.45888 -0.0268,-56.6601 5.79945,-40.70234 21.69243,-77.01982 47.09656,-107.62167 8.2023,-9.8805 26.09732,-27.0782 35.47759,-34.09512 29.58137,-22.12839 63.92363,-36.27511 100.48783,-41.39429 14.41081,-2.01759 41.15348,-2.00717 56.70328,0.0221 69.17882,9.02793 129.91692,52.02348 161.78052,114.52184 7.977,15.64634 12.3654,27.1865 16.556,43.53699 4.698,18.33043 6.5649,33.65211 6.5693,53.91464 0.01,43.83619 -12.3571,84.00108 -36.9477,120 -8.0627,11.80323 -16.5938,21.72611 -28.8065,33.50617 -17.5569,16.93485 -33.0597,27.6447 -55.8549,38.58629 -32.4892,15.59464 -65.98532,22.1933 -103,20.29075 z m 30.64405,-25.92841 c 42.10999,-4.25009 81.16989,-22.55483 111.71159,-52.35171 35.3907,-34.52757 54.8664,-78.10128 56.81,-127.10309 1.7667,-44.54217 -12.086,-88.05303 -39.0008,-122.5 -7.5401,-9.65023 -22.031,-24.27808 -31.6648,-31.96406 -66.55748,-53.10026 -160.25039,-54.70301 -229.12239,-3.91947 -10.55958,7.78623 -27.19049,23.95994 -35.35548,34.38353 -25.08764,32.02738 -38.58704,68.64129 -40.18783,109 -1.81288,45.70558 12.31434,88.91857 40.70159,124.5 26.82079,33.61797 64.22604,57.02615 106.08089,66.38531 19.90632,4.45125 39.65513,5.62561 60.02723,3.56949 z m 7.56815,-42.98365 c -13.14566,-3.31642 -29.24068,-14.64889 -48.43951,-34.10616 -48.0269,-48.67339 -87.32675,-130.68996 -87.26082,-182.1084 0.0202,-15.73639 3.52573,-24.47752 13.45635,-33.55355 5.93598,-5.42514 16.93649,-12.57435 18.51445,-12.0325 0.52769,0.18121 8.8879,14.05446 18.57824,30.82946 9.69034,16.775 18.58352,32.15735 19.76263,34.18299 l 2.14382,3.68299 -3.86926,3.81701 c -6.58338,6.49448 -8.0981,11.04289 -8.0981,24.31701 0,17.02629 4.79912,32.31218 15.87391,50.5607 16.59072,27.33741 37.62685,41.06949 55.1227,35.98331 3.17351,-0.92256 6.0826,-1.30987 6.46465,-0.86069 0.38205,0.44917 5.35248,8.91668 11.04539,18.81668 5.69292,9.9 14.52339,25.17978 19.62329,33.95505 l 9.2725,15.95505 -5.0789,2.77741 c -13.59236,7.43302 -27.1936,10.28571 -37.11134,7.78364 z M 1022.787,648.2345 c -2.2199,-1.55482 -5.7356,-7.34426 -28.25692,-46.53141 -7.88855,-13.72608 -14.08287,-25.61147 -14.08594,-27.02749 -0.009,-4.17812 2.41429,-6.43624 14.33759,-13.36002 12.21597,-7.09372 16.66857,-8.15281 20.44267,-4.86249 1.104,0.9625 7.3033,10.975 13.7763,22.25 6.4729,11.275 15.2944,26.62651 19.6034,34.11447 8.0966,14.06975 9.1305,17.59024 6.3375,21.57784 -2.1797,3.11202 -23.8868,15.30769 -27.2462,15.30769 -1.5464,0 -3.7552,-0.66086 -4.9084,-1.46859 z M 917.63253,466.95309 c -1.11524,-0.9625 -6.16223,-8.95 -11.21554,-17.75 -5.05331,-8.8 -13.8657,-24.11998 -19.58308,-34.04442 -10.30097,-17.88076 -11.58308,-21.36757 -9.37442,-25.49449 1.35881,-2.53896 22.60864,-15.02163 26.7098,-15.68999 4.62425,-0.75361 7.36701,1.46712 12.25796,9.92492 28.22119,48.80221 36.01141,62.88776 36.01141,65.11248 0,3.87519 -3.41717,6.98592 -14.99507,13.65036 -11.33695,6.52575 -16.04121,7.5447 -19.81106,4.29114 z"
         id="path28" /><path
         style="fill:#000000;fill-opacity:1"
         d="M 919.93866,730.23238 C 870.97703,723.5381 827.72294,701.65265 793.75647,666.38747 744.40799,615.15212 724.41268,544.67203 738.94683,473.19263 c 2.60494,-12.81117 10.18121,-34.34966 16.94802,-48.18131 20.88586,-42.69161 55.19353,-76.94043 98.04381,-97.87561 29.86697,-14.59197 59.70933,-21.43262 93.5,-21.43262 58.91834,0 112.84834,22.92048 153.68214,65.31563 49.3485,51.23534 69.3438,121.71544 54.8097,193.19484 -2.6049,12.81117 -10.1812,34.34966 -16.948,48.18131 -31.6364,64.66621 -92.7688,108.34159 -164.97574,117.86519 -13.09551,1.72721 -41.33869,1.71275 -54.0681,-0.0277 z m 59,-25.96188 c 51.55384,-9.18687 96.31164,-38.34851 125.21404,-81.58242 13.7503,-20.56853 22.4492,-41.69406 27.9945,-67.98499 2.3686,-11.22995 2.6443,-14.73527 2.7135,-34.5 0.081,-23.2238 -0.5745,-29.3868 -5.0545,-47.5 -12.5635,-50.79654 -47.1469,-94.89044 -94.3675,-120.319 -16.3786,-8.81995 -39.3757,-16.44785 -60.00004,-19.9014 -11.47404,-1.92133 -47.26336,-1.60118 -59,0.52778 -39.80351,7.22013 -74.07371,24.97787 -101.89424,52.79839 -27.05764,27.05764 -43.61507,58.02051 -51.8143,96.89423 -2.36862,11.22996 -2.64432,14.73528 -2.71349,34.5 -0.0473,13.51564 0.41172,24.8924 1.19025,29.5 6.9769,41.29157 24.81691,76.37824 53.33523,104.89656 31.07473,31.07473 69.00873,49.06925 114.89655,54.50279 7.8357,0.92782 40.87472,-0.29492 49.5,-1.83194 z m -4,-41.6626 c -21.48574,-4.80365 -54.86194,-34.99474 -81.81737,-74.0095 -19.9191,-28.83049 -36.78681,-63.0453 -46.53637,-94.39531 -7.05395,-22.68217 -9.88853,-47.18166 -7.02305,-60.70077 1.45247,-6.85266 3.70431,-11.2021 8.78089,-16.96031 3.94492,-4.47459 19.48207,-15.85205 21.6356,-15.84319 0.57184,0.002 3.30142,3.94177 6.06573,8.75427 2.76432,4.8125 11.70771,20.3505 19.87419,34.52889 l 14.84815,25.77888 -3.6728,3.36415 c -5.77199,5.28694 -7.98976,11.36359 -8.42269,23.07808 -0.4961,13.42362 2.59404,25.5705 10.71472,42.11807 16.44545,33.51097 41.51565,52.36707 61.10565,45.9595 2.84235,-0.92968 5.2961,-1.55246 5.45276,-1.38395 0.42546,0.45763 15.69505,26.68517 28.34833,48.6921 6.1305,10.66214 11.1463,19.80318 11.1463,20.31342 0,1.43783 -17.86561,9.4716 -23.79926,10.70201 -6.11633,1.26829 -11.03951,1.26937 -16.70078,0.004 z m 47.14244,-15.15481 c -1.358,-1.2375 -11.1463,-17.325 -21.752,-35.75 -19.88118,-34.5394 -21.45215,-38.2084 -18.09293,-42.25601 0.68863,-0.82974 6.3962,-4.48658 12.6835,-8.12631 11.79783,-6.82978 16.13983,-7.98105 19.75283,-5.23744 0.9536,0.72415 10.7411,16.87622 21.75,35.8935 20.7734,35.88498 21.8135,38.31293 18.2662,42.6387 -2.5716,3.13586 -24.302,15.07911 -27.4443,15.08366 -1.4818,0.002 -3.8053,-1.0086 -5.1633,-2.2461 z m -104.38986,-180.5 c -1.5497,-1.37734 -21.2984,-34.96259 -39.27314,-66.78908 -1.77307,-3.13945 -2.12783,-4.85641 -1.59274,-7.70865 0.79147,-4.21892 1.72664,-4.97215 16.45074,-13.25035 9.53093,-5.35849 10.62318,-5.74132 14,-4.90692 4.21217,1.04081 4.2301,1.06623 19.32587,27.405 5.51646,9.625 13.45333,23.35 17.63749,30.5 8.32172,14.22038 9.46743,18.74082 5.67647,22.39675 -1.0875,1.04876 -6.7777,4.65103 -12.6449,8.00505 -11.45307,6.54721 -15.97559,7.55155 -19.57979,4.3482 z"
         id="path27" /><path
         style="fill:#000000;fill-opacity:1"
         d="m 919.81789,730.14434 c -69.13965,-8.89902 -130.71361,-52.42713 -162.32473,-114.75125 -15.70562,-30.96501 -23.03863,-61.90008 -23.03844,-97.19 3e-4,-56.83397 21.64122,-109.04903 61.98394,-149.55444 28.31195,-28.42612 60.7744,-46.98634 99.5,-56.88856 21.87175,-5.59266 53.77533,-7.5262 77,-4.66665 46.46714,5.72129 88.67654,25.79203 122.48474,58.24202 30.5327,29.30596 52.3496,68.79587 60.9747,110.36763 5.2786,25.44182 5.2687,60.48931 -0.024,86.0554 -14.6521,70.77284 -66.1773,131.0926 -133.6842,156.50215 -31.13017,11.71734 -69.61949,16.16362 -102.87171,11.8837 z m 59.9657,-25.91276 c 63.48001,-11.69251 116.37441,-53.85872 141.07691,-112.46329 5.119,-12.14428 8.6509,-23.80864 11.7916,-38.94236 1.8821,-9.06931 2.2105,-13.91332 2.2455,-33.12284 0.05,-27.1223 -2.1789,-41.67341 -9.6222,-62.83119 -22.2564,-63.26511 -75.1041,-109.1769 -141.33674,-122.78737 -13.04394,-2.68046 -15.53653,-2.87417 -36.5,-2.83656 -24.96533,0.0448 -32.34541,1.01011 -52.85599,6.91367 -60.45119,17.39968 -110.2398,66.92783 -127.58605,126.91862 -5.90068,20.40707 -6.97284,28.4476 -7.01693,52.62283 -0.0269,14.73749 0.42613,25.08751 1.31305,30 6.41581,35.53611 18.79789,63.06965 40.52922,90.12321 29.62653,36.88237 74.87102,61.79953 123.26291,67.88367 10.55517,1.32706 44.43971,0.41123 54.69872,-1.47839 z m -3.82354,-41.55473 c -12.37232,-2.17038 -33.2742,-16.53033 -51.03955,-35.06505 -48.08307,-50.1654 -86.54423,-130.8217 -86.46997,-181.33484 0.021,-14.29968 3.78733,-23.72321 13.01881,-32.57387 5.12023,-4.909 13.85984,-10.96137 17.96932,-12.44415 1.10475,-0.39861 4.64562,4.92452 13.43772,20.20147 6.56575,11.40847 15.47728,26.89431 19.8034,34.41297 l 7.86567,13.67029 -4.32394,4.32971 c -5.7179,5.72554 -7.78659,12.16625 -7.77104,24.19455 0.0349,27.04351 18.8834,63.0827 41.34597,79.0556 11.23859,7.99164 21.10605,10.29348 30.68913,7.15901 2.84551,-0.93072 5.29719,-1.55434 5.44817,-1.38583 0.7117,0.79433 38.49906,66.62742 39.01486,67.97178 0.4316,1.12475 -1.2278,2.47721 -6.2105,5.06161 -12.18632,6.32079 -22.77823,8.50093 -32.77805,6.74675 z m 47.65815,-14.2257 c -1.3467,-0.64801 -5.1618,-5.97007 -9.0913,-12.68232 -17.70606,-30.24497 -32.91392,-56.94114 -33.51348,-58.83019 -0.36462,-1.14881 -0.0366,-3.58789 0.72903,-5.42019 1.14006,-2.72855 3.54595,-4.55002 13.29409,-10.0648 7.02076,-3.97183 13.08406,-6.73688 14.78406,-6.74195 4.1597,-0.0124 7.772,4.40289 17.2871,21.13036 4.493,7.89857 12.9305,22.64225 18.75,32.76373 6.1264,10.65521 10.5716,19.49615 10.5587,21 -0.035,4.06539 -2.6307,6.40863 -14.9517,13.49662 -11.6694,6.71309 -13.7286,7.33024 -17.8465,5.34874 z M 918.93866,467.80065 c -1.12869,-0.49551 -6.85365,-9.31221 -13.14104,-20.23779 -6.12757,-10.64787 -15.0253,-26.07217 -19.77273,-34.27622 -4.74742,-8.20405 -8.89743,-15.97529 -9.22224,-17.26941 -1.25722,-5.00918 1.25985,-7.83233 13.08828,-14.67982 6.20233,-3.59054 12.41442,-6.81374 13.80465,-7.16266 5.11662,-1.28419 7.74357,1.495 17.67029,18.69441 5.18497,8.98366 13.39068,23.17042 18.23491,31.52612 13.25846,22.8692 13.55696,23.57669 11.64176,27.5929 -1.21545,2.54882 -4.08908,4.76796 -12.44218,9.60841 -10.7877,6.25125 -16.02663,7.8877 -19.8617,6.20406 z"
         id="path26" /><path
         style="fill:#000000;fill-opacity:1"
         d="M 924.43866,730.59026 C 883.26841,725.10527 851.52787,712.59573 820.21831,689.5151 743.44225,632.91766 714.01877,529.94248 749.12435,440.70309 c 13.72824,-34.89756 37.22689,-66.48012 66.31431,-89.12747 38.72684,-30.15256 83.96166,-45.87253 132,-45.87253 45.9453,0 89.65254,14.49391 127.22034,42.188 76.7761,56.59743 106.1995,159.57262 71.094,248.812 -21.4026,54.40602 -64.5044,97.79242 -118.6861,119.46992 -19.0785,7.63307 -32.78015,11.17023 -54.0867,13.96276 -12.79122,1.67647 -37.62419,1.90898 -48.54154,0.45449 z m 58.5,-26.78435 c 59.62014,-12.38727 106.76814,-48.56412 133.89264,-102.73635 14.0323,-28.02494 20.4345,-61.07527 18.3766,-94.86647 -4.828,-79.2764 -60.2263,-147.3487 -137.59143,-169.06951 -18.41114,-5.16906 -24.20706,-5.8441 -50.17781,-5.8441 -25.97075,0 -31.76667,0.67504 -50.17782,5.8441 -69.91419,19.62891 -122.22794,77.02514 -135.3665,148.51787 -3.36199,18.29409 -3.34384,47.23221 0.0415,66.11812 13.83637,77.18994 75.54096,138.88285 152.43637,152.40752 12.75875,2.24406 14.75331,2.35107 37.56647,2.01546 16.47098,-0.24231 23.15667,-0.75703 31,-2.38664 z m -6.14016,-41.15476 c -17.74572,-2.42648 -48.77674,-28.0011 -73.95146,-60.94806 -27.33572,-35.77511 -52.22249,-86.57187 -60.01622,-122.5 -7.04575,-32.47999 -5.67199,-48.72427 5.26082,-62.20783 3.0022,-3.70265 20.19711,-16.29217 22.25204,-16.29217 0.42567,0 1.28514,1.12195 1.90994,2.49322 0.62479,1.37127 5.14804,9.35877 10.05166,17.75 4.90362,8.39123 9.91948,17.05678 11.14634,19.25678 1.22687,2.2 5.55002,9.65787 9.60701,16.57303 l 7.37633,12.57303 -4.38407,4.57547 c -5.86537,6.12144 -7.85864,12.32037 -7.79377,24.23802 0.0505,9.27034 1.5034,16.85003 5.37505,28.04045 7.85041,22.69045 26.89958,47.17229 43.10439,55.39742 8.13146,4.12731 17.66019,5.1885 24.66305,2.74666 2.45353,-0.85553 4.50759,-1.46293 4.56458,-1.34979 0.40538,0.80472 22.50182,39.08508 29.64181,51.35214 4.8488,8.33054 9.0581,15.77762 9.3542,16.54907 0.6511,1.69687 -4.0342,4.46574 -14.5215,8.58178 -8.24894,3.23749 -15.77242,4.24659 -23.6402,3.17078 z m 46.7287,-14.35507 c -1.3816,-0.76555 -5.5915,-6.83591 -9.8581,-14.21457 -31.08568,-53.76021 -32.23036,-55.87086 -32.19864,-59.37027 0.0175,-1.92948 0.57999,-4.22187 1.25,-5.09421 2.08635,-2.71637 24.11504,-14.91394 26.93434,-14.91394 4.1285,0 7.0304,3.38885 15.4136,18 4.2601,7.425 13.0612,22.72269 19.558,33.99486 6.4967,11.27217 11.8123,21.2635 11.8123,22.20295 0,4.28067 -2.5901,6.72908 -14.4349,13.64536 -6.7412,3.93626 -13.1136,7.14089 -14.1609,7.1214 -1.0473,-0.0195 -2.9894,-0.6367 -4.3157,-1.37158 z M 918.75809,467.21428 c -1.16907,-0.81885 -7.42204,-10.60635 -13.89548,-21.75 -6.47345,-11.14365 -14.7823,-25.43619 -18.46413,-31.76119 -11.2702,-19.36108 -11.43194,-19.85878 -7.90916,-24.33727 1.72249,-2.18979 18.5833,-12.5707 24.1241,-14.8528 0.9215,-0.37954 3.19203,-0.27132 5.04563,0.24048 3.60897,0.99649 3.40199,0.69468 19.51021,28.44959 25.70846,44.29644 26.16891,45.28335 23.41928,50.19666 -1.41835,2.53445 -24.04639,15.30334 -27.1194,15.30334 -1.42201,0 -3.54198,-0.66996 -4.71105,-1.48881 z"
         id="path25" /><path
         style="fill:#000000;fill-opacity:1"
         d="m 932.43866,731.24167 c -0.825,-0.20238 -6.225,-0.89693 -12,-1.54343 -12.85399,-1.43898 -31.06215,-5.56763 -42,-9.52337 -32.34372,-11.6973 -57.93012,-27.70291 -81.14184,-50.7584 -28.83411,-28.64004 -49.57511,-66.29005 -57.96095,-105.21338 -4.30151,-19.96571 -6.03871,-49.78837 -3.85491,-66.17764 1.89408,-14.21494 4.05996,-26.75772 5.40874,-31.32236 0.73132,-2.475 2.10134,-7.2 3.04449,-10.5 2.7734,-9.70383 10.33352,-27.88499 15.71589,-37.79475 29.33036,-54.00167 78.67841,-92.17987 137.78858,-106.60036 17.04593,-4.15851 29.59345,-5.54687 50,-5.53238 25.01549,0.0178 34.84454,1.44521 64.50004,9.36713 1.65,0.44077 4.125,1.26486 5.5,1.83133 1.375,0.56646 6.775,2.75153 12,4.8557 30.3535,12.2238 61.2044,35.20001 82.8768,61.72257 20.6988,25.3311 36.4954,57.91072 43.2259,89.15076 2.4618,11.42621 4.8973,34.08536 4.8973,45.56233 0,33.84879 -9.3788,71.03955 -25.3283,100.43767 -32.3374,59.60396 -88.943,99.48561 -156.17174,110.03131 -9.1075,1.42863 -42.91057,2.88781 -46.5,2.00727 z m 28,-24.54975 c 51.96044,-3.87326 98.31754,-27.53165 131.70464,-67.21562 18.6412,-22.15683 34.1975,-53.55812 39.2723,-79.27321 0.6512,-3.3 1.6245,-7.99273 2.1629,-10.42829 2.8566,-12.92408 2.8566,-49.21933 0,-62.14341 -0.5384,-2.43556 -1.5117,-7.1283 -2.1629,-10.4283 -3.5712,-18.09592 -14.3034,-43.51751 -25.7524,-61 -32.8758,-50.20114 -85.127,-81.01945 -144.89622,-85.46139 -25.28932,-1.87946 -49.15806,1.20339 -74.32832,9.60012 -45.1292,15.05497 -85.58989,50.347 -107.51284,93.77857 -6.15567,12.19499 -13.27367,32.02977 -15.46088,43.0827 -0.65301,3.3 -1.62775,7.99274 -2.16608,10.4283 -2.8566,12.92408 -2.8566,49.21933 0,62.14341 0.53833,2.43556 1.51162,7.12829 2.16286,10.42829 0.65125,3.3 2.9519,11.4 5.11256,18 18.24776,55.74005 63.73427,101.13447 119.67978,119.4375 19.55505,6.3976 28.34152,7.93491 56.6846,9.91773 1.1,0.077 8.075,-0.31293 15.5,-0.8664 z m 11.5,-45.33116 c -20.49463,-6.83999 -49.24011,-32.73358 -73.44419,-66.15767 -18.8793,-26.07096 -32.94305,-52.06986 -46.25006,-85.5 -7.05916,-17.73418 -13.82515,-48.75999 -13.79097,-63.23923 0.018,-7.6224 2.1842,-17.25334 5.0435,-22.42339 3.77099,-6.81853 12.96384,-15.18487 23.17349,-21.09 l 3.73177,-2.15841 3.90528,6.70552 c 2.14791,3.68803 8.30856,14.35551 13.69033,23.70551 5.38177,9.35 12.58436,21.79328 16.00575,27.65173 l 6.2207,10.65173 -3.831,3.74088 c -6.25435,6.10721 -8.2754,12.09984 -8.25456,24.47573 0.0108,6.39318 0.66502,13.10117 1.66781,17.09969 7.74589,30.88589 31.25646,62.24125 51.93263,69.26099 5.86892,1.99254 15.62194,2.09634 20.12657,0.21418 3.20532,-1.33927 5.57295,-0.69628 5.57295,1.51348 0,0.38963 4.95,9.11584 11,19.39159 6.05,10.27576 11,18.82137 11,18.99027 0,0.16889 3.28664,5.86517 7.30364,12.6584 4.0171,6.79324 7.5715,13.05698 7.8989,13.91944 0.4559,1.20128 -1.7582,2.70074 -9.4646,6.40991 -9.54484,4.59398 -10.55058,4.85903 -19.64885,5.17822 -6.19356,0.21729 -11.0055,-0.13631 -13.58909,-0.99857 z m 51.91174,-12.80599 c -1.6599,-0.80515 -11.7952,-16.7773 -17.9862,-28.34424 -2.507,-4.68402 -11.19462,-19.83687 -17.56546,-30.6376 -7.32105,-12.41167 -8.50738,-17.08434 -5.11008,-20.12738 1.959,-1.75472 20.77204,-12.96982 23.51094,-14.01567 0.9685,-0.36982 3.1537,-0.39386 4.8559,-0.0534 3.2466,0.64931 5.7917,3.96895 12.9007,16.82662 1.8246,3.3 5.4398,9.6 8.0337,14 2.594,4.4 5.7195,9.8 6.9457,12 1.2262,2.2 5.5535,9.70435 9.6163,16.67632 4.0627,6.97198 7.3868,13.42751 7.3868,14.34563 0,3.36578 -4.1471,7.3152 -13.2136,12.58376 -14.1054,8.19677 -15.4318,8.65858 -19.3747,6.74597 z M 918.73244,467.19631 c -1.18319,-0.82873 -4.54581,-5.66623 -7.47251,-10.75 -2.9267,-5.08377 -5.77127,-10.00552 -6.32127,-10.93722 -0.55,-0.93171 -1.95173,-3.40671 -3.11496,-5.5 -5.07156,-9.12656 -7.10001,-12.65596 -15.65988,-27.24732 -9.33355,-15.91018 -10.32837,-18.98544 -7.51464,-23.22984 2.19295,-3.30797 22.67352,-14.82884 26.36113,-14.82884 4.72602,0 6.7303,2.14766 14.20527,15.22149 3.86114,6.75318 11.84035,20.60351 17.73157,30.77851 16.00178,27.63741 15.35735,26.17363 13.90466,31.58391 -0.68524,2.55205 -23.94087,16.41609 -27.53644,16.41609 -1.33744,0 -3.39975,-0.67805 -4.58293,-1.50678 z"
         id="path24" /></g></g></svg>
