<?xml version="1.0" encoding="UTF-8" standalone="no"?>
<!-- Created with Inkscape (http://www.inkscape.org/) -->

<svg
   version="1.0"
   width="1012.7393"
   height="403.21497"
   id="svg2383"
   xml:space="preserve"
   viewBox="0 0 1012.7393 403.21497"
   xmlns="http://www.w3.org/2000/svg"
   xmlns:svg="http://www.w3.org/2000/svg"
   xmlns:rdf="http://www.w3.org/1999/02/22-rdf-syntax-ns#"
   xmlns:cc="http://creativecommons.org/ns#"
   xmlns:dc="http://purl.org/dc/elements/1.1/"><defs
     id="defs2385"><clipPath
       clipPathUnits="userSpaceOnUse"
       id="clipPath1"><rect
         style="opacity:0.432119;fill:#ffffff;fill-opacity:1;stroke:none;stroke-width:2.71305;stroke-linejoin:round;stroke-miterlimit:0"
         id="rect3"
         width="445.95932"
         height="443.84708"
         x="-5285.0278"
         y="2639.074" /></clipPath></defs><metadata
     id="metadata2388"><rdf:RDF><cc:Work
         rdf:about=""><dc:format>image/svg+xml</dc:format><dc:type
           rdf:resource="http://purl.org/dc/dcmitype/StillImage" /></cc:Work></rdf:RDF></metadata><g
     transform="translate(5499.3653,-1646.7064)"
     id="layer1"><path
       style="fill:#000000"
       d="m -5624.4412,3085.6527 c -1.925,-0.2234 -7.775,-0.8856 -13,-1.4715 -13.6147,-1.5268 -36.6328,-7.3374 -50,-12.6219 -59.6789,-23.5933 -108.38,-74.1436 -128.9756,-133.873 -15.7779,-45.7578 -15.9347,-96.4473 -0.4456,-144.027 4.6283,-14.217 16.3257,-38.1812 25.1002,-51.4219 33.1095,-49.9623 86.4838,-84.6182 145.4625,-94.4488 45.7398,-7.6239 97.8866,-0.2242 136.7805,19.4094 37.4286,18.8939 71.4462,50.2889 91.6063,84.5439 22.7919,38.7268 32.7588,77.9535 31.1242,122.4955 -1.179,32.1258 -7.0206,55.4838 -21.1326,84.5 -23.7313,48.7948 -63.6,88.023 -111.0199,109.2363 -16.67,7.4573 -35.7294,12.8741 -55.6169,15.8065 -10.0222,1.4777 -42.7115,2.7049 -49.8831,1.8725 z m 50.7673,-39.3485 c 22.5049,-4.1894 48.2628,-14.5273 66.2327,-26.5825 30.7112,-20.6027 55.4966,-50.3827 69.4151,-83.4031 9.8111,-23.2759 13.7612,-43.0805 13.8782,-69.5812 0.089,-20.1065 -0.9597,-29.3245 -5.3782,-47.2848 -10.6951,-43.474 -37.5882,-81.5302 -75.4151,-106.7193 -23.7303,-15.8021 -49.4622,-25.2106 -79,-28.8849 -56.8022,-7.0658 -109.4312,9.2719 -149.803,46.5038 -31.6829,29.2186 -50.5924,65.8942 -56.2973,109.1902 -2.3606,17.9147 -1.4665,45.9623 1.9846,62.2574 8.0916,38.2069 26.69,71.2389 55.5737,98.7026 26.3591,25.0631 64.9524,42.8875 103.2747,47.6975 12.2264,1.5346 42.6941,0.4946 55.5346,-1.8957 z m -47.2673,-56.1942 c -37.8068,-4.7224 -72.3949,-30.6303 -89.4332,-66.9891 -16.0093,-34.163 -16.0242,-81.9654 -0.036,-116.5713 13.3458,-28.887 37.2011,-50.6365 66.9694,-61.0579 13.6197,-4.768 20.6713,-5.7648 40,-5.6541 15.544,0.089 18.6178,0.396 27.5,2.7462 11.1464,2.9492 25.2133,9.3498 34.7203,15.7979 8.1193,5.5071 22.1752,19.5558 27.933,27.9189 5.3267,7.737 10.3602,16.7566 9.7126,17.4043 -0.5158,0.5157 -26.1401,12.7822 -32.501,15.5583 l -4.1352,1.8047 -5.8648,-9.051 c -20.8704,-32.2084 -58.7622,-42.2809 -92.6402,-24.6259 -8.6012,4.4824 -22.893,18.9797 -28.4541,28.8633 -21.6939,38.5559 -13.6126,91.8203 17.9112,118.0547 12.9578,10.7836 28.5426,16.3238 45.8182,16.2878 12.4735,-0.026 20.4656,-1.8565 31,-7.1002 9.696,-4.8263 23.0296,-17.738 28.4709,-27.5701 2.8581,-5.1643 4.1634,-6.6611 5.3993,-6.1914 7.0349,2.6741 35.1298,16.1625 35.1298,16.866 0,1.579 -5.9889,12.7298 -10.0449,18.7025 -10.8339,15.9536 -29.1428,30.8281 -46.2139,37.5451 -17.9942,7.0801 -40.9249,9.799 -61.2412,7.2613 z m 537,94.4935 c -48.9258,-5.4504 -87.5523,-21.3846 -121.5625,-50.1468 -42.2455,-35.7267 -67.8329,-79.6358 -77.6317,-133.2193 -2.2143,-12.1087 -2.5174,-54.9329 -0.4813,-68 6.6819,-42.8817 23.9356,-80.4939 51.8113,-112.9464 25.1375,-29.2647 59.8248,-52.3901 96.8642,-64.5777 23.2444,-7.6484 41.8042,-10.4759 68.7632,-10.4759 28.8445,0 47.8962,2.8074 71.4354,10.5265 79.1207,25.9457 136.1988,94.0389 148.9405,177.6835 2.4189,15.879 2.431,48.3859 0.024,63.29 -7.6558,47.3981 -30.1592,91.085 -64.646,125.5 -36.1001,36.025 -79.4996,56.884 -128.8727,61.9396 -9.4507,0.9677 -37.39,1.2346 -44.6441,0.4265 z m 47,-38.8273 c 27.9124,-4.2852 57.4485,-16.7721 81.1344,-34.3011 11.3625,-8.4089 30.163,-27.3217 38.0107,-38.2377 27.6465,-38.4561 39.7385,-81.6311 35.3291,-126.144 -7.2382,-73.0685 -54.7252,-132.4718 -124.5435,-155.7962 -15.6986,-5.2444 -32.2084,-8.0541 -51.4307,-8.7526 -40.6748,-1.478 -76.1244,8.4409 -109.0904,30.524 -43.839,29.3666 -71.0341,72.4835 -78.399,124.2989 -1.7105,12.0344 -1.9662,38.6429 -0.489,50.8961 2.3796,19.7395 10.2303,44.4809 19.665,61.9738 29.812,55.2748 80.7835,89.8579 142.9282,96.9736 10.5039,1.2027 34.4858,0.4688 46.8852,-1.4348 z m -117.254,-181.2888 0.254,-119.75 h 61.5 c 69.7797,0 67.7452,-0.1954 84.9682,8.1623 8.0676,3.9149 10.8102,5.9439 18.5401,13.7161 10.4062,10.4632 16.2231,20.3767 19.5599,33.3349 2.3428,9.0981 2.8004,27.0474 0.9488,37.2182 -4.0461,22.2261 -17.4862,40.1117 -37.7061,50.1779 -3.746,1.8648 -6.9681,3.4728 -7.1602,3.5733 -0.1921,0.1004 9.3133,18.3254 21.1232,40.5 11.8099,22.1745 22.8861,43.1298 24.6137,46.5673 l 3.1412,6.25 h -23.7997 -23.7998 l -3.1727,-6.25 c -3.1513,-6.2079 -11.5015,-22.0903 -21.6873,-41.25 -2.9239,-5.5 -8.5836,-16.3 -12.5771,-24 -3.9935,-7.7 -7.8858,-15.0125 -8.6496,-16.25 -1.3813,-2.2381 -1.5232,-2.25 -26.8656,-2.25 h -25.477 v 45 45 h -22.004 -22.004 z m 124.9756,-14.0367 c 12.9524,-6.3795 19.7117,-18.5414 18.4787,-33.2485 -0.8132,-9.6997 -3.8328,-15.9463 -10.8483,-22.4414 -9.8628,-9.1312 -12.0849,-9.5234 -53.9573,-9.5234 h -34.8947 v 34.5558 34.5558 l 37.2742,-0.3058 37.2742,-0.3058 z"
       id="path1"
       clip-path="url(#clipPath1)"
       transform="matrix(0.07935654,0,0,0.07989384,-4141.9439,1435.6134)" /></g></svg>
