<?xml version="1.0" encoding="UTF-8" standalone="no"?>
<!-- Created with Inkscape (http://www.inkscape.org/) -->

<svg
   version="1.1"
   id="svg1"
   width="163.87068"
   height="93.494202"
   viewBox="0 0 163.87068 93.494202"
   xmlns="http://www.w3.org/2000/svg"
   xmlns:svg="http://www.w3.org/2000/svg">
  <defs
     id="defs1">
    <filter
       style="color-interpolation-filters:sRGB"
       id="filter12"
       x="-0.0046441214"
       y="-0.0080613868"
       width="1.0092882"
       height="1.0161228">
      <feGaussianBlur
         stdDeviation="0.30905582"
         id="feGaussianBlur12" />
    </filter>
  </defs>
  <g
     id="g1"
     transform="translate(-182.84828,-362.29037)">
    <g
       id="g2"
       transform="matrix(1.0165797,0,0,1,-258.88818,-90.65627)"
       style="fill:#000000;filter:url(#filter12)">
      <path
         style="fill:#000000;fill-opacity:1"
         d="m 452.40161,545.51831 c -4.06611,-0.50607 -7.24386,-1.6115 -10.16196,-3.53498 -1.71759,-1.13216 -2.62137,-1.91288 -3.6817,-3.18038 -0.46871,-0.56029 -1.04928,-1.06865 -1.40908,-1.23383 -0.33656,-0.1545 -0.80408,-0.47515 -1.03893,-0.71256 -0.36164,-0.36557 -0.4201,-0.56556 -0.38186,-1.30636 0.0301,-0.58293 -0.0426,-0.97871 -0.21803,-1.18646 -0.21359,-0.25301 -0.25666,-0.94606 -0.22859,-3.67859 0.019,-1.85176 0.12825,-15.12274 0.24275,-29.49106 0.12894,-16.18146 0.27733,-26.36151 0.38988,-26.7477 0.1,-0.34292 0.21845,-2.65367 0.26333,-5.13501 0.0768,-4.24714 0.1073,-4.58051 0.51996,-5.68867 0.88732,-2.38285 2.69129,-4.36152 5.83025,-6.39486 2.07038,-1.34115 4.06108,-2.17895 6.56508,-2.76297 3.55437,-0.82901 -1.3562,-0.77157 66.36318,-0.77634 41.83794,-0.003 62.1821,0.0375 63.15272,0.1257 6.35296,0.57698 12.5351,3.91504 15.08428,8.14476 1.40145,2.32536 1.29105,-0.90624 1.29345,37.86342 l 0.002,34.72837 -0.55578,1.35815 c -1.03269,2.52353 -2.59405,4.31266 -5.33374,6.11181 -0.89163,0.58553 -2.05894,1.2551 -2.59403,1.48794 -2.55353,1.11115 -5.41343,1.8478 -8.04705,2.07276 -1.02881,0.0879 -21.4166,0.12544 -63.12124,0.11631 -50.42273,-0.011 -61.84357,-0.0436 -62.93504,-0.17945 z m 28.41504,-11.51465 c 5.29112,-3.59294 9.62021,-6.55953 9.62021,-6.59241 0,-0.0329 -3.74481,-0.0205 -8.3218,0.0275 -4.57699,0.048 -8.41012,0.0501 -8.51806,0.005 -0.10795,-0.0454 -0.71021,-0.10512 -1.33836,-0.1326 l -1.1421,-0.05 -9.68276,6.59696 -9.68277,6.59695 0.71745,0.0803 c 0.3946,0.0441 0.83432,0.0906 0.97717,0.10313 0.14284,0.0126 4.19521,-0.005 9.00526,-0.0395 l 8.74554,-0.0624 z m 94.84197,-1.22982 11.59557,-7.94949 0.008,-6.53558 0.008,-6.53558 -13.67946,9.40363 c -7.5237,5.172 -16.99617,11.66106 -21.04992,14.42015 l -7.37046,5.01651 3.70581,0.0365 c 2.03819,0.0201 6.28886,0.0493 9.44592,0.0649 l 5.74013,0.0284 z m -43.82462,1.31441 c 5.20006,-3.5863 9.41862,-6.54601 9.37457,-6.57714 -0.044,-0.0311 -6.35798,-0.0592 -14.03095,-0.0624 l -13.95086,-0.006 -9.56444,6.50677 c -5.26043,3.57872 -9.56443,6.53874 -9.56443,6.57781 0,0.0391 6.36332,0.0733 14.14072,0.0761 l 14.14072,0.005 z m -68.26437,-23.03601 c 0.0459,-4.48635 0.11834,-6.02669 0.29764,-6.32663 0.13036,-0.21806 0.21038,-0.53397 0.17784,-0.70202 -0.0509,-0.26275 -1.48872,0.67802 -10.26428,6.71587 l -10.20512,7.02142 v 6.39936 6.39936 l 9.96664,-6.7886 9.96663,-6.78859 z m 21.24622,12.17384 c 4.23047,-1.04607 6.49909,-4.4451 4.90582,-7.3503 -1.20021,-2.18849 -2.77073,-3.23611 -7.43059,-4.95657 -1.95422,-0.72151 -3.50161,-1.55877 -4.04216,-2.18711 -0.51244,-0.59567 -0.60251,-1.67389 -0.19529,-2.33782 0.39777,-0.64852 1.41213,-1.17042 2.46685,-1.26924 1.07682,-0.10089 1.45451,0.006 2.5422,0.71915 0.60776,0.3985 0.81459,0.64697 0.974,1.17007 l 0.20239,0.66413 h 2.45822 2.45821 v -0.66321 c 0,-2.15797 -2.46419,-4.34965 -5.36776,-4.77415 -2.51838,-0.36819 -6.34129,-0.12628 -7.74896,0.49034 -1.17824,0.51613 -2.57659,1.59377 -3.10218,2.39071 -0.9556,1.44896 -0.79827,3.5497 0.39322,5.25046 0.85014,1.2135 2.33404,2.13297 4.9819,3.0869 1.11565,0.40194 2.77471,1.06344 3.68678,1.47002 2.15541,0.96082 2.61557,1.45245 2.72825,2.9148 l 0.0789,1.02354 -0.70811,0.53456 c -0.87777,0.66262 -1.58464,0.8711 -2.94461,0.86846 -2.10417,-0.004 -3.23167,-0.76145 -3.44528,-2.31427 -0.0752,-0.54686 -0.2398,-1.01391 -0.39437,-1.1192 -0.20111,-0.137 -0.73811,-0.17771 -2.22,-0.16828 -2.84275,0.0181 -2.85854,0.0232 -2.92415,0.95023 -0.10696,1.51155 0.91125,3.24681 2.66073,4.53447 1.59197,1.17173 3.13667,1.50612 6.5699,1.42222 1.73446,-0.0424 2.48223,-0.11899 3.41613,-0.34991 z m 21.97563,-0.12576 c 2.35483,-0.79281 3.84073,-1.99694 4.76758,-3.86349 0.25565,-0.51486 0.29773,-1.31684 0.29772,-5.67376 -2e-5,-6.12647 -0.13213,-7.3179 -0.93094,-8.39589 -1.55076,-2.09272 -4.86031,-3.25178 -8.75828,-3.06729 -3.35202,0.15865 -6.17038,1.47338 -7.56002,3.52666 -0.41506,0.61329 -0.41851,0.66287 -0.47047,6.76982 -0.0583,6.85008 -0.0382,6.99779 1.15102,8.44636 1.55053,1.88876 4.31986,2.82695 8.15853,2.76396 1.82744,-0.03 2.01363,-0.0582 3.34486,-0.50637 z m -5.28001,-3.00048 c -0.89587,-0.26636 -1.87324,-1.10861 -2.21698,-1.9105 -0.27691,-0.64595 -0.29738,-1.2384 -0.19403,-5.61379 0.0732,-3.09986 0.19517,-5.10703 0.33293,-5.4797 0.30782,-0.83279 1.43213,-1.57646 2.69547,-1.78292 1.78554,-0.29179 3.46636,0.22604 4.23232,1.30391 0.3963,0.55766 0.40205,0.64617 0.37728,5.79914 -0.0271,5.64194 -0.0656,5.90252 -1.01635,6.8812 -0.82263,0.84682 -2.79655,1.2231 -4.21064,0.80266 z m 26.77738,3.16211 c 1.10319,-0.2621 3.05682,-1.16949 3.78209,-1.75665 0.63643,-0.51524 1.44787,-1.61684 1.82004,-2.47086 0.42802,-0.98218 0.44036,-11.1733 0.0149,-12.28611 -0.64294,-1.68154 -2.41653,-3.28208 -4.35609,-3.93108 -1.79296,-0.59994 -3.53924,-0.79938 -5.52297,-0.63078 -3.61125,0.30693 -6.1976,1.78999 -7.26808,4.16762 -0.3863,0.85802 -0.39997,1.08482 -0.40673,6.74866 -0.007,5.82982 -0.005,5.86458 0.41386,6.57601 0.99953,1.69865 2.70999,2.89739 4.95099,3.46978 2.04333,0.52191 4.66233,0.56711 6.57202,0.11341 z m -4.1436,-3.13191 c -0.88789,-0.17409 -2.29812,-1.1819 -2.53194,-1.80943 -0.24781,-0.66506 -0.12291,-10.20162 0.14561,-11.11769 0.34892,-1.19038 1.63321,-1.89379 3.4577,-1.89379 1.82449,0 3.10879,0.70341 3.45771,1.89379 0.25906,0.88383 0.39393,10.45123 0.15631,11.08895 -0.20309,0.54507 -1.37731,1.5219 -2.16148,1.79814 -0.5812,0.20474 -1.60137,0.22092 -2.52391,0.04 z m 19.84586,-2.03938 c 0.01,-4.28018 0.0619,-5.35125 0.28653,-5.8608 0.39674,-0.90008 0.80216,-0.84578 1.39667,0.18705 0.25661,0.44579 1.15947,1.95714 2.00637,3.35855 0.8469,1.40141 1.93964,3.26029 2.42831,4.13084 0.48868,0.87056 1.14992,2.0106 1.46942,2.53342 l 0.58093,0.9506 h 2.4175 c 1.63621,0 2.48849,-0.0484 2.63716,-0.14963 0.31819,-0.21676 0.31819,-20.55792 0,-20.77468 -0.32578,-0.22192 -4.79155,-0.2066 -5.06443,0.0174 -0.14059,0.11541 -0.21823,1.82054 -0.25122,5.51789 l -0.0478,5.35086 -0.39845,0.0387 c -0.55124,0.0535 -0.34247,0.39311 -4.85264,-7.89462 -0.70914,-1.30309 -1.4448,-2.54443 -1.63481,-2.75852 l -0.34546,-0.38927 -2.79112,0.0152 c -1.53512,0.008 -2.88994,0.0588 -3.01071,0.11218 -0.16791,0.0742 -0.21809,2.50716 -0.21318,10.33631 0.004,5.63162 0.0502,10.31708 0.10377,10.41213 0.0779,0.13834 0.61359,0.16594 2.68437,0.13831 l 2.58702,-0.0345 z m 43.23654,-27.98331 -0.0481,-6.41057 -2.41202,1.58301 -2.41202,1.58301 -0.0723,4.01702 c -0.0694,3.85373 -0.0911,4.06012 -0.53337,5.07696 -0.25356,0.58296 -0.59294,1.23323 -0.75418,1.44503 -0.74403,0.97735 -2.62863,2.4256 -6.07079,4.66517 -2.05553,1.33739 -5.88464,3.9263 -8.50913,5.75314 l -4.77181,3.32152 v 1.41064 1.41064 l 12.81597,-8.7225 12.81597,-8.7225 z m -136.73231,7.01269 c 0.0377,-0.0118 -0.0994,-0.1801 -0.30465,-0.37409 -0.22419,-0.21187 -0.51943,-0.8779 -0.73935,-1.66787 -0.31588,-1.13465 -0.36787,-1.86091 -0.37885,-5.29181 -0.007,-2.18717 -0.0524,-4.00371 -0.1009,-4.03675 -0.0485,-0.0331 -1.28242,0.74652 -2.74203,1.73236 l -2.65385,1.79243 v 6.2392 6.2392 l 3.42554,-2.30565 c 1.88404,-1.26811 3.45639,-2.31527 3.49409,-2.32702 z m 13.60848,1.52486 c 1.59886,-0.23085 2.5761,-0.58344 3.65597,-1.31907 1.90486,-1.29762 2.77957,-2.74102 2.68698,-4.43387 l -0.054,-0.98786 h -2.46973 -2.46973 l -0.20818,1.15237 c -0.24403,1.35078 -0.53337,1.71125 -1.64164,2.04521 -0.65389,0.19704 -1.02302,0.22737 -1.92284,0.15802 -1.79632,-0.13844 -2.41345,-0.61715 -2.96916,-2.30319 -0.22023,-0.66818 -0.24151,-1.64055 -0.12676,-5.79093 0.0985,-3.56387 0.20616,-5.12278 0.37699,-5.46028 0.1315,-0.2598 0.59315,-0.69469 1.02588,-0.96641 0.74893,-0.47027 0.84423,-0.49405 1.98019,-0.49405 1.12176,0 1.23906,0.0281 1.95411,0.46762 0.93516,0.57485 1.21493,1.01121 1.36809,2.13385 l 0.11889,0.87136 0.84448,0.0692 c 1.27461,0.10446 3.85632,0.005 4.0951,-0.15748 0.33677,-0.22941 0.17721,-2.0822 -0.25739,-2.98886 -0.40896,-0.85315 -1.58902,-1.93202 -2.868,-2.62208 -2.41756,-1.30435 -6.70536,-1.49193 -9.61896,-0.42079 -1.23958,0.4557 -2.88913,1.57163 -3.45422,2.33679 -1.13226,1.53311 -1.13966,1.58618 -1.07787,7.72411 0.063,6.25514 0.15238,6.79393 1.35287,8.15261 0.74953,0.84828 2.61108,2.04384 3.84631,2.47024 1.52935,0.52793 3.73972,0.66568 5.83265,0.36348 z m 23.34944,-0.14355 c 1.77599,-0.33338 4.07504,-1.85575 5.16096,-3.41745 l 0.47689,-0.68584 0.0943,-5.9855 c 0.0518,-3.29203 0.0341,-6.26103 -0.0394,-6.5978 -0.17843,-0.81758 -1.22228,-2.28649 -2.09467,-2.94764 -1.82338,-1.38186 -3.91526,-1.90949 -7.31213,-1.84432 -2.11256,0.0405 -2.25768,0.061 -3.57118,0.50366 -2.01961,0.68063 -3.51393,1.80544 -4.4146,3.32295 -0.41673,0.70212 -0.41829,0.72863 -0.41829,7.07382 v 6.36905 l 0.76534,1.05047 c 1.09881,1.50816 1.75431,1.97224 3.75817,2.66068 2.39221,0.82186 4.96897,0.9908 7.59462,0.49792 z m -4.84596,-3.43197 c -0.99163,-0.33438 -1.78354,-0.98561 -2.03904,-1.67682 -0.12778,-0.34568 -0.19922,-2.40565 -0.19922,-5.74404 0,-4.99232 0.0153,-5.22665 0.37521,-5.73307 0.50912,-0.71643 1.8041,-1.509 2.64014,-1.61585 1.35282,-0.17288 2.25976,-0.004 3.1389,0.58346 1.57817,1.05512 1.53391,0.85986 1.53391,6.76546 0,3.33839 -0.0715,5.39836 -0.19922,5.74404 -0.56848,1.53794 -3.18474,2.37345 -5.25068,1.67682 z m 89.38449,3.43749 c 1.69632,-0.30099 2.58489,-0.66556 3.85158,-1.58027 2.31957,-1.67503 2.66629,-2.5314 2.59889,-6.41921 l -0.0492,-2.83893 -0.64068,-0.0644 c -0.35237,-0.0354 -2.20577,-0.0363 -4.11865,-0.002 l -3.47798,0.0624 -0.0524,1.29112 c -0.0343,0.84498 0.0209,1.35128 0.1597,1.4652 0.13195,0.10831 0.57327,0.17408 1.16807,0.17408 1.41104,0 1.59518,0.19068 1.59518,1.65184 0,1.35928 -0.41367,2.143 -1.40228,2.65668 -0.49428,0.25682 -0.79132,0.3053 -1.87037,0.3053 -1.53638,0 -2.32392,-0.289 -2.89285,-1.06157 -0.3504,-0.47583 -0.36611,-0.746 -0.36611,-6.29901 v -5.80187 l 0.46258,-0.62008 c 0.57726,-0.7738 1.61932,-1.18122 3.02124,-1.18122 0.80913,0 1.03882,0.0605 1.70565,0.44934 0.95319,0.5558 1.28693,1.08205 1.43306,2.2597 0.0625,0.50355 0.19121,0.94821 0.28607,0.98815 0.0949,0.0399 1.27694,0.0323 2.62686,-0.0169 l 2.45441,-0.0896 v -0.6918 c 0,-0.91215 -0.49494,-2.55276 -1.01091,-3.35093 -0.49941,-0.77256 -1.53952,-1.58523 -2.64019,-2.06287 l -0.81381,-0.35315 h -4.17798 -4.17798 l -0.76024,0.32693 c -0.99242,0.42677 -2.43623,1.35125 -2.88797,1.84917 -0.86655,0.95515 -0.92325,1.45946 -0.92572,8.2346 -0.003,7.10385 0.007,7.1732 1.21097,8.3654 1.22695,1.2154 2.79795,1.98763 4.81395,2.36633 1.18517,0.22262 3.58708,0.21654 4.8771,-0.0124 z m -69.14404,-0.33047 c 0.16507,-0.11245 0.21966,-1.72179 0.21966,-6.47617 0,-3.92816 0.0696,-6.45123 0.18358,-6.65547 0.11459,-0.20531 0.29686,-0.31381 0.48498,-0.28869 0.22439,0.03 0.42816,0.42259 0.79747,1.53662 0.27284,0.82301 0.79964,2.33809 1.17066,3.36685 0.37102,1.02876 1.16563,3.27332 1.76579,4.98791 0.60017,1.7146 1.16571,3.2353 1.25677,3.37935 0.14711,0.23271 0.29303,0.25758 1.30959,0.22319 0.62922,-0.0213 1.20855,-0.083 1.2874,-0.13719 0.16224,-0.11148 1.13383,-2.88336 2.74445,-7.82977 1.67197,-5.13484 1.78292,-5.35304 2.61175,-5.13638 0.27186,0.0711 0.29946,0.66816 0.29946,6.4792 0,4.81223 0.0545,6.43806 0.21966,6.55055 0.2745,0.187 4.6464,0.20996 4.81394,0.0253 0.17153,-0.18907 0.20523,-20.78885 0.0342,-20.90556 -0.082,-0.056 -1.84965,-0.10282 -3.92801,-0.10409 l -3.77884,-0.002 -0.22104,0.31174 c -0.12157,0.17146 -0.93375,2.58436 -1.80484,5.36201 -0.87109,2.77765 -1.63996,5.18474 -1.7086,5.34909 -0.17905,0.42877 -0.68705,0.62042 -1.02017,0.3849 -0.14386,-0.10171 -0.64371,-1.41944 -1.11076,-2.92829 -0.46706,-1.50884 -0.96318,-3.05198 -1.10249,-3.42919 -0.13931,-0.37721 -0.50696,-1.55561 -0.81699,-2.61865 -0.31003,-1.06305 -0.64428,-2.06059 -0.74278,-2.21674 -0.17886,-0.28355 -0.18421,-0.2839 -4.03877,-0.26377 -3.74874,0.0196 -3.86383,0.0277 -4.00455,0.28392 -0.1906,0.34699 -0.1453,20.54306 0.0465,20.7454 0.20315,0.21428 4.71833,0.21987 5.03195,0.006 z m 29.88075,-5.89821 c 0.0541,-3.29202 0.0619,-8.01963 0.0173,-10.5058 l -0.081,-4.5203 h -2.70082 -2.70083 l -0.005,10.31876 c -0.003,5.67531 0.0374,10.41846 0.0889,10.54034 0.085,0.20105 0.3341,0.21838 2.68821,0.18704 l 2.59458,-0.0345 z m 23.2721,5.71678 c 0.31914,-0.19675 0.33475,-0.68527 0.33475,-10.47462 v -10.26826 h -2.65424 c -1.45984,0 -2.66758,0.014 -2.68388,0.0312 -0.0163,0.0171 -0.0781,2.44337 -0.13729,5.3916 -0.14429,7.18488 0.007,7.17196 -3.67734,0.31333 -1.08695,-2.02322 -2.23895,-4.14153 -2.56,-4.70735 l -0.58373,-1.02876 h -3.06601 -3.066 l -0.11454,9.77847 c -0.063,5.37815 -0.065,10.06368 -0.004,10.41227 l 0.11019,0.63382 h 2.62875 2.62875 l 0.0254,-2.02634 c 0.014,-1.11449 0.0758,-3.65365 0.13729,-5.64259 0.1104,-3.56944 0.1169,-3.61673 0.5025,-3.65419 0.58504,-0.0568 0.9252,0.43975 4.27549,6.24168 l 3.00626,5.20613 h 2.2816 c 1.86618,0 2.34256,-0.0376 2.61636,-0.20637 z m -58.35551,-32.71786 9.48377,-6.47045 -8.20871,-0.0361 c -4.51479,-0.0199 -8.30772,0.0106 -8.42874,0.0677 -0.12102,0.0571 -0.40932,0.0612 -0.64068,0.009 -0.23136,-0.0521 -0.70895,-0.081 -1.06133,-0.0644 -0.58227,0.0275 -1.50429,0.61778 -10.11436,6.4751 l -9.47368,6.44483 8.1008,0.0624 c 4.45543,0.0343 8.72142,0.0443 9.47997,0.0223 l 1.37919,-0.0401 z m 37.25,2.68393 c 5.06953,-3.47076 7.57848,-5.24732 11.4903,-8.13617 l 1.30769,-0.96572 -8.08059,-0.0623 c -4.44433,-0.0343 -8.17143,-0.10263 -8.28244,-0.15187 -0.11102,-0.0492 -0.35814,-0.009 -0.54916,0.0896 -0.19102,0.0985 -0.63561,0.1797 -0.98798,0.18044 -0.60187,10e-4 -1.20767,0.39015 -10.00069,6.41969 -5.14801,3.53008 -9.30785,6.45605 -9.2441,6.50216 0.0638,0.0461 4.30648,0.0565 9.42828,0.0232 l 9.31237,-0.0607 z m -78.68883,-2.68682 9.6102,-6.47933 -6.58985,0.0321 -6.58985,0.0321 -1.14934,0.32988 c -2.87949,0.82644 -5.51907,2.36718 -6.59154,3.8475 -1.11861,1.54403 -1.32017,2.42283 -1.32017,5.75605 v 2.97281 l 1.51018,-0.006 1.51017,-0.006 z m 121.87542,1.59067 7.192,-4.9005 -1.16219,-0.76024 c -1.43732,-0.94021 -3.08514,-1.67572 -4.57936,-2.04402 -1.0085,-0.24858 -1.55879,-0.2857 -4.80011,-0.32373 l -3.66103,-0.043 -9.60229,6.48598 -9.60229,6.48598 h 9.51163 9.51164 z"
         id="path8" />
      <path
         style="fill:#000000;fill-opacity:1"
         d="m 452.40161,545.51831 c -4.06611,-0.50607 -7.24386,-1.6115 -10.16196,-3.53498 -1.71759,-1.13216 -2.62137,-1.91288 -3.6817,-3.18038 -0.46871,-0.56029 -1.04928,-1.06865 -1.40908,-1.23383 -1.10528,-0.5074 -1.47097,-1.02391 -1.4294,-2.01892 0.0224,-0.53519 -0.0623,-1.01992 -0.21802,-1.24881 -0.20069,-0.29491 -0.24678,-1.08672 -0.21774,-3.74094 0.0203,-1.85176 0.12746,-15.03856 0.23823,-29.30401 0.13042,-16.79806 0.26857,-26.19936 0.39207,-26.6813 0.10488,-0.40928 0.22542,-2.77615 0.26786,-5.25971 0.0727,-4.25722 0.10224,-4.58292 0.51551,-5.69272 0.88732,-2.38285 2.69129,-4.36152 5.83025,-6.39486 2.07038,-1.34115 4.06108,-2.17895 6.56508,-2.76297 3.55437,-0.82901 -1.3562,-0.77157 66.36318,-0.77634 41.83794,-0.003 62.1821,0.0375 63.15272,0.1257 6.35296,0.57698 12.5351,3.91504 15.08428,8.14476 1.40145,2.32536 1.29105,-0.90624 1.29345,37.86342 l 0.002,34.72837 -0.55578,1.35815 c -1.03269,2.52353 -2.59405,4.31266 -5.33374,6.11181 -0.89163,0.58553 -2.05894,1.2551 -2.59403,1.48794 -2.55353,1.11115 -5.41343,1.8478 -8.04705,2.07276 -1.02881,0.0879 -21.4166,0.12544 -63.12124,0.11631 -50.42273,-0.011 -61.84357,-0.0436 -62.93504,-0.17945 z m 28.41504,-11.51465 c 5.29112,-3.59294 9.62021,-6.55953 9.62021,-6.59241 0,-0.0329 -3.74481,-0.0205 -8.3218,0.0275 -4.57699,0.048 -8.41012,0.0501 -8.51806,0.005 -0.10795,-0.0454 -0.71021,-0.10512 -1.33836,-0.1326 l -1.1421,-0.05 -9.68276,6.59696 -9.68277,6.59695 0.71745,0.0803 c 0.3946,0.0441 0.83432,0.0906 0.97717,0.10313 0.14284,0.0126 4.19521,-0.005 9.00526,-0.0395 l 8.74554,-0.0624 z m 51.01735,0.0853 c 5.20006,-3.5867 9.41862,-6.54674 9.37457,-6.57787 -0.044,-0.0311 -6.35798,-0.0592 -14.03095,-0.0624 l -13.95086,-0.006 -9.6102,6.54664 -9.61019,6.54664 1.92203,0.0624 c 1.05713,0.0343 7.44104,0.0509 14.18649,0.037 l 12.26444,-0.0254 z m 43.82462,-1.31514 11.59557,-7.94949 0.008,-6.53558 0.008,-6.53558 -13.67946,9.40363 c -7.5237,5.172 -16.99416,11.6597 -21.04545,14.41711 l -7.36599,5.01348 1.23014,0.0435 c 0.67658,0.0239 4.92524,0.0545 9.44146,0.068 l 8.21132,0.0244 z m -112.08899,-21.7216 c 0.0459,-4.48635 0.11834,-6.02669 0.29764,-6.32663 0.13036,-0.21806 0.21038,-0.53397 0.17784,-0.70202 -0.0509,-0.26275 -1.48872,0.67802 -10.26428,6.71587 l -10.20512,7.02142 v 6.39936 6.39936 l 9.96664,-6.7886 9.96663,-6.78859 z m 21.24622,12.17384 c 4.23047,-1.04607 6.49909,-4.4451 4.90582,-7.3503 -1.20021,-2.18849 -2.77073,-3.23611 -7.43059,-4.95657 -1.95422,-0.72151 -3.50161,-1.55877 -4.04216,-2.18711 -0.51244,-0.59567 -0.60251,-1.67389 -0.19529,-2.33782 0.39777,-0.64852 1.41213,-1.17042 2.46685,-1.26924 1.07682,-0.10089 1.45451,0.006 2.5422,0.71915 0.60776,0.3985 0.81459,0.64697 0.974,1.17007 l 0.20239,0.66413 h 2.45822 2.45821 v -0.66321 c 0,-2.15797 -2.46419,-4.34965 -5.36776,-4.77415 -2.51838,-0.36819 -6.34129,-0.12628 -7.74896,0.49034 -1.17824,0.51613 -2.57659,1.59377 -3.10218,2.39071 -0.9556,1.44896 -0.79827,3.5497 0.39322,5.25046 0.85014,1.2135 2.33404,2.13297 4.9819,3.0869 1.11565,0.40194 2.77471,1.06344 3.68678,1.47002 2.15541,0.96082 2.61557,1.45245 2.72825,2.9148 l 0.0789,1.02354 -0.70811,0.53456 c -0.87777,0.66262 -1.58464,0.8711 -2.94461,0.86846 -2.10417,-0.004 -3.23167,-0.76145 -3.44528,-2.31427 -0.0752,-0.54686 -0.2398,-1.01391 -0.39437,-1.1192 -0.20111,-0.137 -0.73811,-0.17771 -2.22,-0.16828 -2.84275,0.0181 -2.85854,0.0232 -2.92415,0.95023 -0.10696,1.51155 0.91125,3.24681 2.66073,4.53447 1.59197,1.17173 3.13667,1.50612 6.5699,1.42222 1.73446,-0.0424 2.48223,-0.11899 3.41613,-0.34991 z m 21.97563,-0.12576 c 2.35483,-0.79281 3.84073,-1.99694 4.76758,-3.86349 0.25565,-0.51486 0.29773,-1.31684 0.29772,-5.67376 -2e-5,-6.12647 -0.13213,-7.3179 -0.93094,-8.39589 -1.55076,-2.09272 -4.86031,-3.25178 -8.75828,-3.06729 -3.35202,0.15865 -6.17038,1.47338 -7.56002,3.52666 -0.41506,0.61329 -0.41851,0.66287 -0.47047,6.76982 -0.0583,6.85008 -0.0382,6.99779 1.15102,8.44636 1.55053,1.88876 4.31986,2.82695 8.15853,2.76396 1.82744,-0.03 2.01363,-0.0582 3.34486,-0.50637 z m -5.28001,-3.00048 c -0.89587,-0.26636 -1.87324,-1.10861 -2.21698,-1.9105 -0.27691,-0.64595 -0.29738,-1.2384 -0.19403,-5.61379 0.0732,-3.09986 0.19517,-5.10703 0.33293,-5.4797 0.29819,-0.80672 1.42348,-1.56723 2.62352,-1.77308 1.71833,-0.29475 3.59597,0.31806 4.32504,1.41156 0.31163,0.46739 0.33876,0.91855 0.34246,5.69393 0.004,5.6133 -0.0333,5.87146 -1.0023,6.86892 -0.82263,0.84682 -2.79655,1.2231 -4.21064,0.80266 z m 26.77738,3.16211 c 1.10319,-0.2621 3.05682,-1.16949 3.78209,-1.75665 0.63643,-0.51524 1.44787,-1.61684 1.82004,-2.47086 0.42802,-0.98218 0.44036,-11.1733 0.0149,-12.28611 -0.64294,-1.68154 -2.41653,-3.28208 -4.35609,-3.93108 -1.79296,-0.59994 -3.53924,-0.79938 -5.52297,-0.63078 -3.61125,0.30693 -6.1976,1.78999 -7.26808,4.16762 -0.3863,0.85802 -0.39997,1.08482 -0.40673,6.74866 -0.007,5.82982 -0.005,5.86458 0.41386,6.57601 0.99953,1.69865 2.70999,2.89739 4.95099,3.46978 2.04333,0.52191 4.66233,0.56711 6.57202,0.11341 z m -4.07901,-3.12137 c -0.79096,-0.15816 -1.86884,-0.80749 -2.33614,-1.40732 -0.40028,-0.5138 -0.40305,-0.55985 -0.35038,-5.81756 0.0591,-5.89879 0.11926,-6.25632 1.16893,-6.94608 0.75581,-0.49665 1.38676,-0.66049 2.54358,-0.66049 1.65343,0 2.91741,0.69024 3.42524,1.87046 0.25394,0.5902 0.40378,10.48372 0.16834,11.11558 -0.20205,0.54226 -1.37795,1.51926 -2.16025,1.79484 -0.569,0.20044 -1.60341,0.22171 -2.45932,0.0506 z m 19.78127,-2.04992 c 0.01,-4.28018 0.0619,-5.35125 0.28653,-5.8608 0.39674,-0.90008 0.80216,-0.84578 1.39667,0.18705 0.25661,0.44579 1.15947,1.95714 2.00637,3.35855 0.8469,1.40141 1.93964,3.26029 2.42831,4.13084 0.48868,0.87056 1.14992,2.0106 1.46942,2.53342 l 0.58093,0.9506 h 2.4175 c 1.63621,0 2.48849,-0.0484 2.63716,-0.14963 0.31819,-0.21676 0.31819,-20.55792 0,-20.77468 -0.32578,-0.22192 -4.79155,-0.2066 -5.06443,0.0174 -0.14059,0.11541 -0.21823,1.82054 -0.25122,5.51789 l -0.0478,5.35086 -0.39845,0.0387 c -0.55124,0.0535 -0.34247,0.39311 -4.85264,-7.89462 -0.70914,-1.30309 -1.4448,-2.54443 -1.63481,-2.75852 l -0.34546,-0.38927 -2.79112,0.0152 c -1.53512,0.008 -2.88994,0.0588 -3.01071,0.11218 -0.16791,0.0742 -0.21809,2.50716 -0.21318,10.33631 0.004,5.63162 0.0502,10.31708 0.10377,10.41213 0.0779,0.13834 0.61359,0.16594 2.68437,0.13831 l 2.58702,-0.0345 z m 43.23654,-27.98331 -0.0481,-6.41057 -2.41202,1.58301 -2.41202,1.58301 -0.0723,4.01702 c -0.0694,3.85373 -0.0911,4.06012 -0.53337,5.07696 -0.25356,0.58296 -0.59294,1.23323 -0.75418,1.44503 -0.74403,0.97735 -2.62863,2.4256 -6.07079,4.66517 -2.05553,1.33739 -5.88464,3.9263 -8.50913,5.75314 l -4.77181,3.32152 v 1.41064 1.41064 l 12.81597,-8.7225 12.81597,-8.7225 z m -136.73231,7.01269 c 0.0377,-0.0118 -0.0994,-0.1801 -0.30465,-0.37409 -0.22419,-0.21187 -0.51943,-0.8779 -0.73935,-1.66787 -0.31588,-1.13465 -0.36787,-1.86091 -0.37885,-5.29181 -0.007,-2.18717 -0.0524,-4.00371 -0.1009,-4.03675 -0.0485,-0.0331 -1.28242,0.74652 -2.74203,1.73236 l -2.65385,1.79243 v 6.2392 6.2392 l 3.42554,-2.30565 c 1.88404,-1.26811 3.45639,-2.31527 3.49409,-2.32702 z m 13.60848,1.52486 c 1.59886,-0.23085 2.5761,-0.58344 3.65597,-1.31907 1.90486,-1.29762 2.77957,-2.74102 2.68698,-4.43387 l -0.054,-0.98786 h -2.46973 -2.46973 l -0.20818,1.15237 c -0.24403,1.35078 -0.53337,1.71125 -1.64164,2.04521 -0.65389,0.19704 -1.02302,0.22737 -1.92284,0.15802 -1.79632,-0.13844 -2.41345,-0.61715 -2.96916,-2.30319 -0.22023,-0.66818 -0.24151,-1.64055 -0.12676,-5.79093 0.0985,-3.56387 0.20616,-5.12278 0.37699,-5.46028 0.1315,-0.2598 0.59315,-0.69469 1.02588,-0.96641 0.74893,-0.47027 0.84423,-0.49405 1.98019,-0.49405 1.12176,0 1.23906,0.0281 1.95411,0.46762 0.93516,0.57485 1.21493,1.01121 1.36809,2.13385 l 0.11889,0.87136 0.84448,0.0692 c 1.27461,0.10446 3.85632,0.005 4.0951,-0.15748 0.13283,-0.0905 0.19406,-0.5234 0.16572,-1.17171 -0.0614,-1.4049 -0.57412,-2.42013 -1.67897,-3.32452 -1.81793,-1.4881 -3.40061,-2.07251 -5.96683,-2.20329 -4.65801,-0.23738 -8.16184,1.37358 -9.51537,4.3749 -0.31052,0.68853 -0.33292,1.19517 -0.28099,6.35379 0.063,6.25514 0.15238,6.79393 1.35287,8.15261 0.74953,0.84828 2.61108,2.04384 3.84631,2.47024 1.52935,0.52793 3.73972,0.66568 5.83265,0.36348 z m 23.34944,-0.14355 c 1.77599,-0.33338 4.07504,-1.85575 5.16096,-3.41745 l 0.47689,-0.68584 0.0943,-5.9855 c 0.0518,-3.29203 0.0341,-6.26103 -0.0394,-6.5978 -0.17843,-0.81758 -1.22228,-2.28649 -2.09467,-2.94764 -1.82338,-1.38186 -3.91526,-1.90949 -7.31213,-1.84432 -2.11256,0.0405 -2.25768,0.061 -3.57118,0.50366 -2.01961,0.68063 -3.51393,1.80544 -4.4146,3.32295 -0.41673,0.70212 -0.41829,0.72863 -0.41829,7.07382 v 6.36905 l 0.76534,1.05047 c 1.09881,1.50816 1.75431,1.97224 3.75817,2.66068 2.39221,0.82186 4.96897,0.9908 7.59462,0.49792 z m -4.85031,-3.42639 c -0.43255,-0.14973 -0.99551,-0.45895 -1.25103,-0.68717 -0.93312,-0.83339 -0.98288,-1.17484 -0.98288,-6.7446 0,-4.9695 0.0139,-5.1766 0.38234,-5.71059 0.50638,-0.73387 1.78043,-1.52404 2.63301,-1.633 1.34487,-0.17187 2.26062,-0.004 3.12422,0.57365 0.43731,0.29237 0.96793,0.80526 1.17917,1.13975 0.37333,0.59118 0.38257,0.7587 0.33097,5.99782 l -0.0531,5.38965 -0.45763,0.55561 c -1.00087,1.21515 -3.18662,1.71373 -4.90509,1.11888 z m 89.38884,3.43191 c 1.69632,-0.30099 2.58489,-0.66556 3.85158,-1.58027 2.31957,-1.67503 2.66629,-2.5314 2.59889,-6.41921 l -0.0492,-2.83893 -0.64068,-0.0644 c -0.35237,-0.0354 -2.20577,-0.0363 -4.11865,-0.002 l -3.47798,0.0624 -0.0524,1.29112 c -0.0343,0.84498 0.0209,1.35128 0.1597,1.4652 0.13195,0.10831 0.57327,0.17408 1.16807,0.17408 1.41104,0 1.59518,0.19068 1.59518,1.65184 0,1.35928 -0.41367,2.143 -1.40228,2.65668 -0.49428,0.25682 -0.79132,0.3053 -1.87037,0.3053 -1.53638,0 -2.32392,-0.289 -2.89285,-1.06157 -0.3504,-0.47583 -0.36611,-0.746 -0.36611,-6.29901 v -5.80187 l 0.46258,-0.62008 c 0.57726,-0.7738 1.61932,-1.18122 3.02124,-1.18122 0.80913,0 1.03882,0.0605 1.70565,0.44934 0.95319,0.5558 1.28693,1.08205 1.43306,2.2597 0.0625,0.50355 0.19121,0.94821 0.28607,0.98815 0.0949,0.0399 1.27694,0.0323 2.62686,-0.0169 l 2.45441,-0.0896 v -0.6918 c 0,-0.91499 -0.49545,-2.55355 -1.01521,-3.35756 -0.49658,-0.76814 -1.69647,-1.69035 -2.72681,-2.09576 -0.69628,-0.27397 -0.98779,-0.29678 -4.65995,-0.36472 -4.53515,-0.0839 -4.65534,-0.0632 -6.60631,1.13952 -2.39127,1.47414 -2.38365,1.44437 -2.38652,9.32227 -0.003,7.10385 0.007,7.1732 1.21097,8.3654 1.22695,1.2154 2.79795,1.98763 4.81395,2.36633 1.18517,0.22262 3.58708,0.21654 4.8771,-0.0124 z m -69.14404,-0.33047 c 0.16507,-0.11245 0.21966,-1.72179 0.21966,-6.47617 0,-3.92816 0.0696,-6.45123 0.18358,-6.65547 0.11459,-0.20531 0.29686,-0.31381 0.48498,-0.28869 0.22439,0.03 0.42816,0.42259 0.79747,1.53662 0.27284,0.82301 0.79964,2.33809 1.17066,3.36685 0.37102,1.02876 1.16563,3.27332 1.76579,4.98791 0.60017,1.7146 1.16571,3.2353 1.25677,3.37935 0.14711,0.23271 0.29303,0.25758 1.30959,0.22319 0.62922,-0.0213 1.20855,-0.083 1.2874,-0.13719 0.16224,-0.11148 1.13383,-2.88336 2.74445,-7.82977 1.67197,-5.13484 1.78292,-5.35304 2.61175,-5.13638 0.27186,0.0711 0.29946,0.66816 0.29946,6.4792 0,4.81223 0.0545,6.43806 0.21966,6.55055 0.2745,0.187 4.6464,0.20996 4.81394,0.0253 0.062,-0.0684 0.12869,-4.78397 0.14809,-10.47905 0.0302,-8.85338 -0.003,-10.37067 -0.22599,-10.46482 -0.14369,-0.0606 -1.91158,-0.10065 -3.92864,-0.0891 l -3.66737,0.021 -0.22041,0.31174 c -0.12123,0.17146 -0.93312,2.58436 -1.80421,5.36201 -0.87109,2.77765 -1.63996,5.18474 -1.7086,5.34909 -0.17905,0.42877 -0.68705,0.62042 -1.02017,0.3849 -0.14386,-0.10171 -0.64371,-1.41944 -1.11076,-2.92829 -0.46706,-1.50884 -0.96318,-3.05198 -1.10249,-3.42919 -0.13931,-0.37721 -0.50696,-1.55561 -0.81699,-2.61865 -0.31003,-1.06305 -0.64428,-2.06059 -0.74278,-2.21674 -0.17886,-0.28355 -0.18421,-0.2839 -4.03877,-0.26377 -3.74874,0.0196 -3.86383,0.0277 -4.00455,0.28392 -0.1906,0.34699 -0.1453,20.54306 0.0465,20.7454 0.20315,0.21428 4.71833,0.21987 5.03195,0.006 z m 29.77738,0.0305 c 0.11664,-0.12856 0.18953,-20.8084 0.0736,-20.88735 -0.0628,-0.0428 -4.06432,-0.10494 -5.0402,-0.0783 l -0.39536,0.0108 -0.005,10.31876 c -0.003,5.67531 0.0367,10.41695 0.0873,10.53697 0.082,0.19433 0.37011,0.21822 2.63165,0.21822 1.41617,0 2.58738,-0.0527 2.64764,-0.11911 z m 23.37547,-0.21196 c 0.31914,-0.19675 0.33475,-0.68527 0.33475,-10.47462 v -10.26826 h -2.62874 -2.62875 l -0.11543,0.65467 c -0.0635,0.36006 -0.11658,2.25391 -0.11797,4.20855 -0.003,4.54636 -0.1329,6.01045 -0.52765,5.95867 -0.35884,-0.0471 -0.86518,-0.87298 -3.23268,-5.27283 -1.03332,-1.92035 -2.14122,-3.95448 -2.46201,-4.5203 l -0.58325,-1.02876 h -3.06591 -3.0659 l -0.11582,9.77171 c -0.0637,5.37444 -0.0655,10.06141 -0.004,10.41551 l 0.11194,0.6438 2.6598,-0.0344 2.65981,-0.0344 0.0696,-5.48671 c 0.0383,-3.01769 0.10383,-5.55685 0.14568,-5.64258 0.16689,-0.34186 0.79316,-0.15017 1.22222,0.37409 0.23856,0.29148 1.78655,2.87273 3.43999,5.73611 l 3.00626,5.20613 h 2.2816 c 1.86618,0 2.34256,-0.0376 2.61636,-0.20637 z m -58.35551,-32.71786 9.48377,-6.47045 -8.20871,-0.0361 c -4.51479,-0.0199 -8.30772,0.0106 -8.42874,0.0677 -0.12102,0.0571 -0.40932,0.0612 -0.64068,0.009 -0.23136,-0.0521 -0.70895,-0.081 -1.06133,-0.0644 -0.58227,0.0275 -1.50429,0.61778 -10.11436,6.4751 l -9.47368,6.44483 8.1008,0.0624 c 4.45543,0.0343 8.72142,0.0443 9.47997,0.0223 l 1.37919,-0.0401 z m 35.93535,3.60603 c 3.49743,-2.37306 10.75862,-7.5072 13.55963,-9.58755 l 0.58764,-0.43644 -8.09791,-0.0623 c -4.45385,-0.0343 -8.18874,-0.10263 -8.29975,-0.15187 -0.11102,-0.0492 -0.35814,-0.009 -0.54916,0.0896 -0.19102,0.0985 -0.63561,0.1797 -0.98798,0.18044 -0.60187,0.001 -1.20767,0.39015 -10.00069,6.41969 -5.14801,3.53008 -9.30785,6.45605 -9.2441,6.50216 0.0638,0.0461 4.30508,0.0566 9.42516,0.0232 l 9.30924,-0.0606 z m -77.37418,-3.60892 9.6102,-6.47933 -6.58985,0.0321 -6.58985,0.0321 -1.14934,0.32988 c -2.87949,0.82644 -5.51907,2.36718 -6.59154,3.8475 -1.11861,1.54403 -1.32017,2.42283 -1.32017,5.75605 v 2.97281 l 1.51018,-0.006 1.51017,-0.006 z m 121.87542,1.59067 7.192,-4.9005 -1.16219,-0.76024 c -1.43732,-0.94021 -3.08514,-1.67572 -4.57936,-2.04402 -1.00615,-0.24801 -1.56633,-0.28616 -4.80011,-0.32691 l -3.66103,-0.0461 -9.59883,6.48916 -9.59884,6.48916 h 9.50818 9.50818 z"
         id="path7" />
      <path
         style="fill:#000000;fill-opacity:1"
         d="m 452.40161,545.51831 c -2.93596,-0.36541 -5.43957,-1.06384 -7.80282,-2.17676 -2.41809,-1.13874 -5.14977,-3.27167 -6.47585,-5.05643 -0.20653,-0.27796 -0.57955,-0.56872 -0.82895,-0.64613 -0.24939,-0.0774 -0.68846,-0.3507 -0.9757,-0.60732 -0.45634,-0.40768 -0.52385,-0.57796 -0.53486,-1.34903 -0.007,-0.48535 -0.12094,-1.10248 -0.25334,-1.37139 -0.19696,-0.40002 -0.21707,-3.80112 -0.1106,-18.70468 0.0716,-10.01867 0.16074,-18.7899 0.19815,-19.49163 0.0374,-0.70172 0.0808,-5.66782 0.0964,-11.03576 0.0156,-5.36795 0.10523,-10.06853 0.19914,-10.44574 0.0939,-0.37721 0.21031,-2.74457 0.25868,-5.26079 0.0827,-4.3049 0.11379,-4.64437 0.52589,-5.75102 0.8869,-2.38173 2.69138,-4.36076 5.82985,-6.39378 2.07038,-1.34115 4.06108,-2.17895 6.56508,-2.76297 3.55437,-0.82901 -1.3562,-0.77157 66.36318,-0.77634 41.83794,-0.003 62.1821,0.0375 63.15272,0.1257 6.35296,0.57698 12.5351,3.91504 15.08428,8.14476 1.40145,2.32536 1.29105,-0.90624 1.29345,37.86342 l 0.002,34.72837 -0.55578,1.35815 c -1.03269,2.52353 -2.59405,4.31266 -5.33374,6.11181 -0.89163,0.58553 -2.05894,1.2551 -2.59403,1.48794 -2.55353,1.11115 -5.41343,1.8478 -8.04705,2.07276 -1.02881,0.0879 -21.4166,0.12544 -63.12124,0.11631 -50.42273,-0.011 -61.84357,-0.0436 -62.93504,-0.17945 z m 28.36576,-11.48115 c 5.31822,-3.61151 9.66949,-6.59322 9.66949,-6.62604 0,-0.0328 -3.74481,-0.0204 -8.3218,0.0276 -4.57699,0.048 -8.41012,0.0501 -8.51806,0.005 -0.10795,-0.0454 -0.71021,-0.10512 -1.33836,-0.1326 l -1.1421,-0.05 -9.68276,6.59696 -9.68277,6.59695 0.71745,0.0803 c 0.3946,0.0441 0.83514,0.0906 0.97898,0.10313 0.14385,0.0126 4.17404,0.01 8.95598,-0.006 l 8.69445,-0.0287 z m 51.06604,0.0618 c 5.20039,-3.59219 9.41921,-6.55672 9.37516,-6.58785 -0.044,-0.0311 -6.35798,-0.0592 -14.03095,-0.0624 l -13.95086,-0.006 -9.6102,6.54664 -9.61019,6.54664 1.83051,0.0624 c 1.00678,0.0343 7.39044,0.0554 14.1859,0.047 l 12.35538,-0.0154 z m 43.82521,-1.32512 11.59557,-7.94949 0.008,-6.53558 0.008,-6.53558 -13.67946,9.40363 c -7.5237,5.172 -16.99416,11.6597 -21.04545,14.41711 l -7.36599,5.01348 1.23014,0.0435 c 0.67658,0.0239 4.92524,0.0545 9.44146,0.068 l 8.21132,0.0244 z m -112.08899,-21.7216 c 0.0459,-4.48635 0.11834,-6.02669 0.29764,-6.32663 0.13036,-0.21806 0.21038,-0.53397 0.17784,-0.70202 -0.0509,-0.26275 -1.48872,0.67802 -10.26428,6.71587 l -10.20512,7.02142 v 6.39936 6.39936 l 9.96664,-6.7886 9.96663,-6.78859 z m 21.24622,12.17384 c 4.23047,-1.04607 6.49909,-4.4451 4.90582,-7.3503 -1.20021,-2.18849 -2.77073,-3.23611 -7.43059,-4.95657 -1.95422,-0.72151 -3.50161,-1.55877 -4.04216,-2.18711 -0.51244,-0.59567 -0.60251,-1.67389 -0.19529,-2.33782 0.39777,-0.64852 1.41213,-1.17042 2.46685,-1.26924 1.07682,-0.10089 1.45451,0.006 2.5422,0.71915 0.60776,0.3985 0.81459,0.64697 0.974,1.17007 l 0.20239,0.66413 h 2.45822 2.45821 v -0.66321 c 0,-2.15797 -2.46419,-4.34965 -5.36776,-4.77415 -2.51838,-0.36819 -6.34129,-0.12628 -7.74896,0.49034 -1.17824,0.51613 -2.57659,1.59377 -3.10218,2.39071 -0.9556,1.44896 -0.79827,3.5497 0.39322,5.25046 0.85014,1.2135 2.33404,2.13297 4.9819,3.0869 1.11565,0.40194 2.77471,1.06344 3.68678,1.47002 2.15541,0.96082 2.61557,1.45245 2.72825,2.9148 l 0.0789,1.02354 -0.70811,0.53456 c -0.87777,0.66262 -1.58464,0.8711 -2.94461,0.86846 -2.10417,-0.004 -3.23167,-0.76145 -3.44528,-2.31427 -0.0752,-0.54686 -0.2398,-1.01391 -0.39437,-1.1192 -0.20111,-0.137 -0.73811,-0.17771 -2.22,-0.16828 -2.84275,0.0181 -2.85854,0.0232 -2.92415,0.95023 -0.10696,1.51155 0.91125,3.24681 2.66073,4.53447 1.59197,1.17173 3.13667,1.50612 6.5699,1.42222 1.73446,-0.0424 2.48223,-0.11899 3.41613,-0.34991 z m 21.97563,-0.12576 c 2.35483,-0.79281 3.84073,-1.99694 4.76758,-3.86349 0.25565,-0.51486 0.29773,-1.31684 0.29772,-5.67376 -2e-5,-6.12647 -0.13213,-7.3179 -0.93094,-8.39589 -1.55076,-2.09272 -4.86031,-3.25178 -8.75828,-3.06729 -3.35202,0.15865 -6.17038,1.47338 -7.56002,3.52666 -0.41506,0.61329 -0.41851,0.66287 -0.47047,6.76982 -0.0583,6.85008 -0.0382,6.99779 1.15102,8.44636 1.55053,1.88876 4.31986,2.82695 8.15853,2.76396 1.82744,-0.03 2.01363,-0.0582 3.34486,-0.50637 z m -5.28001,-3.00048 c -0.76837,-0.22845 -1.85957,-1.09044 -2.09816,-1.65743 -0.3502,-0.83222 -0.402,-2.35612 -0.23235,-6.83604 0.17357,-4.5838 0.24439,-4.94297 1.1019,-5.58894 0.56581,-0.42622 1.62392,-0.7083 2.65694,-0.7083 1.36478,0 2.43805,0.40377 3.14796,1.18427 l 0.54915,0.60376 0.0557,4.93107 c 0.062,5.48636 -0.0341,6.2566 -0.89603,7.18245 -0.8657,0.92991 -2.79889,1.33104 -4.28512,0.88916 z m 26.77738,3.16211 c 1.10319,-0.2621 3.05682,-1.16949 3.78209,-1.75665 0.63643,-0.51524 1.44787,-1.61684 1.82004,-2.47086 0.42802,-0.98218 0.44036,-11.1733 0.0149,-12.28611 -0.64294,-1.68154 -2.41653,-3.28208 -4.35609,-3.93108 -1.79296,-0.59994 -3.53924,-0.79938 -5.52297,-0.63078 -3.61125,0.30693 -6.1976,1.78999 -7.26808,4.16762 -0.3863,0.85802 -0.39997,1.08482 -0.40673,6.74866 -0.007,5.82982 -0.005,5.86458 0.41386,6.57601 0.99953,1.69865 2.70999,2.89739 4.95099,3.46978 2.04333,0.52191 4.66233,0.56711 6.57202,0.11341 z m -4.1236,-3.12838 c -0.77704,-0.15287 -1.83245,-0.88197 -2.28457,-1.57824 -0.34085,-0.52491 -0.35915,-0.83148 -0.33529,-5.61659 0.0249,-4.9853 0.11862,-5.90526 0.65941,-6.47009 1.25835,-1.3143 3.98426,-1.52502 5.4482,-0.42117 1.135,0.85582 1.18709,1.13087 1.27657,6.74073 0.0895,5.61318 0.0799,5.67184 -1.08701,6.60051 -1.06464,0.84729 -2.09538,1.05607 -3.67731,0.74485 z m 19.82586,-2.04291 c 0.01,-4.28018 0.0619,-5.35125 0.28653,-5.8608 0.39674,-0.90008 0.80216,-0.84578 1.39667,0.18705 0.25661,0.44579 1.15947,1.95714 2.00637,3.35855 0.8469,1.40141 1.93964,3.26029 2.42831,4.13084 0.48868,0.87056 1.14992,2.0106 1.46942,2.53342 l 0.58093,0.9506 h 2.4175 c 1.63621,0 2.48849,-0.0484 2.63716,-0.14963 0.31819,-0.21676 0.31819,-20.55792 0,-20.77468 -0.32578,-0.22192 -4.79155,-0.2066 -5.06443,0.0174 -0.14059,0.11541 -0.21823,1.82054 -0.25122,5.51789 l -0.0478,5.35086 -0.39845,0.0387 c -0.55124,0.0535 -0.34247,0.39311 -4.85264,-7.89462 -0.70914,-1.30309 -1.4448,-2.54443 -1.63481,-2.75852 l -0.34546,-0.38927 -2.79112,0.0152 c -1.53512,0.008 -2.88994,0.0588 -3.01071,0.11218 -0.16791,0.0742 -0.21809,2.50716 -0.21318,10.33631 0.004,5.63162 0.0502,10.31708 0.10377,10.41213 0.0779,0.13834 0.61359,0.16594 2.68437,0.13831 l 2.58702,-0.0345 z m 43.23654,-27.98331 -0.0481,-6.41057 -2.41202,1.58301 -2.41202,1.58301 -0.0723,4.01702 c -0.0694,3.85373 -0.0911,4.06012 -0.53337,5.07696 -0.25356,0.58296 -0.59294,1.23323 -0.75418,1.44503 -0.74403,0.97735 -2.62863,2.4256 -6.07079,4.66517 -2.05553,1.33739 -5.88464,3.9263 -8.50913,5.75314 l -4.77181,3.32152 v 1.41064 1.41064 l 12.81597,-8.7225 12.81597,-8.7225 z m -136.73231,7.01269 c 0.0377,-0.0118 -0.0994,-0.1801 -0.30465,-0.37409 -0.22419,-0.21187 -0.51943,-0.8779 -0.73935,-1.66787 -0.31588,-1.13465 -0.36787,-1.86091 -0.37885,-5.29181 -0.007,-2.18717 -0.0524,-4.00371 -0.1009,-4.03675 -0.0485,-0.0331 -1.28242,0.74652 -2.74203,1.73236 l -2.65385,1.79243 v 6.2392 6.2392 l 3.42554,-2.30565 c 1.88404,-1.26811 3.45639,-2.31527 3.49409,-2.32702 z m 13.60848,1.52486 c 1.59886,-0.23085 2.5761,-0.58344 3.65597,-1.31907 1.90486,-1.29762 2.77957,-2.74102 2.68698,-4.43387 l -0.054,-0.98786 h -2.46973 -2.46973 l -0.20818,1.15237 c -0.24403,1.35078 -0.53337,1.71125 -1.64164,2.04521 -0.65389,0.19704 -1.02302,0.22737 -1.92284,0.15802 -1.79632,-0.13844 -2.41345,-0.61715 -2.96916,-2.30319 -0.22023,-0.66818 -0.24151,-1.64055 -0.12676,-5.79093 0.0985,-3.56387 0.20616,-5.12278 0.37699,-5.46028 0.1315,-0.2598 0.59315,-0.69469 1.02588,-0.96641 0.74893,-0.47027 0.84423,-0.49405 1.98019,-0.49405 1.12176,0 1.23906,0.0281 1.95411,0.46762 0.93516,0.57485 1.21493,1.01121 1.36809,2.13385 l 0.11889,0.87136 0.84448,0.0692 c 1.27461,0.10446 3.85632,0.005 4.0951,-0.15748 0.13283,-0.0905 0.19406,-0.5234 0.16572,-1.17171 -0.0614,-1.4049 -0.57412,-2.42013 -1.67897,-3.32452 -1.82377,-1.49288 -3.48563,-2.10668 -6.00482,-2.21786 -4.65102,-0.20527 -8.13241,1.40714 -9.47738,4.38947 -0.31052,0.68853 -0.33292,1.19517 -0.28099,6.35379 0.063,6.25514 0.15238,6.79393 1.35287,8.15261 0.74953,0.84828 2.61108,2.04384 3.84631,2.47024 1.52935,0.52793 3.73972,0.66568 5.83265,0.36348 z m 23.34944,-0.14355 c 1.77599,-0.33338 4.07504,-1.85575 5.16096,-3.41745 l 0.47689,-0.68584 0.0943,-5.9855 c 0.0518,-3.29203 0.0341,-6.26103 -0.0394,-6.5978 -0.17843,-0.81758 -1.22228,-2.28649 -2.09467,-2.94764 -1.82338,-1.38186 -3.91526,-1.90949 -7.31213,-1.84432 -2.11256,0.0405 -2.25768,0.061 -3.57118,0.50366 -2.01961,0.68063 -3.51393,1.80544 -4.4146,3.32295 -0.41673,0.70212 -0.41829,0.72863 -0.41829,7.07382 v 6.36905 l 0.76534,1.05047 c 1.09881,1.50816 1.75431,1.97224 3.75817,2.66068 2.39221,0.82186 4.96897,0.9908 7.59462,0.49792 z m -4.90458,-3.45831 c -0.52386,-0.18847 -0.99487,-0.49715 -1.34321,-0.88029 -0.69883,-0.76862 -0.81245,-1.76652 -0.82614,-7.25553 -0.0116,-4.65649 0.0345,-4.86525 1.28913,-5.83622 0.85486,-0.66158 1.66654,-0.87562 3.02867,-0.79867 0.82058,0.0463 1.10474,0.12968 1.6433,0.4819 0.35813,0.23422 0.87032,0.70642 1.13819,1.04934 l 0.48705,0.62349 -0.0279,5.44218 c -0.0308,6.01165 -0.011,5.90294 -1.22741,6.72904 -1.16023,0.78793 -2.73892,0.95664 -4.16171,0.44476 z m 89.44311,3.46383 c 1.69632,-0.30099 2.58489,-0.66556 3.85158,-1.58027 2.31957,-1.67503 2.66629,-2.5314 2.59889,-6.41921 l -0.0492,-2.83893 -0.64068,-0.0644 c -0.35237,-0.0354 -2.20577,-0.0363 -4.11865,-0.002 l -3.47798,0.0624 -0.0524,1.29112 c -0.0343,0.84498 0.0209,1.35128 0.1597,1.4652 0.13195,0.10831 0.57327,0.17408 1.16807,0.17408 1.41104,0 1.59518,0.19068 1.59518,1.65184 0,1.35928 -0.41367,2.143 -1.40228,2.65668 -0.49428,0.25682 -0.79132,0.3053 -1.87037,0.3053 -1.53638,0 -2.32392,-0.289 -2.89285,-1.06157 -0.3504,-0.47583 -0.36611,-0.746 -0.36611,-6.29901 v -5.80187 l 0.46258,-0.62008 c 0.57726,-0.7738 1.61932,-1.18122 3.02124,-1.18122 0.80913,0 1.03882,0.0605 1.70565,0.44934 0.95319,0.5558 1.28693,1.08205 1.43306,2.2597 0.0625,0.50355 0.19121,0.94821 0.28607,0.98815 0.0949,0.0399 1.27694,0.0323 2.62686,-0.0169 l 2.45441,-0.0896 v -0.6918 c 0,-0.91499 -0.49545,-2.55355 -1.01521,-3.35756 -0.49499,-0.76569 -1.69242,-1.68746 -2.72681,-2.09907 -0.69384,-0.27609 -0.99704,-0.30134 -4.605,-0.38342 -3.81398,-0.0868 -3.87302,-0.0842 -4.72397,0.20531 -1.01894,0.34666 -2.85903,1.44973 -3.38444,2.02885 -0.88178,0.97193 -0.93689,1.45593 -0.93937,8.24964 -0.003,7.10385 0.007,7.1732 1.21097,8.3654 1.22695,1.2154 2.79795,1.98763 4.81395,2.36633 1.18517,0.22262 3.58708,0.21654 4.8771,-0.0124 z m -69.14404,-0.33047 c 0.16507,-0.11245 0.21966,-1.72179 0.21966,-6.47617 0,-3.92816 0.0696,-6.45123 0.18358,-6.65547 0.11459,-0.20531 0.29686,-0.31381 0.48498,-0.28869 0.22439,0.03 0.42816,0.42259 0.79747,1.53662 0.27284,0.82301 0.79964,2.33809 1.17066,3.36685 0.37102,1.02876 1.16563,3.27332 1.76579,4.98791 0.60017,1.7146 1.16571,3.2353 1.25677,3.37935 0.14711,0.23271 0.29303,0.25758 1.30959,0.22319 0.62922,-0.0213 1.20855,-0.083 1.2874,-0.13719 0.16224,-0.11148 1.13383,-2.88336 2.74445,-7.82977 1.67197,-5.13484 1.78292,-5.35304 2.61175,-5.13638 0.27186,0.0711 0.29946,0.66816 0.29946,6.4792 0,4.81223 0.0545,6.43806 0.21966,6.55055 0.26627,0.18139 4.64546,0.211 4.80739,0.0325 0.15091,-0.16634 0.27294,-19.77936 0.12729,-20.45802 l -0.12043,-0.56114 h -3.83717 -3.83718 l -0.22034,0.31174 c -0.12119,0.17146 -0.93306,2.58436 -1.80415,5.36201 -0.87109,2.77765 -1.63996,5.18474 -1.7086,5.34909 -0.17905,0.42877 -0.68705,0.62042 -1.02017,0.3849 -0.14386,-0.10171 -0.64371,-1.41944 -1.11076,-2.92829 -0.46706,-1.50884 -0.96318,-3.05198 -1.10249,-3.42919 -0.13931,-0.37721 -0.50696,-1.55561 -0.81699,-2.61865 -0.31003,-1.06305 -0.64428,-2.06059 -0.74278,-2.21674 -0.17886,-0.28355 -0.18421,-0.2839 -4.03877,-0.26377 -3.74874,0.0196 -3.86383,0.0277 -4.00455,0.28392 -0.1906,0.34699 -0.1453,20.54306 0.0465,20.7454 0.20315,0.21428 4.71833,0.21987 5.03195,0.006 z m 29.77738,0.0305 c 0.11619,-0.12806 0.18978,-20.8113 0.0743,-20.88229 -0.0381,-0.0234 -1.26364,-0.0633 -2.72347,-0.0887 l -2.65425,-0.0462 -0.0395,10.28757 c -0.0217,5.65817 4.6e-4,10.41384 0.0493,10.56815 0.0868,0.27463 0.14265,0.28057 2.63714,0.28057 1.4218,0 2.5962,-0.0526 2.65649,-0.11911 z m 23.28656,-0.15202 0.42366,-0.27113 v -10.25782 -10.25782 l -1.9678,-0.0392 c -1.08229,-0.0216 -2.30539,-0.0202 -2.718,0.003 l -0.75021,0.0422 -0.0299,3.94811 c -0.0165,2.17145 -0.082,4.61 -0.14571,5.41898 -0.19037,2.41834 -0.40346,2.19187 -3.6595,-3.88917 -0.85906,-1.60439 -1.89255,-3.49824 -2.29665,-4.20855 l -0.73473,-1.29148 h -3.06288 -3.06289 l -0.11582,9.77171 c -0.0637,5.37444 -0.0657,10.05996 -0.004,10.41227 l 0.11137,0.64058 h 2.72027 2.72028 v -5.60405 c 0,-3.63466 0.0649,-5.63137 0.18469,-5.6818 0.40651,-0.17115 0.87228,0.10096 1.33744,0.78137 0.41591,0.60837 4.72139,7.97495 5.82683,9.96958 l 0.36009,0.64974 1.49972,0.0419 c 0.82485,0.0231 1.82392,0.0533 2.22014,0.0673 0.52322,0.0184 0.83637,-0.0488 1.14407,-0.24575 z m -58.2666,-32.7778 9.48377,-6.47045 -8.20871,-0.0361 c -4.51479,-0.0199 -8.30772,0.0106 -8.42874,0.0677 -0.12102,0.0571 -0.40932,0.0612 -0.64068,0.009 -0.23136,-0.0521 -0.70895,-0.081 -1.06133,-0.0644 -0.58227,0.0275 -1.50429,0.61778 -10.11436,6.4751 l -9.47368,6.44483 8.1008,0.0624 c 4.45543,0.0343 8.72142,0.0443 9.47997,0.0223 l 1.37919,-0.0401 z m 35.93784,3.60603 c 2.36523,-1.60391 6.53168,-4.51546 9.25879,-6.4701 l 4.95838,-3.55389 -8.1341,-0.0623 c -4.47376,-0.0343 -8.22494,-0.10263 -8.33595,-0.15187 -0.11102,-0.0492 -0.35814,-0.009 -0.54916,0.0896 -0.19102,0.0985 -0.63561,0.1797 -0.98798,0.18044 -0.60187,0.001 -1.20767,0.39015 -10.00069,6.41969 -5.14801,3.53008 -9.30785,6.45605 -9.2441,6.50216 0.0638,0.0461 4.30508,0.0566 9.42516,0.0232 l 9.30924,-0.0606 z m -77.37667,-3.60892 9.6102,-6.47933 -6.58985,0.0321 -6.58985,0.0321 -1.14934,0.32988 c -2.87949,0.82644 -5.51907,2.36718 -6.59154,3.8475 -1.11861,1.54403 -1.32017,2.42283 -1.32017,5.75605 v 2.97281 l 1.51018,-0.006 1.51017,-0.006 z m 121.87542,1.59067 7.192,-4.9005 -1.16219,-0.76024 c -1.43732,-0.94021 -3.08514,-1.67572 -4.57936,-2.04402 -1.00432,-0.24755 -1.57224,-0.28652 -4.80011,-0.32938 l -3.66103,-0.0486 -9.59499,6.49163 -9.59499,6.49163 h 9.50433 9.50434 z"
         id="path6" />
      <path
         style="fill:#000000;fill-opacity:1"
         d="m 452.40161,545.51831 c -4.06611,-0.50607 -7.24386,-1.6115 -10.16196,-3.53498 -1.71781,-1.13231 -2.62137,-1.91288 -3.68226,-3.18105 -0.50073,-0.59856 -1.06788,-1.08689 -1.52338,-1.31167 -0.91096,-0.44953 -1.35184,-1.15953 -1.31055,-2.11054 0.0168,-0.38752 -0.0773,-0.93644 -0.20927,-1.21982 -0.19762,-0.42446 -0.20014,-5.30118 -0.0143,-27.68293 0.12405,-14.94224 0.31061,-28.59862 0.41458,-30.34751 0.10397,-1.74888 0.22197,-5.00802 0.26222,-7.24252 0.0684,-3.7946 0.10242,-4.14124 0.51613,-5.25223 0.89208,-2.39563 2.6903,-4.37025 5.83485,-6.40721 2.07038,-1.34115 4.06108,-2.17895 6.56508,-2.76297 3.55437,-0.82901 -1.3562,-0.77157 66.36318,-0.77634 41.83794,-0.003 62.1821,0.0375 63.15272,0.1257 6.35296,0.57698 12.5351,3.91504 15.08428,8.14476 1.40145,2.32536 1.29105,-0.90624 1.29345,37.86342 l 0.002,34.72837 -0.55578,1.35815 c -1.03269,2.52353 -2.59405,4.31266 -5.33374,6.11181 -0.89163,0.58553 -2.05894,1.2551 -2.59403,1.48794 -2.55353,1.11115 -5.41343,1.8478 -8.04705,2.07276 -1.02881,0.0879 -21.4166,0.12544 -63.12124,0.11631 -50.42273,-0.011 -61.84357,-0.0436 -62.93504,-0.17945 z m 28.36034,-11.47747 c 5.3212,-3.61353 9.67491,-6.5969 9.67491,-6.62972 0,-0.0328 -3.74481,-0.0204 -8.3218,0.0276 -4.57699,0.048 -8.41012,0.0501 -8.51806,0.005 -0.10795,-0.0454 -0.71021,-0.10512 -1.33836,-0.1326 l -1.1421,-0.05 -9.68276,6.59696 -9.68277,6.59695 0.71745,0.0803 c 0.3946,0.0441 0.8347,0.0906 0.978,0.10313 0.14331,0.0126 4.17106,0.0116 8.95057,-0.002 l 8.69001,-0.025 z m 51.05273,0.0711 c 5.21069,-3.59931 9.43794,-6.56967 9.39389,-6.6008 -0.044,-0.0311 -6.35798,-0.0592 -14.03095,-0.0624 l -13.95086,-0.006 -9.42715,6.42194 c -5.18493,3.53207 -9.5231,6.50611 -9.64038,6.60899 -0.18914,0.16591 1.39115,0.18677 13.98411,0.18461 l 14.19735,-0.002 z m 43.84394,-1.33807 11.59557,-7.94949 0.008,-6.53558 0.008,-6.53558 -13.67946,9.40363 c -7.5237,5.172 -16.99416,11.6597 -21.04545,14.41711 l -7.36599,5.01348 1.23014,0.0435 c 0.67658,0.0239 4.92524,0.0545 9.44146,0.068 l 8.21132,0.0244 z m -112.08899,-21.7216 c 0.0459,-4.48635 0.11834,-6.02669 0.29764,-6.32663 0.13036,-0.21806 0.21038,-0.53397 0.17784,-0.70202 -0.0509,-0.26275 -1.48872,0.67802 -10.26428,6.71587 l -10.20512,7.02142 v 6.39936 6.39936 l 9.96664,-6.7886 9.96663,-6.78859 z m 21.24622,12.17384 c 4.23047,-1.04607 6.49909,-4.4451 4.90582,-7.3503 -1.20021,-2.18849 -2.77073,-3.23611 -7.43059,-4.95657 -1.95422,-0.72151 -3.50161,-1.55877 -4.04216,-2.18711 -0.51244,-0.59567 -0.60251,-1.67389 -0.19529,-2.33782 0.39777,-0.64852 1.41213,-1.17042 2.46685,-1.26924 1.07682,-0.10089 1.45451,0.006 2.5422,0.71915 0.60776,0.3985 0.81459,0.64697 0.974,1.17007 l 0.20239,0.66413 h 2.45822 2.45821 v -0.66321 c 0,-2.15797 -2.46419,-4.34965 -5.36776,-4.77415 -2.51838,-0.36819 -6.34129,-0.12628 -7.74896,0.49034 -1.17824,0.51613 -2.57659,1.59377 -3.10218,2.39071 -0.9556,1.44896 -0.79827,3.5497 0.39322,5.25046 0.85014,1.2135 2.33404,2.13297 4.9819,3.0869 1.11565,0.40194 2.77471,1.06344 3.68678,1.47002 2.15541,0.96082 2.61557,1.45245 2.72825,2.9148 l 0.0789,1.02354 -0.70811,0.53456 c -0.87777,0.66262 -1.58464,0.8711 -2.94461,0.86846 -2.10417,-0.004 -3.23167,-0.76145 -3.44528,-2.31427 -0.0752,-0.54686 -0.2398,-1.01391 -0.39437,-1.1192 -0.20111,-0.137 -0.73811,-0.17771 -2.22,-0.16828 -2.84275,0.0181 -2.85854,0.0232 -2.92415,0.95023 -0.10696,1.51155 0.91125,3.24681 2.66073,4.53447 1.59197,1.17173 3.13667,1.50612 6.5699,1.42222 1.73446,-0.0424 2.48223,-0.11899 3.41613,-0.34991 z m 21.97563,-0.12576 c 2.35483,-0.79281 3.84073,-1.99694 4.76758,-3.86349 0.25565,-0.51486 0.29773,-1.31684 0.29772,-5.67376 -2e-5,-6.12647 -0.13213,-7.3179 -0.93094,-8.39589 -1.55076,-2.09272 -4.86031,-3.25178 -8.75828,-3.06729 -3.35202,0.15865 -6.17038,1.47338 -7.56002,3.52666 -0.41506,0.61329 -0.41851,0.66287 -0.47047,6.76982 -0.0583,6.85008 -0.0382,6.99779 1.15102,8.44636 1.55053,1.88876 4.31986,2.82695 8.15853,2.76396 1.82744,-0.03 2.01363,-0.0582 3.34486,-0.50637 z m -5.29167,-3.00358 c -0.79932,-0.23714 -1.83774,-1.11659 -2.0744,-1.75685 -0.26356,-0.71303 -0.27065,-9.67262 -0.009,-10.7862 0.23912,-1.01591 0.82387,-1.63648 1.86573,-1.98006 1.84363,-0.60798 3.96663,-0.11235 4.94321,1.15403 0.38811,0.50328 0.39675,0.6263 0.40384,5.7516 0.008,5.61949 -0.0263,5.86607 -0.94158,6.80822 -0.82998,0.85438 -2.77161,1.22954 -4.18827,0.80926 z m 26.78904,3.16521 c 1.10319,-0.2621 3.05682,-1.16949 3.78209,-1.75665 0.63643,-0.51524 1.44787,-1.61684 1.82004,-2.47086 0.42802,-0.98218 0.44036,-11.1733 0.0149,-12.28611 -0.64294,-1.68154 -2.41653,-3.28208 -4.35609,-3.93108 -1.79296,-0.59994 -3.53924,-0.79938 -5.52297,-0.63078 -3.61125,0.30693 -6.1976,1.78999 -7.26808,4.16762 -0.3863,0.85802 -0.39997,1.08482 -0.40673,6.74866 -0.007,5.82982 -0.005,5.86458 0.41386,6.57601 0.99953,1.69865 2.70999,2.89739 4.95099,3.46978 2.04333,0.52191 4.66233,0.56711 6.57202,0.11341 z m -4.06331,-3.11918 c -0.77052,-0.15697 -1.85384,-0.93071 -2.30635,-1.64728 -0.38263,-0.60591 -0.38987,-0.73514 -0.329,-5.87419 0.0558,-4.7156 0.0957,-5.30565 0.38866,-5.75175 0.67773,-1.03206 1.63024,-1.43573 3.38787,-1.43573 1.44006,0 2.14539,0.32175 2.87025,1.30933 l 0.54915,0.74819 0.11698,5.11261 c 0.10868,4.75053 0.0934,5.15509 -0.21534,5.7123 -0.88019,1.58838 -2.45895,2.23461 -4.46222,1.82652 z m 19.76557,-2.05211 c 0.01,-4.28018 0.0619,-5.35125 0.28653,-5.8608 0.39674,-0.90008 0.80216,-0.84578 1.39667,0.18705 0.25661,0.44579 1.15947,1.95714 2.00637,3.35855 0.8469,1.40141 1.93964,3.26029 2.42831,4.13084 0.48868,0.87056 1.14992,2.0106 1.46942,2.53342 l 0.58093,0.9506 h 2.4175 c 1.63621,0 2.48849,-0.0484 2.63716,-0.14963 0.31819,-0.21676 0.31819,-20.55792 0,-20.77468 -0.32578,-0.22192 -4.79155,-0.2066 -5.06443,0.0174 -0.14059,0.11541 -0.21823,1.82054 -0.25122,5.51789 l -0.0478,5.35086 -0.39845,0.0387 c -0.55124,0.0535 -0.34247,0.39311 -4.85264,-7.89462 -0.70914,-1.30309 -1.4448,-2.54443 -1.63481,-2.75852 l -0.34546,-0.38927 -2.79112,0.0152 c -1.53512,0.008 -2.88994,0.0588 -3.01071,0.11218 -0.16791,0.0742 -0.21809,2.50716 -0.21318,10.33631 0.004,5.63162 0.0502,10.31708 0.10377,10.41213 0.0779,0.13834 0.61359,0.16594 2.68437,0.13831 l 2.58702,-0.0345 z m 43.23654,-27.98331 -0.0481,-6.41057 -2.41202,1.58301 -2.41202,1.58301 -0.0723,4.01702 c -0.0694,3.85373 -0.0911,4.06012 -0.53337,5.07696 -0.25356,0.58296 -0.59294,1.23323 -0.75418,1.44503 -0.74403,0.97735 -2.62863,2.4256 -6.07079,4.66517 -2.05553,1.33739 -5.88464,3.9263 -8.50913,5.75314 l -4.77181,3.32152 v 1.41064 1.41064 l 12.81597,-8.7225 12.81597,-8.7225 z m -136.73231,7.01269 c 0.0377,-0.0118 -0.0994,-0.1801 -0.30465,-0.37409 -0.22419,-0.21187 -0.51943,-0.8779 -0.73935,-1.66787 -0.31588,-1.13465 -0.36787,-1.86091 -0.37885,-5.29181 -0.007,-2.18717 -0.0524,-4.00371 -0.1009,-4.03675 -0.0485,-0.0331 -1.28242,0.74652 -2.74203,1.73236 l -2.65385,1.79243 v 6.2392 6.2392 l 3.42554,-2.30565 c 1.88404,-1.26811 3.45639,-2.31527 3.49409,-2.32702 z m 13.60848,1.52486 c 1.59886,-0.23085 2.5761,-0.58344 3.65597,-1.31907 1.90486,-1.29762 2.77957,-2.74102 2.68698,-4.43387 l -0.054,-0.98786 h -2.46973 -2.46973 l -0.20818,1.15237 c -0.24403,1.35078 -0.53337,1.71125 -1.64164,2.04521 -0.65389,0.19704 -1.02302,0.22737 -1.92284,0.15802 -1.79632,-0.13844 -2.41345,-0.61715 -2.96916,-2.30319 -0.22023,-0.66818 -0.24151,-1.64055 -0.12676,-5.79093 0.0985,-3.56387 0.20616,-5.12278 0.37699,-5.46028 0.1315,-0.2598 0.59315,-0.69469 1.02588,-0.96641 0.74893,-0.47027 0.84423,-0.49405 1.98019,-0.49405 1.12176,0 1.23906,0.0281 1.95411,0.46762 0.93516,0.57485 1.21493,1.01121 1.36809,2.13385 l 0.11889,0.87136 0.84448,0.0692 c 1.27461,0.10446 3.85632,0.005 4.0951,-0.15748 0.13283,-0.0905 0.19406,-0.5234 0.16572,-1.17171 -0.0614,-1.4049 -0.57412,-2.42013 -1.67897,-3.32452 -1.82377,-1.49288 -3.48563,-2.10668 -6.00482,-2.21786 -4.65102,-0.20527 -8.13241,1.40714 -9.47738,4.38947 -0.31052,0.68853 -0.33292,1.19517 -0.28099,6.35379 0.063,6.25514 0.15238,6.79393 1.35287,8.15261 0.74953,0.84828 2.61108,2.04384 3.84631,2.47024 1.52935,0.52793 3.73972,0.66568 5.83265,0.36348 z m 23.34944,-0.14355 c 1.77599,-0.33338 4.07504,-1.85575 5.16096,-3.41745 l 0.47689,-0.68584 0.0943,-5.9855 c 0.0518,-3.29203 0.0341,-6.26103 -0.0394,-6.5978 -0.17843,-0.81758 -1.22228,-2.28649 -2.09467,-2.94764 -1.82338,-1.38186 -3.91526,-1.90949 -7.31213,-1.84432 -2.11256,0.0405 -2.25768,0.061 -3.57118,0.50366 -2.01961,0.68063 -3.51393,1.80544 -4.4146,3.32295 -0.41673,0.70212 -0.41829,0.72863 -0.41829,7.07382 v 6.36905 l 0.76534,1.05047 c 1.09881,1.50816 1.75431,1.97224 3.75817,2.66068 2.39221,0.82186 4.96897,0.9908 7.59462,0.49792 z m -4.84715,-3.48942 c -0.81951,-0.2782 -1.02198,-0.42557 -1.50729,-1.09711 l -0.56061,-0.77575 -0.0388,-5.29983 -0.0388,-5.29982 0.54916,-0.72977 c 0.77267,-1.0268 1.63975,-1.47263 2.99381,-1.53935 1.6615,-0.0819 2.47197,0.31514 3.51186,1.72032 0.4139,0.55928 0.41515,0.57842 0.37854,5.79845 -0.0202,2.88052 -0.11326,5.43371 -0.20679,5.67375 -0.37817,0.97052 -2.04038,1.86166 -3.48384,1.86773 -0.35778,0.002 -1.07651,-0.14187 -1.59719,-0.31862 z m 89.38568,3.49494 c 1.69632,-0.30099 2.58489,-0.66556 3.85158,-1.58027 2.31957,-1.67503 2.66629,-2.5314 2.59889,-6.41921 l -0.0492,-2.83893 -0.64068,-0.0644 c -0.35237,-0.0354 -2.20577,-0.0363 -4.11865,-0.002 l -3.47798,0.0624 -0.0524,1.29112 c -0.0343,0.84498 0.0209,1.35128 0.1597,1.4652 0.13195,0.10831 0.57327,0.17408 1.16807,0.17408 1.41104,0 1.59518,0.19068 1.59518,1.65184 0,1.35928 -0.41367,2.143 -1.40228,2.65668 -0.49428,0.25682 -0.79132,0.3053 -1.87037,0.3053 -1.53638,0 -2.32392,-0.289 -2.89285,-1.06157 -0.3504,-0.47583 -0.36611,-0.746 -0.36611,-6.29901 v -5.80187 l 0.46258,-0.62008 c 0.57726,-0.7738 1.61932,-1.18122 3.02124,-1.18122 0.80913,0 1.03882,0.0605 1.70565,0.44934 0.95319,0.5558 1.28693,1.08205 1.43306,2.2597 0.0625,0.50355 0.19121,0.94821 0.28607,0.98815 0.0949,0.0399 1.27694,0.0323 2.62686,-0.0169 l 2.45441,-0.0896 v -0.6918 c 0,-0.91499 -0.49545,-2.55355 -1.01521,-3.35756 -0.52568,-0.81315 -1.72632,-1.70753 -2.91666,-2.17265 l -0.91899,-0.35909 -3.73251,-10e-4 c -4.31302,-0.001 -4.5201,0.0377 -6.42491,1.21196 -2.39127,1.47414 -2.38365,1.44437 -2.38652,9.32227 -0.003,7.10385 0.007,7.1732 1.21097,8.3654 1.22695,1.2154 2.79795,1.98763 4.81395,2.36633 1.18517,0.22262 3.58708,0.21654 4.8771,-0.0124 z m -69.14404,-0.33047 c 0.16507,-0.11245 0.21966,-1.72179 0.21966,-6.47617 0,-3.92816 0.0696,-6.45123 0.18358,-6.65547 0.11459,-0.20531 0.29686,-0.31381 0.48498,-0.28869 0.22439,0.03 0.42816,0.42259 0.79747,1.53662 0.27284,0.82301 0.79964,2.33809 1.17066,3.36685 0.37102,1.02876 1.16563,3.27332 1.76579,4.98791 0.60017,1.7146 1.16571,3.2353 1.25677,3.37935 0.14711,0.23271 0.29303,0.25758 1.30959,0.22319 0.62922,-0.0213 1.20855,-0.083 1.2874,-0.13719 0.16224,-0.11148 1.13383,-2.88336 2.74445,-7.82977 1.67197,-5.13484 1.78292,-5.35304 2.61175,-5.13638 0.27186,0.0711 0.29946,0.66816 0.29946,6.4792 0,4.81223 0.0545,6.43806 0.21966,6.55055 0.26627,0.18139 4.64546,0.211 4.80739,0.0325 0.15091,-0.16634 0.27294,-19.77936 0.12729,-20.45802 l -0.12043,-0.56114 h -3.83717 -3.83718 l -0.22034,0.31174 c -0.12119,0.17146 -0.93306,2.58436 -1.80415,5.36201 -0.87109,2.77765 -1.63996,5.18474 -1.7086,5.34909 -0.17905,0.42877 -0.68705,0.62042 -1.02017,0.3849 -0.14386,-0.10171 -0.64371,-1.41944 -1.11076,-2.92829 -0.46706,-1.50884 -0.96318,-3.05198 -1.10249,-3.42919 -0.13931,-0.37721 -0.50696,-1.55561 -0.81699,-2.61865 -0.31003,-1.06305 -0.64428,-2.06059 -0.74278,-2.21674 -0.17886,-0.28355 -0.18421,-0.2839 -4.03877,-0.26377 -3.74874,0.0196 -3.86383,0.0277 -4.00455,0.28392 -0.1906,0.34699 -0.1453,20.54306 0.0465,20.7454 0.20315,0.21428 4.71833,0.21987 5.03195,0.006 z m 29.88075,-5.89821 c 0.0541,-3.29202 0.062,-8.0114 0.0177,-10.4875 l -0.0806,-4.50201 -2.547,-0.0828 c -1.40085,-0.0455 -2.61641,-0.0536 -2.70125,-0.0179 -0.16261,0.0685 -0.23115,20.54195 -0.07,20.92322 0.085,0.20105 0.3341,0.21838 2.68821,0.18704 l 2.59458,-0.0345 z m 23.18319,5.77672 0.42366,-0.27113 v -10.25205 -10.25205 l -2.02846,-0.0473 c -1.11565,-0.026 -2.33904,-0.0271 -2.71865,-0.002 -0.60833,0.0395 -0.69034,0.0842 -0.69134,0.37642 -6.3e-4,0.18237 -0.0675,2.62058 -0.14854,5.41824 -0.13166,4.54382 -0.17838,5.08266 -0.43783,5.04915 -0.33729,-0.0436 -1.01572,-1.15571 -3.24632,-5.32162 -0.85906,-1.60439 -1.89255,-3.49824 -2.29665,-4.20855 l -0.73473,-1.29148 h -3.06273 -3.06274 l -0.11455,9.88231 c -0.063,5.43527 -0.0657,10.1208 -0.006,10.41228 l 0.10855,0.52997 h 2.72167 2.72167 v -5.60405 c 0,-3.63466 0.0649,-5.63137 0.18469,-5.6818 0.38805,-0.16338 0.86858,0.089 1.25145,0.65727 0.21877,0.32472 1.70815,2.86301 3.30974,5.64066 l 2.91197,5.05027 1.4338,0.0707 c 2.87111,0.14149 3.02945,0.13445 3.48133,-0.15474 z m -58.2666,-32.7778 9.48377,-6.47045 -8.20871,-0.0361 c -4.51479,-0.0199 -8.30772,0.0106 -8.42874,0.0677 -0.12102,0.0571 -0.40932,0.0612 -0.64068,0.009 -0.23136,-0.0521 -0.70895,-0.081 -1.06133,-0.0644 -0.58227,0.0275 -1.50429,0.61778 -10.11436,6.4751 l -9.47368,6.44483 8.1008,0.0624 c 4.45543,0.0343 8.72142,0.0443 9.47997,0.0223 l 1.37919,-0.0401 z m 37.72153,2.35903 c 3.34227,-2.28974 7.50664,-5.20128 9.25416,-6.47008 l 3.17731,-2.30691 -8.1331,-0.0623 c -4.4732,-0.0343 -8.22393,-0.10263 -8.33494,-0.15187 -0.11102,-0.0492 -0.35814,-0.009 -0.54916,0.0896 -0.19102,0.0985 -0.63561,0.1797 -0.98798,0.18044 -0.60187,10e-4 -1.20767,0.39015 -10.00069,6.41969 -5.14801,3.53008 -9.30785,6.45605 -9.2441,6.50216 0.0638,0.0461 4.30671,0.0565 9.42878,0.0232 l 9.31286,-0.0607 z m -79.16036,-2.36192 9.6102,-6.47933 -6.58985,0.0321 -6.58985,0.0321 -1.14934,0.32988 c -2.87949,0.82644 -5.51907,2.36718 -6.59154,3.8475 -1.11861,1.54403 -1.32017,2.42283 -1.32017,5.75605 v 2.97281 l 1.51018,-0.006 1.51017,-0.006 z m 121.87542,1.59067 7.192,-4.9005 -1.16219,-0.76024 c -1.43732,-0.94021 -3.08514,-1.67572 -4.57936,-2.04402 -1.00195,-0.24697 -1.58014,-0.28703 -4.80258,-0.33272 l -3.66349,-0.0519 -9.58601,6.49496 -9.58601,6.49496 h 9.49782 9.49782 z"
         id="path5" />
      <path
         style="fill:#000000;fill-opacity:1"
         d="m 452.40161,545.51831 c -4.06611,-0.50607 -7.24386,-1.6115 -10.16196,-3.53498 -1.71781,-1.13231 -2.62137,-1.91288 -3.68226,-3.18105 -0.50416,-0.60267 -1.06733,-1.08662 -1.5304,-1.31513 -0.94171,-0.46471 -1.41891,-1.25312 -1.24277,-2.05327 0.0872,-0.3962 0.0304,-0.74013 -0.1931,-1.1688 -0.29914,-0.57375 -0.30426,-2.10569 -0.0925,-27.65674 0.12332,-14.87713 0.31056,-28.53636 0.4161,-30.35383 0.10553,-1.81747 0.2241,-5.13272 0.26348,-7.36722 0.0669,-3.79669 0.10061,-4.14063 0.51455,-5.25223 0.89208,-2.39563 2.6903,-4.37025 5.83485,-6.40721 2.07038,-1.34115 4.06108,-2.17895 6.56508,-2.76297 3.55437,-0.82901 -1.3562,-0.77157 66.36318,-0.77634 41.83794,-0.003 62.1821,0.0375 63.15272,0.1257 6.35296,0.57698 12.5351,3.91504 15.08428,8.14476 1.40145,2.32536 1.29105,-0.90624 1.29345,37.86342 l 0.002,34.72837 -0.55578,1.35815 c -1.03269,2.52353 -2.59405,4.31266 -5.33374,6.11181 -0.89163,0.58553 -2.05894,1.2551 -2.59403,1.48794 -2.55353,1.11115 -5.41343,1.8478 -8.04705,2.07276 -1.02881,0.0879 -21.4166,0.12544 -63.12124,0.11631 -50.42273,-0.011 -61.84357,-0.0436 -62.93504,-0.17945 z m 28.33886,-11.46288 c 5.33302,-3.62156 9.69639,-6.61149 9.69639,-6.64431 0,-0.0328 -3.74481,-0.0204 -8.3218,0.0276 -4.57699,0.048 -8.41012,0.0501 -8.51806,0.005 -0.10795,-0.0454 -0.71021,-0.10512 -1.33836,-0.1326 l -1.1421,-0.05 -9.68276,6.59696 -9.68277,6.59695 0.71745,0.0803 c 0.3946,0.0441 0.84101,0.0921 0.99203,0.10653 0.15102,0.0145 4.1691,0.02 8.92908,0.0124 l 8.6545,-0.0139 z m 51.07421,0.0565 c 5.21069,-3.59931 9.43794,-6.56967 9.39389,-6.6008 -0.044,-0.0311 -6.35798,-0.0592 -14.03095,-0.0624 l -13.95086,-0.006 -9.42715,6.42194 c -5.18493,3.53207 -9.5231,6.50611 -9.64038,6.60899 -0.18914,0.16591 1.39115,0.18677 13.98411,0.18461 l 14.19735,-0.002 z m 43.84394,-1.33807 11.59557,-7.94949 0.008,-6.53558 0.008,-6.53558 -13.67946,9.40363 c -7.5237,5.172 -16.99416,11.6597 -21.04545,14.41711 l -7.36599,5.01348 1.23014,0.0435 c 0.67658,0.0239 4.92524,0.0545 9.44146,0.068 l 8.21132,0.0244 z m -112.08899,-21.7216 c 0.0459,-4.48635 0.11834,-6.02669 0.29764,-6.32663 0.13036,-0.21806 0.21038,-0.53397 0.17784,-0.70202 -0.0509,-0.26275 -1.48872,0.67802 -10.26428,6.71587 l -10.20512,7.02142 v 6.39936 6.39936 l 9.96664,-6.7886 9.96663,-6.78859 z m 21.24622,12.17384 c 4.23047,-1.04607 6.49909,-4.4451 4.90582,-7.3503 -1.20021,-2.18849 -2.77073,-3.23611 -7.43059,-4.95657 -1.95422,-0.72151 -3.50161,-1.55877 -4.04216,-2.18711 -0.51244,-0.59567 -0.60251,-1.67389 -0.19529,-2.33782 0.39777,-0.64852 1.41213,-1.17042 2.46685,-1.26924 1.07682,-0.10089 1.45451,0.006 2.5422,0.71915 0.60776,0.3985 0.81459,0.64697 0.974,1.17007 l 0.20239,0.66413 h 2.45822 2.45821 v -0.66321 c 0,-2.15797 -2.46419,-4.34965 -5.36776,-4.77415 -2.51838,-0.36819 -6.34129,-0.12628 -7.74896,0.49034 -1.17824,0.51613 -2.57659,1.59377 -3.10218,2.39071 -0.9556,1.44896 -0.79827,3.5497 0.39322,5.25046 0.85014,1.2135 2.33404,2.13297 4.9819,3.0869 1.11565,0.40194 2.77471,1.06344 3.68678,1.47002 2.15541,0.96082 2.61557,1.45245 2.72825,2.9148 l 0.0789,1.02354 -0.70811,0.53456 c -0.87777,0.66262 -1.58464,0.8711 -2.94461,0.86846 -2.10417,-0.004 -3.23167,-0.76145 -3.44528,-2.31427 -0.0752,-0.54686 -0.2398,-1.01391 -0.39437,-1.1192 -0.20111,-0.137 -0.73811,-0.17771 -2.22,-0.16828 -2.84275,0.0181 -2.85854,0.0232 -2.92415,0.95023 -0.10696,1.51155 0.91125,3.24681 2.66073,4.53447 1.59197,1.17173 3.13667,1.50612 6.5699,1.42222 1.73446,-0.0424 2.48223,-0.11899 3.41613,-0.34991 z m 21.97563,-0.12576 c 2.35483,-0.79281 3.84073,-1.99694 4.76758,-3.86349 0.25565,-0.51486 0.29773,-1.31684 0.29772,-5.67376 -2e-5,-6.12647 -0.13213,-7.3179 -0.93094,-8.39589 -1.55076,-2.09272 -4.86031,-3.25178 -8.75828,-3.06729 -3.35202,0.15865 -6.17038,1.47338 -7.56002,3.52666 -0.41506,0.61329 -0.41851,0.66287 -0.47047,6.76982 -0.0583,6.85008 -0.0382,6.99779 1.15102,8.44636 1.55053,1.88876 4.31986,2.82695 8.15853,2.76396 1.82744,-0.03 2.01363,-0.0582 3.34486,-0.50637 z m -5.28001,-3.05741 c -1.06306,-0.44337 -1.87385,-1.19347 -2.10309,-1.94568 -0.29591,-0.97099 -0.15134,-10.26382 0.17107,-10.99669 0.70965,-1.6131 3.23381,-2.22003 5.37883,-1.29335 1.4415,0.62275 1.47088,0.72288 1.6285,5.54978 0.18737,5.73821 0.0379,6.96323 -0.9644,7.90582 -0.9854,0.92666 -2.89201,1.28848 -4.11091,0.78012 z m 26.77738,3.21904 c 1.10319,-0.2621 3.05682,-1.16949 3.78209,-1.75665 0.63643,-0.51524 1.44787,-1.61684 1.82004,-2.47086 0.42802,-0.98218 0.44036,-11.1733 0.0149,-12.28611 -0.64294,-1.68154 -2.41653,-3.28208 -4.35609,-3.93108 -1.79296,-0.59994 -3.53924,-0.79938 -5.52297,-0.63078 -3.61125,0.30693 -6.1976,1.78999 -7.26808,4.16762 -0.3863,0.85802 -0.39997,1.08482 -0.40673,6.74866 -0.007,5.82982 -0.005,5.86458 0.41386,6.57601 0.99953,1.69865 2.70999,2.89739 4.95099,3.46978 2.04333,0.52191 4.66233,0.56711 6.57202,0.11341 z m -4.32671,-3.25796 c -0.93132,-0.31404 -1.93465,-1.187 -2.20616,-1.91949 -0.22541,-0.60813 -0.23361,-8.36034 -0.0105,-9.93939 0.26711,-1.89059 1.26627,-2.64894 3.49009,-2.64894 1.38004,0 1.94476,0.19696 2.68277,0.93568 0.863,0.86383 0.9254,1.28001 0.97487,6.50216 0.0463,4.88399 0.0445,4.91038 -0.37549,5.56559 -0.26223,0.40911 -0.76655,0.86938 -1.33217,1.21581 -0.76853,0.4707 -1.0282,0.55745 -1.66837,0.55737 -0.41699,-6e-5 -1.11675,-0.12101 -1.55502,-0.26879 z m 20.02897,-1.91333 c 0.01,-4.28018 0.0619,-5.35125 0.28653,-5.8608 0.39674,-0.90008 0.80216,-0.84578 1.39667,0.18705 0.25661,0.44579 1.15947,1.95714 2.00637,3.35855 0.8469,1.40141 1.93964,3.26029 2.42831,4.13084 0.48868,0.87056 1.14992,2.0106 1.46942,2.53342 l 0.58093,0.9506 h 2.4175 c 1.63621,0 2.48849,-0.0484 2.63716,-0.14963 0.31819,-0.21676 0.31819,-20.55792 0,-20.77468 -0.32578,-0.22192 -4.79155,-0.2066 -5.06443,0.0174 -0.14059,0.11541 -0.21823,1.82054 -0.25122,5.51789 l -0.0478,5.35086 -0.39845,0.0387 c -0.55124,0.0535 -0.34247,0.39311 -4.85264,-7.89462 -0.70914,-1.30309 -1.4448,-2.54443 -1.63481,-2.75852 l -0.34546,-0.38927 -2.79112,0.0152 c -1.53512,0.008 -2.88994,0.0588 -3.01071,0.11218 -0.16791,0.0742 -0.21809,2.50716 -0.21318,10.33631 0.004,5.63162 0.0502,10.31708 0.10377,10.41213 0.0779,0.13834 0.61359,0.16594 2.68437,0.13831 l 2.58702,-0.0345 z m 43.23654,-27.98331 -0.0481,-6.41057 -2.41202,1.58301 -2.41202,1.58301 -0.0723,4.01702 c -0.0694,3.85373 -0.0911,4.06012 -0.53337,5.07696 -0.25356,0.58296 -0.59294,1.23323 -0.75418,1.44503 -0.74403,0.97735 -2.62863,2.4256 -6.07079,4.66517 -2.05553,1.33739 -5.88464,3.9263 -8.50913,5.75314 l -4.77181,3.32152 v 1.41064 1.41064 l 12.81597,-8.7225 12.81597,-8.7225 z m -136.73231,7.01269 c 0.0377,-0.0118 -0.0994,-0.1801 -0.30465,-0.37409 -0.22419,-0.21187 -0.51943,-0.8779 -0.73935,-1.66787 -0.31588,-1.13465 -0.36787,-1.86091 -0.37885,-5.29181 -0.007,-2.18717 -0.0524,-4.00371 -0.1009,-4.03675 -0.0485,-0.0331 -1.28242,0.74652 -2.74203,1.73236 l -2.65385,1.79243 v 6.2392 6.2392 l 3.42554,-2.30565 c 1.88404,-1.26811 3.45639,-2.31527 3.49409,-2.32702 z m 13.60848,1.52486 c 1.59886,-0.23085 2.5761,-0.58344 3.65597,-1.31907 1.90486,-1.29762 2.77957,-2.74102 2.68698,-4.43387 l -0.054,-0.98786 h -2.46973 -2.46973 l -0.20818,1.15237 c -0.24403,1.35078 -0.53337,1.71125 -1.64164,2.04521 -0.65389,0.19704 -1.02302,0.22737 -1.92284,0.15802 -1.79632,-0.13844 -2.41345,-0.61715 -2.96916,-2.30319 -0.22023,-0.66818 -0.24151,-1.64055 -0.12676,-5.79093 0.0985,-3.56387 0.20616,-5.12278 0.37699,-5.46028 0.1315,-0.2598 0.59315,-0.69469 1.02588,-0.96641 0.74893,-0.47027 0.84423,-0.49405 1.98019,-0.49405 1.12176,0 1.23906,0.0281 1.95411,0.46762 0.93516,0.57485 1.21493,1.01121 1.36809,2.13385 l 0.11889,0.87136 0.84448,0.0692 c 1.27461,0.10446 3.85632,0.005 4.0951,-0.15748 0.13283,-0.0905 0.19406,-0.5234 0.16572,-1.17171 -0.0614,-1.4049 -0.57412,-2.42013 -1.67897,-3.32452 -1.82377,-1.49288 -3.48563,-2.10668 -6.00482,-2.21786 -4.65102,-0.20527 -8.13241,1.40714 -9.47738,4.38947 -0.31052,0.68853 -0.33292,1.19517 -0.28099,6.35379 0.063,6.25514 0.15238,6.79393 1.35287,8.15261 0.74953,0.84828 2.61108,2.04384 3.84631,2.47024 1.52935,0.52793 3.73972,0.66568 5.83265,0.36348 z m 23.34944,-0.14355 c 1.77599,-0.33338 4.07504,-1.85575 5.16096,-3.41745 l 0.47689,-0.68584 0.0943,-5.9855 c 0.0518,-3.29203 0.0341,-6.26103 -0.0394,-6.5978 -0.17843,-0.81758 -1.22228,-2.28649 -2.09467,-2.94764 -1.82338,-1.38186 -3.91526,-1.90949 -7.31213,-1.84432 -2.11256,0.0405 -2.25768,0.061 -3.57118,0.50366 -2.01961,0.68063 -3.51393,1.80544 -4.4146,3.32295 -0.41673,0.70212 -0.41829,0.72863 -0.41829,7.07382 v 6.36905 l 0.76534,1.05047 c 1.09881,1.50816 1.75431,1.97224 3.75817,2.66068 2.39221,0.82186 4.96897,0.9908 7.59462,0.49792 z M 483.4161,495.194 c -1.03015,-0.16293 -1.71199,-0.54668 -2.26447,-1.27448 -0.46261,-0.60942 -0.49562,-0.77328 -0.61954,-3.07533 -0.072,-1.33739 -0.13814,-3.64999 -0.14698,-5.13911 -0.0183,-3.07501 0.16431,-3.67173 1.41093,-4.61172 0.85921,-0.64787 1.47284,-0.8485 2.59513,-0.8485 0.82612,0 1.01451,0.054 1.70953,0.49047 0.4296,0.26976 0.98377,0.76076 1.2315,1.09111 l 0.45042,0.60064 0.0516,5.16043 c 0.0593,5.92593 0.0282,6.09746 -1.26457,6.96939 -0.42032,0.28349 -1.01953,0.55029 -1.33158,0.59289 -0.31206,0.0426 -0.69093,0.0951 -0.84195,0.11662 -0.15102,0.0215 -0.59205,-0.011 -0.98007,-0.0724 z m 88.57569,3.31289 c 1.69632,-0.30099 2.58489,-0.66556 3.85158,-1.58027 2.31957,-1.67503 2.66629,-2.5314 2.59889,-6.41921 l -0.0492,-2.83893 -0.64068,-0.0644 c -0.35237,-0.0354 -2.20577,-0.0363 -4.11865,-0.002 l -3.47798,0.0624 -0.0524,1.29112 c -0.0343,0.84498 0.0209,1.35128 0.1597,1.4652 0.13195,0.10831 0.57327,0.17408 1.16807,0.17408 1.41104,0 1.59518,0.19068 1.59518,1.65184 0,1.35928 -0.41367,2.143 -1.40228,2.65668 -0.49428,0.25682 -0.79132,0.3053 -1.87037,0.3053 -1.53638,0 -2.32392,-0.289 -2.89285,-1.06157 -0.3504,-0.47583 -0.36611,-0.746 -0.36611,-6.29901 v -5.80187 l 0.46258,-0.62008 c 0.57726,-0.7738 1.61932,-1.18122 3.02124,-1.18122 0.80913,0 1.03882,0.0605 1.70565,0.44934 0.95319,0.5558 1.28693,1.08205 1.43306,2.2597 0.0625,0.50355 0.19121,0.94821 0.28607,0.98815 0.0949,0.0399 1.27694,0.0323 2.62686,-0.0169 l 2.45441,-0.0896 v -0.6918 c 0,-0.91499 -0.49545,-2.55355 -1.01521,-3.35756 -0.52568,-0.81315 -1.72632,-1.70753 -2.91666,-2.17265 l -0.91899,-0.35909 -3.73251,-0.001 c -4.31302,-10e-4 -4.5201,0.0377 -6.42491,1.21196 -2.39127,1.47414 -2.38365,1.44437 -2.38652,9.32227 -0.003,7.10385 0.007,7.1732 1.21097,8.3654 1.22695,1.2154 2.79795,1.98763 4.81395,2.36633 1.18517,0.22262 3.58708,0.21654 4.8771,-0.0124 z m -69.14404,-0.33047 c 0.16507,-0.11245 0.21966,-1.72179 0.21966,-6.47617 0,-3.92816 0.0696,-6.45123 0.18358,-6.65547 0.11459,-0.20531 0.29686,-0.31381 0.48498,-0.28869 0.22439,0.03 0.42816,0.42259 0.79747,1.53662 0.27284,0.82301 0.79964,2.33809 1.17066,3.36685 0.37102,1.02876 1.16563,3.27332 1.76579,4.98791 0.60017,1.7146 1.16571,3.2353 1.25677,3.37935 0.14711,0.23271 0.29303,0.25758 1.30959,0.22319 0.62922,-0.0213 1.20855,-0.083 1.2874,-0.13719 0.16224,-0.11148 1.13383,-2.88336 2.74445,-7.82977 1.67197,-5.13484 1.78292,-5.35304 2.61175,-5.13638 0.27186,0.0711 0.29946,0.66816 0.29946,6.4792 0,4.81223 0.0545,6.43806 0.21966,6.55055 0.26627,0.18139 4.64546,0.211 4.80739,0.0325 0.15091,-0.16634 0.27294,-19.77936 0.12729,-20.45802 l -0.12043,-0.56114 h -3.83717 -3.83718 l -0.22034,0.31174 c -0.12119,0.17146 -0.93306,2.58436 -1.80415,5.36201 -0.87109,2.77765 -1.63996,5.18474 -1.7086,5.34909 -0.17905,0.42877 -0.68705,0.62042 -1.02017,0.3849 -0.14386,-0.10171 -0.64371,-1.41944 -1.11076,-2.92829 -0.46706,-1.50884 -0.96318,-3.05198 -1.10249,-3.42919 -0.13931,-0.37721 -0.50696,-1.55561 -0.81699,-2.61865 -0.31003,-1.06305 -0.64428,-2.06059 -0.74278,-2.21674 -0.17886,-0.28355 -0.18421,-0.2839 -4.03877,-0.26377 -3.74874,0.0196 -3.86383,0.0277 -4.00455,0.28392 -0.1906,0.34699 -0.1453,20.54306 0.0465,20.7454 0.20315,0.21428 4.71833,0.21987 5.03195,0.006 z m 29.88077,-6.45935 c 0.0541,-3.60065 0.0541,-8.34229 0,-10.53697 l -0.0983,-3.99033 h -2.65424 -2.65425 l -0.0395,10.28757 c -0.0217,5.65817 10e-4,10.41537 0.0505,10.57156 0.0891,0.28134 0.11404,0.28365 2.6937,0.24939 l 2.60374,-0.0346 z m 23.17394,6.34377 0.43289,-0.27704 V 487.53175 477.2797 l -2.02846,-0.0473 c -1.11565,-0.026 -2.33825,-0.0272 -2.71689,-0.003 l -0.68844,0.0447 -0.12,3.07505 c -0.066,1.69128 -0.12018,4.1313 -0.1204,5.42228 -3.7e-4,2.16803 -0.0249,2.34407 -0.32074,2.30579 -0.37214,-0.0481 -0.9764,-1.03037 -3.27621,-5.32554 -0.85906,-1.60439 -1.89255,-3.49824 -2.29665,-4.20855 l -0.73473,-1.29148 h -3.06273 -3.06274 l -0.11455,9.88231 c -0.063,5.43527 -0.0668,10.11543 -0.008,10.40034 0.10205,0.49781 0.13572,0.52068 0.86242,0.58587 1.07467,0.0964 3.68433,0.10125 4.23057,0.008 l 0.46125,-0.0789 v -5.59053 c 0,-3.62556 0.0649,-5.61786 0.18469,-5.66828 0.43768,-0.18428 0.89573,0.11137 1.40735,0.90836 0.29589,0.46095 1.80247,3.03454 3.34794,5.71909 l 2.80994,4.881 2.19047,0.0193 c 2.03213,0.0179 2.22176,-7.2e-4 2.62336,-0.25773 z m -58.25737,-32.78371 9.48377,-6.47045 -8.20871,-0.0361 c -4.51479,-0.0199 -8.30772,0.0106 -8.42874,0.0677 -0.12102,0.0571 -0.40932,0.0612 -0.64068,0.009 -0.23136,-0.0521 -0.70895,-0.081 -1.06133,-0.0644 -0.58227,0.0275 -1.50429,0.61778 -10.11436,6.4751 l -9.47368,6.44483 8.1008,0.0624 c 4.45543,0.0343 8.72142,0.0443 9.47997,0.0223 l 1.37919,-0.0401 z m 36.4862,3.23194 c 2.66664,-1.80967 6.83828,-4.72121 9.27031,-6.4701 l 4.42187,-3.1798 -8.14579,-0.0623 c -4.48018,-0.0343 -8.23662,-0.10263 -8.34763,-0.15187 -0.11102,-0.0492 -0.35814,-0.009 -0.54916,0.0896 -0.19102,0.0985 -0.63561,0.1797 -0.98798,0.18044 -0.60187,0.001 -1.20767,0.39015 -10.00069,6.41969 -5.14801,3.53008 -9.30785,6.45605 -9.2441,6.50216 0.0638,0.0461 4.30515,0.0566 9.42533,0.0232 l 9.3094,-0.0606 z m -77.92503,-3.23483 9.6102,-6.47933 -6.58985,0.0321 -6.58985,0.0321 -1.14934,0.32988 c -2.87949,0.82644 -5.51907,2.36718 -6.59154,3.8475 -1.11861,1.54403 -1.32017,2.42283 -1.32017,5.75605 v 2.97281 l 1.51018,-0.006 1.51017,-0.006 z m 121.87542,1.59067 7.192,-4.9005 -1.16219,-0.76024 c -1.43732,-0.94021 -3.08514,-1.67572 -4.57936,-2.04402 -1.00209,-0.247 -1.58007,-0.28702 -4.80561,-0.33275 l -3.66652,-0.052 -9.58167,6.49499 -9.58167,6.49499 h 9.49651 9.49651 z"
         id="path4" />
      <path
         style="fill:#000000;fill-opacity:1"
         d="m 452.40161,545.51831 c -4.30245,-0.53548 -7.68812,-1.77397 -10.7345,-3.92671 -1.66947,-1.17974 -2.92884,-2.4001 -3.76874,-3.65199 -0.28419,-0.42359 -0.68621,-0.83996 -0.89336,-0.92527 -0.55678,-0.22927 -1.11745,-1.06973 -1.11745,-1.67505 0,-0.29192 -0.13782,-0.7766 -0.30626,-1.07706 -0.28542,-0.50911 -0.29098,-2.38498 -0.0817,-27.56241 0.12349,-14.85886 0.31034,-28.5312 0.41521,-30.38296 0.10488,-1.85176 0.22317,-5.19507 0.26287,-7.42957 0.0674,-3.79592 0.10127,-4.14085 0.51513,-5.25223 0.89208,-2.39563 2.6903,-4.37025 5.83485,-6.40721 2.07038,-1.34115 4.06108,-2.17895 6.56508,-2.76297 3.55437,-0.82901 -1.3562,-0.77157 66.36318,-0.77634 41.83794,-0.003 62.1821,0.0375 63.15272,0.1257 6.35296,0.57698 12.5351,3.91504 15.08428,8.14476 1.40145,2.32536 1.29105,-0.90624 1.29345,37.86342 l 0.002,34.72837 -0.55578,1.35815 c -1.03269,2.52353 -2.59405,4.31266 -5.33374,6.11181 -0.89163,0.58553 -2.05894,1.2551 -2.59403,1.48794 -2.55353,1.11115 -5.41343,1.8478 -8.04705,2.07276 -1.02881,0.0879 -21.4166,0.12544 -63.12124,0.11631 -50.42273,-0.011 -61.84357,-0.0436 -62.93504,-0.17945 z m 28.33249,-11.45856 c 5.33652,-3.62393 9.70276,-6.61581 9.70276,-6.64863 0,-0.0328 -3.74481,-0.0204 -8.3218,0.0276 -4.57699,0.048 -8.41012,0.0501 -8.51806,0.005 -0.10795,-0.0454 -0.71021,-0.10512 -1.33836,-0.1326 l -1.1421,-0.05 -9.68276,6.59696 -9.68277,6.59695 0.71745,0.0803 c 0.3946,0.0441 0.84101,0.0985 0.99203,0.12081 0.15102,0.0223 4.16624,0.0298 8.92272,0.0167 l 8.64814,-0.0238 z m 51.08058,0.0522 c 5.21069,-3.59931 9.43794,-6.56967 9.39389,-6.6008 -0.044,-0.0311 -6.35798,-0.0592 -14.03095,-0.0624 l -13.95086,-0.006 -9.42715,6.42194 c -5.18493,3.53207 -9.5231,6.50611 -9.64038,6.60899 -0.18914,0.16591 1.39115,0.18677 13.98411,0.18461 l 14.19735,-0.002 z m 43.89828,-1.38696 11.6496,-7.99839 0.007,-6.52285 0.007,-6.52285 -13.73163,9.4398 c -7.5524,5.19188 -17.04638,11.69586 -21.09773,14.45327 l -7.36609,5.01348 1.23014,0.0435 c 0.67658,0.0239 4.92531,0.0545 9.44162,0.068 l 8.21147,0.0244 z M 463.56963,511.05224 c 0.0459,-4.48635 0.11834,-6.02669 0.29764,-6.32663 0.13036,-0.21806 0.21038,-0.53397 0.17784,-0.70202 -0.0509,-0.26275 -1.48872,0.67802 -10.26428,6.71587 l -10.20512,7.02142 v 6.39936 6.39936 l 9.96664,-6.7886 9.96663,-6.78859 z m 21.24622,12.17384 c 4.23047,-1.04607 6.49909,-4.4451 4.90582,-7.3503 -1.20021,-2.18849 -2.77073,-3.23611 -7.43059,-4.95657 -1.95422,-0.72151 -3.50161,-1.55877 -4.04216,-2.18711 -0.51244,-0.59567 -0.60251,-1.67389 -0.19529,-2.33782 0.39777,-0.64852 1.41213,-1.17042 2.46685,-1.26924 1.07682,-0.10089 1.45451,0.006 2.5422,0.71915 0.60776,0.3985 0.81459,0.64697 0.974,1.17007 l 0.20239,0.66413 h 2.45822 2.45821 v -0.66321 c 0,-2.15797 -2.46419,-4.34965 -5.36776,-4.77415 -2.51838,-0.36819 -6.34129,-0.12628 -7.74896,0.49034 -1.17824,0.51613 -2.57659,1.59377 -3.10218,2.39071 -0.9556,1.44896 -0.79827,3.5497 0.39322,5.25046 0.85014,1.2135 2.33404,2.13297 4.9819,3.0869 1.11565,0.40194 2.77471,1.06344 3.68678,1.47002 2.15541,0.96082 2.61557,1.45245 2.72825,2.9148 l 0.0789,1.02354 -0.70811,0.53456 c -0.87777,0.66262 -1.58464,0.8711 -2.94461,0.86846 -2.10417,-0.004 -3.23167,-0.76145 -3.44528,-2.31427 -0.0752,-0.54686 -0.2398,-1.01391 -0.39437,-1.1192 -0.20111,-0.137 -0.73811,-0.17771 -2.22,-0.16828 -2.84275,0.0181 -2.85854,0.0232 -2.92415,0.95023 -0.10696,1.51155 0.91125,3.24681 2.66073,4.53447 1.59197,1.17173 3.13667,1.50612 6.5699,1.42222 1.73446,-0.0424 2.48223,-0.11899 3.41613,-0.34991 z m 21.97563,-0.12576 c 2.35483,-0.79281 3.84073,-1.99694 4.76758,-3.86349 0.25565,-0.51486 0.29773,-1.31684 0.29772,-5.67376 -2e-5,-6.12647 -0.13213,-7.3179 -0.93094,-8.39589 -1.55076,-2.09272 -4.86031,-3.25178 -8.75828,-3.06729 -3.35202,0.15865 -6.17038,1.47338 -7.56002,3.52666 -0.41506,0.61329 -0.41851,0.66287 -0.47047,6.76982 -0.0583,6.85008 -0.0382,6.99779 1.15102,8.44636 1.55053,1.88876 4.31986,2.82695 8.15853,2.76396 1.82744,-0.03 2.01363,-0.0582 3.34486,-0.50637 z m -5.57527,-3.25579 c -1.9385,-0.96916 -2.06725,-1.51484 -1.85857,-7.87771 0.15467,-4.71625 0.15929,-4.75671 0.61018,-5.35357 1.08175,-1.43196 4.26074,-1.58879 5.72351,-0.28236 0.8148,0.72772 0.886,1.31595 0.80754,6.67176 -0.0774,5.2853 -0.12299,5.57205 -0.99789,6.28036 -1.32327,1.07129 -2.86182,1.27292 -4.28477,0.56152 z m 27.07264,3.41742 c 1.10319,-0.2621 3.05682,-1.16949 3.78209,-1.75665 0.63643,-0.51524 1.44787,-1.61684 1.82004,-2.47086 0.42802,-0.98218 0.44036,-11.1733 0.0149,-12.28611 -0.64294,-1.68154 -2.41653,-3.28208 -4.35609,-3.93108 -1.79296,-0.59994 -3.53924,-0.79938 -5.52297,-0.63078 -3.61125,0.30693 -6.1976,1.78999 -7.26808,4.16762 -0.3863,0.85802 -0.39997,1.08482 -0.40673,6.74866 -0.007,5.82982 -0.005,5.86458 0.41386,6.57601 0.99953,1.69865 2.70999,2.89739 4.95099,3.46978 2.04333,0.52191 4.66233,0.56711 6.57202,0.11341 z m -4.19754,-3.2404 c -0.85552,-0.30792 -1.93984,-1.17024 -2.18568,-1.7382 -0.12414,-0.28681 -0.171,-2.30355 -0.13341,-5.74175 0.0569,-5.19979 0.0656,-5.30942 0.46471,-5.81784 0.49846,-0.63499 1.14999,-0.9975 2.10895,-1.1734 1.56661,-0.28737 2.9772,0.14796 3.72148,1.14851 0.65458,0.87997 0.79241,2.0852 0.79997,6.99536 0.006,3.74119 -0.0154,3.99769 -0.38501,4.67617 -0.27466,0.50412 -0.66365,0.8942 -1.30651,1.31016 -0.79282,0.513 -1.01592,0.59158 -1.66611,0.5868 -0.41289,-0.003 -1.05116,-0.11365 -1.41839,-0.24581 z m 19.8998,-1.93089 c 0.01,-4.28018 0.0619,-5.35125 0.28653,-5.8608 0.39674,-0.90008 0.80216,-0.84578 1.39667,0.18705 0.25661,0.44579 1.15947,1.95714 2.00637,3.35855 0.8469,1.40141 1.93964,3.26029 2.42831,4.13084 0.48868,0.87056 1.14992,2.0106 1.46942,2.53342 l 0.58093,0.9506 h 2.4175 c 1.63621,0 2.48849,-0.0484 2.63716,-0.14963 0.31819,-0.21676 0.31819,-20.55792 0,-20.77468 -0.32578,-0.22192 -4.79155,-0.2066 -5.06443,0.0174 -0.14059,0.11541 -0.21823,1.82054 -0.25122,5.51789 l -0.0478,5.35086 -0.39845,0.0387 c -0.55124,0.0535 -0.34247,0.39311 -4.85264,-7.89462 -0.70914,-1.30309 -1.4448,-2.54443 -1.63481,-2.75852 l -0.34546,-0.38927 -2.79112,0.0152 c -1.53512,0.008 -2.88994,0.0588 -3.01071,0.11218 -0.16791,0.0742 -0.21809,2.50716 -0.21318,10.33631 0.004,5.63162 0.0502,10.31708 0.10377,10.41213 0.0779,0.13834 0.61359,0.16594 2.68437,0.13831 l 2.58702,-0.0345 z m 43.38207,-28.04606 0.0106,-6.41615 -1.20046,0.73049 c -0.66025,0.40177 -1.79284,1.14151 -2.51686,1.64387 l -1.3164,0.91337 -0.0699,3.99034 c -0.067,3.82713 -0.0887,4.03368 -0.53068,5.05026 -0.25344,0.58296 -0.59273,1.23323 -0.75397,1.44503 -0.74403,0.97735 -2.62863,2.4256 -6.07079,4.66517 -2.05553,1.33739 -5.88464,3.9263 -8.50913,5.75314 l -4.77181,3.32152 v 1.41064 1.41064 l 12.85936,-8.75108 12.85936,-8.75109 z m -136.87784,7.07544 c 0.0377,-0.0118 -0.0994,-0.1801 -0.30465,-0.37409 -0.22419,-0.21187 -0.51943,-0.8779 -0.73935,-1.66787 -0.31588,-1.13465 -0.36787,-1.86091 -0.37885,-5.29181 -0.007,-2.18717 -0.0524,-4.00371 -0.1009,-4.03675 -0.0485,-0.0331 -1.28242,0.74652 -2.74203,1.73236 l -2.65385,1.79243 v 6.2392 6.2392 l 3.42554,-2.30565 c 1.88404,-1.26811 3.45639,-2.31527 3.49409,-2.32702 z m 13.60848,1.52486 c 1.59886,-0.23085 2.5761,-0.58344 3.65597,-1.31907 1.90486,-1.29762 2.77957,-2.74102 2.68698,-4.43387 l -0.054,-0.98786 h -2.46973 -2.46973 l -0.20818,1.15237 c -0.24403,1.35078 -0.53337,1.71125 -1.64164,2.04521 -0.65389,0.19704 -1.02302,0.22737 -1.92284,0.15802 -1.79632,-0.13844 -2.41345,-0.61715 -2.96916,-2.30319 -0.22023,-0.66818 -0.24151,-1.64055 -0.12676,-5.79093 0.0985,-3.56387 0.20616,-5.12278 0.37699,-5.46028 0.1315,-0.2598 0.59315,-0.69469 1.02588,-0.96641 0.74893,-0.47027 0.84423,-0.49405 1.98019,-0.49405 1.12176,0 1.23906,0.0281 1.95411,0.46762 0.93516,0.57485 1.21493,1.01121 1.36809,2.13385 l 0.11889,0.87136 0.84448,0.0692 c 1.27461,0.10446 3.85632,0.005 4.0951,-0.15748 0.13283,-0.0905 0.19406,-0.5234 0.16572,-1.17171 -0.0614,-1.4049 -0.57412,-2.42013 -1.67897,-3.32452 -1.82377,-1.49288 -3.48563,-2.10668 -6.00482,-2.21786 -4.65102,-0.20527 -8.13241,1.40714 -9.47738,4.38947 -0.31052,0.68853 -0.33292,1.19517 -0.28099,6.35379 0.063,6.25514 0.15238,6.79393 1.35287,8.15261 0.74953,0.84828 2.61108,2.04384 3.84631,2.47024 1.52935,0.52793 3.73972,0.66568 5.83265,0.36348 z m 23.34944,-0.14355 c 1.77599,-0.33338 4.07504,-1.85575 5.16096,-3.41745 l 0.47689,-0.68584 0.0943,-5.9855 c 0.0518,-3.29203 0.0337,-6.26607 -0.0404,-6.60899 -0.0741,-0.34292 -0.46638,-1.08068 -0.8718,-1.63947 -1.21436,-1.67374 -3.18235,-2.69679 -5.95815,-3.09733 -4.68527,-0.67608 -8.78721,0.79303 -10.56159,3.78264 -0.41673,0.70212 -0.41829,0.72863 -0.41829,7.07382 v 6.36905 l 0.76534,1.05047 c 1.09881,1.50816 1.75431,1.97224 3.75817,2.66068 2.39221,0.82186 4.96897,0.9908 7.59462,0.49792 z m -4.62725,-3.46278 c -0.72551,-0.22403 -1.61818,-0.96399 -1.87178,-1.55159 -0.10934,-0.25333 -0.2456,-1.94762 -0.30281,-3.76509 -0.0572,-1.81748 -0.14926,-4.01624 -0.20457,-4.88615 -0.0793,-1.24708 -0.0399,-1.70342 0.18631,-2.15723 0.51364,-1.03061 1.01079,-1.55509 1.8912,-1.99513 0.70484,-0.35229 1.03102,-0.43293 1.76143,-0.43544 0.75136,-0.003 1.01877,0.0652 1.65269,0.41907 0.4265,0.23807 0.99346,0.74105 1.30021,1.15345 0.53917,0.72489 0.54438,0.75204 0.59571,3.10056 0.0285,1.30309 -0.0127,3.78131 -0.0915,5.50714 l -0.14331,3.13789 -0.54916,0.52895 c -0.30203,0.29092 -0.77457,0.64283 -1.05008,0.78202 -0.63424,0.32041 -2.37324,0.40892 -3.17432,0.16155 z m 89.16578,3.4683 c 1.69632,-0.30099 2.58489,-0.66556 3.85158,-1.58027 2.31957,-1.67503 2.66629,-2.5314 2.59889,-6.41921 l -0.0492,-2.83893 -0.64068,-0.0644 c -0.35237,-0.0354 -2.20577,-0.0363 -4.11865,-0.002 l -3.47798,0.0624 -0.0524,1.29112 c -0.0343,0.84498 0.0209,1.35128 0.1597,1.4652 0.13195,0.10831 0.57327,0.17408 1.16807,0.17408 1.41104,0 1.59518,0.19068 1.59518,1.65184 0,1.35928 -0.41367,2.143 -1.40228,2.65668 -0.49428,0.25682 -0.79132,0.3053 -1.87037,0.3053 -1.53638,0 -2.32392,-0.289 -2.89285,-1.06157 -0.3504,-0.47583 -0.36611,-0.746 -0.36611,-6.29901 v -5.80187 l 0.46258,-0.62008 c 0.57726,-0.7738 1.61932,-1.18122 3.02124,-1.18122 0.80913,0 1.03882,0.0605 1.70565,0.44934 0.95319,0.5558 1.28693,1.08205 1.43306,2.2597 0.0625,0.50355 0.19121,0.94821 0.28607,0.98815 0.0949,0.0399 1.27694,0.0323 2.62686,-0.0169 l 2.45441,-0.0896 v -0.6918 c 0,-0.91499 -0.49545,-2.55355 -1.01521,-3.35756 -0.52568,-0.81315 -1.72632,-1.70753 -2.91666,-2.17265 l -0.91899,-0.35909 -3.73251,-0.001 c -4.31302,-10e-4 -4.5201,0.0377 -6.42491,1.21196 -2.39127,1.47414 -2.38365,1.44437 -2.38652,9.32227 -0.003,7.10385 0.007,7.1732 1.21097,8.3654 1.22695,1.2154 2.79795,1.98763 4.81395,2.36633 1.18517,0.22262 3.58708,0.21654 4.8771,-0.0124 z m -69.14404,-0.33047 c 0.16507,-0.11245 0.21966,-1.72179 0.21966,-6.47617 0,-3.92816 0.0696,-6.45123 0.18358,-6.65547 0.11459,-0.20531 0.29686,-0.31381 0.48498,-0.28869 0.22439,0.03 0.42816,0.42259 0.79747,1.53662 0.27284,0.82301 0.79964,2.33809 1.17066,3.36685 0.37102,1.02876 1.16563,3.27332 1.76579,4.98791 0.60017,1.7146 1.16571,3.2353 1.25677,3.37935 0.14711,0.23271 0.29303,0.25758 1.30959,0.22319 0.62922,-0.0213 1.20855,-0.083 1.2874,-0.13719 0.16224,-0.11148 1.13383,-2.88336 2.74445,-7.82977 1.67197,-5.13484 1.78292,-5.35304 2.61175,-5.13638 0.27186,0.0711 0.29946,0.66816 0.29946,6.4792 0,4.81223 0.0545,6.43806 0.21966,6.55055 0.26627,0.18139 4.64546,0.211 4.80739,0.0325 0.15091,-0.16634 0.27294,-19.77936 0.12729,-20.45802 l -0.12043,-0.56114 h -3.83717 -3.83718 l -0.22034,0.31174 c -0.12119,0.17146 -0.93306,2.58436 -1.80415,5.36201 -0.87109,2.77765 -1.63996,5.18474 -1.7086,5.34909 -0.17905,0.42877 -0.68705,0.62042 -1.02017,0.3849 -0.14386,-0.10171 -0.64371,-1.41944 -1.11076,-2.92829 -0.46706,-1.50884 -0.96318,-3.05198 -1.10249,-3.42919 -0.13931,-0.37721 -0.50696,-1.55561 -0.81699,-2.61865 -0.31003,-1.06305 -0.64428,-2.06059 -0.74278,-2.21674 -0.17886,-0.28355 -0.18421,-0.2839 -4.03877,-0.26377 -3.74874,0.0196 -3.86383,0.0277 -4.00455,0.28392 -0.1906,0.34699 -0.1453,20.54306 0.0465,20.7454 0.20315,0.21428 4.71833,0.21987 5.03195,0.006 z m 29.88077,-6.45935 c 0.0541,-3.60065 0.0541,-8.34229 0,-10.53697 l -0.0983,-3.99033 h -2.65424 -2.65425 l -0.0395,10.28757 c -0.0217,5.65817 10e-4,10.41537 0.0505,10.57156 0.0891,0.28134 0.11404,0.28365 2.6937,0.24939 l 2.60374,-0.0346 z m 23.2,6.41487 0.40683,-0.19411 v -10.32547 -10.32546 l -2.05932,-0.0601 c -1.13263,-0.0331 -2.35526,-0.0358 -2.71695,-0.006 l -0.65762,0.0541 -0.12035,3.00159 c -0.0662,1.65087 -0.12035,4.09084 -0.12035,5.42215 0,2.23795 -0.0242,2.41743 -0.32034,2.37912 -0.37214,-0.0481 -0.9764,-1.03037 -3.27621,-5.32554 -0.85906,-1.60439 -1.89255,-3.49824 -2.29665,-4.20855 l -0.73473,-1.29148 h -3.06271 -3.06271 l -0.11854,9.94466 c -0.0652,5.46957 -0.0685,10.15269 -0.007,10.40696 0.1033,0.42982 0.16415,0.46754 0.86639,0.53703 0.4154,0.0411 1.6202,0.0575 2.67732,0.0365 l 1.92204,-0.0382 0.0477,-5.60648 c 0.0262,-3.08356 0.12089,-5.65635 0.21038,-5.71731 0.0895,-0.061 0.32579,-0.0756 0.52511,-0.0325 0.45626,0.0986 0.74285,0.54636 4.25608,6.64893 l 2.81769,4.89439 h 2.20878 c 1.70286,0 2.30197,-0.0445 2.61562,-0.19412 z m -58.28343,-32.85481 9.48377,-6.47045 -8.20871,-0.0361 c -4.51479,-0.0199 -8.30772,0.0106 -8.42874,0.0677 -0.12102,0.0571 -0.40932,0.0612 -0.64068,0.009 -0.23136,-0.0521 -0.70895,-0.081 -1.06133,-0.0644 -0.58227,0.0275 -1.50429,0.61778 -10.11436,6.4751 l -9.47368,6.44483 8.1008,0.0624 c 4.45543,0.0343 8.72142,0.0443 9.47997,0.0223 l 1.37919,-0.0401 z m 38.27027,1.98491 c 3.63917,-2.49548 7.80725,-5.407 9.26239,-6.47005 l 2.64572,-1.93282 -8.14579,-0.0623 c -4.48018,-0.0343 -8.23662,-0.10263 -8.34763,-0.15187 -0.11102,-0.0492 -0.35814,-0.009 -0.54916,0.0896 -0.19102,0.0985 -0.63561,0.1797 -0.98798,0.18044 -0.60187,10e-4 -1.20767,0.39015 -10.00069,6.41969 -5.14801,3.53008 -9.30785,6.45605 -9.2441,6.50216 0.0638,0.0461 4.30871,0.0565 9.43324,0.0231 l 9.31732,-0.0607 z m -79.7091,-1.9878 9.6102,-6.47933 -6.58985,0.0321 -6.58985,0.0321 -1.14934,0.32988 c -2.87949,0.82644 -5.51907,2.36718 -6.59154,3.8475 -1.11861,1.54403 -1.32017,2.42283 -1.32017,5.75605 v 2.97281 l 1.51018,-0.006 1.51017,-0.006 z m 121.87542,1.59067 7.192,-4.9005 -1.16219,-0.76024 c -1.43732,-0.94021 -3.08514,-1.67572 -4.57936,-2.04402 -1.0028,-0.24718 -1.57969,-0.28701 -4.82159,-0.3329 l -3.6825,-0.0521 -9.5583,6.49514 -9.55829,6.49515 h 9.48911 9.48912 z"
         id="path3" />
      <path
         style="fill:#000000;fill-opacity:1"
         d="m 452.40161,545.51831 c -4.35097,-0.54152 -7.72862,-1.7879 -10.82566,-3.99475 -1.83763,-1.30943 -3.23239,-2.75829 -4.05623,-4.21357 -0.30635,-0.54116 -0.6695,-1.10279 -0.80701,-1.24807 -0.1375,-0.14529 -0.51391,-0.71307 -0.83646,-1.26174 l -0.58646,-0.99758 0.2162,-26.7477 c 0.1189,-14.71124 0.30288,-28.43113 0.40883,-30.48864 0.10595,-2.05752 0.22424,-5.53995 0.26286,-7.73873 0.0655,-3.73196 0.0997,-4.07706 0.51413,-5.18988 0.89308,-2.39831 2.6901,-4.37208 5.83582,-6.4098 2.07038,-1.34115 4.06108,-2.17895 6.56508,-2.76297 3.55437,-0.82901 -1.3562,-0.77157 66.36318,-0.77634 41.83794,-0.003 62.1821,0.0375 63.15272,0.1257 6.35296,0.57698 12.5351,3.91504 15.08428,8.14476 1.40145,2.32536 1.29105,-0.90624 1.29345,37.86342 l 0.002,34.72837 -0.55578,1.35815 c -1.03269,2.52353 -2.59405,4.31266 -5.33374,6.11181 -0.89163,0.58553 -2.05894,1.2551 -2.59403,1.48794 -2.55353,1.11115 -5.41343,1.8478 -8.04705,2.07276 -1.02881,0.0879 -21.4166,0.12544 -63.12124,0.11631 -50.42273,-0.011 -61.84357,-0.0436 -62.93504,-0.17945 z m 28.24166,-11.39709 c 5.33576,-3.60443 9.73226,-6.60228 9.77,-6.66187 0.0387,-0.0612 -3.56528,-0.0702 -8.2757,-0.0208 -4.58937,0.0481 -8.43263,0.0503 -8.54057,0.005 -0.10795,-0.0454 -0.71021,-0.10512 -1.33836,-0.1326 l -1.1421,-0.05 -9.68276,6.59696 -9.68277,6.59695 0.71745,0.0803 c 0.3946,0.0441 0.84101,0.10104 0.99203,0.12643 0.15102,0.0254 4.14611,0.0388 8.87799,0.0297 l 8.60341,-0.0164 z m 51.17141,-0.009 c 5.21069,-3.59931 9.43794,-6.56967 9.39389,-6.6008 -0.044,-0.0311 -6.35798,-0.0592 -14.03095,-0.0624 l -13.95086,-0.006 -9.42715,6.42194 c -5.18493,3.53207 -9.5231,6.50611 -9.64038,6.60899 -0.18914,0.16591 1.39115,0.18677 13.98411,0.18461 l 14.19735,-0.002 z m 43.9351,-1.40042 11.68752,-8.01184 0.008,-6.53634 0.008,-6.53634 -13.77089,9.46674 c -7.57399,5.20671 -17.08563,11.72281 -21.13698,14.48022 l -7.36609,5.01348 1.23014,0.0435 c 0.67658,0.0239 4.92506,0.0545 9.44107,0.068 l 8.21092,0.0244 z M 463.56963,511.05224 c 0.0459,-4.48635 0.11834,-6.02669 0.29764,-6.32663 0.13036,-0.21806 0.21038,-0.53397 0.17784,-0.70202 -0.0509,-0.26275 -1.48872,0.67802 -10.26428,6.71587 l -10.20512,7.02142 v 6.39936 6.39936 l 9.96664,-6.7886 9.96663,-6.78859 z m 21.24622,12.17384 c 4.23047,-1.04607 6.49909,-4.4451 4.90582,-7.3503 -1.20021,-2.18849 -2.77073,-3.23611 -7.43059,-4.95657 -1.95422,-0.72151 -3.50161,-1.55877 -4.04216,-2.18711 -0.51244,-0.59567 -0.60251,-1.67389 -0.19529,-2.33782 0.39777,-0.64852 1.41213,-1.17042 2.46685,-1.26924 1.07682,-0.10089 1.45451,0.006 2.5422,0.71915 0.60776,0.3985 0.81459,0.64697 0.974,1.17007 l 0.20239,0.66413 h 2.45822 2.45821 v -0.66321 c 0,-2.15797 -2.46419,-4.34965 -5.36776,-4.77415 -2.51838,-0.36819 -6.34129,-0.12628 -7.74896,0.49034 -1.17824,0.51613 -2.57659,1.59377 -3.10218,2.39071 -0.9556,1.44896 -0.79827,3.5497 0.39322,5.25046 0.85014,1.2135 2.33404,2.13297 4.9819,3.0869 1.11565,0.40194 2.77471,1.06344 3.68678,1.47002 2.15541,0.96082 2.61557,1.45245 2.72825,2.9148 l 0.0789,1.02354 -0.70811,0.53456 c -0.87777,0.66262 -1.58464,0.8711 -2.94461,0.86846 -2.10417,-0.004 -3.23167,-0.76145 -3.44528,-2.31427 -0.0752,-0.54686 -0.2398,-1.01391 -0.39437,-1.1192 -0.20111,-0.137 -0.73811,-0.17771 -2.22,-0.16828 -2.84275,0.0181 -2.85854,0.0232 -2.92415,0.95023 -0.10696,1.51155 0.91125,3.24681 2.66073,4.53447 1.59197,1.17173 3.13667,1.50612 6.5699,1.42222 1.73446,-0.0424 2.48223,-0.11899 3.41613,-0.34991 z m 21.97563,-0.12576 c 2.35483,-0.79281 3.84073,-1.99694 4.76758,-3.86349 0.25565,-0.51486 0.29773,-1.31684 0.29772,-5.67376 -2e-5,-6.12647 -0.13213,-7.3179 -0.93094,-8.39589 -1.55076,-2.09272 -4.86031,-3.25178 -8.75828,-3.06729 -3.35202,0.15865 -6.17038,1.47338 -7.56002,3.52666 -0.41506,0.61329 -0.41851,0.66287 -0.47047,6.76982 -0.0583,6.85008 -0.0382,6.99779 1.15102,8.44636 1.55053,1.88876 4.31986,2.82695 8.15853,2.76396 1.82744,-0.03 2.01363,-0.0582 3.34486,-0.50637 z m -4.91391,-2.9511 c -0.10067,-0.0611 -0.57422,-0.346 -1.05231,-0.63299 -1.3845,-0.83109 -1.41912,-0.98752 -1.4175,-6.40494 7.8e-4,-2.59976 0.0849,-4.97703 0.19217,-5.4329 0.3078,-1.30769 1.15348,-1.9766 2.75821,-2.18168 1.54141,-0.19699 3.41662,0.58999 3.78673,1.58919 0.26556,0.71692 0.43796,9.12298 0.21164,10.31892 -0.21339,1.12762 -0.80232,1.96012 -1.65249,2.33593 -0.34641,0.15313 -0.72932,0.3355 -0.85092,0.40527 -0.26976,0.15478 -1.7221,0.15713 -1.97553,0.003 z m 26.41128,3.11273 c 1.10319,-0.2621 3.05682,-1.16949 3.78209,-1.75665 0.63643,-0.51524 1.44787,-1.61684 1.82004,-2.47086 0.42802,-0.98218 0.44036,-11.1733 0.0149,-12.28611 -0.64294,-1.68154 -2.41653,-3.28208 -4.35609,-3.93108 -1.79296,-0.59994 -3.53924,-0.79938 -5.52297,-0.63078 -3.61125,0.30693 -6.1976,1.78999 -7.26808,4.16762 -0.3863,0.85802 -0.39997,1.08482 -0.40673,6.74866 -0.007,5.82982 -0.005,5.86458 0.41386,6.57601 0.99953,1.69865 2.70999,2.89739 4.95099,3.46978 2.04333,0.52191 4.66233,0.56711 6.57202,0.11341 z m -4.3069,-3.34575 c -0.93257,-0.40885 -1.7572,-1.14245 -2.0582,-1.831 -0.16146,-0.36934 -0.20153,-1.85401 -0.14978,-5.54906 0.0763,-5.44898 0.10022,-5.58448 1.11748,-6.33732 1.30985,-0.96938 3.90483,-0.83008 4.89247,0.26262 0.82917,0.91737 0.88666,1.32037 0.9249,6.48278 0.0359,4.84941 0.0322,4.90347 -0.38143,5.55774 -0.27323,0.43219 -0.73988,0.85269 -1.34922,1.21581 -1.12583,0.67089 -1.81452,0.7165 -2.99622,0.19843 z m 20.00916,-1.82554 c 0.01,-4.28018 0.0619,-5.35125 0.28653,-5.8608 0.39674,-0.90008 0.80216,-0.84578 1.39667,0.18705 0.25661,0.44579 1.15947,1.95714 2.00637,3.35855 0.8469,1.40141 1.93964,3.26029 2.42831,4.13084 0.48868,0.87056 1.14992,2.0106 1.46942,2.53342 l 0.58093,0.9506 h 2.4175 c 1.63621,0 2.48849,-0.0484 2.63716,-0.14963 0.31819,-0.21676 0.31819,-20.55792 0,-20.77468 -0.32578,-0.22192 -4.79155,-0.2066 -5.06443,0.0174 -0.14059,0.11541 -0.21823,1.82054 -0.25122,5.51789 l -0.0478,5.35086 -0.39845,0.0387 c -0.55124,0.0535 -0.34247,0.39311 -4.85264,-7.89462 -0.70914,-1.30309 -1.4448,-2.54443 -1.63481,-2.75852 l -0.34546,-0.38927 -2.79112,0.0152 c -1.53512,0.008 -2.88994,0.0588 -3.01071,0.11218 -0.16791,0.0742 -0.21809,2.50716 -0.21318,10.33631 0.004,5.63162 0.0502,10.31708 0.10377,10.41213 0.0779,0.13834 0.61359,0.16594 2.68437,0.13831 l 2.58702,-0.0345 z m 43.41958,-28.10309 -0.0481,-6.40565 -2.50353,1.63923 -2.50353,1.63922 -0.0724,4.01824 c -0.0694,3.85501 -0.0911,4.0613 -0.53338,5.07817 -0.25356,0.58296 -0.59294,1.23323 -0.75418,1.44503 -0.74403,0.97735 -2.62863,2.4256 -6.07079,4.66517 -2.05553,1.33739 -5.88464,3.9263 -8.50913,5.75314 l -4.77181,3.32152 v 1.41068 1.41068 l 12.90749,-8.78489 12.90749,-8.78489 z m -136.91535,7.13247 c 0.0377,-0.0118 -0.0994,-0.1801 -0.30465,-0.37409 -0.22419,-0.21187 -0.51943,-0.8779 -0.73935,-1.66787 -0.31588,-1.13465 -0.36787,-1.86091 -0.37885,-5.29181 -0.007,-2.18717 -0.0524,-4.00371 -0.1009,-4.03675 -0.0485,-0.0331 -1.28242,0.74652 -2.74203,1.73236 l -2.65385,1.79243 v 6.2392 6.2392 l 3.42554,-2.30565 c 1.88404,-1.26811 3.45639,-2.31527 3.49409,-2.32702 z m 13.60848,1.52486 c 1.59886,-0.23085 2.5761,-0.58344 3.65597,-1.31907 1.90486,-1.29762 2.77957,-2.74102 2.68698,-4.43387 l -0.054,-0.98786 h -2.46973 -2.46973 l -0.20818,1.15237 c -0.24403,1.35078 -0.53337,1.71125 -1.64164,2.04521 -0.65389,0.19704 -1.02302,0.22737 -1.92284,0.15802 -1.79632,-0.13844 -2.41345,-0.61715 -2.96916,-2.30319 -0.22023,-0.66818 -0.24151,-1.64055 -0.12676,-5.79093 0.0985,-3.56387 0.20616,-5.12278 0.37699,-5.46028 0.1315,-0.2598 0.59315,-0.69469 1.02588,-0.96641 0.74893,-0.47027 0.84423,-0.49405 1.98019,-0.49405 1.12176,0 1.23906,0.0281 1.95411,0.46762 0.93516,0.57485 1.21493,1.01121 1.36809,2.13385 l 0.11889,0.87136 0.84448,0.0692 c 1.27461,0.10446 3.85632,0.005 4.0951,-0.15748 0.13283,-0.0905 0.19406,-0.5234 0.16572,-1.17171 -0.0614,-1.4049 -0.57412,-2.42013 -1.67897,-3.32452 -1.82377,-1.49288 -3.48563,-2.10668 -6.00482,-2.21786 -4.65102,-0.20527 -8.13241,1.40714 -9.47738,4.38947 -0.31052,0.68853 -0.33292,1.19517 -0.28099,6.35379 0.063,6.25514 0.15238,6.79393 1.35287,8.15261 0.74953,0.84828 2.61108,2.04384 3.84631,2.47024 1.52935,0.52793 3.73972,0.66568 5.83265,0.36348 z m 23.34944,-0.14355 c 1.77599,-0.33338 4.07504,-1.85575 5.16096,-3.41745 l 0.47689,-0.68584 0.0943,-5.9855 c 0.0518,-3.29203 0.0337,-6.26607 -0.0404,-6.60899 -0.0741,-0.34292 -0.46638,-1.08068 -0.8718,-1.63947 -1.21436,-1.67374 -3.18235,-2.69679 -5.95815,-3.09733 -4.68527,-0.67608 -8.78721,0.79303 -10.56159,3.78264 -0.41673,0.70212 -0.41829,0.72863 -0.41829,7.07382 v 6.36905 l 0.76534,1.05047 c 1.09881,1.50816 1.75431,1.97224 3.75817,2.66068 2.39221,0.82186 4.96897,0.9908 7.59462,0.49792 z m -4.17122,-3.41193 c -1.12774,-0.23282 -1.89212,-0.81135 -2.32729,-1.76145 -0.15672,-0.34217 -0.50699,-7.97416 -0.45164,-9.84098 0.0174,-0.58584 0.69885,-1.78467 1.28362,-2.2581 0.70588,-0.57146 1.77132,-0.98405 2.54119,-0.98405 0.84616,0 2.0048,0.61653 2.74861,1.46259 l 0.52304,0.59493 0.0532,5.26742 c 0.036,3.56044 -0.0122,5.43306 -0.14881,5.77858 -0.26413,0.66819 -1.48652,1.56938 -2.3505,1.73286 -0.76355,0.14448 -1.20202,0.1464 -1.87146,0.008 z m 88.70975,3.41745 c 1.69632,-0.30099 2.58489,-0.66556 3.85158,-1.58027 2.31957,-1.67503 2.66629,-2.5314 2.59889,-6.41921 l -0.0492,-2.83893 -0.64068,-0.0644 c -0.35237,-0.0354 -2.20577,-0.0363 -4.11865,-0.002 l -3.47798,0.0624 -0.0524,1.29112 c -0.0343,0.84498 0.0209,1.35128 0.1597,1.4652 0.13195,0.10831 0.57327,0.17408 1.16807,0.17408 1.41104,0 1.59518,0.19068 1.59518,1.65184 0,1.35928 -0.41367,2.143 -1.40228,2.65668 -0.49428,0.25682 -0.79132,0.3053 -1.87037,0.3053 -1.53638,0 -2.32392,-0.289 -2.89285,-1.06157 -0.3504,-0.47583 -0.36611,-0.746 -0.36611,-6.29901 v -5.80187 l 0.46258,-0.62008 c 0.57726,-0.7738 1.61932,-1.18122 3.02124,-1.18122 0.80913,0 1.03882,0.0605 1.70565,0.44934 0.95319,0.5558 1.28693,1.08205 1.43306,2.2597 0.0625,0.50355 0.19121,0.94821 0.28607,0.98815 0.0949,0.0399 1.27694,0.0323 2.62686,-0.0169 l 2.45441,-0.0896 v -0.6918 c 0,-0.91499 -0.49545,-2.55355 -1.01521,-3.35756 -0.52568,-0.81315 -1.72632,-1.70753 -2.91666,-2.17265 l -0.91899,-0.35909 -3.73251,-0.001 c -4.31302,-10e-4 -4.5201,0.0377 -6.42491,1.21196 -2.39127,1.47414 -2.38365,1.44437 -2.38652,9.32227 -0.003,7.10385 0.007,7.1732 1.21097,8.3654 1.22695,1.2154 2.79795,1.98763 4.81395,2.36633 1.18517,0.22262 3.58708,0.21654 4.8771,-0.0124 z m -69.14404,-0.33047 c 0.16507,-0.11245 0.21966,-1.72179 0.21966,-6.47617 0,-3.92816 0.0696,-6.45123 0.18358,-6.65547 0.11459,-0.20531 0.29686,-0.31381 0.48498,-0.28869 0.22439,0.03 0.42816,0.42259 0.79747,1.53662 0.27284,0.82301 0.79964,2.33809 1.17066,3.36685 0.37102,1.02876 1.16563,3.27332 1.76579,4.98791 0.60017,1.7146 1.16571,3.2353 1.25677,3.37935 0.14711,0.23271 0.29303,0.25758 1.30959,0.22319 0.62922,-0.0213 1.20855,-0.083 1.2874,-0.13719 0.16224,-0.11148 1.13383,-2.88336 2.74445,-7.82977 1.67197,-5.13484 1.78292,-5.35304 2.61175,-5.13638 0.27186,0.0711 0.29946,0.66816 0.29946,6.4792 0,4.81223 0.0545,6.43806 0.21966,6.55055 0.26627,0.18139 4.64546,0.211 4.80739,0.0325 0.15091,-0.16634 0.27294,-19.77936 0.12729,-20.45802 l -0.12043,-0.56114 h -3.83717 -3.83718 l -0.22034,0.31174 c -0.12119,0.17146 -0.93306,2.58436 -1.80415,5.36201 -0.87109,2.77765 -1.63996,5.18474 -1.7086,5.34909 -0.17905,0.42877 -0.68705,0.62042 -1.02017,0.3849 -0.14386,-0.10171 -0.64371,-1.41944 -1.11076,-2.92829 -0.46706,-1.50884 -0.96318,-3.05198 -1.10249,-3.42919 -0.13931,-0.37721 -0.50696,-1.55561 -0.81699,-2.61865 -0.31003,-1.06305 -0.64428,-2.06059 -0.74278,-2.21674 -0.17886,-0.28355 -0.18421,-0.2839 -4.03877,-0.26377 -3.74874,0.0196 -3.86383,0.0277 -4.00455,0.28392 -0.1906,0.34699 -0.1453,20.54306 0.0465,20.7454 0.20315,0.21428 4.71833,0.21987 5.03195,0.006 z m 29.88077,-6.45935 c 0.0541,-3.60065 0.0541,-8.34229 0,-10.53697 l -0.0983,-3.99033 -1.59616,-0.10824 c -0.90229,-0.0612 -2.05613,-0.0612 -2.65425,0 l -1.05808,0.10824 -0.0395,10.28757 c -0.0217,5.65817 10e-4,10.41537 0.0505,10.57156 0.0891,0.28134 0.11404,0.28365 2.6937,0.24939 l 2.60374,-0.0346 z m 23.2,6.41487 0.40683,-0.19411 v -10.32547 -10.32546 l -2.05932,-0.0601 c -1.13263,-0.0331 -2.35529,-0.0358 -2.71701,-0.006 l -0.65767,0.0541 -0.11987,2.88788 c -0.0659,1.58833 -0.12007,4.02829 -0.1203,5.42214 -6.2e-4,3.76358 -0.11203,3.67584 -3.59697,-2.8327 -0.85906,-1.60439 -1.88928,-3.4925 -2.28939,-4.1958 l -0.72748,-1.27872 -2.81949,-0.09 c -1.55072,-0.0495 -2.94247,-0.0579 -3.09277,-0.0186 -0.23611,0.0617 -0.28672,1.00938 -0.37209,6.96683 -0.0543,3.79246 -0.14627,8.10184 -0.20428,9.57639 -0.0738,1.87595 -0.0377,2.93316 0.12031,3.52075 0.21411,0.79632 0.25505,0.84339 0.79188,0.91023 0.31136,0.0388 1.51339,0.0537 2.67119,0.0331 l 2.10509,-0.0373 0.0915,-5.67376 c 0.0715,-4.43202 0.1416,-5.67103 0.32034,-5.66128 0.83716,0.0456 0.51519,-0.42253 4.81549,7.00178 l 2.61824,4.5203 h 2.21445 c 1.708,0 2.3075,-0.0444 2.62129,-0.19412 z m -58.28343,-32.85481 9.48377,-6.47045 -8.20871,-0.0361 c -4.51479,-0.0199 -8.30772,0.0106 -8.42874,0.0677 -0.12102,0.0571 -0.40932,0.0612 -0.64068,0.009 -0.23136,-0.0521 -0.70895,-0.081 -1.06133,-0.0644 -0.58227,0.0275 -1.50429,0.61778 -10.11436,6.4751 l -9.47368,6.44483 8.1008,0.0624 c 4.45543,0.0343 8.72142,0.0443 9.47997,0.0223 l 1.37919,-0.0401 z m 38.542,1.79785 c 3.78664,-2.59835 7.98393,-5.52389 9.32731,-6.50121 l 2.4425,-1.77695 -7.4803,-0.009 c -4.11416,-0.005 -7.91654,-0.0514 -8.44973,-0.10308 -0.69395,-0.0673 -1.05808,-0.0481 -1.28136,0.0675 -0.17156,0.0888 -0.60023,0.16207 -0.9526,0.16281 -0.60187,10e-4 -1.20767,0.39015 -10.00069,6.41969 -5.14801,3.53008 -9.30785,6.45605 -9.2441,6.50216 0.0638,0.0461 4.30952,0.0565 9.43504,0.0231 l 9.31912,-0.0607 z m -79.98083,-1.80074 9.6102,-6.47933 -6.58985,0.0321 -6.58985,0.0321 -1.14934,0.32988 c -2.87949,0.82644 -5.51907,2.36718 -6.59154,3.8475 -1.11861,1.54403 -1.32017,2.42283 -1.32017,5.75605 v 2.97281 l 1.51018,-0.006 1.51017,-0.006 z m 121.87542,1.59067 7.192,-4.9005 -1.16219,-0.76024 c -1.43732,-0.94021 -3.08514,-1.67572 -4.57936,-2.04402 -1.00324,-0.24729 -1.57945,-0.287 -4.8316,-0.333 l -3.6925,-0.0522 -9.54342,6.49524 -9.54342,6.49524 h 9.48424 9.48425 z"
         id="path2" />
    </g>
  </g>
</svg>
