<?xml version="1.0" encoding="UTF-8" standalone="no"?>
<!-- Created with Inkscape (http://www.inkscape.org/) -->

<svg
   version="1.0"
   width="149.99988"
   height="149.99998"
   id="svg2383"
   xml:space="preserve"
   viewBox="0 0 149.99988 149.99998"
   xmlns="http://www.w3.org/2000/svg"
   xmlns:svg="http://www.w3.org/2000/svg"
   xmlns:rdf="http://www.w3.org/1999/02/22-rdf-syntax-ns#"
   xmlns:cc="http://creativecommons.org/ns#"
   xmlns:dc="http://purl.org/dc/elements/1.1/"><defs
     id="defs2385" /><metadata
     id="metadata2388"><rdf:RDF><cc:Work
         rdf:about=""><dc:format>image/svg+xml</dc:format><dc:type
           rdf:resource="http://purl.org/dc/dcmitype/StillImage" /></cc:Work></rdf:RDF></metadata><g
     transform="translate(1566.6175,184.79866)"
     id="layer1"><path
       style="fill:#000000;stroke-width:0.120348"
       d="m -1486.416,-34.874619 c -1.1635,-0.29829 -2.3385,-1.317354 -2.8894,-2.506003 -0.3477,-0.75037 -0.6483,-2.039017 -0.6483,-2.779672 0,-0.74065 0.3006,-2.029284 0.6483,-2.779666 0.4112,-0.88721 1.3463,-1.84633 2.1872,-2.243401 1.342,-0.63363 3.1499,-0.334671 4.15,0.686242 l 0.3773,0.385083 h 16.5566 c 15.4214,0 16.5811,-0.0143 16.9126,-0.208519 0.3121,-0.18285 0.4302,-0.433561 0.9597,-2.03667 0.3321,-1.005482 1.3857,-4.454543 2.3413,-7.664578 1.8089,-6.075879 3.2696,-10.866941 5.3568,-17.570078 0.6768,-2.173461 1.5332,-4.991361 1.9031,-6.262 0.8208,-2.819359 2.8078,-9.386896 4.2305,-13.983106 0.5796,-1.872521 1.3562,-4.416838 1.7256,-5.654039 0.3694,-1.237201 0.9321,-3.070204 1.2504,-4.073344 0.3182,-1.00313 1.0093,-3.30123 1.5356,-5.10687 1.5215,-5.21974 3.8593,-12.75428 5.0554,-16.29336 0.7319,-2.16574 0.759,-2.37408 0.3704,-2.84559 -0.3773,-0.45773 -2.0498,-1.78397 -4.6966,-3.72434 -1.081,-0.79247 -3.1179,-2.31495 -4.5264,-3.38329 -1.4085,-1.06835 -4.6515,-3.48122 -7.2065,-5.36194 -4.2907,-3.15832 -9.5328,-7.0592 -13.7579,-10.23788 -4.3123,-3.24429 -8.3804,-6.28749 -15.0087,-11.22758 -3.9785,-2.96525 -9.7203,-7.28591 -15.1873,-11.42841 -1.1792,-0.89356 -2.8677,-2.17305 -3.7521,-2.84332 -0.8845,-0.67028 -1.8718,-1.45736 -2.1942,-1.74908 -0.9161,-0.82906 -0.9067,-0.82805 -1.5698,-0.16624 -0.5746,0.57353 -5.0342,4.00106 -10.2917,7.91003 -1.4741,1.09597 -2.9749,2.22028 -3.3353,2.49847 -0.3603,0.27819 -1.2179,0.9105 -1.9058,1.40515 -0.6879,0.49464 -3.2876,2.43487 -5.7772,4.31161 -5.1922,3.91422 -13.1919,9.88845 -17.4505,13.03214 -1.6051,1.18489 -6.0004,4.47853 -9.7675,7.31919 -3.767,2.84066 -9.02,6.74866 -11.6734,8.68442 -5.5558,4.05336 -6.4015,4.72122 -6.5035,5.13589 -0.1175,0.47788 0.1784,1.56264 2.2212,8.14242 1.9288,6.21282 2.2491,7.25373 4.2848,13.92231 1.7567,5.754549 5.2623,17.353281 6.5598,21.704216 0.6582,2.206899 1.9388,6.474786 2.8458,9.484194 0.907,3.009407 2.1142,7.03107 2.6826,8.937029 0.5684,1.905958 1.5959,5.325739 2.2832,7.599514 0.6874,2.273775 1.7047,5.63884 2.2607,7.477922 1.0014,3.311954 1.3983,4.327894 1.6819,4.304366 0.081,-0.0067 7.3753,-0.02037 16.2104,-0.0304 l 16.0639,-0.01824 0.5614,-0.504401 c 0.7836,-0.704068 2.6889,-2.914895 4.6326,-5.37552 0.9056,-1.146408 2.0746,-2.530152 2.5978,-3.074995 0.5921,-0.61663 0.8924,-1.011744 0.7953,-1.046544 -0.086,-0.03075 1.9078,-0.09216 4.4301,-0.136463 11.2245,-0.197162 20.8694,-0.340726 26.261,-0.390907 l 5.8325,-0.05428 0.3369,-0.329527 c 0.2555,-0.249872 0.4634,-0.741688 0.8599,-2.034384 1.9369,-6.314382 2.4284,-7.932105 3.3992,-11.189038 0.5981,-2.006272 1.9641,-6.547742 3.0358,-10.092156 1.0716,-3.544413 2.5919,-8.60569 3.3784,-11.247281 0.7866,-2.641591 2.2611,-7.593435 3.2767,-11.004095 1.0155,-3.41066 2.389,-7.97949 3.052,-10.15295 3.1755,-10.40924 3.1701,-10.38976 3.0451,-10.89784 -0.044,-0.17911 -0.2512,-0.49048 -0.4603,-0.69189 -1.1307,-1.08879 -5.5991,-4.55929 -10.018,-7.78069 -5.537,-4.03658 -9.6442,-7.07252 -11.4104,-8.43432 -0.6356,-0.49006 -1.1886,-0.89103 -1.2289,-0.89103 -0.04,0 0.1099,0.23255 0.3338,0.51677 1.872,2.37672 3.3821,5.8172 4.176,9.51459 0.5724,2.66552 0.8385,6.54996 0.6719,9.80859 -0.1538,3.00884 -0.4743,5.0522 -1.2387,7.89754 -0.7637,2.84268 -1.7459,5.01733 -3.3498,7.41698 l -0.863,1.29103 0.7463,0.95843 c 2.3035,2.958258 3.7832,6.086267 4.6934,9.921298 0.7167,3.019634 0.7796,3.624616 0.7685,7.391276 -0.01,1.905958 -0.075,4.23141 -0.154,5.16767 -0.3474,4.110316 -1.4757,7.888916 -3.3478,11.211655 -1.2048,2.138564 -1.9596,3.135158 -3.9703,5.24234 -3.1495,3.300572 -7.3931,5.669991 -12.3411,6.890595 -1.1996,0.295943 -1.4817,0.313659 -6.9087,0.433938 -3.1119,0.06897 -6.1089,0.08834 -6.66,0.04306 l -1.0019,-0.08233 0.079,-5.840391 c 0.043,-3.212224 0.079,-8.371796 0.079,-11.465734 v -5.625343 l 0.6253,-0.12383 c 0.344,-0.0681 1.0006,-0.178376 1.4592,-0.245032 4.3016,-0.625276 4.785,-0.878906 5.3565,-2.809973 0.1088,-0.367816 0.2266,-1.297997 0.2618,-2.067068 0.076,-1.674701 -0.1196,-2.79262 -0.714,-4.070239 -0.6003,-1.290324 -1.1384,-1.766662 -2.56,-2.26592 -0.6169,-0.216653 -1.1232,-0.229821 -8.8366,-0.229821 h -8.1821 l -0.077,1.367913 c -0.043,0.752352 -0.077,8.548712 -0.078,17.325239 v 15.957315 l -8.1297,0.03206 c -4.4713,0.01763 -9.5099,0.01745 -11.1969,0 l -3.0672,-0.03245 v -31.554279 -31.554249 l 11.0356,0.0112 11.0355,0.0112 -0.064,2.32433 c -0.068,2.45091 -0.014,2.81465 0.4314,2.93682 0.1394,0.0382 3.9046,0.0702 8.3672,0.0711 l 8.1136,0.002 0.8412,-0.42959 c 0.9811,-0.50103 1.431,-1.08398 1.8227,-2.36188 0.3132,-1.02169 0.4269,-2.80198 0.232,-3.6313 -0.1604,-0.68274 -0.7005,-1.28854 -1.2814,-1.43736 -0.3875,-0.0993 -58.7657,0.0484 -62.2172,0.15742 l -2.4465,0.0773 0.9241,2.87038 c 0.5083,1.57871 1.4668,4.70339 2.1301,6.94373 0.6633,2.24034 1.7418,5.82427 2.3966,7.96429 0.6549,2.14002 2.047,6.790925 3.0935,10.335338 1.0466,3.544414 2.3235,7.812301 2.8376,9.484194 0.5141,1.671894 1.2585,4.134136 1.6542,5.471651 0.3958,1.337514 0.8058,2.678069 0.9112,2.979009 0.4002,1.142736 3.7681,12.694752 4.3957,15.077437 0.3611,1.370953 0.7925,2.898917 0.9587,3.395475 0.1662,0.496559 0.3022,1.011076 0.3022,1.143357 0,0.13228 0.1602,0.586585 0.3559,1.009556 0.2525,0.545462 0.4343,0.78596 0.6254,0.827204 0.49,0.105761 14.3846,0.143551 14.3846,0.03912 0,-0.235342 1.1274,-1.307603 1.6268,-1.5472 0.4671,-0.224131 0.7334,-0.256511 1.9664,-0.239148 0.7844,0.01107 1.6184,0.08029 1.8534,0.153887 0.6474,0.202852 1.6382,1.198948 2.0557,2.066837 0.3752,0.780014 0.7126,2.142869 0.7126,2.878295 0,0.665839 -0.3161,2.023209 -0.6385,2.742245 -0.8331,1.857394 -2.9017,3.015098 -4.6765,2.617163 -0.3829,-0.08587 -0.9556,-0.298606 -1.2726,-0.47275 -0.7233,-0.397266 -1.6487,-1.419796 -1.9405,-2.144206 l -0.2228,-0.55288 -6.6705,-0.02515 c -3.6687,-0.01384 -7.8041,-0.01131 -9.1896,0.0056 l -2.519,0.0308 -0.1914,-0.522883 c -1.08,-2.951761 -2.6007,-7.57077 -3.7749,-11.466184 -0.7862,-2.608153 -1.7185,-5.672277 -2.0719,-6.809165 -0.3533,-1.136887 -1.5865,-5.185909 -2.7404,-8.997825 -1.1539,-3.811916 -2.6533,-8.709044 -3.332,-10.882505 -0.6787,-2.173461 -1.8048,-5.839467 -2.5025,-8.146679 -0.6977,-2.307213 -1.8509,-6.082643 -2.5628,-8.389863 -0.7118,-2.30721 -1.6513,-5.37133 -2.0877,-6.80916 -0.4364,-1.43783 -1.1422,-3.73592 -1.5684,-5.10688 -0.6427,-2.06728 -1.7732,-5.9221 -1.872,-6.38359 -0.014,-0.0669 -0.1244,-0.64367 -0.2446,-1.28177 l -0.2186,-1.1602 0.7021,-0.67309 c 0.3862,-0.3702 1.2292,-1.17498 1.8735,-1.78841 l 1.1715,-1.11534 21.6393,0.0103 c 11.9016,0.006 27.6159,0.0516 34.9207,0.10199 l 13.2814,0.0917 0.7743,0.27292 c 2.3172,0.81681 3.8269,2.48012 4.4783,4.93396 0.305,1.14903 0.3666,4.65543 0.1109,6.31967 -0.4298,2.79811 -1.0264,4.08769 -2.6804,5.7943 -0.9572,0.98768 -1.2928,1.24781 -2.147,1.66419 -0.5569,0.27144 -1.4413,0.61635 -1.9654,0.76648 -0.9529,0.27295 -0.9534,0.27295 -12.721,0.31821 l -11.7681,0.0452 0.018,-2.56244 c 0.013,-1.86982 -0.022,-2.61107 -0.1283,-2.74234 -0.1249,-0.15362 -0.882,-0.17991 -5.1807,-0.17991 h -5.0344 l -0.083,3.0702 c -0.1143,4.22696 -0.027,48.197273 0.096,48.322805 0.1297,0.132377 9.9157,0.132377 10.0454,1.2e-5 0.055,-0.05571 0.1261,-7.400395 0.1589,-16.321508 l 0.06,-16.220197 1.1912,-1.22312 1.1912,-1.223109 11.1373,0.03825 11.1374,0.03825 0.8338,0.282945 c 2.5549,0.866965 4.5086,2.473977 5.5618,4.574896 1.0076,2.009737 1.4051,4.02204 1.4051,7.113146 0,4.058675 -0.7652,6.616052 -2.5379,8.482261 -0.4613,0.485676 -1.0914,1.048478 -1.4,1.250674 -0.7239,0.474173 -2.5198,1.213211 -3.0522,1.256011 -0.2273,0.01827 -0.4652,0.111245 -0.5285,0.206585 -0.073,0.109579 -0.087,2.230671 -0.038,5.766585 0.063,4.56242 0.1087,5.644202 0.2488,5.869731 0.1895,0.305099 0.039,0.304321 3.0213,0.01548 5.0557,-0.489713 8.9833,-2.216529 12.2231,-5.374012 3.1303,-3.050859 4.776,-5.795779 5.8102,-9.691412 0.4131,-1.556174 0.5279,-2.205719 0.7309,-4.134136 0.4988,-4.74054 -0.2216,-9.638604 -1.9853,-13.496713 -0.9393,-2.054811 -1.8738,-3.387256 -3.9751,-5.668046 l -1.3571,-1.473078 -0.019,-1.41498 -0.019,-1.41497 0.7078,-0.77235 c 2.6925,-2.9382 4.4629,-6.46819 5.269,-10.50597 0.4845,-2.42662 0.6344,-4.37385 0.564,-7.32481 -0.059,-2.46195 -0.1008,-2.89405 -0.4208,-4.31652 -0.8744,-3.88775 -2.0585,-6.24472 -4.36,-8.67874 -2.8512,-3.01526 -5.2423,-4.28508 -9.4757,-5.03215 l -1.489,-0.26274 -27.8433,-0.0388 c -27.6092,-0.0385 -27.8434,-0.0408 -27.8434,-0.27832 0,-0.13173 0.069,-0.23952 0.1537,-0.23952 0.1411,0 0.8335,-0.52224 4.9391,-3.72526 0.7832,-0.61107 1.5524,-1.18025 1.7093,-1.26484 0.1569,-0.0846 1.7057,-1.20354 3.4419,-2.48656 1.7361,-1.28302 4.711,-3.47344 6.6109,-4.86762 1.8999,-1.39416 4.3924,-3.25416 5.5389,-4.13333 1.1465,-0.87917 3.5778,-2.70675 5.4028,-4.0613 4.2556,-3.15849 5.6788,-4.23341 7.8929,-5.96112 0.9905,-0.77296 2.1697,-1.67831 2.6205,-2.01188 0.4508,-0.33356 1.0206,-0.7913 1.2662,-1.01718 0.4448,-0.40911 0.4478,-0.40986 0.7723,-0.19286 0.1791,0.11982 0.4606,0.34651 0.6254,0.50375 0.1649,0.15724 0.8648,0.64416 1.5555,1.08205 0.6906,0.43789 2.7007,1.89177 4.4668,3.23086 1.7662,1.33909 5.2481,3.98054 7.7376,5.8699 2.4895,1.88936 5.7327,4.30746 7.2069,5.37356 1.4743,1.0661 4.6904,3.47191 7.147,5.34624 2.4566,1.87435 5.6725,4.27501 7.1466,5.3348 1.474,1.05981 3.827,2.80696 5.2288,3.88256 4.2118,3.23166 10.2022,7.72694 14.2466,10.69087 3.8125,2.79393 4.4224,3.2589 5.4127,4.12634 0.2908,0.25481 0.6928,0.54313 0.8933,0.64072 0.2005,0.0976 0.5343,0.33996 0.7418,0.5386 0.4389,0.42034 0.5048,0.008 -0.612,3.83317 -1.425,4.881 -2.1583,7.32671 -3.5184,11.73365 -1.8219,5.90372 -2.6269,8.56254 -3.8102,12.584801 -0.5312,1.805645 -1.4412,4.815053 -2.0223,6.687573 -0.5811,1.87252 -1.3054,4.22533 -1.6096,5.228466 -0.3042,1.003136 -1.1619,3.821036 -1.906,6.262 -2.7579,9.046316 -5.1984,17.165759 -7.1633,23.832077 -0.4238,1.437829 -0.8665,2.833099 -0.9838,3.100602 -0.1173,0.267503 -0.4731,1.204347 -0.7906,2.081878 l -0.5773,1.595509 -19.3643,0.0883 c -16.6321,0.07585 -19.4146,0.113409 -19.7216,0.266251 -0.1965,0.09787 -0.9337,0.879343 -1.6381,1.736592 -1.7321,2.107923 -6.8513,8.161084 -7.1325,8.433657 -0.2162,0.209698 -1.0587,0.216665 -19.6498,0.162447 -10.6832,-0.03116 -19.4504,-0.08369 -19.4828,-0.116753 -0.032,-0.03306 -0.072,-0.133508 -0.088,-0.223231 -0.016,-0.08972 -0.1441,-0.546156 -0.2852,-1.014286 -0.1412,-0.46813 -0.4426,-1.507743 -0.6698,-2.310247 -1.5821,-5.588513 -4.3906,-15.059916 -6.3276,-21.339437 -0.5467,-1.772207 -1.6174,-5.32878 -2.3794,-7.903495 -0.762,-2.574716 -2.0011,-6.705812 -2.7536,-9.180214 -0.7525,-2.474402 -1.9052,-6.277199 -2.5615,-8.45066 -0.6564,-2.173461 -1.6771,-5.511168 -2.2683,-7.417126 -0.5912,-1.905958 -1.3601,-4.450276 -1.7085,-5.654044 -0.3485,-1.20376 -1.0904,-3.69336 -1.6487,-5.53244 -0.5583,-1.83908 -1.2546,-4.16454 -1.5475,-5.16767 -0.2928,-1.00314 -1.2673,-4.20405 -2.1656,-7.11315 -0.8983,-2.90909 -1.9482,-6.33732 -2.3332,-7.61829 -0.385,-1.28097 -0.7306,-2.41027 -0.7679,-2.50957 -0.047,-0.12481 0.3298,-0.49119 1.2203,-1.18684 2.9461,-2.30145 6.625,-5.11485 8.0182,-6.1319 0.819,-0.59781 3.4991,-2.58937 5.9558,-4.4257 2.4568,-1.83633 5.9142,-4.40585 7.683,-5.71003 5.0404,-3.71626 12.928,-9.56424 16.2594,-12.05488 2.67,-1.9962 5.2544,-3.90754 13.6983,-10.13086 1.1465,-0.84498 2.2186,-1.63993 2.3823,-1.76655 0.4668,-0.36086 7.8075,-5.84134 10.5321,-7.86318 5.4193,-4.02135 6.7586,-5.02525 7.9325,-5.94566 1.4163,-1.11055 1.1046,-1.1467 2.8931,0.33553 0.6681,0.55377 1.4828,1.19248 1.8104,1.41936 0.3276,0.22688 1.3246,0.96168 2.2157,1.63288 0.8911,0.67121 2.2512,1.68547 3.0225,2.25391 0.7713,0.56844 3.0172,2.24259 4.9908,3.72032 1.9737,1.47774 5.2234,3.88829 7.2215,5.35679 7.0722,5.19749 10.1185,7.45361 14.7812,10.94719 2.5937,1.94336 7.9539,5.93914 11.9116,8.87951 3.9577,2.94037 8.107,6.02843 9.2207,6.86237 1.1138,0.83395 3.3115,2.46765 4.8838,3.63047 6.8396,5.05816 10.4253,7.89987 12.8159,10.15678 l 0.547,0.51638 -0.4459,1.47746 c -0.2452,0.81262 -0.5567,1.76236 -0.692,2.11056 -0.1354,0.34821 -0.7333,2.21988 -1.3287,4.15927 -0.5954,1.9394 -1.4782,4.81202 -1.9618,6.38359 -0.4836,1.57158 -1.556,5.1008 -2.3833,7.8427 -0.8272,2.74191 -2.382,7.830545 -3.4552,11.308082 -1.0731,3.477538 -2.6729,8.730323 -3.555,11.672855 -4.0192,13.407039 -5.2758,17.583489 -6.0914,20.245106 -0.4816,1.57158 -1.5001,4.936645 -2.2634,7.477923 -0.7632,2.541277 -1.8891,6.289358 -2.502,8.329068 -0.6129,2.039709 -1.3858,4.638743 -1.7177,5.775631 -0.3319,1.136882 -0.6829,2.313287 -0.78,2.614228 -0.097,0.30094 -0.2076,0.737019 -0.2455,0.969053 -0.038,0.232023 -0.081,0.433987 -0.095,0.448785 -0.015,0.01481 -8.5011,0.06618 -18.8591,0.114163 l -18.8327,0.08725 -0.2051,0.354477 c -0.356,0.615172 -1.2661,1.45028 -1.9069,1.749725 -0.701,0.327618 -1.8113,0.455679 -2.4751,0.285498 z m -0.683,-21.085486 c 0,-0.02949 -0.054,-0.08744 -0.1191,-0.128766 -0.066,-0.04133 -0.1192,-0.01721 -0.1192,0.05362 0,0.07083 0.054,0.128766 0.1192,0.128766 0.066,0 0.1191,-0.02412 0.1191,-0.05362 z m 19.4695,-89.544505 c -0.062,-0.0584 -1.2924,-0.97065 -2.7337,-2.02715 -1.4413,-1.05649 -3.6122,-2.66885 -4.8242,-3.58301 -1.212,-0.91414 -3.3561,-2.50997 -4.7647,-3.54626 -7.0553,-5.19074 -11.3262,-8.5112 -11.4826,-8.92724 -0.035,-0.0938 -0.1207,-0.17052 -0.1898,-0.17052 -0.069,0 -0.7274,0.56338 -1.4629,1.25195 -1.635,1.53067 -6.5102,5.35069 -10.0327,7.86116 -1.8852,1.34355 -8.4909,6.24855 -9.004,6.68585 l -0.4025,0.34294 7.3238,0.0737 c 24.4651,0.24628 31.2494,0.34052 32.0999,0.44594 1.1446,0.14187 2.6265,0.5599 4.2676,1.20389 1.3651,0.53572 1.3609,0.53436 1.2058,0.38872 z"
       id="path4" /></g></svg>
